<?xml version="1.0" encoding="UTF-8" standalone="no"?><!DOCTYPE svg PUBLIC "-//W3C//DTD SVG 1.1//EN" "http://www.w3.org/Graphics/SVG/1.1/DTD/svg11.dtd"><svg width="100%" height="100%" viewBox="0 0 144 144" version="1.1" xmlns="http://www.w3.org/2000/svg" xmlns:xlink="http://www.w3.org/1999/xlink" xml:space="preserve" xmlns:serif="http://www.serif.com/" style="fill-rule:evenodd;clip-rule:evenodd;stroke-linejoin:round;stroke-miterlimit:2;"><rect id="SML-ICONS" serif:id="SML ICONS" x="-418.668" y="-36.5" width="646.075" height="896.487" style="fill:none;"/><path d="M129.062,52.414l-25.355,-36.268c-0.931,-1.286 -2.571,-1.822 -4.077,-1.333c-1.502,0.491 -2.518,1.893 -2.51,3.474l0.06,13.122c-0.007,0.207 -0.032,0.835 -0.831,1.261c-0.604,0.32 -1.644,0.487 -2.213,0.16l-10.526,-8.566c-0.164,-0.149 -0.416,-0.377 0.12,-1.392c0.651,-1.229 1.244,-2.49 1.944,-3.982l1.029,-2.176c0.501,-1.048 0.473,-2.27 -0.078,-3.289c-0.547,-1.023 -1.552,-1.722 -2.699,-1.882l-4.155,-0.6c-10.111,-1.485 -11.919,-1.545 -16.465,5.341c-1.069,1.626 -2.486,3.783 -4.692,6.594c-0.23,0.296 -0.511,0.381 -0.702,0.402c-0.238,0.022 -0.522,-0.011 -0.824,-0.274c-5.449,-4.609 -8.875,-4.51 -14.139,0.406l-24.81,24.339c-8.271,6.41 -10.455,13.776 -6.701,22.452l8.26,19.022l0,0.004c1.573,3.824 4.748,6.715 8.708,7.926c3.956,1.204 8.204,0.589 11.642,-1.704l14.66,-9.757c2.433,-1.604 6.222,-3.458 10.473,-3.32c3.921,0.146 6.969,1.449 9.323,3.985l2.18,2.358c3.165,3.428 6.332,6.858 9.685,10.09c4.226,4.073 9.945,6.367 15.804,6.367c0.266,0 0.529,-0.004 0.796,-0.014c5.696,-0.203 10.814,-2.518 14.415,-6.521c6.36,-7.074 11.312,-14.869 14.238,-23.165c3.162,-8.968 3.268,-13.769 -2.56,-23.06Z" style="fill-rule:nonzero;"/><path d="M114.93,112.447l-20.96,0c-1.095,0 -2.135,0.494 -2.824,1.346c-0.689,0.85 -0.963,1.964 -0.735,3.037c1.47,7.01 6.421,17.437 14.039,17.437c7.617,0 12.568,-10.427 14.038,-17.437c0.227,-1.073 -0.046,-2.187 -0.735,-3.037c-0.689,-0.852 -1.729,-1.346 -2.823,-1.346Z" style="fill-rule:nonzero;"/></svg>