<svg xmlns="http://www.w3.org/2000/svg" fill-rule="evenodd" width="100%" height="100%" stroke-linejoin="round" stroke-miterlimit="2" clip-rule="evenodd" version="1.1" viewBox="0 0 590 590" xml:space="preserve"><path d="M-2587-647h4285.86v2543.15H-2587z" fill="none"/><path d="M284.606 406.962c-1.722 7.658-3.784 15.423-6.661 22.739-2.741 6.919-6.548 13.354-11.804 18.687-4.827 4.94-10.582 8.886-16.722 12.074-6.253 3.242-12.869 5.73-19.598 7.767-7.431 2.234-15.361 4.577-23.2 3.405-13.776-2.055-24.969-13.802-30.044-26.236-2.877-7.044-3.194-14.093-3.648-21.57-.226-4.055-.883-8.127-3.172-11.569-1.971-2.974-4.758-5.297-7.069-7.966-8.995-10.361-8.632-25.335-.634-36.056 2.039-2.739 4.373-5.424 5.551-8.687 1.495-4.035-.249-7.765-.952-11.766-1.042-6.183 1.836-12.507 7.206-15.751 1.767-1.513 3.398-3.009 5.097-4.432a289.52 289.52 0 0 1 20.029-15.354 521.447 521.447 0 0 1 5.483-3.73c1.246-.827 2.674-2.089 4.237-2.127 1.382-.034 2.47.904 3.466 1.749 1.518 1.316 3.014 2.648 4.532 3.983 6.162 5.424 12.212 10.955 17.854 16.902 5.573 5.911 10.331 12.273 15.021 18.887 2.425 3.439 5.075 6.63 8.112 9.548 2.967 2.812 6.117 5.408 9.062 8.217 5.868 5.624 10.037 12.272 13.595 19.497 1.699 3.426 3.602 6.922 4.554 10.633.929 3.711.521 7.479-.295 11.156z" fill="#aa80f9" fill-rule="nonzero"/><path d="M584.064 447.613c-2.56 13.3-28.774 2.361-40.488 7.983a193.068 193.068 0 0 1-9.085 4.055c-19.009 11.823-41.01 18.398-62.76 22.922-52.157 10.849-107.848 16.128-159.098-1.821-20.618-7.208-39.899-18.38-56.008-33.211-7.93-7.316-14.977-15.477-20.868-24.524-5.868-8.975-9.969-18.885-12.755-29.228-.227-.793.86-1.155 1.178-.414a116.67 116.67 0 0 0 2.402 5.333 25.826 25.826 0 0 1-.703-3.441c-4.622-4.489-.295-11.624 2.13-15.894 2.741-4.885 6.117-9.426 9.742-13.715 4.35-5.188 9.199-10.035 14.07-14.919.748-.739 1.495-1.496 2.266-2.271 9.108-9.189 17.944-18.615 23.337-30.489 2.492-5.497 3.874-11.514 7.295-16.56 3.376-4.939 8.542-8.109 13.708-10.903a110.654 110.654 0 0 1 5.981-3.047c.93-.449 1.881-.861 2.855-1.278 3.716-1.55 7.069-2.664 10.468-3.333a35.79 35.79 0 0 1 5.505-.723c3.376-2.755 6.911-5.315 10.513-7.785 1.428-.99 2.855-1.962 4.282-2.936 6.911-4.665 14.025-9.135 21.434-13.046 14.977-7.966 30.995-13.676 48.26-14.38 8.11-.342 16.199.306 24.197 1.588 8.678-1.137 17.537-1.228 25.897 1.205 5.211 1.534 9.629 4.108 13.549 7.3 3.331 2.685 6.276 5.819 9.085 9.154.748.575 1.542 1.115 2.266 1.729 3.852 3.117 7.183 6.613 10.173 10.379a44.235 44.235 0 0 1 1.677 2.161 70.403 70.403 0 0 1 2.515 3.498c4.237 6.218 7.839 12.938 11.351 19.714.362.485.703.972 1.02 1.46.566.774 1.11 1.549 1.631 2.342 10.015 14.415 19.576 29.137 28.729 44.059 7.976 12.974 16.087 26.074 22.77 39.768 6.073 12.418 25.83 36.654 21.479 59.268z" fill="#aa80f9" fill-rule="nonzero"/><path d="M511.086 304.518c-16.97 8.125-33.238 18.128-46.13 31.967-6.525 7.01-12.212 14.793-16.471 23.371-4.26 8.56-6.684 17.625-7.976 27.086-.09.54-.974.488-.974-.074.023-10.595 3.399-21.137 8.179-30.49 9.018-17.568 23.496-31.516 39.945-42.149 6.978-4.522 14.296-8.469 21.796-12.053.566.774 1.11 1.549 1.631 2.342z" fill="#fff" fill-rule="nonzero"/><path d="M534.06 199.066c-2.288 9.371-7.046 17.856-13.639 24.904-13.255 14.215-31.675 22.2-49.053 30.111-22.883 10.45-45.699 20.883-68.582 31.102-10.695 4.774-21.48 9.081-32.74 12.325-11.284 3.245-22.499 5.948-34.258 6.578-.838.054-1.223-.723-1.064-1.353a55.996 55.996 0 0 1-4.464-1.659 57.678 57.678 0 0 1-6.82-3.332c-5.438-3.1-11.487-6.829-16.177-11.551a18.356 18.356 0 0 1-1.404-1.477c-1.881-2.073-3.467-4.326-4.645-6.777-4.849-10.073 1.79-22.127 5.823-31.335 8.722-19.985 19.19-39.285 31.787-57.104 24.244-34.331 57.912-63.18 98.626-75.559 21.026-6.397 44.884-8.594 65.004 1.891 9.085 4.74 16.539 11.805 21.614 20.722 5.28 9.263 8.384 19.805 10.287 30.257 1.948 10.596 2.311 21.714-.295 32.257z" fill="#aa80f9" fill-rule="nonzero"/><path d="M478.777 127.626c-.499-1.376-1.903-2.144-3.285-2.418-2.855-.569-6.14-.258-8.995.134-2.13.297-4.305.752-6.367 1.488-5.347.768-10.513 2.384-15.429 4.516-10.422 4.504-20.029 10.866-29.432 17.12-8.972 5.981-17.74 12.289-26.191 18.993-17.129 13.621-33.057 28.885-46.606 46.094a238.105 238.105 0 0 0-10.558 14.525c-3.444 5.207-6.82 10.631-8.746 16.614-1.79 5.531-1.948 11.497.68 16.794 1.133 2.268 2.742 4.25 4.532 6.029 4.213 4.194 8.994 5.589 14.319 1.341 9.516-7.617 17.423-14.33 26.689-22.274a688.507 688.507 0 0 0 41.849-39.047c7.703-7.803 15.202-15.804 22.521-23.944 3.194-2.508 6.321-5.103 9.221-7.948 2.175-2.159 4.259-4.43 6.276-6.754 5.347-4.792 10.581-9.704 15.248-15.108 3.285-3.822 6.344-7.946 8.814-12.362 1.291-2.37 4.304-7.239 4.848-11.127.68-.686.952-1.751.612-2.666z" fill="#202b59" fill-rule="nonzero"/><path d="M326.952 164.298c-5.732 9.133-18.715 9.75-28.299 9.691-5.12-.041-10.92-.052-15.497-2.69-4.418-2.542-5.868-7.415-4.939-12.246 2.198-11.31 11.283-20.278 19.553-27.61.271-.231.702.15.476.424-.227.29-.453.566-.68.841 2.764-1.729 6.344-2.296 9.312-1.38 2.787.852 5.007 3.02 7.477 4.5 2.651 1.558 5.46 2.909 7.953 4.717 7.363 5.394 9.538 15.93 4.644 23.753z" fill="#36d7be" fill-rule="nonzero"/><path d="M387.469 112.133c-20.187-8.757-59.452-15.119-82.313 15.527-26.917 36.083-35.481 57.549-32.785 77.507 3.693 27.25 20.663 37.237 39.99 39.568 19.349 2.334 110.294-5.888 111.858-60.304 1.201-41.145-16.562-63.546-36.75-72.298z" fill="#202b59" fill-rule="nonzero"/><path d="M389.123 120.482c-11.011-6.093-42.777-6.322-43.366-18.606-.611-12.282 11.215-36.571 41.78-33.002 30.587 3.57 41.349 23.069 39.061 41.229-2.311 18.157-12.326 21.61-22.77 21.286-10.468-.32-14.705-10.907-14.705-10.907z" fill="#202b59" fill-rule="nonzero"/><path d="m405.708 236.257-7.364 5.744c-10.376 8.106-20.64 16.354-31.108 24.354-.612.466-1.268.448-1.903.09-9.267-5.231-28.48-31.076-28.48-31.076s12.462-26.561 17.628-35.923c2.854-5.125 6.071-10.171 9.81-14.693 3.738-4.509 7.137.734 9.833 3.691a520.603 520.603 0 0 1 24.334 28.693 550.665 550.665 0 0 1 6.276 8.118c1.382 1.853 3.625 3.91 4.372 6.115.771 2.331-1.925 3.722-3.398 4.887z" fill="#ffc5c5" fill-rule="nonzero"/><path d="M381.012 217.651c-3.694 8.515-8.836 16.349-14.342 23.783-4.69 6.378-9.629 14.032-17.74 16.205-7.795 2.075-17.084-.963-24.289-3.92-3.852-1.572-7.635-3.788-10.467-6.858-1.586-1.738-3.037-3.632-4.373-5.604-2.515-.625-5.075-1.604-6.888-3.486-2.968-3.091-1.563-6.551-.091-10.001 3.626-8.503 1.224-17.018-4.214-24.012-4.576-5.907-8.179-11.895-9.788-19.275-2.016-9.364-.974-19.487 3.331-28.01 4.101-8.103 9.788-14.698 17.083-19.028 8.293-4.921 17.56-5.465 26.735-3.009 8.61 2.271 17.424 6.217 24.72 11.324 7.408 5.162 12.62 12.396 16.924 20.249 4.079 7.465 7.296 15.672 7.976 24.202.77 9.101-.974 19.066-4.577 27.44z" fill="#ffc5c5" fill-rule="nonzero"/><path d="M332.163 209.103c-.43 1.413-1.133 2.687-1.858 3.881-.634 1.06-1.268 2.315-2.198 3.02-1.948 1.529-4.44-.471-5.935-2.057-.726-.787-1.768-1.903-1.995-3.1-.135-.763.159-1.568.726-1.824.543-.781 1.359-1.196 2.175-1.47a17.3 17.3 0 0 1 4.373-1.002c1.359-.136 2.719-.136 4.032.062 1.269.176 1.02 1.352.68 2.49z" fill="#fff" fill-rule="nonzero"/><path d="M400.746 180.473c-.997 9.858-10.898 11.338-18.986 12.201-20.188 2.134-41.01-1.312-59.566-9.43-8.451-3.688-17.74-8.24-23.767-15.477-4.984-5.993-7.047-14.926-2.741-21.805.067-.335.135-.689.226-1.02.407-1.266.929-2.478 1.496-3.666 1.291-2.655 2.31-3.987 3.375-5.276 11.827-14.018 31.244-18.652 48.69-15.314 9.584 1.844 18.896 5.673 27.144 10.88 8.088 5.104 13.82 12.166 17.559 20.951 1.971 4.683 3.421 9.59 4.689 14.525 1.111 4.341 2.334 8.884 1.881 13.431zm-68.628 27.035c-.272-.723-1.133-.78-1.813-.895a15.35 15.35 0 0 0-1.903-.206 16.672 16.672 0 0 0-3.987.303 16.362 16.362 0 0 0-7.138 3.383c-.815.673.227 1.914 1.066 1.257a14.394 14.394 0 0 1 6.457-2.877 14.487 14.487 0 0 1 3.512-.186c.566.041 1.155.113 1.721.22.658.124 1.292.426 1.881-.061.294-.234.34-.612.204-.938z" fill="#202b59" fill-rule="nonzero"/><path d="M327.383 214.416c-.567-1.353-1.926-2.955-2.561-3.451-.906-.727-3.58-.863-4.395.131-1.994 2.502 4.01 5.354 5.641 5.391 1.654.036 1.79-.927 1.315-2.071zm-3.105-20.593c-.158.702-.951 1.142-1.517 1.504a257.79 257.79 0 0 0-2.832 1.79c-1.79 1.133-3.558 2.268-5.348 3.403-1.586 1.022-3.217 2.329-4.984 2.991-1.36.492-2.9.387-3.875-.793-.861-1.051-.974-2.66-.475-3.908.657-1.521 2.084-2.493 3.512-3.173 1.608-.783 3.285-1.35 5.007-1.801 2.809-.75 5.913-1.214 8.836-.831.385-.508 1.405-.705 1.654.303.317.089.272.485.022.515z" fill="#202b59" fill-rule="nonzero"/><path d="M332.39 237.669a37.85 37.85 0 0 0-6.435 4.012 81.084 81.084 0 0 0-5.551 3.822c.793 2.035 2.198 2.744 3.693 3.129 1.564.417 3.603.948 5.143.247 1.564-.734 2.221-2.542 2.72-4.087.679-2.114 1.132-4.325 1.245-6.534.023-.433-.407-.793-.815-.589z" fill="#fff" fill-rule="nonzero"/><path d="M371.088 188.967c-5.868 2.654-11.351 5.286-17.899 5.81-7.296.584-14.614-1.056-21.456-3.456-12.348-4.32-25.353-10.796-32.4-22.319-4.033-6.575-5.347-13.76-4.395-21.336.068-.535-.748-.888-.952-.315-4.962 13.136 3.897 27.592 14.048 35.39 5.89 4.534 12.642 7.821 19.552 10.486 7.319 2.814 15 4.959 22.907 4.941 7.341-.015 16.698-1.964 21.048-8.523.204-.302-.022-.87-.453-.678z" fill="#202b59" fill-rule="nonzero"/><path d="M399.477 202.376c-2.492 15.466-17.061 25.974-32.535 23.468-15.452-2.506-25.965-17.074-23.473-32.542 2.515-15.466 17.083-25.972 32.558-23.466 15.452 2.506 25.965 17.074 23.45 32.54z" fill="#aa80f9" fill-rule="nonzero"/><path d="M364.042 187.578c-.68-1.096-1.428-2.148-2.13-3.233-1.926.093-2.424-1.559-1.745-2.524-3.716-5.166-7.884-10.021-12.212-14.684-9.697-10.499-21.547-22.494-36.682-23.522-12.959-.859-24.379 8.061-29.793 19.326-.137.288-.612.229-.544-.129.113-.89.294-1.792.544-2.665a.626.626 0 0 1-.59-.79c1.518-5.889-1.858-4.223.861-9.681 3.467-6.988 11.714-16.667 16.132-20.043 7.296-5.628 17.446-6.811 26.259-4.91 8.995 1.951 17.175 6.763 23.587 13.298 6.683 6.74 11.464 15.198 14.862 23.982 1.655 4.323 3.241 8.868 4.147 13.397.521 2.493.113 5.585-1.586 7.411.725 1.083 1.472 2.153 2.152 3.267 1.201 1.967-2.061 3.447-3.262 1.5zm191.067 12.136c-1.564 20.525-10.332 40.526-23.496 56.275-6.661 7.964-14.818 15.174-24.628 18.939-3.104 1.208-6.298 1.946-9.539 2.325-.951.127-1.903.199-2.877.251a50.948 50.948 0 0 1-4.123.055 62.567 62.567 0 0 1-1.836-.071c-5.777-.251-11.532-.956-17.332-.541-24.13 1.731-43.706 18.128-64.437 28.779-10.286 5.261-21.275 9.638-32.876 10.522-11.759.884-22.86-2.594-33.169-8.034-8.383-4.419-19.508-10.022-22.544-19.805-.521-1.767-.703-3.659-.521-5.551.43-5.188 3.466-10.2 8.542-11.55-.567-.793.112-1.244.453-.812 2.492.379 2.945 1.496 2.628 2.325 1.337.811 2.832 1.314 4.395 1.529 2.47.327 5.098-.034 7.409-.99 5.619-2.27 9.947-6.937 14.229-11.045l4.078-3.947c3.376-3.297 6.774-6.595 10.128-9.91a1466.163 1466.163 0 0 0 27.392-27.535c17.355-17.895 41.372-36.886 57.367-56.022 7.409-8.92 17.538-16.043 22.318-26.674 2.288-5.1-.385-10.049 1.36-15.312 1.608-4.81-1.133-9.588 3.896-10.581 21.23-4.198 40.353 14.505 52.972 29.049 7.296 8.379 13.436 17.804 16.902 28.416 3.127 9.623 4.102 19.841 3.309 29.915z" fill="#aa80f9" fill-rule="nonzero"/><path d="M257.984 458.011c-.635-.762-1.45-1.446-2.56-2.003l-133.292-58.716c-3.761-1.862-9.063-1.6-11.849.587l-78.938 61.924c-4.871 3.274-1.993 14.482 1.768 16.345l133.269 58.716c3.76 1.864 9.085 1.601 11.872-.587l78.915-61.924c2.786-2.189 4.576-12.48.815-14.342z" fill="#202b59" fill-rule="nonzero"/><path d="M232.631 473.431c-3.444 2.504-7.25 5.259-11.215 8.143l-128.33-59.033c2.334-1.874 4.622-3.675 6.752-5.372l132.793 56.262z" fill="#aa80f9" fill-rule="nonzero"/><path d="M248.445 461.409c.317.109-6.344 5.119-15.814 12.022L99.838 417.169c9.856-7.855 17.128-13.621 17.446-13.821 1.019-.682 130.097 57.701 131.161 58.061z" fill="#ff88c4" fill-rule="nonzero"/><path d="M221.416 481.574c-20.777 14.992-46.13 32.941-47.104 33.263-1.722.541-124.954-51.751-130.074-53.428 0 0 27.596-21.966 48.848-38.868l128.33 59.033z" fill="#fff" fill-rule="nonzero"/><path d="M291.856 461.473c-1.88 4.973-6.525 6.792-11.532 5.567-5.393-1.314-10.694-4.396-15.588-7.01-5.189-2.812-9.856-6.542-15.77-7.767-6.071-1.244-12.189-1.586-18.103-3.641-5.754-1.999-10.898-5.658-16.924-6.954-1.858-.399-2.334-1.681-4.169-1.375-.952 1.171-3.24 3.591-4.056 4.853-3.511 5.37-6.548 12.432-13.752 13.893-6.639 1.333-11.238-3.405-10.763-9.624.272-3.369 1.541-6.666 2.765-9.802 1.427-3.586 4.871-7.211 6.797-10.549 3.239-5.567 5.392-10.642 9.9-15.309a53.297 53.297 0 0 0-2.99-.848c-8.7-2.055-17.922.236-24.062 6.902-4.599 4.973-9.04 13.234-17.605 10.963-4.599-1.205-6.049-3.863-6.321-8.315-2.9 2.255-6.276 2.309-9.085 1.099-5.778-2.449-8.202-9.242-7.137-15.064 1.201-6.757 6.049-12.559 11.306-16.685.43-.344.861-.648 1.314-.974-3.784-1.351-7.613-2.198-11.578-2.83-3.149-.503-6.367-1.061-9.312-2.307-5.777-2.449-8.995-8.503-6.004-14.414 3.648-7.21 11.895-8.487 19.19-7.534 32.355 4.199 65.955 19.714 94.843 34.203 11.577 5.803 22.725 12.253 33.849 18.849 8.271 4.901 17.197 8.687 24.379 15.153.363.308.726.632 1.065.974-1.858 1.856-3.897 3.569-6.026 5.137 5.664 6.108 8.36 15.479 5.369 23.409z" fill="#ffc5c5" fill-rule="nonzero"/><path d="M197.127 383.75c-2.22-.215-4.486-.179-6.707 0-4.191.342-8.428 1.192-12.348 2.669-8.133 3.027-15.565 8.215-21.093 14.938-4.282 5.243-9.108 13.1-8.293 20.31-1.155.487-2.265 1.044-3.534 1.205-1.7.236-3.489-.034-5.007-.829-2.651-1.387-4.35-4.054-5.121-6.883-1.971-7.045 1.971-13.606 6.389-18.776a125.61 125.61 0 0 1 5.529-6.145c.249-.236.43-.433.657-.648 2.809-2.83 5.823-5.444 9.108-7.57 3.217-2.091 6.797-3.605 10.649-4.089 4.078-.506 8.202-.037 12.258.539 3.647.505 7.272 1.065 10.874 1.803a418.185 418.185 0 0 1 8.497 3.675c-.612-.09-1.246-.145-1.858-.199zm-69.874.145c-2.923-.847-5.687-2.379-6.639-5.479-.906-3.008-.022-6.341 2.017-8.684 4.395-5.118 11.827-5.388 17.989-4.524 6.82.956 13.572 2.668 20.188 4.542 6.502 1.838 12.892 3.983 19.236 6.36-5.053-.702-9.833-1.205-14.524-.306-3.874.739-7.499 2.415-10.762 4.631-3.262 2.234-6.23 4.958-8.995 7.767-5.709-2.542-12.552-2.576-18.51-4.307zm153.207 38.599c.408-.467.725-.506 1.042-.506-.521-.251-1.042-.523-1.564-.79-13.888-7.047-27.8-14.111-41.688-21.194-11.578-5.891-23.178-11.802-35.005-17.19a324.413 324.413 0 0 0-9.562-4.216c-12.325-5.282-24.922-9.876-37.927-13.155-11.057-2.812-29.749-8.199-36.886 4.595-3.059 5.497-1.428 12.47 4.214 15.461 3.308 1.747 7.295 2.252 10.921 2.991 3.194.65 6.457 1.55 9.742 1.785-2.47 2.558-4.871 5.207-6.91 8.107-4.056 5.766-6.344 12.921-3.285 19.68 1.404 3.099 3.828 5.676 7.114 6.74 2.56.827 6.117.737 8.496-.831.272.847.589 1.695 1.019 2.524 2.017 3.623 6.164 6.396 10.4 5.533 4.124-.848 6.752-4.38 9.335-7.355 7.296-8.412 18.805-14.108 29.681-10.091-1.949 2.073-3.671 4.343-5.189 6.489-4.509 6.341-8.995 12.486-11.555 19.931-1.926 5.513-4.123 15.208 1.994 18.937 6.412 3.874 13.254-1.584 16.925-6.632 4.576-6.269 8.972-17.065 18.375-16.433 1.201.091 1.608-1.749.385-1.858-5.665-.521-10.445 2.85-13.911 7.028-4.17 5.085-7.024 12.58-13.459 15.301-3.195 1.352-7.318.614-8.27-3.118-.815-3.353.091-7.334 1.042-10.558 1.994-6.777 6.028-12.631 9.335-18.778 2.107-3.911 4.668-7.171 7.817-10.289 1.699-1.658 3.444-3.353 5.596-4.325.363-.161.748-.326 1.02-.594.702-.723.158-1.371-.68-1.389-.589-.018-1.744.705-2.311.954-1.835.814-3.489 1.965-4.985 3.281-7.612-3.244-16.199-2.216-23.404 1.713-3.762 2.073-7.137 4.919-9.992 8.125-2.628 2.938-5.46 7.624-10.06 6.704-5.03-.99-6.797-6.741-6.072-11.172.771-4.541 3.308-8.864 6.027-12.523 4.781-6.38 11.238-11.514 18.534-14.759 3.987-1.785 8.224-3.208 12.551-3.965 2.13-.36 4.26-.559 6.39-.666a46.923 46.923 0 0 1 3.534-.09c1.247.018 2.47-.2 3.693-.164 11.148 5.119 22.091 10.67 32.989 16.218 13.934 7.085 27.868 14.2 41.802 21.3.861.451 1.745.884 2.606 1.333.385.199.747.199 1.042.09a8.3 8.3 0 0 0-1.178-1.835c.091-.127.181-.236.272-.344z" fill="#fff" fill-rule="nonzero"/><path d="M230.886 446.318a212.493 212.493 0 0 1 5.846 3.278 27.022 27.022 0 0 1-5.8-2.991c-.091-.072-.091-.197-.046-.287zm84.511-16.472c-.43 8.739-1.699 17.407-3.92 25.879a129.18 129.18 0 0 1-3.874 12.253c-.431 1.207-.77 2.7-2.198 3.045-1.427.36-15.452 2.284-16.698 1.744-16.155-6.722-20.301-16.594-36.206-23.91-.453 1.387-2.402 1.099-2.13-.306-.611-.956-1.359-1.262-2.084-1.604-.544-.251-.136-1.026.408-.829.656.236 1.291.487 1.948.723.839-6.002.181-12.398 2.855-17.949 2.719-5.605 7.703-7.225 13.617-6.525 15.769 1.858 31.516 4.2 47.263 6.307.498.073 1.042.651 1.019 1.172z" fill="#ffc5c5" fill-rule="nonzero"/><path d="M577.335 470.914c-7.023 14.145-19.1 25.516-32.626 33.426-15.089 8.829-32.127 13.551-49.347 15.948-19.236 2.703-38.879 3.009-58.251 1.999-19.486-1.006-38.653-3.963-57.798-7.604a14253.1 14253.1 0 0 1-29.183-5.531c-8.745-1.658-24.492-6.101-32.49-10.155-13.413-6.813-16.562-16.693-20.097-31.325-2.968-12.292-1.155-25.825 5.121-36.834 1.495-2.578 2.99-4.758 4.667-6.776 6.004-6.811 12.371-12.813 20.233-16.434 4.962-2.27 10.49-3.514 15.973-3.154 5.687.363 10.286 2.631 14.909 5.819 4.372 3.011 8.632 5.118 14.047 4.887 5.279-.236 10.354-2.236 14.908-4.742 8.904-4.883 16.086-12.217 24.696-17.514 7.953-4.921 17.038-7.803 26.351-5.191 8.994 2.542 16.426 8.669 25.33 11.442 10.264 3.174 20.165-.7 29.59-4.613 6.707-2.791 13.368-5.261 20.414-6.251a179.209 179.209 0 0 1 12.416-3.424c8.61-2 17.378-2.993 25.602.991 6.82 3.296 12.19 8.992 16.699 14.937 5.302 6.958 10.082 14.632 12.937 22.941 5.279 15.388 3.082 32.723-4.101 47.158z" fill="#aa80f9" fill-rule="nonzero"/><path d="M313.901 437.078c.023 6.049-.77 36.353-9.402 42.856-1.292.976-9.607-.317-11.012-1.144-2.039-1.222-4.1-2.422-6.14-3.641-3.829-2.264-7.68-4.53-11.509-6.813-.521-.295-.816-1.002-.521-1.593 6.842-14.036 6.185-29.98 5.347-45.335-.068-.727.566-1.337 1.246-1.201 7.431 1.616 14.999 2.994 22.407 4.824 2.448-1.18 5.121-.532 6.956 1.654 2.311 2.717 2.628 6.888 2.628 10.393z" fill="#aa80f9" fill-rule="nonzero"/><path d="M477.916 124.252c-1.631.079-3.081.31-4.667.707-1.224.308-1.156 2.481.181 2.567 1.042.068 2.039.061 3.058.009.068 6.416-1.902 12.529-5.664 17.783-3.693 5.132-8.451 9.478-12.869 13.948-9.674 9.768-19.349 19.526-29.092 29.221-19.484 19.383-39.264 38.469-59.633 56.924a1050.805 1050.805 0 0 1-17.695 15.687c-2.968 2.563-5.846 5.227-8.836 7.758-1.428 1.21-3.104 2.51-5.03 2.667-2.107.167-4.237-1.321-4.237-3.532 0-.78-1.201-.83-1.337-.087-.43 2.153.68 3.904 2.583 4.897 2.243 1.16 4.645.684 6.797-.42 3.013-1.558 5.733-4.042 8.315-6.23a763.402 763.402 0 0 0 8.451-7.269c11.442-9.932 22.657-20.133 33.692-30.516 22.203-20.899 43.75-42.485 65.229-64.136 5.506-5.542 11.578-10.898 16.109-17.301 4.418-6.233 6.593-13.564 6.322-21.198-.023-.863-.839-1.522-1.677-1.479z" fill="#fff" fill-rule="nonzero"/><path d="M199.053 301.797c-9.629 10.11-20.89 19.136-28.525 30.938-.499.759-1.405.886-1.994.145-8.066-9.946-21.683-15.082-34.28-12.864-6.072 1.06-11.238 4.792-17.333 5.585-6.004.811-12.257-.954-17.355-4.108-10.626-6.614-17.174-19.082-20.732-30.725-3.579-11.642-5.369-26.976 3.58-36.671 4.033-4.377 9.381-7.64 14.614-10.397 4.894-2.576 10.173-4.701 15.611-3.766 1.45-.811 2.9-1.568 4.418-2.272 12.28-5.637 25.467-5.007 37.588.795 6.367 3.045 12.122 7.244 17.446 11.857 5.143 4.467 10.399 9.226 14.773 14.468 4.712 5.642 7.182 13.139 10.173 19.771 1.518 3.403 3.308 6.774 4.599 10.268 1.11 3.047-.566 4.851-2.583 6.976z" fill="#ffc5c5" fill-rule="nonzero"/><path d="M148.324 275.955c-2.923 10.884-13.73 21.517-27.732 22.292-.793.036-1.722-.415-1.926-1.081-1.042-3.281-2.13-6.525-2.991-9.822-.34-1.259 1.382-1.964 2.288-1.189 3.83-4.72 12.235-4.307 15.316-9.874 3.308-5.964 2.493-14.741-.226-20.74-1.608-3.481-4.396-6.489-8.564-8.003-1.858-.684-3.897-1.026-5.937-.881-2.152.179-3.851 1.296-5.936 1.604-3.058.448-3.784-1.317-4.033-3.444-.498-4.359-.815-8.721-1.246-13.082-.091-.972 1.699-1.063 1.836-.091.022.326.068.648.113.974.589-.054 1.155-.072 1.722-.106a3.693 3.693 0 0 1 1.88-.687c.793-.09 1.609.125 2.266.542 3.149-.02 6.298.145 9.425.448 3.693.381 8.361.558 11.011 3.082 2.652 2.542 4.487 6.074 6.231 9.101 2.04 3.494 3.784 7.119 5.03 10.864 2.176 6.544 3.263 13.391 1.473 20.093z" fill="#aa80f9" fill-rule="nonzero"/><path d="m128.657 305.137-96.065 20.996-17.333-79.279 96.066-20.994 17.332 79.277z" fill="#aa80f9" fill-rule="nonzero"/><path d="M111.37 225.851c2.221 10.123-17.514 23.033-44.068 28.838-26.554 5.802-49.868 2.299-52.088-7.826-2.198-10.123 17.536-23.036 44.09-28.838 26.554-5.803 49.869-2.3 52.066 7.826z" fill="#aa80f9" fill-rule="nonzero"/><path d="M103.078 227.663c1.722 7.933-14.682 18.257-36.637 23.058-21.977 4.801-41.19 2.261-42.912-5.673-1.745-7.932 14.659-18.255 36.636-23.056 21.955-4.801 41.168-2.261 42.913 5.671z" fill="#202b59" fill-rule="nonzero"/><path d="M128.703 305.128c2.22 10.123-17.514 23.035-44.068 28.835-26.554 5.805-49.868 2.302-52.089-7.821-2.22-10.125 17.514-23.035 44.068-28.838 26.554-5.805 49.891-2.299 52.089 7.824z" fill="#aa80f9" fill-rule="nonzero"/><path d="M164.297 267.268c-7.182 2.397-14.931-2.044-19.349-7.991-2.402 6.165-4.26 21.143-12.643 21.143-8.269 0-12.257-8.091-12.959-15.246-.635-6.432-.522-13.696 1.495-20.092 1.269-7.712 6.661-14.399 13.866-17.786 8.519-3.999 19.009-3.063 26.871 2.037 7.477 4.828 29.636 21.139 32.649 50.224.952 9.095-20.958-15.298-29.93-12.289z" fill="#ffc5c5" fill-rule="nonzero"/><path d="M212.919 315.817c-.543 2.719-2.333 4.756-4.26 6.63-1.993 1.912-4.055 3.784-6.094 5.66-7.703 6.955-16.019 13.569-25.806 17.189-.499.451-1.201.687-1.972.703-.838.288-1.472.163-1.699-.27-1.835-.992-2.923-3.117-3.897-4.703-2.017-3.263-4.01-6.505-6.027-9.748-1.268-2.054-3.24-4.325-2.039-6.828 1.246-2.615 4.078-4.833 6.004-6.958 2.175-2.416 4.373-4.829 6.571-7.262a8245.478 8245.478 0 0 1 13.821-15.137c2.809-3.1 7.182-9.822 12.257-8.342 2.515.718 3.648 3.493 4.78 5.585a150.688 150.688 0 0 1 3.807 7.461c2.266 4.721 5.642 10.56 4.554 16.02z" fill="#aa80f9" fill-rule="nonzero"/><path d="M14.466 357.717c2.13-3.806 1.631-5.111 14.297 0 12.687 5.112 101.911 40.379 112.605 45.625 10.672 5.249 13.164 7.964 15.022 16.847 1.88 8.882 11.736 71.914 13.095 76.246 1.36 4.33-.135 9.597-1.699 12.527-1.586 2.927-17.446-5.123-17.446-5.123L28.763 411.568l-14.297-53.851z" fill="#fff" fill-rule="nonzero"/><path d="m167.763 506.248-14.704-87.921c-.521-3.106-3.716-6.802-7.137-8.252 0 0-126.019-53.065-126.245-53.164-6.888-2.903-13.118 2.41-12.031 9.055.725 4.573 1.518 9.143 2.289 13.712 2.401 14.406 4.803 28.814 7.227 43.221 1.586 9.473 3.15 18.946 4.736 28.419.521 3.106 3.715 6.799 7.136 8.252l126.268 53.164c5.325 4.765 12.96-3.38 12.461-6.486z" fill="#202b59" fill-rule="nonzero"/><path d="M90.526 450.083c-5.619 13.166-19.78 1.568-21.049-7.928-.634-4.705.431-11.179 5.71-12.327 9.697-2.105 18.964 11.731 15.339 20.255z" fill="#aa80f9" fill-rule="nonzero"/><path d="M269.924 384.509c-3.421-1.604-4.508-6.344-5.755-9.622-1.54-4.038-3.262-7.985-5.234-11.823a137.78 137.78 0 0 0-6.457-11.353c-.226-.324-.43-.648-.657-.972.748-.739 1.495-1.496 2.266-2.271.249.397.521.793.793 1.172 2.424 3.475 4.644 7.064 6.593 10.812a121.753 121.753 0 0 1 5.392 11.568c.771 1.892 1.451 3.841 2.266 5.73.771 1.802 1.926 3.424 2.402 5.336.249.954-.635 1.856-1.609 1.423zm40.874 36.414c-1.337-3.559-3.988-6.552-5.642-9.987-1.608-3.378-2.764-7.019-3.33-10.721-1.337-8.859.385-17.89 1.97-26.602a349.996 349.996 0 0 1 2.561-12.747c.906-4.225 2.56-8.695 2.787-13.016.226-4.112-2.334-8.073-4.011-11.671-1.88-4.051-3.557-8.449-6.026-12.191-.431-.664-1.383-.123-1.201.591 1.155 4.538 3.376 8.915 5.166 13.229.883 2.144 1.948 4.269 2.696 6.464.929 2.674.339 4.946-.34 7.588a335.296 335.296 0 0 0-5.665 26.266c-1.427 8.214-2.514 16.631-.838 24.896a42.107 42.107 0 0 0 3.807 10.742c1.585 3.122 3.625 6.561 6.819 8.267.68.363 1.541-.385 1.247-1.108zm183.771-143.419a70.403 70.403 0 0 1 2.515 3.498c-2.81-1.171-5.642-2.342-8.474-3.514-1.11-.453-2.175-.901-3.262-1.352-18.715-7.767-38.178-17.532-58.977-16.272-8.746.523-17.355 2.811-25.263 6.631-3.942 1.91-7.725 4.289-11.305 6.847-3.625 2.579-6.662 5.784-10.173 8.469-.634.488-1.609-.342-1.201-1.044 2.469-4.253 6.571-7.713 10.422-10.721 3.897-3.046 8.27-5.495 12.779-7.552 8.315-3.802 17.446-6 26.622-6.269 10.173-.306 20.142 1.892 29.748 5.118 10.672 3.566 21.026 8.197 31.403 12.541 1.156.487 2.311.972 3.489 1.459a501.41 501.41 0 0 0 4.554 1.91c-.951.127-1.903.199-2.877.251zm-156.583 24.49a46.061 46.061 0 0 1-7.726-.92 45.023 45.023 0 0 1-14.863-5.818c-3.421-2.127-6.661-4.543-9.901-6.974-.363-.269-.702-.541-1.088-.813.93-.449 1.881-.861 2.855-1.278a18.356 18.356 0 0 1-1.404-1.477c.248.161.475.324.702.487.408.27.793.523 1.178.793 2.855 1.928 5.641 3.929 8.587 5.694 6.48 3.946 13.821 6.289 21.433 6.595 2.357.091 2.629 3.802.227 3.711z" fill="#fff" fill-rule="nonzero"/><path d="M217.972 133.095c-2.266 2.574-4.305 5.513-5.143 8.863-1.383 5.445.611 10.724 1.948 15.969 1.201 4.72 1.744 9.493.249 14.215-1.337 4.201-3.942 7.858-7.182 10.812-15.882 14.489-39.65 12.237-59.452 14.94-11.17 1.53-21.774 4.776-30.836 11.675-8.27 6.29-15.43 13.948-23.405 20.616-8.383 7.01-17.945 11.424-28.752 13.118-11.419 1.786-23.065.884-34.507-.072-.543-.034-.793-.342-.883-.718-.431.34-1.246.161-1.224-.487.181-3.931 1.722-7.371 4.056-10.488 2.787-3.712 6.548-6.632 9.878-9.804 3.285-3.118 5.982-6.432 7.817-10.597 3.671-8.233 3.761-17.892 4.554-26.742.816-8.793 2.039-17.874 7.228-25.281 5.664-8.163 15.089-11.281 24.22-13.893 4.713-1.35 9.516-2.685 13.889-4.919 4.328-2.198 7.839-5.351 10.762-9.208 5.823-7.821 8.814-17.373 13.571-25.824 5.144-9.135 12.484-16.27 21.865-21.028 10.286-5.227 21.705-7.389 33.169-7.839 6.299-.252 12.621-.073 18.897.308 6.094.36 12.234.648 18.193 1.819 10.06 1.962 20.482 7.515 23.722 17.947 5.234 16.777-13.481 26.2-22.634 36.618z" fill="#202b59" fill-rule="nonzero"/><path d="M189.582 114.596c-.09.573-.906.584-1.019.013-.34-1.919-.907-4.071-1.813-5.399-.974-1.43-2.515-2.252-3.534-2.667 1.019-.557 2.424-.994 3.398-2.286 1.201-1.606 1.881-4.907 2.221-7.477.068-.437.702-.444.747-.006.34 2.326.884 5.226 1.745 6.819.906 1.65 2.243 2.25 3.104 2.47-.861.777-2.311 1.581-3.399 3.147-.634.933-1.133 3.269-1.45 5.386zM89.574 190.107s-.793-2.205-2.266-3.695c-1.495-1.489-3.761-2.33-3.761-2.33s1.836-.226 3.761-2.141c1.655-1.665 2.266-3.885 2.266-3.885s.385 2.317 1.926 3.838c1.518 1.52 4.078 2.188 4.078 2.188s-2.061.254-3.806 1.99c-1.745 1.74-2.198 4.035-2.198 4.035zm59.656-51.957s-1.042-2.995-3.081-5.021c-2.017-2.026-5.121-3.17-5.121-3.17s2.515-.306 5.121-2.909c2.266-2.261 3.081-5.279 3.081-5.279s.544 3.149 2.606 5.216c2.062 2.066 5.574 2.972 5.574 2.972s-2.81.347-5.189 2.708c-2.356 2.363-2.991 5.483-2.991 5.483zm21.592 39.534s-.748-2.148-2.197-3.6c-1.451-1.452-3.671-2.273-3.671-2.273s1.813-.222 3.671-2.086c1.631-1.625 2.197-3.789 2.197-3.789s.408 2.259 1.881 3.741c1.495 1.482 4.01 2.134 4.01 2.134s-2.039.247-3.716 1.94c-1.699 1.695-2.175 3.933-2.175 3.933zm-87.614 17.118a2.646 2.646 0 0 0-.816-1.199c-1.02-.589-1.473-.677-1.948-.65a2.082 2.082 0 0 0-1.02.297c-.34.133-.634.351-.861.647a2.1 2.1 0 0 0-.499.918 2.243 2.243 0 0 0-.158 1.026c.295 1.163.566 1.562.951 1.89 1.02.589 1.473.68 1.949.65a2.06 2.06 0 0 0 1.019-.297c.341-.135.635-.351.862-.645a2.11 2.11 0 0 0 .498-.92c.136-.324.181-.669.158-1.024l-.135-.693z" fill="#fff" fill-rule="nonzero"/><path d="M304.454 100.333a14.057 14.057 0 0 1-2.56 4.361c-3.15 3.657-7.885 5.472-12.326 7.387-10.785 4.66-15.679 15.572-28.231 17.235-5.709.754-12.597-2.644-12.189-9.208.203-3.147 1.857-6.004 3.579-8.648 8.542-13.173 24.493-33.714 42.777-29.352 8.112 1.935 11.555 10.943 8.95 18.225zM202.112 45.67c-.453 4.713-3.557 8.986-10.332 10.747-5.596 1.452-12.031.605-16.404-3.401-3.534-3.238-5.573-8.263-4.644-13.048.952-4.949 4.961-8.796 9.448-10.667 12.461-5.18 22.929 6.548 21.932 16.369z" fill="#202b59" fill-rule="nonzero"/><path d="M273.504 463.186c-3.013-1.231-5.551-3.372-8.315-5.037-5.347-3.215-11.238-5.406-17.197-7.148-6.162-1.797-12.416-3.179-18.624-4.754a133.908 133.908 0 0 1-9.153-2.673c-1.768-.578-3.467-1.255-5.211-1.903-1.383-.515-2.833-1.244-4.305-1.376 1.178 2.486 4.146 3.675 6.366 4.69 2.651 1.219 5.415 2.2 8.202 3.1 5.755 1.864 11.623 3.249 17.491 4.789 5.869 1.55 11.759 3.304 17.243 5.943 5.233 2.506 9.901 6.65 15.724 7.663.43.072.974-.052 1.223-.426 1.45-2.125-2.243-2.383-3.444-2.868z" fill="#fff" fill-rule="nonzero"/><path d="M282.658 444.768c-.408 4.558-1.11 9.099-2.266 13.533-.521 2.071-1.314 4.017-2.13 5.981-.635 1.514-.997 3.351-2.56 4.074-1.133-1.967.023-3.587.476-5.173.521-1.801.951-3.622 1.405-5.442.974-3.766 1.608-7.64 2.039-11.514.407-4.038.543-8.109.521-12.183-.046-3.639-.091-7.495-2.289-10.578-.407-.864.091-1.639.816-1.711 1.994 1.658 2.401 2.27 2.696 2.918 1.178 2.2 1.586 4.722 1.677 7.355.181 4.234-.023 8.523-.385 12.74zm26.667-5.128c-.431-3.96-1.314-10.78-5.597-12.45-.589 2.477.431 4.326.998 6.319a39.603 39.603 0 0 1 1.381 7.074c.454 4.57.386 9.21.295 13.796-.181 8.897-.68 19.168-6.412 26.4-.521.657.431 1.502.974.854 2.991-3.544 5.212-7.846 6.729-12.214 1.587-4.586 1.722-9.727 1.881-14.535.159-5.055.295-10.207-.249-15.244z" fill="#fff" fill-rule="nonzero"/><path d="M494.206 395.627c-4.825.666-9.697 1.026-14.5 1.819-4.849.811-9.674 1.729-14.591 1.369-9.426-.685-16.427-7.153-24.968-10.359-17.288-6.489-31.992 10.001-44.521 19.082-6.707 4.846-15.226 9.946-23.836 8.396-4.214-.738-7.477-3.459-11.17-5.369-3.081-1.586-6.344-2.613-9.765-3.17-7-1.156-14.274-.22-20.799 2.576-6.797 2.9-11.124 7.948-15.769 13.424-4.351 5.137-10.264 10.237-17.423 7.731-3.173-1.117-5.325-3.405-7.84-5.479-2.198-1.801-4.667-3.675-7.522-3.659a5.91 5.91 0 0 0-.952.091c-1.042.236-1.291-.091-1.268-.378 7.069-2.792 12.914 3.262 18.918 4.54 8.089 1.713 12.847-8.055 17.605-12.846 10.059-10.253 25.942-14.451 39.786-10.561 3.602 1.011 6.933 2.506 10.105 4.452 4.123 2.522 7.726 4.289 12.688 3.188 8.428-1.856 15.542-8.125 22.045-13.424 6.729-5.461 13.64-10.885 21.932-13.658 8.247-2.776 16.268-1.876 23.926 2.089 3.602 1.874 7.046 4.074 10.739 5.766 3.92 1.82 7.93 2.633 12.258 2.379 8.156-.485 17.763-4.812 25.375-.324 1.088.63.794 2.162-.453 2.325zm-346.607-6.036c-.023.324-.227.612-.635.648.227-.236.408-.433.635-.648zM400.225 194.45c0 13.298-10.785 24.08-24.084 24.08-13.3 0-24.085-10.782-24.085-24.08 0-13.299 10.785-24.082 24.085-24.082 13.299 0 24.084 10.783 24.084 24.082zm-256.252 55.535c-1.699 3.204-1.608 6.72-1.631 10.243-.022 4.237-.77 8.39-2.469 12.287-1.36 3.086-3.942 7.35-7.772 7.495-3.602.134-6.638-4.241-8.315-6.946-4.236-6.888-4.758-15.351-3.489-23.167 1.065-6.628 3.285-15.79 9.403-19.619-6.367 1.099-8.791 7.015-10.536 12.525-2.288 7.207-3.398 14.781-1.835 22.254 1.314 6.237 4.735 13.168 10.286 16.691 5.619 3.566 11.283-.872 14.025-5.87 1.994-3.637 3.149-7.849 3.489-11.968.363-4.212-.634-8.795 1.428-12.677.86-1.633-1.722-2.881-2.584-1.248z" fill="#fff" fill-rule="nonzero"/><path d="M172.363 293.491c-8.677-2.241-14.591-8.582-17.99-16.651-1.654-3.922-2.945-8.02-4.803-11.856-.838-1.736-1.812-3.568-3.127-5.005-.068-.095-1.631-1.951-1.993-1.251-.612 1.215.883 3.299 1.382 4.425.861 1.976 1.608 4.02 2.333 6.047 1.495 4.142 2.855 8.325 4.826 12.269 3.852 7.604 10.49 13.116 18.737 15.294.522.14 1.269-.1 1.587-.551.271-.39.476-.704.407-1.192-.113-.781-.589-1.332-1.359-1.529z" fill="#fff" fill-rule="nonzero"/><path d="M150.046 270.329c-.227-1.165-2.266-1.027-2.334.152-.204 2.861-.363 5.691-1.223 8.448a21.76 21.76 0 0 1-4.169 7.6c-1.926 2.265-4.282 4.019-6.798 5.58-2.628 1.629-5.664 2.694-8.11 4.534-.567.414-.341 1.509.453 1.386 3.194-.485 6.344-2.145 9.153-3.702 2.9-1.613 5.596-3.738 7.726-6.299 3.897-4.717 6.503-11.546 5.302-17.699zm-22.476 9.813c-.204-.279-.499-.512-.861-.565-.317-.047-.725-.022-.974.202l-2.379 2.082c-.589 1.115-.544 1.507-.34 1.761.181.263.476.482.793.534.317.048.702.016.951-.192.816-.657 1.632-1.319 2.447-1.978.635-1.167.567-1.577.363-1.844z" fill="#fff" fill-rule="nonzero"/><path d="M122.449 274.851c-.679-2.916-1.359-5.827-2.039-8.741-.679-2.914-1.337-5.827-2.016-8.741-.317-1.346-.612-2.689-.929-4.033-.272-1.106-1.858-5.535.612-5.093-.703-1.851-2.311-.447-2.492.874-.227 1.536.498 3.449.838 4.93l1.359 6.066 2.583 11.448c.861 3.852 1.428 8.041 2.764 11.753.204.593 1.178.444 1.11-.216-.294-2.762-1.178-5.544-1.79-8.247zm6.322 25.995c-.363-1.641-.793-3.596-1.79-4.962-.544-.743-1.586-.159-1.382.684.317 1.473 1.042 2.857 1.382 4.341.363 1.493.543 3.02.589 4.552.068 3.104-.453 6.348-2.084 9.033-3.263 5.359-9.403 7.574-14.773 10.162-.521.254-.294 1.053.295.881 6.208-1.803 12.733-4.69 16.131-10.49 1.632-2.751 2.175-6.036 2.175-9.187 0-1.686-.18-3.367-.543-5.014zm-37.565-9.498a15.863 15.863 0 0 1-1.088 3.02c-5.03 10.506-21.479 15.024-30.542 7.18-4.169-3.607-6.344-9.405-5.528-14.861 1.631-11.088 13.322-16.585 23.609-14.765 9.13 1.606 15.656 10.585 13.549 19.426zm3.285-83.473c-2.379-.898-2.629-.671-2.764-.383 2.764.485 2.764.432 2.764.383zm79.073-113.977c-3.285 0-2.946 5.1.34 5.1 3.285 0 2.945-5.1-.34-5.1zm-3.965 38.112c-1.45 0-1.292 2.234.136 2.234 1.45 0 1.291-2.234-.136-2.234zm-68.855 24.834c-.227-.181-.521-.306-.816-.274 1.178.768 1.065.462.816.274zm98.536 1.122c-3.037 0-2.719 4.681.294 4.681 3.036 0 2.719-4.681-.294-4.681zm-60.178 28.903c-1.155 0-1.019 1.77.114 1.77s1.019-1.77-.114-1.77zm40.987-22.423c-.702 0-.634 1.094.068 1.094.725 0 .634-1.094-.068-1.094zm89.428-54.291c-.114-.365-.341-.671-.612-.925-.793-.453-1.133-.521-1.495-.498-1.722 3.115-1.519 3.421-1.224 3.675.77.453 1.11.519 1.473.498 1.926-2.397 1.903-2.574 1.858-2.75zm8.926-6.131c-.543 0-.498.843.046.843.543 0 .498-.843-.046-.843zm12.734-6.276c-.793.92-1.632 1.821-2.447 2.721-.748-.487-1.065-.954-1.36-1.423-.317-.449-.68-.902-.815-1.405.543-1.171 1.586-2.216 2.605-3.262.929 1.026 1.473 2.018 2.062 3.009.045.126.045.253-.045.36z" fill="#fff" fill-rule="nonzero"/><path d="M247.245 293.36c-.046-.161-.114-.721-.249-1.251a40.002 40.002 0 0 0 10.399 6.562 129.095 129.095 0 0 1-8.111 5.571 751.672 751.672 0 0 1-1.269-6.972 214.392 214.392 0 0 0-.77-3.91zm12.235 4.354a38.624 38.624 0 0 1-12.19-7.51c-.703-.624-1.586.249-1.292.956-.339.229-.339.648-.294 1.022.045.675.159 1.35.249 2.021.159 1.252.385 2.494.589 3.74.431 2.592.839 5.182 1.269 7.772.113.65.748 1.006 1.337.654 3.625-2.161 7.091-4.57 10.444-7.161.454-.368.544-1.24-.112-1.494zm-46.924-105.953c-5.052 3.707-10.92 6.931-16.879 8.845-3.988 1.274-7.817 1.509-11.85.44-3.036-.802-6.23-2.051-9.402-1.237-3.399.874-5.868 4.977-9.584 2.286-2.945-2.143-2.447-5.597-1.133-8.499 1.495-1.441 3.036-2.778 4.894-3.756 2.719-1.426 5.755-2.241 8.746-2.787 5.754-1.047 11.668-1.079 17.287-2.798 5.279-1.618 9.629-4.847 12.439-9.634 1.314-2.234 2.243-4.699 2.832-7.216.634-2.64.634-5.388 1.314-8.014.929-3.53 3.534-5.438 7.069-3.356 2.538 1.496 4.418 4.083 5.528 6.77 1.949 4.788 1.79 10.391 0 15.201-2.107 5.66-6.48 10.234-11.261 13.755zm7.976-36.535c-2.153-1.656-4.985-2.784-7.59-1.538-2.288 1.09-3.263 3.584-3.761 5.902-.68 3.104-.748 6.249-1.722 9.301-1.111 3.496-3.013 6.793-5.755 9.271-6.367 5.764-15.543 5.372-23.518 6.632-6.027.951-14.138 3.09-16.834 9.239-1.337 4.491-.136 9.138 4.259 10.708 3.059 1.083 4.985-.56 7.432-2.08 3.783-2.327 7.998-.07 11.895.748 7.204 1.52 14.251-1.665 20.482-4.946 6.026-3.156 11.872-7.101 16.086-12.511 6.684-8.587 8.678-23.296-.974-30.726zm-21.456-99.904c-4.532 5.56-13.663 7.321-20.46 6.279-3.444-.526-6.932-2.182-8.7-5.329-1.744-3.122-1.858-7.253-1.133-10.679.974-4.497 3.988-8.301 7.93-10.293 2.515-.7 4.985-.967 7.726-1.028 3.852-.089 7.703.204 10.762 2.784 2.538 2.13 5.053 5.141 6.072 8.32 1.156 3.48.068 7.166-2.197 9.946zm-.046-17.232c-1.518-1.713-3.24-3.327-5.347-4.299-2.175-.992-4.554-1.273-6.933-1.336-2.605-.075-6.208-.272-9.153.577-4.441 1.124-8.293 4.489-10.173 8.966-3.127 7.468-1.383 17.434 6.683 20.794 4.26 1.77 9.086 1.609 13.549.827 4.079-.713 8.134-2.125 11.284-4.903 2.854-2.526 4.871-6.144 4.985-10.012.112-4.123-2.244-7.66-4.895-10.614z" fill="#36d7be" fill-rule="nonzero"/><path d="M308.056 111.167c-4.577 5.08-10.513 7.568-16.041 10.629-5.121 2.837-9.448 6.414-13.617 11.014-4.191 4.628-8.791 10.512-14.636 11.67-2.833.567-5.869-.315-7.387-3.532-1.359-2.844-1.223-6.471-.725-9.586 2.198-13.336 10.559-24.674 18.466-34.301 1.45-1.549 2.945-3 4.554-4.248 5.347-4.16 11.6-5.429 17.854-5.383 2.922.02 5.868.319 8.768.72 3.534.483 7.069.764 8.292 5.551 1.677 6.546-1.699 13.207-5.528 17.466zm4.758-23.039c-2.424-2.268-6.117-2.166-9.018-2.499-7.499-.861-15.429-.941-22.43 2.909-6.82 3.752-11.623 10.549-15.973 17.731-5.098 6.736-9.38 14.272-11.329 23.214-1.246 5.805-.974 13.599 4.124 16.522 5.528 3.181 11.85-1.47 16.086-5.63 5.393-5.331 9.947-11.379 16.291-15.158 6.072-3.623 12.801-6.063 18.035-11.48 4.169-4.323 7.68-10.513 7.318-17.487-.159-3.022-1.065-6.224-3.104-8.122zM541.197 292.9c-.77.195-1.608.521-2.402.491-.792-.031-1.11-.634-1.268-1.332-.181-.77-.25-1.57-.386-2.349-.226-1.516-.475-3.03-.724-4.545.86-.068 1.223-.188 1.608-.281a764.8 764.8 0 0 1 2.334-.567l2.311-.564c.657-.161 1.563-.528 2.221-.272.566.213.769.891.951 1.409.249.735.498 1.473.725 2.21l1.359 4.076c-1.45.355-2.855.722-4.282 1.092l-2.447.632zm8.134-1.482-1.699-5.198c-.43-1.293-.725-3.194-2.085-3.858-.656-.317-1.382-.263-2.061-.122-.861.172-1.722.403-2.56.607-.907.217-1.813.433-2.697.65-.453.109-.906.213-1.359.324-.453.118-.748.306-1.133.569.136 2.492.385 4.368.634 6.242.159 1.312.204 3.099 1.677 3.648.68.246 1.404.131 2.062-.016.974-.206 1.948-.444 2.922-.666 1.971-.456 3.943-.9 5.892-1.376.339-.083.521-.5.407-.804z" fill="#ffce76" fill-rule="nonzero"/><path d="M226.514 257.906c-1.405-1.559-3.626-1.987-5.529-1.056-2.175 1.069-3.625 3.566-3.013 5.984.136.584 1.019.278.883-.297-.408-1.781.657-3.598 2.152-4.513 1.451-.877 3.195-.748 4.419.405 1.065.995 1.631 2.595 1.359 4.035-.271 1.494-1.495 2.531-2.945 2.824a4.614 4.614 0 0 1-2.765-.338c.726.007.771-.517.476-.698-.747-.437-1.631-.648-2.469-.861-.521-.138-.884.521-.612.949 2.175 3.456 8.179 2.948 9.403-1.064.589-1.86-.068-3.965-1.359-5.37z" fill="#ff88c4" fill-rule="nonzero"/></svg>