<?xml version="1.0" encoding="UTF-8" standalone="no"?><!DOCTYPE svg PUBLIC "-//W3C//DTD SVG 1.1//EN" "http://www.w3.org/Graphics/SVG/1.1/DTD/svg11.dtd"><svg width="100%" height="100%" viewBox="0 0 666 666" version="1.1" xmlns="http://www.w3.org/2000/svg" xmlns:xlink="http://www.w3.org/1999/xlink" xml:space="preserve" xmlns:serif="http://www.serif.com/" style="fill-rule:evenodd;clip-rule:evenodd;stroke-linejoin:round;stroke-miterlimit:2;"><rect id="Artboard4" x="-2549" y="-1896" width="4285.86" height="2543.15" style="fill:none;"/><path d="M636.089,387.966l0,145.39c0,8.746 -6.933,15.86 -15.475,15.86l-273.38,0c-8.541,0 -15.474,-7.114 -15.474,-15.86l-0,-145.39c-0,-8.746 6.933,-15.837 15.474,-15.837l273.38,-0c8.542,-0 15.475,7.091 15.475,15.837Z" style="fill:#fff;fill-rule:nonzero;"/><path d="M293.447,323.756l-0,151.553c-0,5.619 -6.934,10.173 -15.498,10.173l-230.377,0c-8.542,0 -15.452,-4.554 -15.452,-10.173l-0,-151.553c-0,-5.619 6.91,-10.173 15.452,-10.173l230.377,0c8.564,0 15.498,4.554 15.498,10.173Z" style="fill:#fff;fill-rule:nonzero;"/><path d="M636.067,186.182l-0,141.267c-0,8.746 -5.687,15.837 -12.711,15.837l-244.402,0c-2.786,0 -5.37,-1.11 -7.454,-3.013c-3.195,-2.877 -5.257,-7.545 -5.257,-12.824l0,-141.267c0,-8.768 5.687,-15.86 12.711,-15.86l244.402,0c7.024,0 12.711,7.092 12.711,15.86Z" style="fill:#fff;fill-rule:nonzero;"/><path d="M636.089,387.966l0,6.639l-304.329,-0l-0,-6.639c-0,-8.746 6.933,-15.837 15.474,-15.837l273.38,-0c8.542,-0 15.475,7.091 15.475,15.837Z" style="fill:#202b59;fill-rule:nonzero;"/><path d="M636.067,186.182l-0,5.257l-269.824,-0l0,-5.257c0,-8.768 5.687,-15.86 12.711,-15.86l244.402,0c7.024,0 12.711,7.092 12.711,15.86Z" style="fill:#202b59;fill-rule:nonzero;"/><path d="M382.285,176.372c-2.425,-0 -4.395,2.016 -4.395,4.509c-0,2.492 1.97,4.508 4.395,4.508c2.446,0 4.418,-2.016 4.418,-4.508c-0,-2.493 -1.972,-4.509 -4.418,-4.509Z" style="fill:#aa80f9;fill-rule:nonzero;"/><path d="M396.989,176.372c-2.424,-0 -4.395,2.016 -4.395,4.509c-0,2.492 1.971,4.508 4.395,4.508c2.425,0 4.396,-2.016 4.396,-4.508c-0,-2.493 -1.971,-4.509 -4.396,-4.509Z" style="fill:#36bfe3;fill-rule:nonzero;"/><path d="M411.263,176.372c-2.447,-0 -4.418,2.016 -4.418,4.509c-0,2.492 1.971,4.508 4.418,4.508c2.424,0 4.396,-2.016 4.396,-4.508c-0,-2.493 -1.972,-4.509 -4.396,-4.509Z" style="fill:#ffce76;fill-rule:nonzero;"/><path d="M293.447,329.624l-0,7.16l-261.327,-0l-0,-7.16c-0,-8.745 6.91,-17.242 15.452,-17.242l230.332,0c8.564,0 15.543,8.497 15.543,17.242Z" style="fill:#202b59;fill-rule:nonzero;"/><path d="M45.238,321.785c-2.424,-0 -4.395,2.016 -4.395,4.509c0,2.492 1.971,4.508 4.395,4.508c2.448,0 4.396,-2.016 4.396,-4.508c-0,-2.493 -1.948,-4.509 -4.396,-4.509Z" style="fill:#aa80f9;fill-rule:nonzero;"/><path d="M59.943,321.785c-2.425,-0 -4.395,2.016 -4.395,4.509c-0,2.492 1.97,4.508 4.395,4.508c2.424,0 4.395,-2.016 4.395,-4.508c0,-2.493 -1.971,-4.509 -4.395,-4.509Z" style="fill:#36bfe3;fill-rule:nonzero;"/><path d="M74.194,321.785c-2.424,-0 -4.396,2.016 -4.396,4.509c0,2.492 1.972,4.508 4.396,4.508c2.447,0 4.418,-2.016 4.418,-4.508c0,-2.493 -1.971,-4.509 -4.418,-4.509Z" style="fill:#ffce76;fill-rule:nonzero;"/><path d="M593.335,378.881c-2.424,-0 -4.395,2.016 -4.395,4.486c-0,2.492 1.971,4.509 4.395,4.509c2.425,-0 4.395,-2.017 4.395,-4.509c0,-2.47 -1.97,-4.486 -4.395,-4.486Z" style="fill:#aa80f9;fill-rule:nonzero;"/><path d="M608.04,378.881c-2.447,-0 -4.396,2.016 -4.396,4.486c0,2.492 1.949,4.509 4.396,4.509c2.424,-0 4.395,-2.017 4.395,-4.509c-0,-2.47 -1.971,-4.486 -4.395,-4.486Z" style="fill:#36bfe3;fill-rule:nonzero;"/><path d="M622.291,378.881c-2.425,-0 -4.395,2.016 -4.395,4.486c-0,2.492 1.97,4.509 4.395,4.509c2.424,-0 4.395,-2.017 4.395,-4.509c0,-2.47 -1.971,-4.486 -4.395,-4.486Z" style="fill:#ffce76;fill-rule:nonzero;"/><path d="M620.614,370.158l-273.38,-0c-9.629,-0 -17.446,7.998 -17.446,17.808l0,145.39c0,9.834 7.817,17.832 17.446,17.832l273.38,-0c8.247,-0 15.453,-6.005 17.084,-14.252c0.271,-1.291 0.362,-2.424 0.362,-3.58l0,-145.39c0,-9.81 -7.816,-17.808 -17.446,-17.808Zm0,1.971c8.542,-0 15.475,7.091 15.475,15.837l0,145.39c0,1.111 -0.113,2.153 -0.317,3.172c-1.45,7.228 -7.681,12.688 -15.158,12.688l-273.38,0c-8.541,0 -15.474,-7.114 -15.474,-15.86l-0,-145.39c-0,-8.746 6.933,-15.837 15.474,-15.837l273.38,-0Z" style="fill:#202b59;fill-rule:nonzero;"/><path d="M277.949,311.589l-230.377,0c-9.606,0 -17.446,7.998 -17.446,17.831l0,140.202c0,9.425 7.205,17.242 16.381,17.786c0.295,0.045 0.68,0.045 1.065,0.045l230.377,0c0.408,0 0.793,0 1.178,-0.045c9.086,-0.544 16.291,-8.361 16.291,-17.786l-0,-140.202c-0,-9.833 -7.84,-17.831 -17.469,-17.831Zm0,1.994c8.564,0 15.498,7.069 15.498,15.837l-0,140.202c-0,8.429 -6.412,15.316 -14.524,15.815c-0.317,0.045 -0.634,0.045 -0.974,0.045l-230.377,0c-0.317,0 -0.634,0 -0.952,-0.045c-8.111,-0.499 -14.5,-7.386 -14.5,-15.815l-0,-140.202c-0,-8.768 6.91,-15.837 15.452,-15.837l230.377,0Z" style="fill:#202b59;fill-rule:nonzero;"/><path d="M620.614,168.351l-238.918,0c-9.607,0 -17.446,7.998 -17.446,17.831l-0,141.267c-0,5.279 2.288,10.241 6.231,13.64c3.126,2.696 7.114,4.169 11.215,4.169l238.918,-0c8.61,-0 15.838,-6.276 17.22,-14.931c0.068,-0.272 0.113,-0.68 0.135,-1.156c0.068,-0.498 0.091,-1.11 0.091,-1.722l0,-141.267c0,-9.833 -7.816,-17.831 -17.446,-17.831Zm0,1.971c8.542,0 15.475,7.092 15.475,15.86l0,141.267c0,0.544 -0.022,1.088 -0.09,1.609c-0.023,0.34 -0.046,0.657 -0.114,0.951c-1.201,7.545 -7.568,13.277 -15.271,13.277l-238.918,0c-3.784,0 -7.228,-1.382 -9.924,-3.693c-3.399,-2.9 -5.529,-7.273 -5.529,-12.144l0,-141.267c0,-8.768 6.911,-15.86 15.453,-15.86l238.918,0Z" style="fill:#202b59;fill-rule:nonzero;"/><path d="M402.359,231.383c-1.88,3.129 -4.282,5.823 -7.024,8.179c-5.483,4.69 -12.031,7.953 -18.488,11.034c-13.798,6.573 -28.367,12.62 -37.021,25.965c-5.325,8.248 -8.157,17.718 -12.439,26.486c-3.739,7.704 -8.723,14.75 -14.705,20.89c-11.872,12.19 -27.143,20.641 -43.773,24.266c-15.973,3.467 -35.549,3.285 -49.483,-6.367c-6.843,-4.758 -11.284,-12.325 -11.714,-20.708c-0.408,-8.451 2.379,-16.789 6.888,-23.858c1.065,-1.654 2.266,-3.217 3.489,-4.781c1.314,-1.699 2.221,-3.67 3.421,-5.46c6.095,-4.464 12.665,-7.862 19.508,-10.196c8.202,-2.787 16.834,-4.123 25.489,-3.783c5.098,0.181 10.15,1.11 15.271,1.132c4.872,0 9.493,-0.997 13.98,-2.854c9.063,-3.784 16.72,-10.491 24.311,-16.517c8.224,-6.548 16.381,-13.185 25.171,-18.964c8.61,-5.665 17.809,-10.536 27.71,-13.527c4.849,-1.472 9.879,-2.535 14.954,-2.922c2.447,-0.179 4.893,-0.227 7.318,-0.134c2.379,0.111 5.415,0.043 7.568,1.199c4.168,2.265 1.336,7.975 -0.431,10.92Zm5.755,-11.464c-2.402,-4.464 -8.27,-4.758 -12.733,-4.985c-10.468,-0.496 -20.867,1.792 -30.587,5.551c-20.89,8.043 -37.815,23.135 -55.148,36.795c-8.089,6.39 -16.993,12.552 -27.709,12.643c-5.438,0.045 -10.83,-0.906 -16.268,-0.974c-4.463,-0.068 -8.95,0.339 -13.345,1.11c-13.232,2.333 -26.147,8.292 -36.342,17.219c-0.567,0.408 -1.11,0.838 -1.586,1.314c-0.294,0.295 -0.544,0.589 -0.815,0.907c-2.448,2.356 -4.691,4.871 -6.73,7.59c-2.651,3.512 -4.939,7.273 -6.887,11.238c-0.205,0.385 0.339,0.725 0.566,0.339c1.857,-2.922 3.965,-5.732 6.231,-8.405c-1.042,2.197 -1.949,4.44 -2.674,6.729c-2.651,8.383 -2.787,17.536 0.702,25.693c7.477,17.536 28.752,23.291 46.153,23.314c18.238,0.045 36.206,-6.344 51.114,-16.676c7.386,-5.12 13.98,-11.192 19.576,-18.239c5.981,-7.522 10.128,-15.927 13.776,-24.764c3.806,-9.176 7.589,-18.624 14.998,-25.557c5.71,-5.367 12.711,-9.06 19.712,-12.459c13.436,-6.503 29.16,-12.554 36.659,-26.466c1.926,-3.532 3.399,-8.111 1.337,-11.917Z" style="fill:#36bfe3;fill-rule:nonzero;"/><path d="M252.845,320.38c-0.929,3.285 -2.334,7.907 -5.46,9.652c-3.512,1.949 -8.746,-0.317 -12.28,-1.223c-8.995,-2.311 -18.013,-4.441 -26.94,-7.024c-7.499,-2.153 -15.497,-4.554 -21.138,-10.4c-4.623,-4.803 -7.432,-11.51 -12.847,-15.475c-2.878,-2.129 -6.752,-2.492 -8.927,-5.596c-1.156,-1.608 -1.699,-3.466 -1.677,-5.347c-0.204,-0.748 -0.362,-1.563 -0.43,-2.356c-0.136,0.317 -0.227,0.612 -0.363,0.906c-0.113,0.34 -0.589,0.136 -0.544,-0.181c0.748,-6.072 3.626,-14.433 10.853,-14.319c4.373,0.068 8.248,3.308 11.85,5.483c4.259,2.582 8.564,5.029 12.959,7.363c7.795,4.169 15.838,7.749 23.881,11.351c4.033,1.813 8.066,3.557 12.167,5.211c3.444,1.383 7.024,2.606 10.309,4.396c6.639,3.625 10.807,9.652 8.587,17.559Z" style="fill:#aa80f9;fill-rule:nonzero;"/><path d="M299.858,247.719c0.091,2.243 -1.744,3.897 -2.99,5.508c-2.493,3.238 -4.033,6.953 -5.279,10.785c-1.201,3.645 -2.13,7.452 -3.308,11.122c-1.065,3.308 -2.357,6.503 -4.26,9.403c-2.787,4.327 -6.82,7.771 -11.736,9.221c-5.28,1.541 -10.853,1.269 -16.268,0.952c-1.473,-0.091 -2.945,-0.182 -4.418,-0.227c-0.589,-0.023 -1.677,-0.226 -2.221,0.045c-0.792,0.408 -1.155,1.473 -1.518,2.221c-1.449,2.968 -2.9,5.936 -4.35,8.904c-3.036,6.163 -6.072,12.371 -9.108,18.556c-0.249,0.499 -0.951,0.974 -1.54,0.793c-11.057,-3.625 -22.159,-7.227 -32.763,-12.099c-5.279,-2.447 -10.286,-5.256 -15.225,-8.27c-4.486,-2.764 -11.147,-7.136 -16.313,-3.942c-1.564,0.997 -3.716,-0.317 -3.331,-2.266c0.703,-3.579 2.605,-7.227 4.033,-10.58c1.405,-3.331 2.9,-6.526 4.713,-9.63c3.67,-6.14 7.975,-12.099 10.807,-18.692c4.667,-10.943 5.778,-23.042 12.688,-32.966c6.48,-9.334 16.11,-16.356 24.991,-23.133c4.645,-3.511 9.493,-6.819 14.75,-9.334c5.528,-2.629 11.374,-3.943 17.4,-4.6c6.458,-0.725 12.937,-1.201 19.395,-1.767c3.783,-0.362 8.858,-0.589 11.26,2.492c-0.045,-0.611 0.816,-0.861 1.065,-0.226c2.492,6.593 3.92,13.571 4.078,20.64c0.068,3.467 -0.136,6.979 -0.702,10.377c-0.589,3.877 -1.586,7.749 -1.337,11.691c0.204,2.81 1.065,5.78 3.036,7.862c1.609,1.722 3.784,2.13 5.732,3.24c1.428,0.861 2.628,2.13 2.719,3.92Z" style="fill:#ffc5c5;fill-rule:nonzero;"/><path d="M278.674,234.535c-0.204,-0.32 -0.385,-0.567 -0.612,-0.795c-0.022,1.45 -0.204,2.945 -0.407,4.35c-0.182,1.042 -0.318,2.22 -1.066,3.013c-0.86,0.884 -1.925,0.546 -2.764,-0.181c-0.906,-0.793 -1.744,-1.654 -2.514,-2.583c-0.431,-0.521 -0.839,-1.065 -1.247,-1.609c-0.272,-0.408 -0.725,-0.906 -0.77,-1.427c-0.068,-0.657 0.476,-1.017 0.929,-1.357c0.453,-0.32 0.906,-0.66 1.359,-0.954c0.952,-0.589 2.085,-1.156 3.218,-1.224c0.498,-0.022 1.019,0.068 1.518,0.229c1.404,0.157 1.676,0.632 1.722,1.176c0.317,0.408 0.566,0.838 0.634,1.362Z" style="fill:#fff;fill-rule:nonzero;"/><path d="M618.167,271.328c-6.706,15.678 -19.621,29.023 -35.345,35.118c-8.338,3.24 -17.786,4.237 -26.305,1.065c-8.315,-3.104 -14.5,-9.901 -20.187,-16.585c-6.276,-7.432 -12.711,-14.931 -17.015,-23.767c-4.486,-9.222 -6.163,-19.689 -8.383,-29.658c-4.713,-21.253 -9.245,-42.596 -11.986,-64.233c-0.657,-5.257 -1.133,-10.581 -0.521,-15.86c0.589,-5.177 2.379,-10.089 3.874,-15.038c2.946,-9.842 3.92,-20.108 2.606,-30.303c-0.453,1.844 -0.702,3.792 -0.725,5.852c-0.023,0.922 -1.246,0.992 -1.382,0.088c-0.612,-4.223 -0.091,-8.458 1.608,-12.38c6.956,-16.063 27.279,-21.827 43.049,-20.303c7.726,0.744 15.384,3.46 21.456,8.495c6.548,5.46 10.445,13.336 12.438,21.614c4.555,19.028 -0.294,39.582 8.066,57.767c7.409,16.154 21.389,28.049 28.526,44.385c7.341,16.88 7.454,36.818 0.226,53.743Z" style="fill:#202b59;fill-rule:nonzero;"/><path d="M636.067,283.608l-0,43.841c-0,0.544 -0,1.088 -0.068,1.609c-0.023,0.34 -0.046,0.657 -0.114,0.951c-1.201,7.545 -7.568,13.277 -15.271,13.277l-238.918,0c-3.784,0 -7.228,-1.382 -9.924,-3.693c1.087,-2.605 2.265,-5.233 3.534,-7.794c10.264,-20.912 25.852,-39.31 44.975,-53.017c9.855,-7.069 20.64,-12.711 32.014,-17.081c1.926,-0.705 3.852,-1.43 5.778,-2.132c1.79,-0.816 3.602,-1.632 5.414,-2.425c2.153,1.337 4.396,2.47 6.662,3.446c8.338,3.646 17.468,5.526 26.441,6.501c9.856,1.042 19.802,0.679 29.522,-1.36c9.697,-1.991 18.851,-5.823 27.709,-10.331c3.285,-1.677 6.525,-3.467 9.72,-5.3c4.871,1.722 9.698,3.555 14.523,5.37c19.689,7.452 39.424,15.495 56.847,27.322c0.385,0.272 0.77,0.521 1.156,0.816Z" style="fill:#36bfe3;fill-rule:nonzero;"/><path d="M452.001,210.018c-12.258,10.084 -30.86,-14.002 -27.597,-34.145c4.305,-26.558 18.284,-45.085 43.207,-56.416c24.946,-11.333 59.815,-12.713 76.128,14.206c16.29,26.917 12.552,47.127 2.356,64.845c-7.817,13.617 -23.948,28.276 -23.948,28.276l-70.146,-16.766Z" style="fill:#202b59;fill-rule:nonzero;"/><path d="M522.147,192.957c-2.152,8.949 0.271,20.867 -6.117,26.984c-6.435,6.163 -13.368,12.122 -21.366,15.974c-4.011,1.925 -8.293,3.423 -12.756,3.353c-4.554,-0.068 -9.108,-1.405 -13.368,-3.011c-18.148,-6.913 -18.67,-26.534 -26.599,-43.708c-9.244,-20.051 -4.214,-36.727 5.574,-53.07c5.46,-9.092 18.669,-14.382 28.661,-13.886c9.312,0.467 13.639,0.448 21.524,5.216c7.635,4.61 15.203,9.38 21.207,16.19c5.754,6.455 9.629,14.102 11.17,22.757c0.634,3.67 -7.205,11.691 -6.911,15.543c0.408,5.687 0.272,2.243 -1.019,7.658Z" style="fill:#ffc5c5;fill-rule:nonzero;"/><path d="M490.495,189.015c-0.634,0.906 -1.79,1.427 -2.719,1.903c-1.133,0.589 -2.288,1.087 -3.466,1.45c-0.952,0.272 -1.949,0.43 -2.878,0.045c-0.997,-0.43 -1.518,-1.427 -1.949,-2.356c-0.521,-1.065 -0.838,-2.13 -0.974,-3.331c0.68,-0.657 1.179,-1.654 2.289,-2.198c1.223,-0.566 2.673,-0.521 3.987,-0.385c1.858,0.136 4.418,0.317 5.619,2.039c0.589,0.816 0.68,1.949 0.091,2.833Z" style="fill:#fff;fill-rule:nonzero;"/><path d="M551.624,388.533c-4.033,8.564 -12.689,13.163 -21.457,15.112c-8.541,1.88 -18.239,-1.45 -24.583,-7.477c-1.676,-1.609 -3.149,-3.421 -4.395,-5.37c-0.702,-0.34 -1.382,-0.657 -2.107,-0.974c-3.218,-1.359 -6.185,-3.149 -9.176,-4.962c-5.891,-3.602 -11.533,-7.522 -16.97,-11.827c-5.075,-4.01 -10.105,-8.27 -14.365,-13.186c-3.603,-4.147 -6.638,-8.678 -7.612,-14.116c-3.717,-20.006 12.778,-37.316 29.997,-42.935c8.95,-2.9 18.624,-3.534 27.959,-2.719c9.244,0.793 19.644,2.357 27.098,8.429c6.434,5.234 10.354,13.005 13.095,20.776c3.354,9.494 5.733,19.667 6.617,29.749c0.815,9.788 0.158,20.505 -4.101,29.5Z" style="fill:#202b59;fill-rule:nonzero;"/><path d="M516.822,428.839c-0.861,3.082 -4.599,3.807 -7.205,4.532c-3.534,0.974 -7.136,1.631 -10.716,2.288c-7.908,1.382 -15.996,2.447 -23.247,6.186c-0.974,0.521 -1.971,0.068 -2.175,-1.088c-2.99,-18.443 -5.505,-36.976 -7.363,-55.578c-0.068,-0.702 0.521,-1.382 1.201,-1.404c2.129,-0.114 4.214,-0.295 6.299,-0.499c0.112,-0.408 0.407,-0.748 0.906,-0.816c2.401,-0.271 4.871,-0.135 7.318,-0.294c7.137,-1.224 14.138,-3.081 20.98,-5.528c1.178,-0.589 2.357,-1.201 3.535,-1.858c0.77,-0.453 1.563,-0 1.699,0.861c1.631,9.221 3.217,18.42 4.826,27.641c0.793,4.441 1.563,8.905 2.334,13.368c0.43,2.356 0.838,4.735 1.246,7.114c0.294,1.654 0.838,3.421 0.362,5.075Z" style="fill:#ffc5c5;fill-rule:nonzero;"/><path d="M514.738,384.228c-8.406,7.227 -18.647,12.008 -29.227,14.614c-5.189,1.291 -10.514,2.039 -15.86,2.175c-4.985,0.113 -10.446,0.136 -15.204,-1.586c-5.21,-1.881 -7.862,-6.458 -9.787,-11.646c-1.609,-4.282 -2.629,-8.791 -3.286,-13.368c-0.272,-1.767 -0.476,-3.58 -0.634,-5.347c-0.159,-1.767 -0.272,-3.534 -0.34,-5.324c-0.226,-4.554 -0.226,-9.131 -0.181,-13.685c0.022,-2.175 0.408,-4.214 2.764,-4.577c1.314,-0.204 2.537,-0.045 3.829,-0.612c1.133,-0.521 2.13,-1.336 2.991,-2.243c4.01,-4.259 4.735,-10.716 7.431,-15.837c2.447,-4.577 5.959,-8.428 10.037,-11.464c5.914,-4.464 12.688,-7.069 19.712,-8.633c3.625,-2.333 7.907,-3.693 12.099,-4.554c5.392,-1.11 11.147,-1.246 16.472,0.385c11.147,3.399 17.989,13.731 20.3,25.354c4.192,20.889 -5.755,43.184 -21.116,56.348Z" style="fill:#ffc5c5;fill-rule:nonzero;"/><path d="M468.699,344.872c-0.317,1.179 -1.291,1.881 -2.56,2.04c-0.658,0.09 -1.337,0.045 -1.994,-0c-0.793,-0.046 -1.609,-0.114 -2.38,-0.182c-0.226,-2.062 0.409,-3.466 1.111,-4.848c0.204,-0.431 0.453,-0.839 0.747,-1.224c0.205,-1.155 0.499,-1.926 1.564,-1.654c1.178,0.272 2.084,2.878 2.424,3.897c0.34,1.02 1.36,0.907 1.088,1.971Z" style="fill:#fff;fill-rule:nonzero;"/><path d="M563.564,250.1c-3.218,1.833 -6.458,3.623 -9.765,5.3c-8.814,4.508 -17.99,8.34 -27.687,10.331c-9.697,2.039 -19.666,2.402 -29.522,1.36c-8.973,-0.975 -18.103,-2.855 -26.441,-6.501c-2.266,-0.976 -4.531,-2.109 -6.662,-3.446c0.612,-0.294 1.224,-0.566 1.836,-0.813c1.948,-0.861 3.897,-1.677 5.868,-2.495c12.099,-5.052 24.356,-10.603 37.384,-12.869c11.736,-2.062 18.375,-3.24 29.749,-0.158c5.664,1.518 16.426,6.23 21.955,8.111c1.087,0.385 2.175,0.793 3.285,1.18Z" style="fill:#ffc5c5;fill-rule:nonzero;"/><path d="M535.741,252.389c-3.194,-1.022 -6.525,-1.722 -9.901,-1.883c-3.331,-0.181 -6.525,0.408 -9.833,0.612c-0.318,0.022 -0.589,-0.023 -0.861,-0.134c-5.982,3.736 -11.986,7.474 -17.99,11.122c-0.498,0.295 -1.292,0.227 -1.45,-0.589c-2.266,-11.804 -4.622,-23.606 -6.774,-35.436c-0.567,0.68 -1.088,1.385 -1.655,2.017c-0.679,0.861 -1.88,-0.36 -1.155,-1.221c0.816,-0.977 1.586,-1.949 2.402,-2.948c-0.725,-4.01 -1.405,-8.021 -2.085,-12.029c-0.113,-0.838 0.884,-1.316 1.088,-0.432c0.77,3.602 1.54,7.229 2.311,10.83c10.49,-13.277 19.485,-28.095 27.166,-44.023c0.226,-0.498 0.906,-0.544 1.042,0.091c0.566,2.265 1.155,4.486 1.744,6.729c0.273,0.068 0.544,0.181 0.816,0.385c2.764,2.152 6.027,4.124 8.315,6.797c0.997,1.133 0.046,2.946 -1.472,2.289c-1.088,-0.454 -2.153,-1.065 -3.173,-1.7c0.227,4.237 1.904,7.477 2.991,11.601c1.292,4.78 2.923,10.852 4.214,15.613c2.697,9.876 6.662,19.12 9.335,28.998c0.408,1.518 -3.308,3.829 -5.075,3.311Z" style="fill:#ffc5c5;fill-rule:nonzero;"/><path d="M305.659,187.655c1.835,3.874 0.996,8.632 -1.677,12.008c-3.467,4.418 -9.018,5.891 -14.138,7.228c-5.687,1.495 -10.264,4.917 -15.362,7.726c-5.029,2.742 -10.241,5.143 -15.542,7.296c-2.719,1.11 -5.664,1.948 -8.248,3.33c-2.447,1.314 -3.511,3.557 -4.576,6.072c-2.311,5.619 -4.124,11.467 -5.37,17.446c-0.634,2.991 -1.133,6.004 -1.473,9.04c-0.271,2.2 -0.294,4.466 -1.223,6.526c-1.45,3.262 -5.392,4.531 -7.522,1.067c-1.201,-1.971 -1.292,-4.625 -1.858,-6.845c-0.612,-2.447 -1.405,-4.849 -2.334,-7.205c-1.767,-4.418 -4.101,-8.655 -6.684,-12.688c-0.294,0.34 -0.725,0.567 -1.291,0.476c-8.791,-1.382 -12.53,8.927 -12.642,16.089c-0.046,2.784 0.18,5.548 0.407,8.335c0.408,-0.383 1.178,-0.272 1.156,0.41c-0.068,1.969 -0.386,3.895 -0.771,5.821c0.091,3.217 -0.113,6.435 -1.042,9.607c-0.136,0.543 -0.589,1.155 -1.223,1.11c-1.156,-0.046 -2.334,-0.136 -3.49,-0.227c-3.398,0.431 -7.114,-0.023 -10.512,-0.045c-3.784,-0.023 -7.568,-0.046 -11.374,-0.068c-0.476,-0 -0.952,-0.227 -1.269,-0.589c-1.473,-0.839 -2.357,-2.696 -1.473,-4.35c0.499,-0.929 0.748,-1.7 0.793,-2.765c-0.068,-0.747 0.317,-1.291 0.861,-1.608c0.046,-1.337 -0.34,-2.651 -0.997,-3.829c-0.974,-1.677 -2.243,-3.24 -3.398,-4.804c-1.201,-1.606 -2.176,-3.305 -3.308,-4.916c-4.532,-6.503 -8.542,-13.139 -11.419,-20.573c-9.29,-24.084 -4.758,-53.674 15.52,-70.373c11.283,-9.266 25.625,-10.807 39.581,-12.139c8.203,-0.784 16.381,-0.857 24.629,-0.802c5.936,0.036 11.918,0.344 17.853,1.053c11.035,0.367 22.068,1.013 33.08,1.942c3.942,0.363 8.949,1.722 9.584,6.525c0.113,0.997 -0.703,3.172 0.249,3.875c0.589,0.407 1.994,0.204 2.696,0.317c1.836,0.272 3.558,1.087 5.007,2.243c6.231,4.939 5.053,14.296 -1.2,18.284Z" style="fill:#202b59;fill-rule:nonzero;"/><path d="M228.761,262.627c-3.286,3.739 -8.066,6.118 -13.368,6.118c-9.924,-0 -17.967,-8.247 -17.967,-18.42c-0,-10.149 8.043,-18.398 17.967,-18.398c1.971,-0 3.874,0.342 5.641,0.931c0.567,5.458 1.587,10.805 2.651,16.175c0.952,4.738 2.312,9.609 5.076,13.594Z" style="fill:#ffc5c5;fill-rule:nonzero;"/><path d="M277.813,236.234c-0.023,-0.861 -0.113,-1.722 -0.408,-2.537c-0.136,-0.411 -0.498,-0.705 -0.906,-0.728c-0.385,-0.022 -0.861,0.204 -0.997,0.589c-0.204,0.521 -0.362,1.065 -0.476,1.609c-0.702,1.905 -0.77,3.605 -0.226,5.143c0.023,0.884 0.476,1.178 0.861,1.088c0.747,0.09 1.11,-0.159 1.337,-0.544c0.43,-0.748 0.724,-1.609 0.838,-2.47c0.068,-0.451 0.09,-0.929 0.068,-1.382c-0.023,-0.249 -0.046,-0.496 -0.091,-0.768Z" style="fill:#202b59;fill-rule:nonzero;"/><path d="M285.063,222.456c0.023,1.428 -0.951,2.583 -2.175,3.172c-1.495,0.728 -3.036,0.521 -4.599,0.453c-1.541,-0.09 -2.674,0.275 -3.875,1.247c-1.948,1.586 -3.444,3.874 -6.026,4.486c-0.544,0.136 -1.246,-0.182 -1.224,-0.839c0.023,-1.515 0.567,-3.237 1.495,-4.576c1.224,-2.083 2.969,-3.852 4.94,-5.141c2.401,-1.566 6.049,-3.265 8.881,-2.2c1.383,0.5 2.538,1.835 2.583,3.398Z" style="fill:#202b59;fill-rule:nonzero;"/><path d="M291.589,264.012c-1.201,3.645 -2.13,7.452 -3.308,11.122c-5.665,-2.356 -10.241,-6.91 -12.643,-12.733c-0.249,-0.612 0.362,-1.178 0.951,-1.088c4.963,0.816 10.083,1.45 15,2.699Z" style="fill:#fff;fill-rule:nonzero;"/><path d="M491.582,185.503c-2.583,-2.153 -6.412,-3.671 -9.742,-2.946c-1.45,0.317 -2.787,1.02 -3.874,2.039c-0.997,0.929 -2.175,2.493 -1.677,3.965c0.181,0.567 0.861,0.635 1.246,0.25c0.77,-0.793 1.065,-1.881 1.948,-2.606c0.907,-0.748 1.972,-1.178 3.105,-1.359c2.945,-0.408 5.346,1.155 7.771,2.605c1.11,0.657 2.22,-1.11 1.223,-1.948Z" style="fill:#202b59;fill-rule:nonzero;"/><path d="M481.387,188.289c-0.771,-1.132 -1.677,-2.039 -2.266,-2.175c-1.382,-0.317 -1.54,1.518 -1.36,2.425c0.273,1.45 0.997,2.787 2.04,3.806c0.34,0.317 0.974,0.68 1.404,0.838c0.363,0.136 0.771,0.159 1.088,-0.022c1.223,-0.68 0.317,-3.059 -0.906,-4.872Z" style="fill:#202b59;fill-rule:nonzero;"/><path d="M460.044,197.216c-0.725,0.748 -1.813,1.043 -2.719,1.337c-1.088,0.363 -2.175,0.657 -3.285,0.77c-0.861,0.114 -1.79,0.091 -2.515,-0.43c-0.793,-0.566 -1.088,-1.586 -1.314,-2.538c-0.25,-1.11 -0.341,-2.175 -0.272,-3.33c0.725,-0.521 1.336,-1.382 2.401,-1.677c1.156,-0.34 2.425,-0.068 3.558,0.295c1.585,0.43 3.806,1.042 4.554,2.854c0.385,0.907 0.271,1.994 -0.408,2.719Z" style="fill:#fff;fill-rule:nonzero;"/><path d="M461.607,194.09c-1.88,-2.47 -4.962,-4.554 -8.02,-4.441c-1.315,0.045 -2.606,0.476 -3.739,1.269c-1.042,0.702 -2.333,1.994 -2.175,3.466c0.068,0.567 0.657,0.748 1.065,0.453c0.816,-0.611 1.269,-1.608 2.175,-2.152c0.884,-0.544 1.926,-0.77 2.922,-0.748c2.652,0.114 4.487,1.994 6.345,3.761c0.861,0.839 2.152,-0.657 1.427,-1.608Z" style="fill:#202b59;fill-rule:nonzero;"/><path d="M453.202,194.837c-0.544,-1.223 -1.224,-2.288 -1.768,-2.515c-1.269,-0.566 -1.767,1.179 -1.744,2.108c-0,1.45 0.453,2.877 1.269,4.055c0.271,0.385 0.815,0.838 1.2,1.088c0.295,0.181 0.68,0.294 1.02,0.181c1.291,-0.453 0.861,-2.923 0.023,-4.917Z" style="fill:#202b59;fill-rule:nonzero;"/><path d="M490.472,177.663c-0.158,1.926 -4.191,0.771 -5.483,0.975c-1.721,0.294 -3.399,0.883 -5.053,1.404c-1.472,0.453 -2.945,0.907 -4.463,1.246c-1.268,0.295 -2.968,0.793 -4.214,0.386c-2.9,-0.907 -0.566,-4.872 0.793,-6.027c4.01,-3.489 10.626,-2.56 15.18,-0.793c0.657,0.249 2.877,1.744 3.24,2.809Z" style="fill:#202b59;fill-rule:nonzero;"/><path d="M538.89,176.485c-1.835,3.036 -4.848,4.69 -8.088,5.8c-3.875,1.36 -7.681,2.379 -10.672,5.438c-2.922,2.968 -4.712,6.774 -5.188,10.943c-0.181,1.383 -2.176,1.428 -2.561,0.182c-5.754,-19.259 -12.257,-39.129 -25.466,-54.438c-4.78,1.95 -9.539,3.919 -14.251,5.995c-6.639,2.925 -13.074,6.459 -18.126,11.829c-4.622,4.849 -8.066,10.83 -10.173,17.242c-2.107,6.367 -2.787,12.801 -2.334,19.145c0.091,0.748 0.159,1.495 0.227,2.243c-0.295,-0.272 -0.589,-0.544 -0.884,-0.793c-2.719,-2.333 -5.415,-4.713 -7.476,-7.658c-1.042,-3.059 -1.926,-6.163 -2.72,-9.267c-0.135,-0.43 -0.249,-0.861 -0.362,-1.291c-2.424,-9.811 -2.651,-19.508 1.813,-28.704c3.58,-7.357 9.131,-13.493 15.18,-18.779c6.276,-5.496 13.458,-10.356 21.615,-12.164c8.337,-1.842 17.197,-0.761 25.353,1.348c7.318,1.899 14.387,4.86 20.777,8.902c6.162,3.902 11.736,8.795 16.222,14.632c4.327,5.601 8.202,12.357 8.927,19.585c0.317,3.353 -0.068,6.91 -1.813,9.81Z" style="fill:#202b59;fill-rule:nonzero;"/><path d="M445.905,186.024c-6.706,-0 -12.143,5.46 -12.143,12.167c-0,6.706 5.437,12.144 12.143,12.144c6.707,-0 12.168,-5.438 12.168,-12.144c-0,-6.707 -5.461,-12.167 -12.168,-12.167Zm0,28.276c-8.881,-0 -16.108,-7.228 -16.108,-16.109c-0,-8.882 7.227,-16.11 16.108,-16.11c8.882,0 16.11,7.228 16.11,16.11c-0,8.881 -7.228,16.109 -16.11,16.109Z" style="fill:#fff;fill-rule:nonzero;"/><path d="M462.174,199.618c0.566,-2.832 0.181,-5.71 -0.952,-8.36c-1.11,-2.561 -2.787,-4.804 -4.758,-6.73c-1.133,-1.11 -2.402,-2.039 -3.693,-2.922c-0.906,-0.612 -1.994,-1.564 -3.104,-1.45c0.249,1.427 1.79,2.243 2.719,3.058c1.246,1.065 2.469,2.221 3.58,3.444c2.311,2.492 4.1,5.664 4.44,9.131c0.34,3.648 -1.337,6.435 -2.311,9.788c-0.385,1.269 -0.362,2.628 0.544,3.648c0.793,0.883 1.767,1.019 2.741,0.43c0.658,-0.385 0.205,-1.291 -0.43,-1.291c-2.175,-0.046 -0.566,-3.308 -0.159,-4.328c0.589,-1.427 1.111,-2.9 1.383,-4.418Z" style="fill:#ff88c4;fill-rule:nonzero;"/><path d="M483.312,213.416c-1.2,3.988 -4.372,7.253 -8.36,8.202c-2.107,0.521 -4.305,0.455 -6.321,-0.294c-3.422,-1.244 -4.577,-4.326 -4.577,-4.326c-0,0 3.693,-1.225 5.37,-1.679c4.395,-1.176 8.7,-2.22 13.232,-2.673c0.385,-0.045 0.77,0.365 0.656,0.77Z" style="fill:#fff;fill-rule:nonzero;"/><path d="M464.643,340.477c-0.679,-1.813 -2.107,0.181 -2.583,0.997c-0.68,1.155 -2.492,5.845 0.204,5.709c2.175,-0.113 2.538,-4.033 2.538,-5.664c-0,-0.385 -0.046,-0.748 -0.159,-1.042Z" style="fill:#202b59;fill-rule:nonzero;"/><path d="M469.424,346.073c-0.068,-0.657 -0.182,-1.314 -0.34,-1.971c-0.272,-1.246 -0.748,-2.515 -1.518,-3.534c-0.725,-0.929 -1.7,-1.7 -2.787,-2.108c-0.521,-0.203 -1.042,-0.317 -1.609,-0.339c-0.566,-0.023 -1.11,0.226 -1.585,0.498c-0.408,0.249 -0.137,0.838 0.271,0.838c0.454,-0.022 0.884,0.091 1.337,0.159c0.43,0.091 0.816,0.227 1.201,0.43c0.793,0.431 1.45,1.088 1.948,1.858c0.567,0.884 0.884,1.904 1.11,2.946c0.227,1.133 0.136,2.379 0.544,3.466c0.272,0.703 1.314,0.657 1.473,-0.113c0.136,-0.725 0.046,-1.405 -0.045,-2.13Z" style="fill:#202b59;fill-rule:nonzero;"/><path d="M475.632,341.202c-1.473,0.68 -2.221,-1.541 -2.719,-2.492c-1.699,-3.195 -3.398,-6.435 -5.075,-9.652c-0.544,-0.997 -1.767,-2.719 -0.453,-3.648c0.951,-0.68 2.198,-0.113 3.058,0.43c3.965,2.493 6.435,7.455 5.733,12.19c0.43,1.02 0.543,2.674 -0.544,3.172Z" style="fill:#202b59;fill-rule:nonzero;"/><path d="M456.011,360.936c-4.26,5.075 -8.814,10.332 -14.637,13.481c-0.272,-1.767 -0.476,-3.58 -0.634,-5.347c-0.159,-1.767 -0.272,-3.534 -0.34,-5.324c1.314,-0.476 1.971,-0.68 2.629,-0.929c1.336,-0.431 2.673,-0.839 4.032,-1.224c2.742,-0.793 5.551,-1.382 8.361,-1.903c0.634,-0.113 0.974,0.793 0.589,1.246Z" style="fill:#fff;fill-rule:nonzero;"/><path d="M544.804,347.501c-0.476,8.315 -2.425,16.449 -5.596,24.288c-1.632,3.965 -3.58,7.817 -5.914,11.487c-2.084,3.24 -4.35,7.092 -7.749,9.38c-1.291,0.589 -1.835,0.499 -2.265,0.204c-8.021,-0.974 -15.566,-3.874 -22.272,-7.953c-13.232,-8.065 -22.725,-20.776 -25.943,-34.937c-3.965,-17.514 0.861,-42.346 20.029,-47.557c10.286,-2.787 21.139,-2.243 30.429,3.263c15.044,8.927 20.164,26.327 19.281,41.825Z" style="fill:#202b59;fill-rule:nonzero;"/><path d="M581.554,335.153c-1.315,6.389 -3.739,12.982 -8.61,17.4c-4.803,4.35 -11.306,5.619 -17.491,4.373c-6.48,-1.269 -11.918,-5.075 -16.155,-10.105c-4.531,-5.37 -7.681,-11.94 -10.195,-18.488c-2.357,-6.095 -4.079,-12.756 -3.422,-19.304c-1.926,3.081 -2.854,6.684 -2.13,10.717c-3.488,-6.503 0.499,-13.662 5.37,-18.103c5.574,-5.121 13.594,-7.817 20.981,-8.157c12.982,-0.566 25.738,7.069 30.632,19.599c2.696,6.955 2.515,14.84 1.02,22.068Z" style="fill:#202b59;fill-rule:nonzero;"/><path d="M518.93,399.612c-4.328,11.124 -12.258,20.301 -21.48,27.46c-4.825,3.761 -10.014,7.001 -15.338,9.901c-5.347,2.9 -11.08,5.234 -15.928,9.04c-5.03,3.92 -8.587,9.63 -12.303,14.773c-4.146,5.777 -8.224,11.623 -12.439,17.333c-2.922,3.987 -7.318,7.159 -11.509,2.99c-3.467,-3.444 -6.435,-8.043 -8.497,-12.484c-4.486,-9.765 -3.693,-21.252 0.091,-31.108c4.078,-10.694 12.416,-19.054 21.275,-25.784c15.112,-11.532 35.435,-21.093 44.181,-38.992c-0.544,-0.25 -0.906,-0.907 -0.566,-1.632c0.702,-1.586 1.699,-2.945 2.854,-4.101c0.249,-0.793 0.476,-1.608 0.68,-2.424c0.317,-1.155 1.79,-0.838 1.79,0.272c7.024,-4.464 17.831,-3.739 24.016,1.518c9.381,7.953 7.138,23.087 3.173,33.238Z" style="fill:#202b59;fill-rule:nonzero;"/><path d="M635.772,536.528c-1.45,7.251 -7.681,12.688 -15.158,12.688l-223.194,0c2.832,-4.531 5.324,-9.244 7.658,-14.07c14.546,-30.201 20.867,-64.164 45.382,-88.272c13.504,-13.299 26.123,-25.375 44.612,-28.593c23.11,-4.033 46.288,11.17 58.16,22.68c12.756,12.371 25.58,24.583 37.928,37.407c18.647,19.394 30.066,38.494 44.612,58.16Z" style="fill:#ff88c4;fill-rule:nonzero;"/><path d="M514.081,502.837c-0.453,3.965 -1.813,7.998 -2.787,11.85c-0.974,3.942 -1.903,7.885 -2.787,11.85c-1.676,7.522 -3.217,15.112 -4.622,22.679l-3.988,0c1.564,-7.839 3.331,-15.61 5.302,-23.336c1.043,-4.079 2.13,-8.157 3.263,-12.213c1.065,-3.761 1.971,-7.975 3.671,-11.487c0.543,-1.11 2.061,-0.475 1.948,0.657Z" style="fill:#ff88c4;fill-rule:nonzero;"/><path d="M599.815,494.5c-5.347,5.301 -12.688,7.34 -19.961,7.431c-8.179,0.091 -16.788,-1.269 -24.696,-3.33c-3.625,-0.929 -7.182,-2.221 -10.468,-4.056c-3.262,-1.813 -5.935,-4.305 -8.836,-6.639c-3.353,-2.718 -6.91,-4.033 -11.193,-4.033c-3.738,0 -7.453,0.657 -11.169,0.59c-6.775,-0.136 -12.144,-3.422 -14.931,-9.834c-2.968,-6.842 -2.765,-14.931 -2.946,-22.272c-0.453,-18.601 0.181,-37.633 3.172,-56.008c2.561,-15.928 8.044,-32.105 19.644,-43.547c5.302,-5.233 11.872,-9.833 19.236,-11.192c5.46,-1.02 11.351,0.317 15.429,4.055c-1.472,-3.602 -3.512,-6.978 -6.299,-9.765c-5.301,-5.279 -13.367,-7.839 -20.414,-4.894c2.787,-1.926 5.959,-2.424 9.199,-2.107c16.178,1.722 22.114,20.074 23.994,34.076c2.175,16.268 3.535,34.122 12.756,48.147c4.713,7.182 11.51,12.348 16.812,18.986c4.962,6.163 9.017,12.983 11.804,20.46c2.742,7.34 4.395,15.202 4.735,23.064c0.318,7.477 -0.317,15.362 -5.868,20.868Z" style="fill:#202b59;fill-rule:nonzero;"/><path d="M500.215,368.934c-0,7.568 -5.982,13.708 -13.391,13.708c-7.386,-0 -13.39,-6.14 -13.39,-13.708c0,-7.567 6.004,-13.707 13.39,-13.707c7.409,-0 13.391,6.14 13.391,13.707Z" style="fill:#ffc5c5;fill-rule:nonzero;"/><path d="M610.124,451.315c-4.396,-11.6 -14.614,-19.077 -24.22,-26.576c-4.849,-3.784 -9.675,-7.727 -13.481,-12.53c-4.532,-5.755 -6.797,-12.507 -8.225,-19.508c-2.786,-13.707 -3.512,-30.247 -16.698,-38.97c-0.498,-0.317 -1.11,0.318 -0.635,0.725c10.355,8.519 11.941,22.386 14.003,34.484c1.087,6.299 2.378,12.643 5.301,18.421c2.402,4.803 5.891,8.926 9.834,12.642c8.224,7.726 18.42,13.549 25.557,22.34c7.748,9.561 10.241,22.748 5.71,34.167c-2.47,6.231 -6.707,12.031 -12.507,15.815c-6.684,4.372 -14.07,4.259 -21.66,2.582c-0.952,-0.226 -1.337,0.929 -0.748,1.518c4.735,4.713 12.552,4.736 18.646,2.651c6.186,-2.129 11.329,-6.48 14.977,-11.645c7.25,-10.287 8.519,-24.538 4.146,-36.116Z" style="fill:#202b59;fill-rule:nonzero;"/><path d="M486.711,364.403c0.861,-0.453 2.447,-0.974 2.651,-2.085c0.068,-0.317 -0.113,-0.566 -0.363,-0.747c-0.883,-0.544 -2.356,0.294 -3.217,0.611c-1.11,0.408 -2.175,0.884 -3.262,1.36c-2.153,0.951 -4.328,1.88 -6.481,2.832c-0.86,0.385 -1.291,1.631 -0.453,2.288c1.881,1.473 3.807,2.855 5.801,4.147c0.997,0.634 1.971,1.246 2.991,1.835c0.475,0.272 0.951,0.544 1.427,0.793c0.544,0.294 1.11,0.679 1.744,0.793c1.156,0.226 1.7,-1.201 0.929,-1.994c-0.407,-0.431 -1.019,-0.657 -1.54,-0.952c-0.499,-0.294 -0.997,-0.589 -1.496,-0.883c-0.906,-0.567 -1.812,-1.133 -2.696,-1.722c-1.291,-0.861 -2.515,-1.767 -3.738,-2.719c1.472,-0.68 2.945,-1.337 4.44,-2.017c1.088,-0.498 2.198,-0.996 3.263,-1.54Z" style="fill:#ff88c4;fill-rule:nonzero;"/><path d="M224.886,250.984c-2.447,-1.203 -4.758,-2.812 -7.114,-4.194c-2.379,-1.405 -4.735,-2.832 -7.16,-4.146c-0.657,-0.363 -1.337,0.659 -0.725,1.133c2.198,1.676 4.441,3.262 6.684,4.871c1.654,1.18 3.421,2.291 5.052,3.512c-1.359,0.883 -2.65,1.858 -3.965,2.789c-0.996,0.677 -2.016,1.357 -2.99,2.082c-0.861,0.657 -2.175,1.427 -2.311,2.606c-0.068,0.543 0.045,1.178 0.498,1.52c0.726,0.496 1.745,0.519 2.221,-0.184c0.566,-0.566 1.382,-0.926 2.039,-1.404c0.952,-0.678 1.88,-1.36 2.832,-2.06c1.835,-1.339 3.784,-2.583 5.438,-4.194c0.68,-0.677 0.294,-1.948 -0.499,-2.331Z" style="fill:#202b59;fill-rule:nonzero;"/><path d="M452.25,182.92c-1.02,0.158 -1.949,-0.068 -2.923,-0.295c-0.997,-0.249 -2.017,-0.43 -3.036,-0.544c-2.062,-0.226 -4.101,-0.045 -6.117,0.25c-1.609,0.226 -3.603,0.158 -4.373,-1.586c-0.567,-1.246 0.022,-2.266 0.952,-2.9c0.928,-0.929 2.423,-1.337 3.602,-1.609c1.835,-0.385 3.738,-0.521 5.596,-0.159c3.081,0.635 5.891,2.697 6.956,5.801c0.204,0.521 -0.204,0.951 -0.657,1.042Z" style="fill:#202b59;fill-rule:nonzero;"/><path d="M251.259,317.004c-0.249,6.367 -1.722,12.62 -4.668,18.284c-1.064,2.085 -2.605,5.461 -4.825,6.548c-2.81,1.36 -6.367,-0.317 -9.04,-1.246c-11.51,-3.942 -22.794,-8.338 -34.009,-13.028c-10.784,-4.531 -21.909,-8.859 -32.241,-14.455c-4.599,-2.469 -9.062,-5.46 -12.62,-9.38c-1.699,-1.858 -3.466,-3.942 -3.693,-6.593c-0.226,-2.583 0.929,-4.803 2.402,-6.774c3.716,-4.872 7.975,-9.29 12.053,-13.844c0.703,-0.77 1.632,-1.699 2.651,-2.062c-0.498,-1.178 0.476,-1.631 0.839,-1.065c0.226,0.363 0.498,0.703 0.77,1.065c1.269,0.521 1.88,1.45 1.926,2.402c3.761,4.35 8.519,7.771 13.368,10.717c6.661,4.055 13.639,7.658 20.708,10.852c14.591,6.594 29.704,11.737 44.838,16.789c0.748,0.25 1.564,0.839 1.541,1.79Z" style="fill:#aa80f9;fill-rule:nonzero;"/><path d="M293.447,430.584l-0,39.061c-0,8.406 -6.412,15.316 -14.524,15.792c-0.317,0.045 -0.657,0.045 -0.974,0.045l-230.377,0c-0.317,0 -0.634,0 -0.952,-0.045c-8.111,-0.476 -14.5,-7.386 -14.5,-15.792l-0,-48.871c6.231,-11.034 13.64,-21.411 21.411,-31.358c11.26,-14.432 23.201,-28.299 35.662,-41.644c11.102,-11.849 22.68,-23.291 34.688,-34.189c1.405,-1.291 2.832,-2.583 4.237,-3.852c6.366,-5.664 12.847,-12.121 20.799,-15.384c3.874,-1.586 8.134,-2.266 12.212,-1.79c0.023,-1.087 1.042,-2.197 2.311,-1.631c16.676,7.545 33.351,15.067 50.004,22.657c0.997,0.453 2.039,0.929 3.059,1.382c6.729,3.036 13.459,5.891 18.352,11.782c5.211,6.276 9.516,13.549 14.07,20.346c9.381,14.07 19.463,27.777 28.208,42.278c7.727,12.892 12.552,26.713 16.314,41.213Z" style="fill:#aa80f9;fill-rule:nonzero;"/><path d="M433.377,312.201c-1.292,4.146 -4.26,7.817 -6.775,11.283c-5.415,7.432 -11.351,14.433 -16.404,22.113c-5.188,7.93 -8.723,16.404 -11.17,25.558c-2.514,9.38 -4.168,19.054 -7.658,28.162c-2.809,7.364 -6.751,14.297 -11.6,20.528c-9.743,12.529 -23.042,22.407 -38.222,27.256c-7.5,2.402 -15.339,3.467 -23.224,3.127c-5.12,-0.227 -10.286,-0.952 -15.43,-0.25c-4.418,0.59 -8.609,2.108 -12.688,3.875c-4.282,1.858 -8.496,3.965 -12.96,5.392c-4.418,1.405 -9.221,2.198 -12.687,-1.586c-6.526,-7.114 -4.645,-18.896 -1.835,-27.143c2.854,-8.474 7.114,-16.63 11.441,-24.447c4.078,-7.341 8.927,-14.387 14.908,-20.323c6.163,-6.118 13.504,-10.287 21.774,-12.779c8.496,-2.537 17.333,-3.784 25.738,-6.638c2.017,-0.68 4.147,-1.382 6.005,-2.425c1.767,-0.997 3.33,-2.515 4.825,-3.897c6.005,-3.512 11.465,-7.001 16.744,-10.83c7.25,-5.256 14.047,-11.079 20.595,-17.196c6.412,-6.005 12.666,-12.213 19.758,-17.424c6.706,-4.916 14.862,-9.493 23.359,-9.946c1.926,-0.113 4.169,0.136 5.347,1.88c1.11,1.677 0.725,3.897 0.159,5.71Zm-0.295,-10.649c-3.738,-1.654 -8.27,-0.634 -12.031,0.363c-17.786,4.758 -30.383,19.87 -43.502,31.742c-10.263,9.29 -21.297,17.831 -33.305,24.696c-8.383,3.127 -16.903,5.506 -25.648,7.522c-8.904,2.04 -17.65,4.691 -25.172,10.038c-14.501,10.309 -23.269,27.143 -30.587,42.935c-4.215,9.063 -8.089,19.303 -6.639,29.499c1.224,8.497 6.548,17.265 16.268,16.177c9.788,-1.11 18.08,-7.499 27.506,-9.923c5.279,-1.36 10.671,-0.907 16.041,-0.567c4.373,0.272 8.745,0.272 13.118,-0.249c16.45,-1.926 31.698,-9.72 43.819,-20.867c12.982,-11.941 21.207,-27.211 25.58,-44.182c2.606,-10.105 4.463,-20.504 8.746,-30.088c4.055,-9.063 10.173,-16.925 16.222,-24.719c2.968,-3.829 5.914,-7.681 8.655,-11.668c2.402,-3.49 4.916,-7.183 5.483,-11.487c0.521,-3.807 -0.883,-7.591 -4.554,-9.222Z" style="fill:#ff88c4;fill-rule:nonzero;"/><path d="M252.777,485.482l-6.298,0c-1.995,-7.545 -4.101,-15.044 -6.164,-22.566c-4.236,-15.588 -8.722,-31.176 -13.843,-46.515c-4.939,-14.75 -9.516,-29.885 -15.746,-44.114c-2.9,-6.593 -6.458,-13.027 -11.465,-18.193c-4.531,-4.69 -10.082,-8.157 -16.041,-10.626c-12.144,-4.962 -25.399,-5.755 -38.313,-6.888c14.5,-0.476 29.794,0.657 43.026,7.092c12.393,6.004 20.029,16.766 25.716,29.182c6.774,14.795 12.733,30.02 18.215,45.359c5.619,15.77 11.193,31.562 15.657,47.739c1.79,6.457 3.556,12.982 5.256,19.53Z" style="fill:#fff;fill-rule:nonzero;"/><path d="M518.589,176.304c-4.01,1.427 -8.066,2.809 -12.053,4.259c-1.971,0.703 -3.943,1.473 -5.845,2.311c-1.79,0.793 -4.237,1.836 -5.37,3.49c-0.499,0.747 -0.227,1.631 0.657,1.88c1.903,0.544 4.44,-0.181 6.253,-0.702c2.016,-0.589 4.011,-1.269 5.981,-1.971c4.011,-1.45 7.976,-2.991 11.986,-4.464c3.059,-1.133 1.473,-5.913 -1.609,-4.803Z" style="fill:#fff;fill-rule:nonzero;"/><path d="M536.987,190.215c0,8.383 -6.639,15.181 -14.84,15.181c-8.202,-0 -14.841,-6.798 -14.841,-15.181c0,-8.405 6.639,-15.203 14.841,-15.203c8.201,0 14.84,6.798 14.84,15.203Z" style="fill:#ffc5c5;fill-rule:nonzero;"/><path d="M528.196,197.103c-0.113,-0.43 -0.544,-0.816 -0.974,-0.884c-1.246,-0.203 -2.538,-0.181 -3.784,-0.294c-1.223,-0.113 -2.424,-0.249 -3.648,-0.385c-1.631,-0.204 -3.262,-0.476 -4.871,-0.748c1.337,-1.586 2.696,-3.149 4.101,-4.645c0.975,-1.042 1.994,-2.039 2.968,-3.058c0.997,-1.043 2.288,-2.107 2.832,-3.49c0.295,-0.792 -0.362,-1.585 -1.178,-1.359c-1.404,0.431 -2.515,1.654 -3.579,2.628c-1.111,0.997 -2.131,2.13 -3.173,3.218c-2.039,2.175 -4.01,4.418 -5.845,6.751c-0.657,0.861 -0.295,2.243 0.815,2.425c2.516,0.43 5.03,0.77 7.568,1.042c1.246,0.136 2.515,0.249 3.784,0.34c1.269,0.09 2.582,0.272 3.851,0.181c0.431,-0.023 0.907,-0.317 1.088,-0.725c0.136,-0.362 0.158,-0.634 0.045,-0.997Z" style="fill:#ff88c4;fill-rule:nonzero;"/><path d="M523.28,112.495c-0.295,-0.234 -0.589,-0.444 -0.907,-0.635c-0.657,-0.421 -0.838,-0.82 -1.427,-1.477c-0.861,-0.947 -2.016,-1.697 -3.149,-2.234c-0.499,-0.231 -1.02,-0.428 -1.519,-0.625c-0.226,-0.093 -2.514,-0.934 -1.517,-0.553c-1.224,-0.467 -2.425,-0.945 -3.694,-1.201c-1.268,-0.258 -2.492,-0.353 -3.761,-0.417c1.201,0.061 -1.223,-0.072 -1.54,-0.059c-0.499,0.023 -0.997,0.087 -1.496,0.166c-0.747,0.115 -1.45,0.256 -2.152,0.544c-1.065,0.541 -1.291,0.654 -0.68,0.342c-0.43,0.158 -0.838,0.385 -1.2,0.677c-1.133,0.861 -1.904,1.983 -2.131,3.233c-0.158,0.843 0.114,1.829 0.794,2.37c0.249,0.193 0.498,0.363 0.748,0.517c1.155,0.437 1.608,0.643 2.106,0.745c0.385,0.08 0.771,0.114 1.156,0.1c0.748,0.199 1.563,0.149 2.266,0.14c0.815,0.055 1.201,0.068 1.586,0.082c1.223,0.283 2.107,0.358 2.99,0.557c0.431,0.102 0.861,0.195 1.314,0.288c0.091,0.023 0.725,0.154 0.907,0.181c0.951,0.322 1.155,0.397 0.589,0.204c1.155,0.417 1.518,0.569 1.925,0.709c1.315,0.476 2.538,0.737 3.943,0.762c0.702,0.011 0.725,-0.148 1.473,-0.021c0.385,0.068 0.77,0.222 1.155,0.288c0.861,0.15 1.971,-0.109 2.515,-0.886c0.272,-0.412 0.476,-0.738 0.566,-1.239c0.204,-0.888 -0.135,-1.999 -0.86,-2.558Z" style="fill:#36d7be;fill-rule:nonzero;"/><path d="M278.606,232.403c-0.249,-0.383 -0.612,-0.678 -0.997,-0.929c-0.793,-0.476 -1.722,-0.587 -2.628,-0.385c-0.952,0.204 -1.79,0.702 -2.583,1.268c-0.929,0.657 -1.858,1.34 -2.787,2.017c-0.77,0.566 0.023,1.813 0.838,1.271c0.771,-0.501 1.564,-1.022 2.334,-1.52c0.657,-0.428 1.314,-0.907 2.04,-1.178c0.566,-0.204 1.155,-0.295 1.699,-0.046c0.498,0.229 0.793,0.612 1.065,1.133c0.294,0.567 1.268,0.363 1.313,-0.272c0.046,-0.498 0.023,-0.926 -0.294,-1.359Z" style="fill:#202b59;fill-rule:nonzero;"/><path d="M362.777,416.877l-62.035,-0c-26.464,-0 -47.943,-21.457 -47.943,-47.943c0,-26.463 21.479,-47.942 47.943,-47.942l62.035,-0c26.486,-0 47.943,21.479 47.943,47.942c-0,26.486 -21.457,47.943 -47.943,47.943Z" style="fill:#202b59;fill-rule:nonzero;"/><path d="M285.063,350.333c0,-0 -0.544,-1.609 -1.608,-2.719c-1.088,-1.088 -2.697,-1.699 -2.697,-1.699c0,-0 1.315,-0.159 2.697,-1.564c1.178,-1.223 1.608,-2.854 1.608,-2.854c0,-0 0.295,1.699 1.382,2.809c1.088,1.133 2.923,1.609 2.923,1.609c0,-0 -1.473,0.181 -2.718,1.45c-1.247,1.291 -1.587,2.968 -1.587,2.968Z" style="fill:#fff;fill-rule:nonzero;"/><path d="M377.255,406.726c0,0 -0.907,-2.628 -2.629,-4.418c-1.744,-1.79 -4.418,-2.787 -4.418,-2.787c0,0 2.175,-0.272 4.418,-2.56c1.927,-1.994 2.629,-4.645 2.629,-4.645c0,0 0.476,2.764 2.243,4.6c1.79,1.812 4.803,2.605 4.803,2.605c0,0 -2.446,0.295 -4.463,2.379c-2.039,2.085 -2.583,4.826 -2.583,4.826Z" style="fill:#fff;fill-rule:nonzero;"/><path d="M107.205,237.639c1.994,4.803 4.419,9.446 7.296,13.818c0.272,0.408 -0.113,1.111 -0.634,0.932c-5.982,-1.929 -11.351,-5.486 -15.475,-10.334c-0.929,-1.065 -1.767,-2.198 -2.56,-3.376l-30.225,-0c-9.244,-0 -17.604,-3.827 -23.676,-10.015c-6.073,-6.185 -9.811,-14.749 -9.811,-24.197c-0,-18.874 14.999,-34.19 33.487,-34.19l33.533,0c9.243,0 17.604,3.829 23.699,10.015c6.049,6.185 9.788,14.749 9.788,24.175c-0,16.041 -10.83,29.479 -25.422,33.172Z" style="fill:#aa80f9;fill-rule:nonzero;"/><path d="M389.897,128.824c0.725,5.9 1.473,11.781 2.198,17.681c0.068,0.497 -0.566,0.796 -0.929,0.481c-3.783,-3.496 -7.227,-7.391 -10.241,-11.617c-1.359,-1.905 -2.582,-3.894 -3.761,-5.915l-22.747,-0c-17.65,-0 -31.97,-14.764 -31.97,-32.991c0,-18.228 14.32,-32.991 31.97,-32.991l29.25,-0c17.672,-0 31.992,14.763 31.992,32.991c-0,16.023 -11.08,29.379 -25.762,32.361Z" style="fill:#36bfe3;fill-rule:nonzero;"/><path d="M313.362,348.905c1.042,-1.087 0.045,-3.33 -1.495,-3.058c-1.677,0.272 -2.946,0.543 -4.532,1.246c-1.337,0.589 -2.628,1.201 -3.919,1.903c-2.719,1.495 -5.438,3.036 -8.089,4.667c-5.302,3.286 -10.49,6.729 -15.407,10.604c-1.699,1.314 -1.926,4.463 0.385,5.392c2.47,0.997 4.803,3.195 7.001,4.736c2.288,1.631 4.6,3.262 6.888,4.893c2.311,1.654 4.599,3.308 6.888,4.917c2.288,1.631 4.803,3.036 6.956,4.849c2.922,2.469 6.298,-2.493 2.9,-4.532c-2.402,-1.45 -4.577,-3.421 -6.865,-5.075c-2.289,-1.631 -4.577,-3.285 -6.866,-4.916c-2.311,-1.654 -4.576,-3.308 -6.865,-4.962c-1.133,-0.816 -2.424,-1.609 -3.647,-2.47c3.897,-2.696 7.816,-5.392 11.804,-7.93c5.007,-3.195 10.74,-5.936 14.863,-10.264Z" style="fill:#fff;fill-rule:nonzero;"/><path d="M349.205,338.211c-0.158,-1.472 -1.812,-1.948 -2.786,-0.951c-1.858,1.903 -2.697,4.939 -3.671,7.386c-0.997,2.583 -2.062,5.12 -3.127,7.658c-2.22,5.211 -4.531,10.354 -7.001,15.429c-4.916,10.128 -10.308,20.097 -15.905,29.862c-1.268,2.221 2.266,4.645 3.739,2.493c6.547,-9.516 12.166,-19.417 17.083,-29.93c2.447,-5.234 4.758,-10.536 6.865,-15.928c0.997,-2.583 1.949,-5.166 2.878,-7.794c0.906,-2.538 2.22,-5.483 1.925,-8.225Z" style="fill:#fff;fill-rule:nonzero;"/><path d="M384.12,369.705c-4.078,-4.237 -8.157,-8.474 -12.394,-12.552c-4.191,-4.033 -8.496,-8.27 -13.322,-11.51c-1.903,-1.292 -3.919,1.019 -2.311,2.764c3.874,4.214 8.338,7.93 12.439,11.94c3.557,3.467 7.046,7.024 10.377,10.717c-3.874,2.515 -7.636,5.098 -11.397,7.817c-4.418,3.24 -9.244,6.208 -13.412,9.787c-2.221,1.926 -0.046,5.325 2.537,3.875c4.781,-2.674 9.221,-6.186 13.776,-9.267c4.599,-3.104 9.085,-6.276 13.48,-9.674c1.315,-1.02 1.337,-2.719 0.227,-3.897Z" style="fill:#fff;fill-rule:nonzero;"/><path d="M87.426,211.218c-2.583,2.266 -5.03,4.713 -7.499,7.115c-1.858,-2.13 -3.694,-4.282 -5.529,-6.433c-1.11,-1.316 -2.243,-2.607 -3.376,-3.922l-1.767,-2.107c-0.181,-0.204 -0.521,-0.747 -0.77,-0.883c1.291,-0.907 2.446,-2.334 3.579,-3.376c1.269,-1.178 2.538,-2.334 3.761,-3.535c2.039,-1.971 4.6,-3.919 6.322,-6.298c0.679,0.883 1.518,1.654 2.175,2.424c1.223,1.382 2.424,2.787 3.647,4.169c2.04,2.311 4.011,4.69 5.937,7.092c-0.567,0.498 -1.088,1.064 -1.631,1.54c-1.609,1.405 -3.24,2.787 -4.849,4.214Zm10.286,-6.389c-2.424,-2.968 -4.894,-5.891 -7.432,-8.745c-1.223,-1.36 -2.492,-2.697 -3.76,-4.011c-1.201,-1.201 -2.425,-2.741 -4.033,-3.33c-2.697,0.611 -4.147,1.926 -5.597,3.194c-1.518,1.314 -3.059,2.629 -4.554,3.965c-1.405,1.269 -2.764,2.583 -4.146,3.897c-1.224,1.178 -3.149,2.47 -3.738,4.101c-0.68,1.858 0.702,3.172 1.79,4.418c1.336,1.541 2.673,3.082 4.01,4.622c2.651,3.082 5.324,6.14 7.998,9.222c0.861,0.997 1.994,1.11 2.968,0.183c2.968,-2.832 6.049,-5.553 8.882,-8.521c1.336,-1.402 2.673,-2.807 4.01,-4.237c0.634,-0.657 1.518,-1.359 2.152,-2.152c0.34,0.022 0.68,-0.023 0.997,-0.25c0.68,-0.475 1.019,-1.653 0.453,-2.356Z" style="fill:#fff;fill-rule:nonzero;"/><path d="M355.323,109.336c-0.476,-1.078 -0.725,-2.374 -0.77,-3.353c-0.136,-2.354 -0.318,-4.706 -0.476,-7.057c-0.25,-4.036 -0.499,-8.155 -1.088,-12.174c0.272,-0.281 0.431,-0.696 0.249,-1.214c-0.181,-0.522 -0.249,-0.991 -0.249,-1.469c9.63,0.56 19.485,0.621 29.046,-0.756c-0.385,8.612 -0.339,17.235 -0.453,25.854c-8.746,-0.272 -17.514,0.049 -26.259,0.169Zm28.775,-27.285c0.045,-0.574 -0.567,-1 -1.066,-0.979c-10.444,0.469 -20.754,0.981 -31.198,0.308c-0.589,-0.039 -1.043,0.548 -1.178,1.065c-0.159,0.553 -0.227,1.096 -0.204,1.636c-0.544,5.709 -0.25,10.932 -0.046,16.05c0.114,2.678 0.227,5.356 0.385,8.032c0.091,1.846 -0.181,4.635 2.153,5.111c1.042,0.213 2.22,0.025 3.263,0.012c1.268,-0.019 2.537,-0.034 3.806,-0.053l7.567,-0.104c5.256,-0.072 10.513,-0.111 15.77,-0.466c0.883,-0.062 1.654,-0.904 1.586,-1.842c-0.816,-9.566 -1.292,-19.173 -0.838,-28.77Z" style="fill:#fff;fill-rule:nonzero;"/><path d="M388.243,345.869c-0.792,-1.472 -1.042,-1.676 -1.359,-1.835c-1.88,4.803 -1.586,4.894 -1.246,4.894c2.696,-2.628 2.673,-2.832 2.605,-3.059Z" style="fill:#fff;fill-rule:nonzero;"/><path d="M391.71,362.953c-0.951,1.223 -0.136,1.359 -0.045,0.747c0.113,-0.521 0.113,-0.657 0.045,-0.747Z" style="fill:#fff;fill-rule:nonzero;"/><path d="M331.964,329.579c-1.949,-0 -1.745,3.081 0.203,3.081c1.949,0 1.745,-3.081 -0.203,-3.081Z" style="fill:#fff;fill-rule:nonzero;"/><path d="M267.414,371.54c-0.114,-0.317 -0.295,-0.589 -0.544,-0.816c-0.68,-0.408 -0.975,-0.453 -1.292,-0.43c-1.495,2.764 -1.314,3.036 -1.064,3.24c0.679,0.407 0.974,0.475 1.291,0.453c1.676,-2.13 1.631,-2.289 1.609,-2.447Z" style="fill:#fff;fill-rule:nonzero;"/><path d="M338.511,384.296c-3.466,-0 -3.103,5.483 0.34,5.483c3.466,-0 3.104,-5.483 -0.34,-5.483Z" style="fill:#fff;fill-rule:nonzero;"/><path d="M283.455,391.569c-1.247,-0 -1.111,1.948 0.113,1.948c1.223,0 1.11,-1.948 -0.113,-1.948Z" style="fill:#fff;fill-rule:nonzero;"/><path d="M312.931,331.663c-3.761,0 -3.353,5.959 0.363,5.959c3.761,0 3.376,-5.959 -0.363,-5.959Z" style="fill:#fff;fill-rule:nonzero;"/><path d="M636.067,280.481l-0,4.962c-0.726,-0.612 -1.473,-1.224 -2.221,-1.813c-13.821,-11.079 -30.156,-17.468 -46.424,-23.699c-8.701,-3.353 -17.424,-6.593 -26.192,-9.742c-4.372,-1.564 -8.723,-3.15 -13.118,-4.713c-2.175,-0.768 -4.373,-1.561 -6.548,-2.334c-1.835,-0.634 -3.716,-0.949 -4.826,-2.696c-0.249,-0.362 -0.068,-0.813 0.317,-0.974c2.198,-0.861 4.554,0.478 6.684,1.178c2.605,0.838 5.256,1.699 7.862,2.583c4.826,1.608 9.629,3.285 14.41,4.984c9.04,3.24 18.035,6.548 27.007,9.947c8.429,3.217 16.834,6.48 24.855,10.626c6.412,3.285 12.529,7.182 18.194,11.691Z" style="fill:#fff;fill-rule:nonzero;"/><path d="M246.682,308.78c-0.362,-0.499 -1.065,-0.204 -1.065,0.362c-0.022,1.337 -4.713,-0.181 -5.437,-0.34c-1.609,-0.339 -3.195,-0.702 -4.758,-1.132c-3.308,-0.907 -6.503,-2.13 -9.675,-3.376c-6.095,-2.402 -12.189,-4.826 -18.194,-7.455c-11.351,-4.984 -22.068,-11.079 -32.241,-18.216c1.065,-0.68 2.063,-1.427 3.082,-2.243c0.249,-0.204 0.068,-0.657 -0.272,-0.544c-1.858,0.725 -3.784,0.884 -5.732,1.111c-1.201,0.135 -1.926,1.789 -0.861,2.628c12.257,9.72 25.965,16.97 40.307,22.929c7.001,2.922 14.07,6.004 21.343,8.224c3.444,1.042 7.182,2.017 10.784,1.314c1.518,-0.294 4.011,-1.314 2.719,-3.262Z" style="fill:#fff;fill-rule:nonzero;"/><path d="M180.32,273.163c-0.136,-0.544 -0.793,-0.816 -1.292,-0.657c-0.566,0.204 -1.042,0.544 -1.473,0.974c-2.446,2.991 -2.084,4.418 -0.996,5.007c0.816,0.453 1.903,0.34 2.628,-0.226c0.725,-0.567 1.11,-1.45 1.291,-2.357c0.204,-0.929 0.091,-1.835 -0.158,-2.741Z" style="fill:#202b59;fill-rule:nonzero;"/><path d="M182.178,266.638c-0.952,-0.318 -1.269,0.815 -1.45,1.631c-0,-1.337 -0.068,-2.674 -0.476,-3.92c-0.068,-1.019 -0.068,-1.787 -0.113,-2.56c-0.046,-0.793 -0.091,-1.586 -0.159,-2.354c-0.023,-0.184 -0.385,-1.996 -0.34,-2.041c0.34,-0.318 0.09,-0.929 -0.34,-0.997c-1.427,-0.25 -2.039,1.268 -2.152,2.447c-0.114,1.064 -0.204,2.152 -0.25,3.217c-0.634,0.272 -1.087,0.861 -1.019,1.79c0.317,4.373 0.634,8.745 0.906,13.141c0.159,2.334 3.512,2.062 3.512,-0.227c0.408,-1.54 0.634,-1.767 0.68,-2.152c0.226,-1.314 0.363,-2.628 0.521,-3.942c0.068,-0.635 0.136,-1.269 0.227,-1.904c0.045,-0.34 0.022,-1.563 0.475,-1.676c0.25,-0.068 0.159,-0.385 -0.022,-0.453Z" style="fill:#202b59;fill-rule:nonzero;"/><path d="M175.992,170.594c-0.227,-1.065 -0.272,-1.563 -0.339,-2.039c-0.114,-0.951 -0.25,-1.88 -0.363,-2.809c-0.091,-0.952 -0.226,-1.881 -0.385,-2.81c-0.204,-1.042 -0.544,-2.084 -0.839,-3.104c-0.339,-1.201 -1.744,-1.223 -2.492,-0.498c-1.246,1.223 -1.812,3.036 -2.017,4.735c-0.045,0.476 -0.068,0.952 -0.068,1.405c-1.042,-0.635 -2.084,-1.36 -3.171,-1.858c-0.861,-0.363 -1.836,-0.113 -2.357,0.68c-0.498,0.77 -0.407,1.903 0.318,2.492c0.702,0.77 0.974,1.065 1.245,1.359c0.431,0.453 0.907,0.861 1.405,1.224c1.065,0.748 2.334,1.676 3.693,1.495c0.25,0.159 0.499,0.317 0.748,0.476c0.136,0.476 0.295,0.906 0.567,1.337c1.11,1.926 4.372,0.815 4.078,-1.428c-0.023,-0.204 -0,-0.43 -0.023,-0.657Z" style="fill:#202b59;fill-rule:nonzero;"/><path d="M482.882,178.479c-7.023,0 -12.733,5.71 -12.733,12.711c-0,7.023 5.71,12.71 12.733,12.71c7.001,0 12.711,-5.687 12.711,-12.71c-0,-7.001 -5.71,-12.711 -12.711,-12.711Zm-0,29.386c-9.199,0 -16.675,-7.477 -16.675,-16.675c-0,-9.176 7.476,-16.653 16.675,-16.653c9.176,-0 16.653,7.477 16.653,16.653c0,9.198 -7.477,16.675 -16.653,16.675Z" style="fill:#fff;fill-rule:nonzero;"/><path d="M469.039,192.164c-2.402,-1.36 -5.642,-1.971 -8.27,-0.861c-0.703,0.294 -1.314,0.634 -1.881,1.155c-0.294,0.25 -0.543,0.499 -0.747,0.816c-0.862,3.013 -0.771,3.535 -0.68,4.078c1.223,-0.181 1.812,-0.657 2.447,-1.133c3.33,-0.589 3.852,-0.566 4.35,-0.475c0.521,0.09 1.019,0.204 1.54,0.362c2.334,0.793 3.807,0.499 4.351,-0.77c0.544,-1.246 0.045,-2.515 -1.11,-3.172Z" style="fill:#fff;fill-rule:nonzero;"/><path d="M448.625,491.282c-9.426,2.379 -19.372,1.382 -28.707,4.305c-8.768,2.742 -13.979,9.154 -19.281,16.223c-4.803,6.434 -13.118,15.882 -22.226,11.872c-3.694,-1.631 -6.39,-5.528 -6.481,-9.584c-0.113,-4.282 2.584,-7.975 5.778,-10.558c6.775,-5.483 15.747,-6.639 23.224,-10.853c7.952,-4.509 11.895,-13.096 18.012,-19.576c4.916,-5.211 11.011,-9.697 17.944,-11.577c0.045,0.453 0.454,0.929 1.043,0.793c20.21,-4.894 36.613,22.385 10.694,28.955Zm18.125,-18.941c-2.356,-6.865 -10.195,-12.439 -17.763,-14.251c-8.995,-2.153 -17.853,0.747 -25.172,6.117c-4.146,3.036 -7.771,6.729 -10.988,10.717c-3.354,4.169 -6.027,9.108 -10.219,12.507c-7.794,6.321 -18.647,6.842 -26.554,13.05c-7.114,5.574 -10.377,15.248 -3.784,22.657c6.775,7.613 17.197,4.554 23.903,-1.427c7.84,-6.979 11.737,-17.922 21.91,-22.227c10.218,-4.327 21.705,-2.696 32.241,-5.641c5.166,-1.451 10.082,-4.079 13.549,-8.248c3.761,-4.554 4.305,-9.13 2.877,-13.254Z" style="fill:#aa80f9;fill-rule:nonzero;"/></svg>