<?xml version="1.0" encoding="UTF-8" standalone="no"?>
<!DOCTYPE svg PUBLIC "-//W3C//DTD SVG 1.1//EN" "http://www.w3.org/Graphics/SVG/1.1/DTD/svg11.dtd">
<svg width="100%" height="100%" viewBox="0 0 64 64" version="1.1" xmlns="http://www.w3.org/2000/svg" xmlns:xlink="http://www.w3.org/1999/xlink" xml:space="preserve" xmlns:serif="http://www.serif.com/" style="fill-rule:evenodd;clip-rule:evenodd;stroke-linejoin:round;stroke-miterlimit:2;">
    <g transform="matrix(0.531332,0,0,0.531332,-874.818,-672.735)">
        <path d="M1749,1416.88C1749.52,1406.71 1750.66,1397.04 1753.09,1389.29C1754.97,1383.23 1758.01,1378.33 1759.71,1375.29C1764.41,1375.29 1772.92,1380.66 1772.92,1389.42C1763.85,1400.15 1758.71,1413.76 1755.83,1424.76C1756.43,1419.78 1754.49,1411.7 1749,1416.88Z" style="fill:url(#_Linear1);"/>
        <path d="M1759.71,1375.29C1758.01,1378.33 1755.93,1383.22 1754.05,1389.28C1748.36,1381.14 1735.79,1376.12 1725.42,1373.92C1729.62,1371.34 1734.57,1367.89 1736.37,1363.49C1744.74,1367.03 1753.27,1371.63 1759.71,1375.29Z" style="fill:url(#_Linear2);"/>
        <path d="M1685.34,1373.5C1685.63,1371.17 1687.37,1368.29 1686,1363.68L1685.98,1363.55C1688.49,1363.23 1690.91,1363 1693.07,1363C1693.27,1366.95 1692.04,1368.46 1694.06,1369.76C1699.5,1373.24 1721.75,1373.77 1727.29,1360.08C1730.21,1361 1733.29,1362.18 1736.37,1363.49C1734.57,1367.89 1731.21,1371.31 1727.01,1373.89C1713.94,1381.92 1692.47,1382.32 1687.23,1378.51C1685.46,1377.23 1685.08,1375.24 1685.34,1373.5Z" style="fill:url(#_Linear3);"/>
        <path d="M1686,1363.68C1687.37,1368.29 1686.37,1371.33 1686.08,1373.65C1678.9,1373.71 1668.12,1378.36 1662.3,1380.73C1663.86,1376.06 1667.67,1370.11 1669.39,1366.39C1672.62,1365.97 1679.48,1364.39 1685.98,1363.55L1686,1363.68Z" style="fill:url(#_Linear4);"/>
        <path d="M1652.32,1429.77C1649.6,1414.68 1647.81,1401.22 1649.13,1389.48C1649.7,1384.46 1651.94,1379.5 1653.12,1375.29C1655.43,1368.41 1664.09,1364.55 1669.39,1366.39C1667.67,1370.11 1665.97,1374.21 1664.41,1378.88C1660.69,1389.92 1657.75,1404.13 1657.17,1423.94C1657.13,1423.84 1657.09,1423.76 1657.05,1423.66C1657.25,1421.34 1656.15,1417.56 1653.72,1418C1651.38,1418.42 1652.08,1427.56 1652.32,1429.77Z" style="fill:url(#_Linear5);"/>
        <path d="M1664.41,1378.88C1670.23,1376.51 1678.9,1373.71 1686.08,1373.65C1685.82,1375.39 1685.98,1376.75 1687.75,1378.03C1692.99,1381.84 1713.94,1381.92 1727.01,1373.89C1737.38,1376.09 1748.36,1381.14 1754.05,1389.28C1751.62,1397.03 1749.52,1406.71 1749,1416.88C1748.88,1419.22 1748.84,1421.58 1748.9,1423.96C1746.06,1443.76 1744.9,1472.07 1731.99,1487.9L1731.97,1487.92C1725.95,1490.7 1719.18,1492.71 1712.26,1494.07L1712.2,1493.75C1699.01,1495.91 1691.67,1489.54 1683.04,1483.08C1663.59,1468.55 1665.15,1444.6 1657.17,1423.94C1657.75,1404.13 1660.69,1389.92 1664.41,1378.88ZM1673.94,1465.95C1673.4,1466.49 1674.5,1469.79 1677.24,1469.79C1680,1469.79 1676.56,1463.33 1673.94,1465.95Z" style="fill:rgb(170,128,249);fill-rule:nonzero;"/>
        <path d="M1718.48,1351.55C1718.23,1352.03 1717.95,1352.44 1717.63,1352.76C1712.36,1358.04 1707.16,1358.94 1696.75,1358.94C1694.53,1358.94 1692.69,1358.08 1691.11,1356.22C1692.51,1359.02 1692.99,1361.22 1693.07,1363C1695.55,1368.2 1710.08,1368.72 1718.15,1364.16C1719.92,1360.89 1719.16,1355.34 1718.48,1351.55Z" style="fill:url(#_Linear6);"/>
        <path d="M1729.39,1330.04C1729.39,1325.18 1726.09,1321.9 1723.07,1324.92C1722.39,1325.6 1721.22,1326.72 1720.82,1327.82C1720.58,1328.48 1720.78,1329.07 1720.48,1330.18C1718.79,1336.52 1724.12,1340.42 1726.87,1337.67C1728.12,1336.41 1729.39,1336.23 1729.39,1330.04Z" style="fill:rgb(255,152,100);fill-rule:nonzero;"/>
        <path d="M1738.8,1301.09C1743.4,1300.09 1744.06,1306.39 1743.2,1313.29C1742.24,1317.18 1738.37,1317.42 1734.6,1317.32C1718.79,1316.88 1723.27,1299.77 1705.86,1300.28C1701.17,1300.42 1669.08,1303.99 1678.96,1289.62C1679.72,1288.66 1680.7,1287.9 1681.86,1287.36C1688.5,1284.32 1703.25,1292.44 1707.22,1290.02C1735.79,1272.55 1727.21,1303.63 1738.8,1301.09Z" style="fill:url(#_Linear7);"/>
        <path d="M1734.49,1316.5C1718.68,1316.06 1723.41,1298.9 1706,1299.41C1701.31,1299.55 1669.63,1303.97 1678.96,1289.62C1674.24,1295.36 1676.64,1307.93 1687.69,1316.34L1687.87,1316.32C1687.75,1314.88 1687.61,1313.39 1687.76,1312.01C1687.91,1310.65 1688.34,1309.37 1689.37,1308.35C1690.87,1313.17 1702.7,1315.3 1711.6,1311.93C1718.68,1309.27 1712.64,1315.8 1712.78,1322.32C1712.05,1323.01 1712.43,1323.48 1713.02,1324.18L1713.02,1324.22C1713.32,1325.54 1713.98,1326.84 1715.14,1328C1715.54,1328.4 1715.66,1329.13 1715.56,1330.04C1715.2,1333.15 1712.26,1338.35 1708.56,1340.21C1703.75,1342.61 1697.79,1336.39 1691.47,1337.01C1685.14,1337.63 1685.14,1340.57 1685.14,1340.57C1686.87,1348.34 1688.69,1353.4 1691.11,1356.2L1691.11,1356.22C1692.69,1358.08 1694.53,1358.94 1696.75,1358.94C1707.16,1358.94 1712.36,1358.04 1717.63,1352.76C1721.01,1349.38 1720.21,1336.87 1720.79,1330.5C1720.89,1329.35 1721.03,1328.38 1721.27,1327.72C1721.67,1326.62 1722.39,1325.6 1723.07,1324.92C1726.09,1321.9 1729.39,1325.18 1729.39,1330.04C1729.39,1336.23 1727.71,1336.87 1726.87,1337.67C1726.87,1337.67 1724.31,1339.95 1725.59,1344.95C1730.21,1337.55 1737.64,1331.65 1739.66,1327.14C1741.02,1324.12 1742.54,1318.54 1743.2,1313.29C1741.92,1316.7 1738.26,1316.6 1734.49,1316.5Z" style="fill:url(#_Linear8);"/>
        <path d="M1695.53,1344.23C1700.07,1344.23 1692.09,1339.13 1689.27,1341.97C1686.46,1344.77 1690.99,1344.23 1695.53,1344.23Z" style="fill:url(#_Linear9);"/>
        <path d="M1713.02,1324.22C1713.32,1325.54 1713.98,1326.84 1715.14,1328C1715.54,1328.4 1715.66,1329.13 1715.56,1330.04C1715.2,1333.15 1712.26,1338.35 1708.56,1340.21C1703.75,1342.61 1697.79,1336.39 1691.47,1337.01C1685.14,1337.63 1685.14,1340.57 1685.14,1340.57C1682.28,1327.62 1688,1322.2 1688,1318.74C1688,1317.96 1687.95,1317.14 1687.87,1316.32C1687.75,1314.88 1687.61,1313.39 1687.76,1312.01C1690.71,1314.9 1696.75,1316.41 1700.35,1316.41C1704.59,1316.41 1712.54,1314.96 1712.78,1322.32C1712.8,1322.94 1712.86,1323.58 1713.02,1324.18L1713.02,1324.22Z" style="fill:rgb(255,152,100);fill-rule:nonzero;"/>
        <path d="M1711.6,1311.93C1718.68,1309.27 1712.64,1315.8 1712.78,1322.32C1711.38,1314.81 1704.67,1317.08 1700.43,1317.08C1696.83,1317.08 1690.03,1317.42 1687.76,1312.01C1687.91,1310.65 1688.34,1309.37 1689.37,1308.35C1690.87,1313.17 1702.7,1315.3 1711.6,1311.93Z" style="fill:url(#_Linear10);"/>
        <path d="M1724.55,1353C1723.93,1350.1 1724.11,1347.32 1725.59,1344.95C1724.87,1342.14 1725.37,1340.21 1725.94,1339.04C1726.24,1338.6 1726.57,1338.12 1726.91,1337.63L1726.87,1337.67C1724.45,1340.09 1720.89,1337 1720.67,1332.45C1720.62,1333.4 1720.58,1334.35 1720.57,1334.62C1720.38,1340.45 1720.37,1347.97 1718.48,1351.55C1719.16,1355.33 1718.51,1359.07 1716.75,1362.34C1708.67,1366.91 1696.67,1367.93 1693.07,1363C1693.27,1366.95 1691.51,1368.75 1693.53,1370.05C1698.97,1373.53 1721.75,1373.77 1727.29,1360.08C1726.03,1357.72 1725.03,1355.32 1724.55,1353Z" style="fill:rgb(255,152,100);fill-rule:nonzero;"/>
        <path d="M1651.42,1326.15C1651.42,1294.75 1675.08,1271.08 1706.49,1271.08C1737.89,1271.08 1761.55,1294.75 1761.55,1326.15C1761.55,1357.55 1737.89,1381.22 1706.49,1381.22C1675.08,1381.22 1651.42,1357.55 1651.42,1326.15ZM1647.54,1326.15C1647.54,1358.65 1673.98,1385.1 1706.49,1385.1C1738.99,1385.1 1765.43,1358.65 1765.43,1326.15C1765.43,1293.64 1738.99,1267.2 1706.49,1267.2C1673.98,1267.2 1647.54,1293.64 1647.54,1326.15Z" style="fill:rgb(203,177,251);fill-rule:nonzero;"/>
        <path d="M1658.37,1311.17L1659.32,1311.46C1660.29,1308.33 1661.59,1305.29 1663.17,1302.41L1662.29,1301.93C1660.68,1304.87 1659.36,1307.97 1658.37,1311.17Z" style="fill:rgb(203,177,251);fill-rule:nonzero;"/>
        <path d="M1666.05,1296.08L1666.85,1296.68C1672.12,1289.61 1679.17,1284.07 1687.26,1280.65L1686.87,1279.72C1678.62,1283.21 1671.42,1288.87 1666.05,1296.08Z" style="fill:rgb(203,177,251);fill-rule:nonzero;"/>
    </g>
    <defs>
        <linearGradient id="_Linear1" x1="0" y1="0" x2="1" y2="0" gradientUnits="userSpaceOnUse" gradientTransform="matrix(-9.15877,20.8025,-20.8025,-9.15877,1767.99,1376.24)"><stop offset="0" style="stop-color:rgb(170,128,249);stop-opacity:1"/><stop offset="1" style="stop-color:rgb(213,11,39);stop-opacity:1"/></linearGradient>
        <linearGradient id="_Linear2" x1="0" y1="0" x2="1" y2="0" gradientUnits="userSpaceOnUse" gradientTransform="matrix(-24.3172,-15.0585,15.0585,-24.3172,1757.67,1381.7)"><stop offset="0" style="stop-color:rgb(191,203,216);stop-opacity:1"/><stop offset="1" style="stop-color:rgb(125,159,173);stop-opacity:1"/></linearGradient>
        <linearGradient id="_Linear3" x1="0" y1="0" x2="1" y2="0" gradientUnits="userSpaceOnUse" gradientTransform="matrix(14.2841,-29.8422,29.8422,14.2841,1690.2,1389.41)"><stop offset="0" style="stop-color:rgb(213,11,39);stop-opacity:1"/><stop offset="1" style="stop-color:rgb(170,128,249);stop-opacity:1"/></linearGradient>
        <linearGradient id="_Linear4" x1="0" y1="0" x2="1" y2="0" gradientUnits="userSpaceOnUse" gradientTransform="matrix(20.4467,-4.24572,4.24572,20.4467,1666.15,1372.05)"><stop offset="0" style="stop-color:rgb(191,203,216);stop-opacity:1"/><stop offset="1" style="stop-color:rgb(125,159,173);stop-opacity:1"/></linearGradient>
        <linearGradient id="_Linear5" x1="0" y1="0" x2="1" y2="0" gradientUnits="userSpaceOnUse" gradientTransform="matrix(-9.42637,41.1705,-41.1705,-9.42637,1662.62,1361.41)"><stop offset="0" style="stop-color:rgb(170,128,249);stop-opacity:1"/><stop offset="1" style="stop-color:rgb(213,11,39);stop-opacity:1"/></linearGradient>
        <linearGradient id="_Linear6" x1="0" y1="0" x2="1" y2="0" gradientUnits="userSpaceOnUse" gradientTransform="matrix(-6.33749,-19.8449,19.8449,-6.33749,1708.47,1365.72)"><stop offset="0" style="stop-color:rgb(255,151,100);stop-opacity:1"/><stop offset="1" style="stop-color:rgb(228,66,56);stop-opacity:1"/></linearGradient>
        <linearGradient id="_Linear7" x1="0" y1="0" x2="1" y2="0" gradientUnits="userSpaceOnUse" gradientTransform="matrix(-7.67072,42.3601,-42.3601,-7.67072,1717.16,1265.6)"><stop offset="0" style="stop-color:rgb(253,244,193);stop-opacity:1"/><stop offset="1" style="stop-color:rgb(253,184,40);stop-opacity:1"/></linearGradient>
        <linearGradient id="_Linear8" x1="0" y1="0" x2="1" y2="0" gradientUnits="userSpaceOnUse" gradientTransform="matrix(38.1916,-69.7092,69.7092,38.1916,1673.36,1373.87)"><stop offset="0" style="stop-color:rgb(163,73,20);stop-opacity:1"/><stop offset="1" style="stop-color:rgb(253,184,40);stop-opacity:1"/></linearGradient>
        <linearGradient id="_Linear9" x1="0" y1="0" x2="1" y2="0" gradientUnits="userSpaceOnUse" gradientTransform="matrix(8.49707,0,0,8.49707,1688.4,1342.69)"><stop offset="0" style="stop-color:rgb(255,151,100);stop-opacity:1"/><stop offset="1" style="stop-color:rgb(228,66,56);stop-opacity:1"/></linearGradient>
        <linearGradient id="_Linear10" x1="0" y1="0" x2="1" y2="0" gradientUnits="userSpaceOnUse" gradientTransform="matrix(1.50092,-11.341,11.341,1.50092,1700.66,1317.89)"><stop offset="0" style="stop-color:rgb(255,151,100);stop-opacity:1"/><stop offset="1" style="stop-color:rgb(228,66,56);stop-opacity:1"/></linearGradient>
    </defs>
</svg>
