<?xml version="1.0" encoding="UTF-8" standalone="no"?><!DOCTYPE svg PUBLIC "-//W3C//DTD SVG 1.1//EN" "http://www.w3.org/Graphics/SVG/1.1/DTD/svg11.dtd"><svg width="100%" height="100%" viewBox="0 0 144 144" version="1.1" xmlns="http://www.w3.org/2000/svg" xmlns:xlink="http://www.w3.org/1999/xlink" xml:space="preserve" xmlns:serif="http://www.serif.com/" style="fill-rule:evenodd;clip-rule:evenodd;stroke-linejoin:round;stroke-miterlimit:2;"><rect id="SML-ICONS" serif:id="SML ICONS" x="-72.168" y="-372.5" width="646.075" height="896.487" style="fill:none;"/><clipPath id="_clip1"><rect x="9.634" y="16.939" width="111.224" height="111.224"/></clipPath><g clip-path="url(#_clip1)"><g><g><path d="M118.031,46.614l-50.851,-22.677c-1.231,-0.553 -2.638,-0.553 -3.875,0l-50.848,22.677c-1.66,0.739 -2.756,2.365 -2.817,4.184c-0.06,1.814 0.912,3.51 2.517,4.363l50.847,27.117c0.701,0.376 1.47,0.56 2.24,0.56c0.775,0 1.542,-0.184 2.245,-0.56l50.849,-27.117c1.604,-0.853 2.576,-2.549 2.518,-4.363c-0.07,-1.819 -1.163,-3.445 -2.825,-4.184Z" style="fill-rule:nonzero;"/><path d="M113.852,66.904l-48.611,25.931l-48.603,-25.931c-2.326,-1.242 -5.207,-0.361 -6.441,1.961c-1.242,2.322 -0.361,5.202 1.96,6.44l50.846,27.125c0.702,0.374 1.47,0.56 2.241,0.56c0.775,-0 1.542,-0.184 2.244,-0.56l50.85,-27.125c2.315,-1.238 3.194,-4.118 1.96,-6.44c-1.243,-2.322 -4.126,-3.203 -6.446,-1.961Z" style="fill-rule:nonzero;"/><path d="M113.852,85.503l-48.611,25.923l-48.603,-25.923c-2.326,-1.242 -5.207,-0.361 -6.441,1.959c-1.242,2.321 -0.361,5.204 1.96,6.441l50.846,27.116c0.702,0.376 1.47,0.562 2.241,0.562c0.775,-0 1.542,-0.184 2.244,-0.562l50.85,-27.116c2.315,-1.237 3.194,-4.12 1.96,-6.441c-1.243,-2.32 -4.122,-3.202 -6.446,-1.959Z" style="fill-rule:nonzero;"/></g></g></g></svg>