<?xml version="1.0" encoding="UTF-8" standalone="no"?><!DOCTYPE svg PUBLIC "-//W3C//DTD SVG 1.1//EN" "http://www.w3.org/Graphics/SVG/1.1/DTD/svg11.dtd"><svg width="100%" height="100%" viewBox="0 0 144 144" version="1.1" xmlns="http://www.w3.org/2000/svg" xmlns:xlink="http://www.w3.org/1999/xlink" xml:space="preserve" xmlns:serif="http://www.serif.com/" style="fill-rule:evenodd;clip-rule:evenodd;stroke-linejoin:round;stroke-miterlimit:2;"><rect id="SML-ICONS" serif:id="SML ICONS" x="-72.168" y="-36.5" width="646.075" height="896.487" style="fill:none;"/><path d="M108.091,61.289l-30.105,-0l25.989,-45.727c0.643,-1.126 0.639,-2.508 -0.011,-3.631c-0.654,-1.121 -1.851,-1.811 -3.148,-1.811l-43.651,0c-1.566,0 -2.955,1.002 -3.449,2.487l-21.825,65.719c-0.374,1.108 -0.185,2.33 0.497,3.278c0.686,0.949 1.784,1.51 2.952,1.51l30.86,0l-19.652,46.1c-0.704,1.638 -0.114,3.546 1.393,4.501c1.481,0.947 3.471,0.698 4.667,-0.653l58.201,-65.719c0.952,-1.07 1.187,-2.601 0.601,-3.905c-0.587,-1.307 -1.886,-2.149 -3.319,-2.149Z" style="fill-rule:nonzero;"/></svg>