<svg xmlns="http://www.w3.org/2000/svg" fill-rule="evenodd" width="100%" height="100%" stroke-linejoin="round" stroke-miterlimit="2" clip-rule="evenodd" version="1.1" viewBox="0 0 654 653" xml:space="preserve"><path d="M-3342-1H943.86v2543.15H-3342z" fill="none"/><path d="M391.367 199.013c-2.9-5.277-9.969-5.125-15.18-5.621a379.777 379.777 0 0 0-21.864-1.459 376.975 376.975 0 0 0-43.524.893c-9.177.72-28.299 4.903-28.049-9.852.203-11.734 10.852-20.624 9.81-32.633-1.043-11.768-10.604-21.395-21.388-25.074-14.841-5.069-30.338-.125-44.499 4.669-.816.279-.385 1.419.408 1.244 13.254-2.913 28.185-6.412 41.598-2.528 9.969 2.886 20.346 11.58 21.162 22.489.929 12.385-11.601 20.414-11.397 32.765.091 5.127 2.628 9.794 7.182 12.275 4.464 2.44 9.947 2.406 14.909 2.041 14.183-1.044 28.276-2.129 42.527-2.011 7.318.061 14.614.326 21.909.806 3.467.229 6.911.51 10.355.836 3.127.297 7.047.163 9.969 1.511 5.959 2.755.045 10.293-2.696 13.151-5.166 5.331-10.604 10.41-15.883 15.601-5.143 5.048-10.264 10.094-15.407 15.14-4.236 4.16-8.541 8.319-11.962 13.195-3.784 5.379-6.367 11.496-6.254 18.162.091 6.351 2.606 12.543 6.299 17.65 8.292 11.532 21.66 16.87 34.529 21.572 2.356.858 4.124-2.581 1.722-3.578-11.464-4.763-24.266-9.756-31.924-20.04-3.443-4.606-5.823-10.094-5.936-15.903-.113-6.142 2.719-11.802 6.389-16.571 3.897-5.098 8.656-9.503 13.21-14.003 5.12-5.059 10.241-10.116 15.361-15.173 2.56-2.529 5.121-5.057 7.681-7.583 2.515-2.468 5.211-4.835 7.409-7.574 3.104-3.836 6.208-9.535 3.534-14.397z" fill="#ff88c4" fill-rule="nonzero"/><path d="M486.209 273.698c-3.285-1.557-6.615-3.066-9.697-5.012a47.141 47.141 0 0 1-1.676-1.187 25.094 25.094 0 0 1-2.039-1.695 20.316 20.316 0 0 1-1.315-1.31c-.113-.154-.611-.775-.611-.781a27.5 27.5 0 0 1-.907-1.305c-.385-.628-.77-1.346-.793-1.412a15.225 15.225 0 0 1-.974-2.766c-.498-1.965-.521-4.058-.226-6.052.634-4.239 2.447-8.263 4.894-11.775 5.8-8.365 14.477-14.253 21.229-21.791 11.216-12.543 17.22-30.925 14.251-47.619-2.99-16.696-15.769-29.311-32.036-33.53-16.88-4.386-34.757-1.976-51.749.544-23.315 3.459-46.606 6.922-69.92 10.386-5.619.834-11.306 2.032-16.97 2.404-4.509.296-8.361-1.208-10.513-5.284-3.399-6.407-2.946-14.303-5.437-21.053-5.551-15.085-22.998-19.564-37.362-21.116-18.126-1.96-38.2-2.59-55.306 4.683-8.904 3.786-15.815 10.046-22.77 16.598-7.386 6.963-15.43 13.971-25.966 15.111-4.689.507-9.221-.173-13.208-2.749 6.797 5.277 15.542 4.609 23.155 1.364 8.836-3.783 15.43-10.957 22.453-17.285 7.545-6.813 15.974-11.691 25.874-14.194 9.517-2.404 19.44-2.787 29.206-2.477 8.768.276 17.65.825 26.214 2.748 7.59 1.706 15.52 4.679 20.799 10.667 5.347 6.093 5.325 13.867 6.82 21.4 1.404 7.035 4.599 14.04 12.597 14.976 5.143.608 10.649-.82 15.724-1.556l17.831-2.579 34.756-5.032c19.077-2.766 38.721-6.99 58.115-5.551 16.314 1.21 33.148 8.039 39.084 24.501 5.438 15.074.566 32.729-9.176 44.932-6.163 7.73-14.433 13.356-21.185 20.527-6.706 7.146-11.917 16.537-11.51 26.613.703 18.212 19.327 24.547 32.967 31.5 3.149 1.606 5.981 2.961 8.632 5.164 1.631 1.343 4.033 1.352 5.596-.08 1.405-1.284 2.153-3.924.725-5.542-5.438-6.235-12.212-9.887-19.576-13.385z" fill="#36bfe3" fill-rule="nonzero"/><path d="M422.86 172.654c-2.401-5.623-9.062-7.515-14.545-8.476-8.769-1.529-17.628-2.501-26.486-3.086a269.718 269.718 0 0 0-26.396-.464c-8.27.262-16.449 1.2-24.673 1.871-5.914.478-12.167.75-17.9-1.078-6.502-2.071-9.561-6.902-10.376-13.506-.454-3.558-.657-7.144-1.79-10.57-1.042-3.138-2.696-6.113-4.758-8.7-4.146-5.22-9.788-9.21-15.951-11.664-14.432-5.73-31.244-3.94-46.22-1.568-12.28 1.947-25.195 5.327-35.096 13.202-4.871 3.87-8.066 8.379-10.649 13.982-1.019 2.218 2.402 3.881 3.421 1.652 5.053-10.955 16.698-17.435 27.665-20.906 6.004-1.892 12.166-3.108 18.397-3.96 7.59-1.04 15.316-1.817 22.997-1.62 13.64.358 29.568 5.501 35.367 19.154 2.72 6.43 1.383 13.834 4.736 20.058 2.628 4.885 7.522 7.726 12.756 9.036 5.528 1.375 11.442 1.285 17.06.768 7.84-.723 15.634-1.781 23.496-2.2a256.035 256.035 0 0 1 52.157 2.574c6.344.965 15.021 2.762 14.409 10.966-.271 3.736-1.563 7.513-2.469 11.136-.884 3.425-1.767 6.847-2.741 10.245-3.943 13.753-9.199 27.56-18.512 38.638-9.425 11.233-22.521 18.209-36.137 23.083-13.685 4.893-28.299 8.956-42.799 10.227-7.183.63-14.456.462-21.479-1.264-7.138-1.756-12.983-5.325-18.715-9.793-5.098-3.967-10.513-7.93-17.242-8.068-7.07-.15-13.436 3.904-18.783 8.132-13.322 10.549-25.829 22.147-38.925 32.99-11.283 9.344-24.13 18.394-39.333 18.731-6.434.145-13.208-1.301-18.556-5.021-5.392-3.752-8.383-9.346-10.399-15.456-2.085-6.256-2.9-12.827-3.761-19.336-.431-3.346-.861-6.7-1.473-10.021-.634-3.467-1.382-7.121-3.557-9.994-4.215-5.565-11.012-5.959-17.401-4.86-6.412 1.101-12.597 3.108-19.054 1.171-12.938-3.879-19.689-17.586-17.582-30.385 2.401-14.75 13.458-24.173 25.399-31.806 6.026-3.847 12.28-7.398 17.808-11.943 5.256-4.322 9.788-9.593 13.028-15.599 2.945-5.51 4.101-12.291 3.081-18.459-.227-1.237-2.039-1.176-1.994.127.68 15.078-12.597 25.872-24.039 33.299-12.438 8.089-26.237 14.839-34.235 27.948-7.454 12.251-8.768 28.86-.113 40.866 4.078 5.637 9.833 9.96 16.472 12.063 6.842 2.166 13.299.777 20.119-.621 2.945-.603 6.186-1.284 9.199-.679 3.444.695 5.12 3.33 6.049 6.538 1.881 6.625 2.289 13.721 3.444 20.5 1.133 6.594 2.56 13.427 5.936 19.286 3.285 5.698 8.248 10.615 14.206 13.438 12.937 6.126 27.959 3.104 40.08-3.442 6.979-3.774 13.255-8.723 19.327-13.807 6.774-5.664 13.435-11.457 20.142-17.192 6.571-5.617 12.96-11.598 19.893-16.775 6.095-4.554 13.436-8.134 20.98-4.876 6.458 2.791 11.329 8.286 17.424 11.732 6.208 3.518 13.254 5.39 20.346 5.997 14.931 1.282 29.839-2.243 44.09-6.312 14.207-4.056 28.571-9.233 40.398-18.323 11.646-8.927 19.417-21.35 24.696-34.869 2.651-6.818 4.758-13.841 6.639-20.906a569.312 569.312 0 0 0 2.673-10.59c.907-3.654 1.79-7.601.249-11.215z" fill="#aa80f9" fill-rule="nonzero"/><path d="M619.003 473.857H300.988c-5.8 0-10.513-4.708-10.513-10.518V251.528c0-5.807 4.713-10.518 10.513-10.518l307.457-5.276c5.799 0 21.07 2.974 21.07 15.794v211.811c0 5.81-4.712 10.518-10.512 10.518z" fill="#202b59" fill-rule="nonzero"/><path d="M607.153 468.582H291.744c-6.525 0-11.805-5.288-11.805-11.811V247.545c0-6.523 5.28-11.811 11.805-11.811h315.409c6.525 0 11.804 5.288 11.804 11.811v209.226c0 6.523-5.279 11.811-11.804 11.811z" fill="#202b59" fill-rule="nonzero"/><path d="M608.58 252.846v198.633a7.063 7.063 0 0 1-7.069 7.066H297.386c-3.92 0-7.092-3.172-7.092-7.066V252.846c0-3.91 3.172-7.08 7.092-7.08h304.125c3.92 0 7.069 3.17 7.069 7.08z" fill="#fff" fill-rule="nonzero"/><path d="M314.038 282.024c-.022-.158-.09-.718-.248-1.248a40.104 40.104 0 0 0 10.399 6.561 123.497 123.497 0 0 1-8.111 5.572c-.408-2.327-.839-4.65-1.269-6.972a77.463 77.463 0 0 0-.771-3.913zm12.236 4.357a39.164 39.164 0 0 1-12.19-7.513c-.68-.623-1.586.249-1.292.958-.317.229-.317.648-.294 1.022.068.675.181 1.351.272 2.021.158 1.251.362 2.495.567 3.741l1.291 7.769c.113.65.747 1.008 1.337.657 3.624-2.161 7.091-4.57 10.421-7.164.477-.367.545-1.239-.112-1.491z" fill="#36bfe3" fill-rule="nonzero"/><path d="M308.692 297.186c-1.428-1.559-3.648-1.987-5.529-1.053-2.198 1.069-3.625 3.564-3.013 5.981.136.585.997.281.883-.294-.407-1.783.657-3.601 2.153-4.516 1.427-.875 3.172-.748 4.418.408 1.065.994 1.631 2.594 1.359 4.035-.271 1.493-1.495 2.529-2.945 2.821a4.586 4.586 0 0 1-2.764-.335c.725.006.77-.517.453-.701-.748-.437-1.609-.648-2.447-.858-.544-.138-.906.521-.634.949 2.197 3.455 8.179 2.948 9.425-1.067.566-1.86-.068-3.965-1.359-5.37zm299.888-44.34v8.615H290.294v-8.615c0-3.91 3.172-7.08 7.092-7.08h304.125c3.92 0 7.069 3.17 7.069 7.08z" fill="#aa80f9" fill-rule="nonzero"/><path d="M301.759 249.128c-2.493 0-4.509 2.008-4.509 4.484 0 2.479 2.016 4.486 4.509 4.486 2.492 0 4.508-2.007 4.508-4.486 0-2.476-2.016-4.484-4.508-4.484zm15.044 0a4.49 4.49 0 0 0-4.486 4.484 4.49 4.49 0 0 0 4.486 4.486c2.492 0 4.508-2.007 4.508-4.486 0-2.476-2.016-4.484-4.508-4.484zm14.614 0c-2.47 0-4.509 2.008-4.509 4.484 0 2.479 2.039 4.486 4.509 4.486 2.492 0 4.509-2.007 4.509-4.486 0-2.476-2.017-4.484-4.509-4.484z" fill="#fff" fill-rule="nonzero"/><path d="M560.276 294.975c-4.69 4.518.997 8.968 3.285 13.046 4.667 8.301.566 18.151-4.826 24.973-6.729 8.512-16.721 14.332-26.441 18.78-18.194 8.353-45.994 19.116-62.669 2.023-4.01-4.114-6.933-9.584-12.145-12.38-2.854-1.547-6.003-1.953-8.994-.442-2.334 1.215-4.283 3.116-6.435 4.625-8.338 5.963-19.372 9.516-29.432 6.122-4.395-1.496-8.337-4.185-11.26-7.826-2.923-3.623-3.761-7.649-4.532-12.115-.317-1.849-.657-4.379-2.038-5.75-1.813-1.76-4.17.158-5.96.913-10.309 4.339-12.529-9.43-12.801-16.152-1.246-29.978-6.344-66.555 5.891-94.927 11.669-27.027 53.63-33.804 77.759-22.077 8.881 4.29 16.902 10.604 23.201 18.147 3.262 3.887 6.117 8.108 8.383 12.626 2.356 4.715 4.101 9.691 6.299 14.458 2.062 4.466 4.781 8.65 8.972 11.392 4.237 2.78 9.335 3.976 14.274 4.73 10.468 1.602 21.411 1.215 31.176 5.873 8.587 4.083 15.18 12.452 14.546 22.336-.159 2.304-.725 4.572-1.881 6.595-1.155 2.057-2.696 3.41-4.372 5.03z" fill="#202b59" fill-rule="nonzero"/><path d="M601.648 412.839c-.318 3.111-2.72 4.958-5.529 5.837-6.82 2.127-14.41 2.832-21.502 3.305-.815.055-1.631.071-2.424.107.068.281.159.58.204.861 1.201 5.768 2.379 11.573 1.858 17.498-.68 7.825-5.053 14.702-10.536 20.346a30.96 30.96 0 0 1-2.31 2.27 437.137 437.137 0 0 0-6.866-.213 3944.387 3944.387 0 0 0-85.213-1.652c-17.559-.158-35.164-.09-52.723-.265a641.802 641.802 0 0 1-15.384-.315c-2.107-.052-4.214-.14-6.299-.247-.204-.457-.385-.915-.566-1.373a683.345 683.345 0 0 1-4.735-11.711c-2.674-6.926-4.962-14.016-7.319-21.064a51.492 51.492 0 0 1-11.147-6.879c-4.305-3.516-8.338-3.612-11.261-8.274-4.531-7.137-6.955-19.474-7.612-27.968-1.088-13.912 3.24-30.934 14.387-40.06.612-.51 1.427.333 1.133.985 8.473-4.538 18.443-7.562 28.298-9.672a37.126 37.126 0 0 1 2.72-6.489 41.424 41.424 0 0 1 3.149-5.084c9.199 2.463 18.714 3.571 28.276 3.659 13.435.159 27.007-1.704 39.967-4.608 12.303-2.744 24.492-6.242 35.956-11.551a93.381 93.381 0 0 0 3.58-1.76c3.218.634 6.457 1.264 9.698 1.969 9.697 2.041 19.348 4.483 28.547 8.213 11.646 4.696 22.612 11.729 30.406 21.682 8.882 11.29 11.714 25.691 15.271 39.249a1980.81 1980.81 0 0 1 5.891 23.002c.793 3.149 2.402 6.912 2.085 10.202z" fill="#aa80f9" fill-rule="nonzero"/><path d="m618.346 486.221-31.29 14.106-5.936 2.671-91.806 50.383c-5.483 1.987-14.614 3.586-20.437 3.586H150.885c-5.822 0-8.881-17.937-3.399-19.922l131.82-56.099c5.46-1.989 14.613-3.604 20.436-3.604l320.869-12.151c5.801 0 3.195 19.043-2.265 21.03z" fill="#202b59" fill-rule="nonzero"/><path d="M468.877 539.386H150.885c-5.8 0-6.095-1.614-.612-3.598l129.033-67.16c5.46-1.987 14.613-3.596 20.414-3.596h317.991c5.823 0 6.095 1.609.635 3.596l-129.055 67.16c-5.46 1.984-14.614 3.598-20.414 3.598z" fill="#202b59" fill-rule="nonzero"/><path d="M598.747 471.285 498.58 523.668l-2.56 1.335c-46.22-.02-92.395.054-138.593.054-38.653 0-77.306 0-115.959.016-18.805 0-37.611.109-56.439.129l3.195-1.679 99.872-52.238c5.007-1.837 13.39-3.314 18.715-3.314h291.37c5.324 0 5.574 1.477.566 3.314z" fill="#ff88c4" fill-rule="nonzero"/><path d="m496.02 525.003-15.52 8.127c-5.007 1.838-13.39 3.315-18.715 3.315H170.438c-5.347 0-5.596-1.477-.589-3.315l15.18-7.928c18.828-.02 37.634-.129 56.439-.129 38.653-.016 77.306-.016 115.959-.016 46.198 0 92.373-.074 138.593-.054z" fill="#aa80f9" fill-rule="nonzero"/><path d="M480.772 234.043c0 25.041-21.706 45.344-48.509 45.344-26.78 0-48.486-20.303-48.486-45.344 0-25.043 21.706-45.343 48.486-45.343 26.803 0 48.509 20.3 48.509 45.343z" fill="#202b59" fill-rule="nonzero"/><path d="M463.711 305.54c-13.979 3.278-27.959 6.686-41.983 9.84-.34.091-.726-.036-.861-.397-2.379-7.694-4.781-15.391-7.115-23.085a853.722 853.722 0 0 1-2.129-7.028l-3.218-10.685-1.314-4.396a16.065 16.065 0 0 1-.317-1.08c10.49-3.335 20.867-7.21 31.176-11.012 2.538-.954 5.098-1.91 7.635-2.848 4.509 17.301 10.015 34.294 18.285 50.242.091.143.045.413-.159.449z" fill="#ffc5c5" fill-rule="nonzero"/><path d="M440.42 276.025c-4.985 3.693-10.128 7.098-15.497 10.143a137.218 137.218 0 0 1-8.316 4.307c-.929.451-1.903.956-2.855 1.423a853.722 853.722 0 0 1-2.129-7.028l-3.218-10.685c10.219 2.288 20.845 2.542 31.289.523.658-.145 1.383.811.726 1.317z" fill="#202b59" fill-rule="nonzero"/><path d="M453.629 260.81c-10.626 23.731-48.577 30.741-66.34 7.441-9.425-12.357-4.056-31.82-1.699-37.223 2.107-4.849 1.79-10.375 3.919-15.215 1.79-4.078 5.189-7.689 8.519-10.594 13.413-11.684 37.158-16.288 51.16-3.193 14.773 13.842 11.94 42.007 4.441 58.784z" fill="#ffc5c5" fill-rule="nonzero"/><path d="M460.267 263.763c.182 1.67.318 3.323.453 4.993.068.863-1.291.95-1.359.07-1.223-15.93-11.578-30.002-19.984-43.809-7.68-12.627-14.41-21.411-26.372-28.534-.408.122-.793.244-1.201.385-.386.14-.703-.438-.318-.651-.385-.317-.271-.879.091-.79l.952.262c6.502-3.305 14.432-3.849 21.524-2.671 14.093 2.375 25.195 12.396 30.315 25.567 5.71 14.738 3.24 31.357-4.033 45.089-.022.034-.045.055-.068.089z" fill="#202b59" fill-rule="nonzero"/><path d="M399.886 233.302c-.249.488-.747.723-1.087 1.002-.544.455-1.02 1.004-1.541 1.488-.34.338-.657.723-1.11.954-.476.245-1.02.308-1.541.245-2.334-.274-3.829-2.39-3.897-4.652-.045-1.998.884-4.007 3.036-4.366 2.81-.469 5.461 1.691 5.665 4.486.385-.008.589.476.475.843zm32.853-2.503a5.806 5.806 0 0 0-.884-1.366 4.915 4.915 0 0 0-.657-1.022c-.815-.995-2.062-2.082-3.534-2.275a5.75 5.75 0 0 0-1.201-.036c-.589.05-1.292.26-1.631.718-.635.401-.884.591-1.133.793-.431.378-.68.845-.839 1.357-.181.539-.339.879-.453 1.214-.339 1.009-.634 2.16-.249 3.186.408 1.088 1.518 1.64 2.674 2.033 2.039.711 4.554 1.166 6.661.443 1.019-.348 2.175-1.042 2.47-1.989.294-1.024-.567-2.222-1.224-3.056zM420.64 247.01c-1.609 4.837-6.299 7.848-11.397 8.662-2.696.437-5.777.469-8.269-.691-1.972-.936-3.467-2.667-3.308-4.731-.476.061-.68-.496-.272-.603 3.829-1.053 7.748-1.912 11.691-2.44 2.039-.27 4.078-.48 6.14-.632 1.042-.061 2.062-.12 3.104-.166.793-.029 1.586-.135 2.356.105.273.09.182.408-.045.496z" fill="#fff" fill-rule="nonzero"/><path d="M432.263 231.578c0-1.282-.952-4.078-3.217-2.506-.453.315-.748.746-.997 1.178-.793 1.355-3.014 7.264 1.427 5.699 1.224-.431 2.176-1.69 2.538-2.642.159-.396.272-1.042.249-1.729zm-33.215-2.569c-.226-.288-.544-.458-1.042-.39-1.949.261-3.399 3.757-3.331 5.2.045.632.385 1.285 1.042 1.584 2.357 1.101 3.694-2.572 3.738-4.316.023-.605 0-1.546-.407-2.078zm39.854-4.081c-.839.193-1.926-.106-2.357-.861-1.382-.652-2.764-1.355-4.214-1.882a23.799 23.799 0 0 0-5.188-1.197c-1.36-.14-2.742.018-4.079-.174-.929-.123-1.948-.564-2.174-1.548-.295-1.284.951-2.145 1.948-2.639 1.291-.596 2.741-.807 4.123-.755 5.166.209 9.992 3.41 12.303 8.001.181.353.136.949-.362 1.055z" fill="#202b59" fill-rule="nonzero"/><path d="M468.243 248.503c0 6.156-5.008 11.147-11.17 11.147-6.14 0-11.148-4.991-11.148-11.147 0-6.16 5.008-11.15 11.148-11.15 6.162 0 11.17 4.99 11.17 11.15z" fill="#ffc5c5" fill-rule="nonzero"/><path d="M401.019 232.777c-1.337-3.637-2.945-5.486-5.143-6.027-2.107-.528-4.441.351-5.732 2.057a14.27 14.27 0 0 1-5.257.089c-.453-.089-.589.493-.226.72a19.646 19.646 0 0 0 2.56 1.425c.43.193.884.367 1.314.544.521 1.02 1.314 1.425 1.563.879.408-1.038.839-2.075 1.247-3.095 1.11-1.001 2.65-1.477 4.101-1.142 1.608.367 2.899 1.829 3.171 3.446.68 1.204.838 1.695.997 2.175 1.496-.842 1.473-.933 1.405-1.071z" fill="#202b59" fill-rule="nonzero"/><path d="M402.899 218.593c-.294-.169-.656.245-.43.51 3.15 3.809.476 9.623-2.107 12.974a18.577 18.577 0 0 1-2.447 2.644c-.838.766-1.948 1.364-2.628 2.293-.68.897-.612 1.846-.272 2.857.385 1.139.725 2.816 1.744 3.559a.66.66 0 0 0 1.065-.374c.34-1.38-.702-2.673-.974-3.99-.271-1.26 1.473-2.064 2.289-2.807a21.262 21.262 0 0 0 4.644-6.02c1.768-3.423 3.263-9.253-.884-11.646z" fill="#ff88c4" fill-rule="nonzero"/><path d="M404.939 219.776c-.567 1.02-1.677.879-2.674.702a35.735 35.735 0 0 0-4.305-.527c-2.741-.141-5.46.07-8.156.564-.612.104-.838-.687-.544-1.09a4.772 4.772 0 0 1 1.291-1.267c1.473-1.617 3.422-2.621 5.551-3.009 1.949-.367 4.011-.208 5.846.513 1.518.598 4.124 2.125 2.991 4.114zm34.166 13.656c-1.857.845-3.693 1.688-5.573 2.533-.272.14-.612-.143-.612-.424-.136-3.263-1.858-6.693-5.03-8.018-1.971-.827-4.735-.333-5.732 1.742-.249.455-1.02.21-.884-.281.839-2.692 4.056-3.535 6.525-2.868 3.059.827 4.872 3.604 6.367 6.208 1.586.176 3.173.281 4.781.247.498 0 .589.65.158.861z" fill="#202b59" fill-rule="nonzero"/><path d="M461.196 251.695c-3.625-1.008-7.318-1.633-11.056-1.982 1.54-1.074 3.081-2.143 4.69-3.154a115.971 115.971 0 0 1 3.285-2.017c1.133-.67 2.198-1.452 3.308-2.179.317-.199.068-.73-.295-.587-4.848 1.985-9.448 4.799-13.684 7.876-.68.489-.273 1.414.498 1.448 4.373.185 8.745.84 13.005 1.846.815.193 1.042-1.035.249-1.251z" fill="#ff88c4" fill-rule="nonzero"/><path d="M628.292 485.466c-2.221 2.638-4.849 4.643-7.726 6.242-.362.315-.748.632-1.133.932-8.066 6.155-19.122 8.618-29.159 8.088-6.73-.351-13.436-2.073-19.916-3.815-6.321-1.686-12.62-3.465-18.964-5.132a857.375 857.375 0 0 0-13.073-3.326 19.383 19.383 0 0 0 2.356-2.604c3.852-5.045 5.211-11.394 5.121-17.636-.227-13.154-4.871-27.154-14.954-35.981a37.743 37.743 0 0 0-3.716-2.867c2.175.107 4.373.211 6.548.3-.589-1.231-1.155-2.461-1.744-3.691-3.263-6.967-6.435-13.982-9.381-21.087-3.194-7.667-5.913-15.67-6.593-24.003-.679-8.546 1.337-16.76 4.305-24.692 2.629-6.998 5.596-14.104 10.218-20.01 6.005-7.686 27.098-17.621 33.85-5.207-.294-.562-.612-1.142-.929-1.722 13.708 10.445 25.444 19.73 33.85 35.152 6.978 12.804 13.866 25.623 20.822 38.425 7.386 13.594 14.296 27.609 17.106 42.996 2.401 13.188 2.084 28.894-6.888 39.638z" fill="#aa80f9" fill-rule="nonzero"/><path d="M509.75 308.522a93.381 93.381 0 0 1-3.58 1.76c-11.464 5.309-23.653 8.807-35.956 11.551-12.96 2.904-26.532 4.767-39.967 4.608-9.562-.088-19.077-1.196-28.276-3.659a97.281 97.281 0 0 1-12.19-4.149c-8.882-3.745-17.151-9.074-24.288-15.599 10.263-1.001 20.595-1.3 30.927-1.81 11.102-.546 22.181-1.004 33.283-1.53 5.166-2.938 10.966-4.941 16.608-2.603 3.874.546 7.771 1.126 11.668 1.566 7.93.879 15.837 2.83 23.631 4.361 7.726 1.514 15.452 3.025 23.179 4.536 1.654.317 3.307.653 4.961.968zm-270.819 63.992c-2.04 8.512-6.798 16.603-12.28 23.407-9.358 11.623-21.502 23.002-36.66 25.831-5.12.952-10.444.916-15.474-.314-5.461-7.28-10.83-14.648-16.246-21.982-6.932-9.407-13.481-18.976-19.825-28.77-3.194-4.96-6.208-10.024-9.153-15.158-6.072-6.031-12.326-11.87-19.168-16.988-5.528-4.133-11.374-7.79-17.537-10.832-5.867-2.869-11.872-5.048-16.517-9.831a36.518 36.518 0 0 1-4.667-6.016 77.53 77.53 0 0 1-5.483-1.67c-4.373-1.493-9.244-5.816-13.186-8.05-9.72-2.743-19.621-3.643-28.118-9.219-3.308-2.161-5.8-4.031-8.654-6.774-2.697-2.583-4.849-6.519-6.344-10.019-1.269-3.059-1.337-6.63.838-9.303 2.062-2.552 5.528-3.482 8.7-3.166 2.425.247 5.913.517 8.134 1.607-2.674-4.185-4.69-8.345-5.777-13.216-1.201-5.433-2.448-12.323 2.243-16.245 5.981-5.048 13.231.353 16.698 5.61 3.149 4.801 4.463 9.065 7.726 13.741-.34-2.936 1.11-5.265 1.178-8.201.136-5.98 1.948-14.494 8.7-16.672 6.571-2.129 11.193 4.661 13.277 9.655 1.043 2.531 1.79 5.168 2.424 7.823 2.968-2.812 7.002-4.411 11.125-3.303 5.913 1.599 6.684 7.386 7.228 12.626.657 6.542.702 13.064.793 19.626l.068 2.302c4.622.967 9.38 1.285 14.115 1.074 7.137-.299 14.138-1.337 21.207-2.216 1.541-.195 3.104-.478 4.69-.72.906-2.78 1.156-5.894 1.337-8.76.498-6.98-.725-13.802-.907-20.751-.136-5.467.658-11.165 3.784-15.774 2.765-4.115 7.613-7.21 12.643-5.469 9.289 3.201 11.555 15.986 12.869 24.338.816 5.329 1.609 10.587 3.24 15.721a79.442 79.442 0 0 0 6.525 14.932c2.9 5.081 6.526 9.706 9.516 14.754a67.898 67.898 0 0 1 6.548 14.947c1.224 4.184 2.221 8.686 2.583 13.224 15.656 16.32 31.562 32.446 47.807 48.201z" fill="#ffc5c5" fill-rule="nonzero"/><path d="M401.971 322.782a41.424 41.424 0 0 0-3.149 5.084 37.126 37.126 0 0 0-2.72 6.489c-9.855 2.11-19.825 5.134-28.547 10.198.543-1.178-.272-2.021-.884-1.511-11.147 9.126-15.475 26.148-14.387 40.06.657 8.494 3.444 16.723 7.953 23.862-14.75 9.777-29.5 19.537-44.272 29.262-10.105 6.65-20.143 13.365-30.202 20.101-8.882 5.943-17.945 12.572-28.14 16.107-10.219 3.571-20.777 3.607-30.882-.281-9.81-3.763-18.964-10.656-26.282-18.114-7.749-7.894-14.093-17.109-20.822-25.866a497.106 497.106 0 0 1-3.897-5.154l-1.223-1.581c5.03 1.23 10.354 1.266 15.474.314 15.158-2.829 27.302-14.208 36.66-25.831 5.482-6.804 10.24-14.895 12.28-23.407.475.458.951.915 1.427 1.389 2.742 2.637 5.506 5.293 8.247 7.932 9.176-8.757 18.579-17.269 27.936-25.815 6.05-5.54 11.623-11.589 17.605-17.199 5.754-5.415 11.578-10.851 17.695-15.844 5.732-4.679 11.895-8.812 18.647-11.87 6.616-2.973 13.639-4.838 20.754-6.138a182.367 182.367 0 0 1 10.58-1.566c1.247-.122 2.448-.262 3.671-.369 7.137 6.525 15.406 11.854 24.288 15.599a97.281 97.281 0 0 0 12.19 4.149z" fill="#aa80f9" fill-rule="nonzero"/><path d="M415.203 297.587c-15.815.508-34.009 1.357-49.71 3.168-13.481 1.549-23.949 2.512-36.048 8.841-20.64 10.802-36.387 28.586-52.926 44.568a328.625 328.625 0 0 1-14.931 13.522c-5.098 4.35-10.037 8.827-15.475 12.797-.159.113 1.495 2.635 1.654 2.551 5.165-2.551 8.134-6.659 13.209-11.163 4.304-3.834 8.949-7.368 13.164-11.306 8.541-7.987 16.63-16.431 25.149-24.452 8.247-7.787 16.993-15.225 26.712-21.134 11.374-6.899 22.635-10.339 35.821-11.576 19.077-1.785 35.346-2.218 53.72-3.061 1.858-.086 1.518-2.814-.339-2.755z" fill="#fff" fill-rule="nonzero"/><path d="M545.798 468.215c.09 6.242-1.269 12.591-5.121 17.636a19.383 19.383 0 0 1-2.356 2.604c-.612-.159-1.201-.299-1.812-.456-14.841-3.641-29.772-6.946-44.681-10.184-.634.476-1.313.915-2.016 1.321-6.616 3.849-14.365 4.554-21.886 3.992-4.532-.337-9.018-1.11-13.504-1.76-4.35-.632-8.383-.596-12.688-.034a72.589 72.589 0 0 1-3.467 3.534c-2.129 2.021-4.395 4.185-7.092 5.257-2.764 1.092-5.822.897-8.722.861a1563.81 1563.81 0 0 1-36.297-.719c-4.214-.142-7.885-1.126-10.377-5.154-2.175-3.501-2.946-8.018-2.968-12.205-.022-.648.022-1.317.045-1.985-7.046 7.298-13.798 14.962-21.025 21.417-4.101 3.623-9.108 8.125-14.931 7.987-4.871-.124-8.089-4.205-8.361-8.847-.34-5.996 3.943-11.025 7.432-15.421 4.463-5.594 9.153-10.975 13.888-16.322 8.565-9.688 17.175-19.202 28.571-25.657 10.173-5.748 21.456-9.215 32.966-11.061 12.438-1.987 25.081-2.003 37.611-1.038 14.613 1.145 29.114 3.8 43.773 4.502 7.228.336 14.433 1.301 21.638 1.971 3.511.333 7.023.58 10.558.791.702.034 1.427.07 2.152.122a37.743 37.743 0 0 1 3.716 2.867c10.083 8.827 14.727 22.827 14.954 35.981z" fill="#ffc5c5" fill-rule="nonzero"/><path d="M459.134 187.979a14.34 14.34 0 0 0-2.673 2.101l-.544-3.313c-.113-.691-.657-1.334-1.427-1.253-.725.077-1.292.675-1.246 1.423a23.03 23.03 0 0 0 .521 3.734c.113.981.249 1.96.385 2.943.091.614.498 1.221 1.155 1.321 1.382.671 1.971.877 2.492.68 1.179-.458 1.994-1.817 2.561-2.903a9.61 9.61 0 0 0 1.019-3.237c.182-1.278-1.132-2.166-2.243-1.496z" fill="#202b59" fill-rule="nonzero"/><path d="M444.113 467.866c-.907-.657-2.062.639-1.156 1.346 3.671 2.841 1.858 7.998-.566 10.962-2.311 2.798-5.936 4.574-9.38 5.533-4.532 1.262-9.131 1.633-13.798 1.891-4.486.25-8.995.499-13.504.56-4.871.066-9.742-.095-14.568-.77-3.739-.528-7.908-1.172-11.102-3.338-3.467-2.329-4.124-6.221-3.852-10.141.294-3.859 1.133-7.771 2.243-11.469 2.56-8.406 6.933-17.172 12.892-23.681.453-.487-.272-1.332-.793-.886-3.557 3.059-7.046 6.172-9.72 10.076-2.651 3.865-4.849 7.97-6.366 12.416-2.652 7.789-5.619 19.677 1.495 26.03 3.24 2.919 7.726 3.999 11.895 4.772 5.437.999 10.966 1.33 16.471 1.355 5.597.022 11.216-.279 16.812-.612 5.234-.313 10.536-.779 15.316-3.043 4.056-1.912 7.93-5.44 9.448-9.747 1.337-3.806 1.971-8.555-1.767-11.254z" fill="#fff" fill-rule="nonzero"/><path d="M448.236 462.413c-.656-2.826-7.476 3.423-8.383 4.35-2.061 2.091-3.715 4.54-4.962 7.191-.204.431.182.764.544.714 1.156.315 2.084-1.124 2.719-1.856a59.02 59.02 0 0 1 3.127-3.305 37.936 37.936 0 0 1 3.308-2.909c.974-.757 3.874-2.545 3.693-4.004-.023-.063-.023-.124-.046-.181zm-21.773-16.241c-6.774 5.295-11.736 12.72-14.478 20.827-1.337 3.912-2.084 7.954-2.311 12.08-.272 4.545 0 8.005 1.314 12.276.136.48 3.965.002 3.874-.514-.589-3.723-1.993-7.042-1.722-10.787.25-3.965 1.043-7.885 2.289-11.655 2.515-7.511 7.046-14.091 13.05-19.22 1.745-1.48-.158-4.468-2.016-3.007zm-19.757-.392c-3.104 1.845-8.134 8.995-9.924 12.031-2.039 3.417-3.625 7.08-4.803 10.88a51.106 51.106 0 0 0-2.062 11.535 52.17 52.17 0 0 0 0 5.945c.091 1.69 0 3.725 1.246 4.989.385.374.997.161 1.224-.254.725-1.382.204-3.076.113-4.576a48.773 48.773 0 0 1-.045-5.461c.203-3.847.929-7.678 2.039-11.365a48.91 48.91 0 0 1 4.418-10.311 45.685 45.685 0 0 1 3.172-4.821c1.065-1.416 4.894-4.93 5.71-6.512.43-.838-.363-2.519-1.088-2.08zm142.173-14.389c-.906-.055-1.835-.107-2.741-.141a46.313 46.313 0 0 1-.725-1.583c-.408-.846-.794-1.706-1.201-2.549-2.402-5.119-4.804-10.219-7.205-15.353-2.764-5.961-5.506-11.958-8.248-17.935-2.832-6.086-5.845-12.153-8.156-18.45-.204-.562.634-.983.952-.473 3.262 5.625 5.936 11.623 8.745 17.48 2.855 5.942 5.732 11.888 8.587 17.831 2.674 5.678 5.347 11.36 8.021 17.04l.407.843c.522 1.092 1.043 2.198 1.564 3.29z" fill="#fff" fill-rule="nonzero"/><path d="M595.961 434.538c-4.577.299-9.018-.986-13.595-1.246l-13.118-.741c-6.797-.385-13.572-.773-20.369-1.16-.906-.055-1.835-.107-2.741-.141-1.201-.072-2.379-.14-3.558-.213-31.334-1.792-62.669-3.48-93.981-5.274-21.433-1.213-44.838-1.917-64.799 6.577-3.286 2.164-6.435 4.486-9.425 7.035-4.17 3.569-7.976 7.525-11.873 11.36-6.661 6.523-12.801 13.592-18.76 20.768a911.76 911.76 0 0 0-9.063 11.149c-2.583 3.218-6.253 7.912-3.081 11.923 2.401 3.024 6.819 3.851 10.377 2.85 4.599-1.285 8.247-4.713 11.668-7.899 7.183-6.715 14.455-13.573 19.463-22.138 1.132-1.969 4.327-.423 3.194 1.53-3.126 5.329-7.046 10.075-11.351 14.491-4.237 4.344-8.677 8.705-13.436 12.502-3.67 2.955-8.179 5.556-13.05 5.347-3.829-.176-7.839-1.919-10.037-5.17-2.651-3.924-1.428-8.53.974-12.223 2.878-4.378 6.458-8.37 9.743-12.417 6.593-8.106 13.344-16.231 21.048-23.316 6.865-6.315 13.481-13.295 21.773-17.727 7.387-3.956 15.498-6.418 23.722-7.771 15.407-2.533 31.086-1.462 46.538-.635 16.041.88 32.083 1.777 48.101 2.674 14.637.827 29.25 1.636 43.887 2.445.883.052 1.812.088 2.696.14.521.036 1.019.052 1.54.089l24.04 1.318c3.942.211 7.884.544 11.804.65 4.033.089 8.066.37 12.008 1.215 2.606.562 2.606 3.799-.339 4.008zm-103.113 39.12c-3.081 2.628-6.027 4.628-9.992 5.729-3.874 1.077-7.952 1.319-11.963 1.199-9.425-.285-19.439-3.059-28.57.367-.363.138-.249.632.113.643 5.461.155 10.853.612 16.245 1.394 4.759.686 9.607 1.246 14.41 1.246 7.568.005 17.106-1.622 22.159-7.894 1.223-1.511-.77-4.067-2.402-2.684z" fill="#fff" fill-rule="nonzero"/><path d="m587.056 500.327-5.936 2.671a803.86 803.86 0 0 0-11.669-3.357c-8.858-2.533-17.717-5.03-26.622-7.441-8.904-2.408-17.74-4.975-26.644-7.298-8.95-2.338-15.679-3.885-24.357-7.087-.883-.317-.09-2.096.839-1.989 8.201.965 13.39 2.886 21.388 4.855 14.115 3.483 28.208 6.981 42.233 10.853a1639.247 1639.247 0 0 1 20.776 5.873c3.331.965 6.661 1.95 9.992 2.92zm-211.617-76.218c2.81 1.359 6.684 3.036 7.341 6.323.159.787 1.427.51 1.36-.267-.182-2.243-1.246-4.851-2.946-6.387-1.994-1.799-4.894-2.78-7.295-3.897-6.05-2.812-10.944-7.318-14.478-12.958-8.225-13.093-8.112-30.149-4.35-44.702.589-2.241 1.291-4.447 2.311-6.534.792-1.611 2.288-3.118 2.764-4.842.362-1.276-.136-2.236-.884-3.244-1.518-1.992-3.24-3.83-4.871-5.712-.657-.739-1.926.043-1.314.874 1.155 1.557 2.288 3.127 3.466 4.661.612.779 1.405 1.436 1.473 2.44.068 1.081-.838 1.876-1.405 2.773-1.858 2.909-3.081 6.176-3.942 9.505-1.904 7.314-2.764 15.117-2.47 22.67.499 13.153 5.664 26.808 16.699 34.675 2.673 1.91 5.618 3.192 8.541 4.622z" fill="#fff" fill-rule="nonzero"/><path d="M166.904 449.251c-3.648-.374-7.25.182-10.581 1.743-1.79.843-3.829 1.867-5.189 3.357-1.382 1.528-1.631 3.299-1.744 5.27-.046 1.106 1.087 2.323 2.175 2.459 1.631.208 3.036.421 4.645-.209 1.427-.559 2.673-1.527 4.101-2.118 2.175-.904 4.599-1.387 6.888-.61 1.993.671 2.99 2.16 3.579 3.709.884 2.37 1.042 4.724 1.042 7.314 0 5.32-1.065 10.615-5.369 13.973-4.713 3.681-10.808 4.853-16.631 5.931-2.582.481-4.712 2.327-4.531 5.171.136 2.379 2.56 5.041 5.166 4.551 6.593-1.234 13.186-2.515 19.031-5.983 5.71-3.385 9.72-8.726 11.193-15.203 2.515-11.132.295-27.914-13.775-29.355z" fill="#aa80f9" fill-rule="nonzero"/><path d="M159.291 509.986c0 8.687-17.015 15.728-38.018 15.728-20.981 0-37.996-7.041-37.996-15.728s17.015-15.729 37.996-15.729c21.003 0 38.018 7.042 38.018 15.729z" fill="#aa80f9" fill-rule="nonzero"/><path d="M77.272 437.73s-.815 26.153.612 46.483c1.45 20.328 5.914 28.342 5.914 28.342h74.972s2.651-6.16 4.644-28.342c1.632-17.917 1.881-46.483 1.881-46.483H77.272z" fill="#aa80f9" fill-rule="nonzero"/><path d="M77.272 437.73s-.815 26.153.612 46.483c1.45 20.328 5.914 28.342 5.914 28.342h74.972s2.651-6.16 4.644-28.342c1.632-17.917 1.881-46.483 1.881-46.483H77.272z" fill="#aa80f9" fill-rule="nonzero"/><path d="M165.295 437.73c0 8.687-19.711 15.726-44.022 15.726-24.289 0-44.001-7.039-44.001-15.726 0-8.687 19.712-15.728 44.001-15.728 24.311 0 44.022 7.041 44.022 15.728z" fill="#aa80f9" fill-rule="nonzero"/><path d="M158.77 437.73c0 6.301-16.789 11.41-37.497 11.41-20.687 0-37.475-5.109-37.475-11.41s16.788-11.41 37.475-11.41c20.708 0 37.497 5.109 37.497 11.41z" fill="#202b59" fill-rule="nonzero"/><path d="M268.543 400.258c-12.982-13.227-25.988-26.43-38.947-39.664a11897.065 11897.065 0 0 0-19.327-19.677c-6.095-6.208-12.008-12.933-18.647-18.586-.271-5.832-2.514-11.367-4.554-16.764-2.152-5.637-4.644-11.032-7.839-16.143-3.081-4.88-6.57-9.561-8.949-14.831-2.515-5.545-3.875-11.547-4.917-17.512-1.042-5.73-1.744-11.537-3.127-17.201-1.246-5.171-4.418-9.099-8.677-12.253-3.671-2.733-8.27-2.971-12.349-.94-4.191 2.091-6.864 6.103-8.11 10.533-1.881 6.681-.453 13.614.521 20.316.498 3.526.838 7.135.725 10.697-.046 1.747-.046 3.947-.907 5.531-.951 1.776-3.081 1.878-4.894 2.449-1.608.512-3.285.929-4.939 1.336-3.421.848-6.933 1.528-10.445 1.908-3.376.365-6.82.582-10.195.437-3.603-.156-7.137-.813-10.717-1.092-.453-.036-.816.662-.272.854 6.502 2.368 14.478 2.572 21.343 2.144 3.534-.218 7.001-.678 10.445-1.473 1.903-.437 3.761-1.013 5.618-1.631 1.881-.623 4.079-1.464 5.008-3.424 1.155-2.376 1.45-5.925 1.563-8.528.317-7.053-1.654-13.963-1.812-20.994-.114-5.068.815-10.753 4.486-14.525 3.489-3.573 9.199-4.917 13.39-1.811a28.23 28.23 0 0 1 5.415 5.266c1.836 2.388 2.424 5.365 3.013 8.252 1.11 5.503 1.768 11.086 2.742 16.614.884 4.933 1.971 9.847 3.874 14.498 1.994 4.894 4.871 9.303 7.794 13.681 3.49 5.238 6.435 10.551 8.724 16.431 1.834 4.71 3.851 9.402 4.893 14.366.544 2.474.114 4.414 2.13 5.973 2.945 2.274 5.166 5.34 7.749 7.993 3.194 3.27 6.48 6.448 9.674 9.72 6.503 6.695 13.005 13.397 19.553 20.079 9.856 10.107 23.11 23.751 39.084 40.162 1.291 1.325 3.172-.87 1.88-2.191z" fill="#fff" fill-rule="nonzero"/><path d="M55.635 302.671a9.472 9.472 0 0 1-1.088-1.096 12.205 12.205 0 0 1-2.651-4.536c-1.178-3.641-1.268-7.667-1.608-11.467-.362-4.096-.703-8.213-.906-12.327-.25-5.434-.295-10.903.135-16.32a73.77 73.77 0 0 1 .386-3.85c.158-1.318.34-2.639.566-3.94.725-4.13 1.79-8.229 3.308-12.135 1.427-3.675 3.738-6.963 8.134-5.134 7.522 3.154 10.083 13.302 9.131 20.598a22.326 22.326 0 0 0-.702 1.685c-.975 2.477-1.678 5.046-2.266 7.454-3.852 15.335-3.671 32.991 1.721 48.167-4.667-2.105-10.308-3.668-14.16-7.099zm-11.6-4.225c-3.852-1.407-7.749-2.814-11.624-4.221-6.593-2.393-12.733-4.785-16.993-10.658-3.171-4.325-7.839-14.718-.928-17.972 2.991-1.37 6.661-.684 9.652.229.883.281 1.767.598 2.628.966a166.339 166.339 0 0 0 10.195 17.622 159.937 159.937 0 0 0 8.633 11.87c.974 1.196 1.971 2.533 3.127 3.711-1.609-.527-3.195-1.003-4.69-1.547zm-19.032-41.73c-1.473-3.484-2.968-7.139-3.15-10.957-.181-3.729 1.133-7.456 4.396-9.531 3.33-2.164 6.638-.773 9.13 1.95 2.878 3.186 5.28 6.895 7.84 10.325 1.314 1.758 2.628 3.534 3.965 5.293-.476 4.132-.634 8.301-.634 12.452.022 4.781.317 9.566.679 14.331.363 4.837.566 9.776 1.496 14.543.158.825.362 1.618.611 2.375-.657-.757-1.291-1.584-1.926-2.411a191.74 191.74 0 0 1-6.593-9.092 163.882 163.882 0 0 1-10.173-17.163c-.34-.616-.634-1.248-.952-1.862a58.831 58.831 0 0 1-1.155-2.377 170.904 170.904 0 0 1-3.534-7.876zM357.812 408.04c-12.62 7.88-24.877 16.465-37.271 24.724-11.895 7.925-23.744 15.923-35.821 23.568-6.162 3.899-12.574 7.386-18.737 11.285a1.108 1.108 0 0 0-.929.093c-9.425 5.3-20.233 6.815-30.814 4.76-11.169-2.161-20.708-7.948-28.751-15.855-8.882-8.705-16.699-18.685-24.47-28.36a626.748 626.748 0 0 1-22.498-29.83 651.084 651.084 0 0 1-11.895-17.437c-2.742-4.174-5.846-8.406-8.406-12.813-2.492-4.307-4.667-8.51-7.772-12.454-6.162-7.831-13.798-14.505-22.203-19.805-2.946-1.842-5.982-3.645-9.063-5.211-3.399-1.724-6.979-3.083-10.332-4.921-5.528-3.029-11.125-6.831-14.908-12.056-4.396-6.081-5.28-14.351-5.891-21.649-.657-7.841-.204-15.739 1.156-23.475 1.223-6.806 2.764-14.826 7.499-20.137 2.152-2.425 5.347-4.221 8.564-2.69 2.764 1.319 4.079 4.466 4.849 7.246 2.107 7.472 2.289 15.93 1.926 23.634-.317 7.175-1.79 14.351 3.195 20.328 4.282 5.136 10.762 7.526 17.219 8.389 7.884 1.072 15.905.685 23.812 1.707 15.475 2.005 32.762 9.407 36.614 26.148.385 1.634 2.855.791 2.47-.809-3.263-14.229-16.585-22.931-29.976-26.255-8.179-2.023-16.607-2.374-24.99-2.743-8.089-.333-17.355-1.267-22.952-7.896-2.696-3.182-3.421-6.965-3.285-11.046.158-4.341.634-8.632.611-12.994-.067-4.45-.407-8.897-1.042-13.311-.498-3.271-1.065-6.595-2.56-9.584-2.56-5.224-8.315-7.739-13.503-4.397-1.654 1.055-2.991 2.39-4.124 3.94.045-6.031-2.288-12.135-6.797-16.214-2.606-2.356-6.458-4.098-9.947-2.743-3.625 1.391-5.03 5.555-6.162 8.897-1.36 3.922-2.312 7.948-2.968 12.028-.839-1.125-1.699-2.267-2.538-3.393-2.673-3.535-5.143-7.387-8.157-10.604-2.265-2.392-5.278-4.044-8.654-3.428-3.241.596-5.959 2.989-7.523 5.818-4.078 7.334.453 16.513 3.603 23.321.204.474.43.947.657 1.405-1.881-.58-3.807-.967-5.755-1.072-5.664-.317-10.604 2.762-11.034 8.757-.43 5.769 2.515 11.642 6.208 15.881 4.35 4.993 9.924 7.298 16.041 9.407 4.033 1.407 8.089 2.796 12.122 4.185 3.466 1.196 7.205 2.974 10.92 3.747a12.35 12.35 0 0 0 2.107 1.636c4.056 2.653 9.335 5.134 14.161 5.784-.181.444 5.302 7.688 5.982 8.399 2.65 2.846 5.913 5.171 9.199 7.239 6.208 3.915 13.299 6.143 19.53 10.042 6.004 3.763 11.623 7.982 16.766 12.865 13.911 13.179 22.453 31.475 33.306 47.067a605.876 605.876 0 0 0 23.767 31.899c7.908 9.924 15.928 19.938 24.878 28.951 8.043 8.105 17.65 14.084 28.865 16.563 11.464 2.535 24.152 1.388 34.189-5.017 5.868-2.746 11.193-6.099 16.494-9.353 6.164-3.788 12.213-7.757 18.217-11.783 12.144-8.123 24.379-16.089 36.523-24.187 7.16-4.783 14.478-9.382 21.524-14.355 1.224-.698-.022-2.592-1.246-1.836z" fill="#fff" fill-rule="nonzero"/><path d="M207.686 124.028c-.136-1.142-1.654-1.496-2.197-.431-3.082 6.047-9.72 9.233-16.449 8.304-8.565-1.188-15.135-8.513-21.366-13.862-7.024-6.024-15.248-11.027-24.401-12.88-7.432-1.5-17.492-1.317-22.136 5.739-4.736 7.173-2.221 20.45 5.981 24.018-2.674-6.94-8.678-18.132-.974-23.996 6.956-5.27 18.148-2.336 25.262.947 8.293 3.827 14.365 10.226 21.185 16.06 5.845 4.989 12.665 9.251 20.64 8.734 6.752-.437 15.407-4.593 14.455-12.633z" fill="#36bfe3" fill-rule="nonzero"/><path d="M230.094 169.566c-5.437 17.376-16.018 33.224-29.318 41.256-7.409 4.468-15.656 8.651-24.379 9.48-3.784.342-7.726.018-11.238-1.514-4.078-1.785-6.616-5.354-10.309-7.642-8.496-5.263-19.077-.684-27.188 3.009-7.998 3.641-16.562 7.282-25.399 4.434-6.842-2.198-11.713-8.399-10.309-15.785 1.496-7.967 8.519-13.821 14.433-18.724 6.276-5.207 15.452-14.614 10.332-23.425-2.176-3.75-5.575-6.451-7.274-10.543-1.382-3.26-1.903-6.774-1.608-10.288.657-7.262 4.282-14.29 9.742-19.084 6.322-5.533 15.068-7.55 23.292-6.902 12.529 1.011 33.917 21.855 44.068 14.075 8.723-6.686 12.257-22.616 25.013-23.264 8.61-.433 14.773 7.153 18.398 14.04 7.476 14.2 7.227 33.318 1.744 50.877z" fill="#202b59" fill-rule="nonzero"/><path d="M204.311 82.547c-.59 4.717-3.739 7.275-7.93 8.977-2.991 1.216-5.076 2.485-6.662 5.329-1.064 1.928-1.858 4.019-2.945 5.954-6.435 11.358-23.428 7.955-29.975-1.529-9.108-13.162.68-25.338 12.643-31.385 9.425-4.774 22.407-6.632 30.677 1.151 3.104 2.9 4.713 7.298 4.192 11.503zm55.102-3.199c-4.577 2.614-10.831 2.073-14.864-1.423-1.517-1.353-2.809-3.154-3.353-5.155-1.858-2.216-.77-5.872.703-8 1.925-2.721 5.188-4.053 8.383-4.504 5.437-.775 11.895.666 13.798 6.466 1.563 4.706-.295 10.146-4.667 12.616z" fill="#202b59" fill-rule="nonzero"/><path d="M118.939 200.579s-.612-1.788-1.835-2.998c-1.201-1.207-3.037-1.892-3.037-1.892s1.496-.181 3.037-1.735c1.359-1.35 1.835-3.152 1.835-3.152s.34 1.881 1.563 3.113c1.246 1.235 3.331 1.774 3.331 1.774s-1.677.209-3.081 1.618c-1.428 1.409-1.813 3.272-1.813 3.272zm75.992 0s-.635-1.788-1.836-2.998c-1.223-1.207-3.059-1.892-3.059-1.892s1.496-.181 3.059-1.735c1.337-1.35 1.836-3.152 1.836-3.152s.317 1.881 1.563 3.113c1.224 1.235 3.308 1.774 3.308 1.774s-1.677.209-3.082 1.618c-1.404 1.409-1.789 3.272-1.789 3.272zm-54.627-57.866s-.838-2.434-2.492-4.074c-1.631-1.643-4.146-2.569-4.146-2.569s2.039-.25 4.146-2.361c1.835-1.838 2.492-4.287 2.492-4.287s.453 2.558 2.13 4.235c1.677 1.674 4.509 2.413 4.509 2.413s-2.289.278-4.192 2.195c-1.926 1.915-2.447 4.448-2.447 4.448zm38.517-46.361s-.86-2.429-2.492-4.072c-1.654-1.642-4.169-2.571-4.169-2.571s2.062-.247 4.169-2.356c1.835-1.838 2.492-4.287 2.492-4.287s.431 2.555 2.107 4.232c1.677 1.677 4.532 2.411 4.532 2.411s-2.289.283-4.214 2.198c-1.904 1.916-2.425 4.445-2.425 4.445z" fill="#fff" fill-rule="nonzero"/><path d="M196.743 134.044c-2.605 0-2.334 4.047.272 4.047 2.605 0 2.334-4.047-.272-4.047z" fill="#ffce76" fill-rule="nonzero"/><path d="M124.943 180.43c-1.178 0-1.065 1.81.113 1.81 1.156 0 1.042-1.81-.113-1.81zm19.576 5.238c-.861 0-.771 1.348.09 1.348s.77-1.348-.09-1.348zm4.032-40.68c-2.265 0-2.016 3.498.227 3.498 2.266 0 2.016-3.498-.227-3.498zm30.157 59.547c-2.062 0-1.858 3.203.204 3.203 2.084 0 1.858-3.203-.204-3.203zm-7.341-125.688c-1.269 0-1.133 1.939.113 1.939 1.269 0 1.133-1.939-.113-1.939zm79.64-10.003c-1.835 0-1.632 2.823.181 2.823 1.812 0 1.631-2.823-.181-2.823zm-39.265 80.079a1.711 1.711 0 0 0-.498-.755c-.657-.369-.93-.426-1.224-.407-1.428 2.549-1.246 2.8-1.019 3.006.657.37.928.426 1.223.408 1.586-1.962 1.541-2.107 1.518-2.252zm-3.353 27.016c-.544 0-.498.843.045.843.544 0 .499-.843-.045-.843zm-56.212 1.099c-3.127-1.665-6.231-3.297-9.154-5.313a66.282 66.282 0 0 1-4.168-3.133c-.499-.419-1.02-.834-1.542-1.267.567-.462 1.133-.92 1.7-1.398 1.359-1.176 2.696-2.395 4.055-3.591 1.473-1.291 2.991-2.526 4.26-4.019 1.133-1.328 2.401-4.192.363-5.44-2.312-1.412-4.736.219-6.548 1.701-1.655 1.353-3.286 2.753-4.917 4.131a168.349 168.349 0 0 0-4.826 4.23c-.838.775-1.608 1.54-1.971 2.648-.476 1.398-.136 3.046.793 4.183 1.156 1.461 2.855 2.701 4.327 3.87a58.52 58.52 0 0 0 4.554 3.312c3.218 2.118 6.661 4.099 10.287 5.422 1.404.514 3.036-.127 3.715-1.462.612-1.214.431-3.153-.928-3.874zm19.893-31.507c-2.561 2.721-3.875 6.627-5.325 10.028-1.382 3.245-2.605 6.571-3.738 9.913-2.357 6.971-4.26 14.065-5.596 21.3-.341 1.765 1.313 3.462 2.99 3.62 1.971.186 3.24-1.239 3.625-2.997 1.495-6.723 3.24-13.411 5.416-19.95 1.064-3.242 2.265-6.439 3.488-9.631 1.201-3.204 3.15-6.516 3.58-9.933.25-2.153-2.787-4.117-4.44-2.35zm31.515 14.628c-3.33-2.32-6.661-4.663-10.15-6.727-3.081-1.826-7.386-5.041-11.147-3.44-.498.22-.793.8-.703 1.339.544 3.823 5.212 6.011 8.089 7.939a705.202 705.202 0 0 1 6.322 4.287 668.788 668.788 0 0 0-5.212 5.316c-2.832 2.902-5.845 5.845-8.156 9.198-1.813 2.656 1.518 5.32 3.965 3.657 3.217-2.175 6.049-4.998 8.836-7.676 2.81-2.71 5.664-5.392 8.383-8.204 1.586-1.638 1.835-4.237-.227-5.689z" fill="#fff" fill-rule="nonzero"/><path d="M422.135 244.173c-.815 1.437-3.511 1.02-4.894 1.049a52.585 52.585 0 0 0-7.295.678c-4.531.743-9.222 1.984-13.232 4.32-.815.469-.135 1.682.703 1.428 5.12-1.55 10.127-3.175 15.497-3.727 2.334-.238 4.781.009 7.069-.385 1.699-.295 3.195-1.127 3.739-2.835.317-.956-1.156-1.316-1.587-.528z" fill="#ff88c4" fill-rule="nonzero"/></svg>