<svg xmlns="http://www.w3.org/2000/svg" fill-rule="evenodd" width="100%" height="100%" stroke-linejoin="round" stroke-miterlimit="2" clip-rule="evenodd" version="1.1" viewBox="0 0 590 590" xml:space="preserve"><path d="M-1096-1277h4285.86v2543.15H-1096z" fill="none"/><path d="M86.817 120.837c-.045-.24-.158-1.083-.363-1.878a60.282 60.282 0 0 0 15.634 9.867 193.214 193.214 0 0 1-12.19 8.379c-.634-3.496-1.291-6.992-1.925-10.486-.363-1.967-.725-3.929-1.156-5.882zm18.398 6.551a58.611 58.611 0 0 1-18.33-11.297c-1.042-.936-2.379.374-1.926 1.441-.498.342-.498.974-.453 1.538.091 1.015.249 2.026.385 3.036.25 1.885.567 3.754.884 5.626a2059.68 2059.68 0 0 0 1.926 11.684c.158.981 1.11 1.518 1.994.988 5.46-3.249 10.671-6.872 15.701-10.773.702-.551.815-1.863-.181-2.243z" fill="#36bfe3" fill-rule="nonzero"/><path d="M118.515 116.956c-1.133.295-2.402.786-3.58.741-1.201-.048-1.677-.952-1.927-2.001-.271-1.157-.385-2.363-.566-3.534l-1.087-6.838c1.268-.102 1.835-.281 2.401-.421 1.179-.284 2.334-.567 3.49-.85l3.512-.85c.974-.24 2.333-.79 3.33-.41.861.322 1.156 1.342 1.427 2.119.386 1.105.725 2.216 1.088 3.324l2.039 6.128c-2.152.535-4.305 1.09-6.435 1.643-1.223.315-2.447.632-3.692.949zm12.257-2.227c-.861-2.606-1.722-5.209-2.56-7.817-.635-1.941-1.088-4.803-3.15-5.8-.974-.478-2.061-.394-3.104-.186-1.291.263-2.583.608-3.852.916-1.359.324-2.696.652-4.055.976-.68.163-1.337.32-2.017.49-.702.172-1.155.455-1.722.851-.385.281-.407.714-.158.929.363 2.819.748 5.642 1.11 8.461.249 1.973.317 4.66 2.538 5.483.996.373 2.084.199 3.104-.018 1.45-.313 2.9-.671 4.373-1.007 2.968-.684 5.935-1.35 8.881-2.068.498-.122.748-.752.612-1.21z" fill="#aa80f9" fill-rule="nonzero"/><path d="M510.98 195.492c-2.152-2.342-5.483-2.986-8.338-1.583-3.285 1.608-5.438 5.363-4.531 8.997.226.879 1.518.419 1.336-.447-.611-2.678.997-5.41 3.24-6.788 2.153-1.318 4.781-1.123 6.639.612 1.586 1.498 2.447 3.902 2.062 6.068-.431 2.245-2.266 3.804-4.441 4.243-1.405.279-2.878.077-4.169-.505 1.11.009 1.178-.777.702-1.049-1.133-.659-2.424-.979-3.692-1.296-.794-.206-1.337.784-.93 1.43 3.285 5.195 12.303 4.431 14.161-1.604.861-2.796-.114-5.964-2.039-8.078z" fill="#ff88c4" fill-rule="nonzero"/><path d="M406.894 84.065v139.939c0 8.401-6.82 15.212-15.226 15.212H165.596c-8.406 0-15.226-6.811-15.226-15.212V84.065c0-8.415 6.82-15.237 15.226-15.237h226.049c8.429 0 15.249 6.822 15.249 15.237z" fill="#fff" fill-rule="nonzero"/><path d="M300.926 108.471h-28.661c-2.787 0-5.03-2.263-5.03-5.048v-.899c0-2.787 2.243-5.048 5.03-5.048h28.661a5.053 5.053 0 0 1 5.053 5.048v.899a5.055 5.055 0 0 1-5.053 5.048zm53.834 0h-38.087a5.054 5.054 0 0 1-5.052-5.048v-.899a5.053 5.053 0 0 1 5.052-5.048h38.087a5.053 5.053 0 0 1 5.052 5.048v.899a5.055 5.055 0 0 1-5.052 5.048zm-111.586 60.963h-27.37a5.034 5.034 0 0 1-5.03-5.047v-.9a5.032 5.032 0 0 1 5.03-5.046h27.37a5.052 5.052 0 0 1 5.052 5.046v.9a5.053 5.053 0 0 1-5.052 5.047zm8.768-60.963h-56.099a5.055 5.055 0 0 1-5.053-5.048v-.899a5.053 5.053 0 0 1 5.053-5.048h56.099a5.053 5.053 0 0 1 5.052 5.048v.899a5.055 5.055 0 0 1-5.052 5.048z" fill="#36bfe3" fill-rule="nonzero"/><path d="M256.768 140.696h-60.019a5.052 5.052 0 0 1-5.053-5.048v-.897a5.053 5.053 0 0 1 5.053-5.048h60.019a5.053 5.053 0 0 1 5.052 5.048v.897a5.051 5.051 0 0 1-5.052 5.048z" fill="#aa80f9" fill-rule="nonzero"/><path d="M313.297 169.434h-51.25a5.053 5.053 0 0 1-5.053-5.047v-.9a5.052 5.052 0 0 1 5.053-5.046h51.25a5.052 5.052 0 0 1 5.053 5.046v.9a5.053 5.053 0 0 1-5.053 5.047zm-90.9 44.154h-31.312a5.05 5.05 0 0 1-5.053-5.045v-.9a5.052 5.052 0 0 1 5.053-5.048h31.312a5.033 5.033 0 0 1 5.03 5.048v.9a5.031 5.031 0 0 1-5.03 5.045z" fill="#36bfe3" fill-rule="nonzero"/><path d="M288.578 213.588h-47.285a5.05 5.05 0 0 1-5.053-5.045v-.9a5.052 5.052 0 0 1 5.053-5.048h47.285a5.052 5.052 0 0 1 5.053 5.048v.9a5.05 5.05 0 0 1-5.053 5.045z" fill="#aa80f9" fill-rule="nonzero"/><path d="M335.977 140.696h-60.019a5.052 5.052 0 0 1-5.052-5.048v-.897a5.053 5.053 0 0 1 5.052-5.048h60.019a5.053 5.053 0 0 1 5.052 5.048v.897a5.051 5.051 0 0 1-5.052 5.048zm-155.609-37.724a5.614 5.614 0 0 1-5.619 5.61c-3.081 0-5.596-2.512-5.596-5.61 0-3.097 2.515-5.607 5.596-5.607a5.612 5.612 0 0 1 5.619 5.607zm0 32.341a5.613 5.613 0 0 1-5.619 5.608c-3.081 0-5.596-2.511-5.596-5.608 0-3.097 2.515-5.61 5.596-5.61a5.615 5.615 0 0 1 5.619 5.61zm0 28.623a5.617 5.617 0 0 1-5.619 5.612c-3.081 0-5.596-2.515-5.596-5.612 0-3.098 2.515-5.61 5.596-5.61a5.614 5.614 0 0 1 5.619 5.61z" fill="#36bfe3" fill-rule="nonzero"/><path d="M174.749 212.687h-14.432V101.912h14.432v2.121h-12.303v106.533h12.303v2.121z" fill="#36bfe3" fill-rule="nonzero"/><path d="M161.065 134.25h13.684v2.123h-13.684zm.475 28.628h13.708v2.118H161.54z" fill="#36bfe3" fill-rule="nonzero"/><path d="M406.894 81.566v7.413H150.37c0-11.396 3.059-20.151 19.531-20.151h224.236c7.047 0 12.757 5.703 12.757 12.738z" fill="#aa80f9" fill-rule="nonzero"/><path d="M165.596 69.891c-7.795 0-14.161 6.357-14.161 14.172v139.941c0 7.803 6.344 14.152 14.161 14.152h226.072c7.817 0 14.16-6.349 14.16-14.152V84.065c0-7.817-6.366-14.174-14.183-14.174H165.596zm226.072 170.388H165.596c-8.973 0-16.291-7.303-16.291-16.275V84.063c0-8.984 7.318-16.293 16.291-16.293h226.049c8.995 0 16.291 7.309 16.291 16.295v139.939c0 8.972-7.296 16.275-16.268 16.275z" fill="#aa80f9" fill-rule="nonzero"/><path d="M214.421 71.86a7.042 7.042 0 0 1 7.047 7.044 7.041 7.041 0 0 1-7.047 7.044c-3.874 0-7.046-3.152-7.046-7.044 0-3.891 3.172-7.044 7.046-7.044zm-23.54 0a7.041 7.041 0 0 1 7.046 7.044 7.04 7.04 0 0 1-7.046 7.044c-3.874 0-7.024-3.152-7.024-7.044 0-3.891 3.15-7.044 7.024-7.044zm-22.816 0c3.874 0 7.047 3.153 7.047 7.044 0 3.892-3.173 7.044-7.047 7.044a7.04 7.04 0 0 1-7.046-7.044 7.041 7.041 0 0 1 7.046-7.044z" fill="#fff" fill-rule="nonzero"/><path d="M572.086 466.91c-3.965 13.264-13.141 25.027-27.188 32.862-3.127 2.264-6.934 3.304-10.717 3.58-3.671.254-7.409-.276-11.012-.809-3.647-.555-7.386-1.085-10.785-2.587-5.687-2.52-8.881-7.926-12.121-12.917-1.359-2.033-2.628-4.069-3.942-6.102-9.018-.022-18.035-.045-27.053-.045-21.864-.025-43.728-.048-65.592-.07-1.654 0-3.353-.023-5.007 0-28.027-.048-56.031-.068-84.058-.091-9.788-.025-19.576-.025-29.364-.048h-1.585c-7.069 1.156-14.773-6.631-16.971-12.71-1.812-5.13-1.903-10.653-1.79-16.037.159-5.752.295-11.485-.022-17.24-.68-11.575-2.628-23.271-6.322-34.291-2.741-8.159-6.978-15.044-12.28-21.329a1662.414 1662.414 0 0 1-43.139 32.005c-8.836 6.353-18.669 12.047-27.029 18.805-9.562 7.72-19.1 15.416-29.794 21.497-12.688 7.203-27.008 12.16-41.576 11.852-40.216-.847-62.194-40.583-71.211-74.822-6.276-23.874-7.727-48.6-8.474-73.165 3.648 2.427 7.567 4.414 11.736 5.871 8.836 3.118 18.33 4.253 27.642 3.534 18.783-1.454 36.025-10.789 49.483-23.617 1.609 5.639 3.195 11.256 4.803 16.893 1.337.301 2.583.947 3.58 2.034.566.646.929 1.364 1.337 2.148.566 1.133.883 2.613 2.968 1.711.453-.186.906-.854 1.223-1.201 2.017-2.266 3.58-4.991 5.143-7.556 4.555-7.373 9.335-15.298 17.605-18.88 4.531-1.965 9.29-2.334 12.575-6.403 2.514-3.12 3.942-7.001 5.981-10.42 4.758-8.066 13.912-11.809 21.842-16.175 5.777-5.802 11.6-11.578 17.74-16.963 4.803-4.208 10.286-8.895 16.359-11.879 4.236-3.073 8.79-5.753 13.866-7.695 8.949-3.421 18.873-4.044 28.525-3.858 2.22.045 4.441.093 6.661.186.566 0 1.178.02 1.745.045 9.969.369 19.915.992 29.884 1.686.929.07 1.836.14 2.764.185 4.373 4.876 8.927 9.566 13.821 13.957a175.753 175.753 0 0 0 11.532 9.568c2.085 1.57 4.419 3.813 6.843 4.831 2.923 1.223 6.253-1.733 8.678-3.075a353.345 353.345 0 0 1 28.525-14.142 422.89 422.89 0 0 1 9.675-4.09c1.631.186 3.24.369 4.893.578 1.813.208 3.626.439 5.438.668a829.1 829.1 0 0 1 33.011 4.833c9.743 1.638 19.554 3.303 29.024 5.959 3.195.904 6.186 1.966 9.018 3.215 1.019.437 2.039.899 3.013 1.409 27.981 13.957 37.905 44.666 48.826 73.089 6.639 17.265 13.073 34.573 20.505 51.72 3.738 8.596 7.749 17.192 12.121 25.695 4.101 7.86 8.61 15.647 12.394 23.572 7.114 14.836 10.535 29.763 6.253 44.229z" fill="#aa80f9" fill-rule="nonzero"/><path d="M464.963 253.907c-7.635 11.541-22.453 16.999-36.183 19.066-20.029 3.006-41.145-.623-60.857-4.135-21.682-3.87-43.32-7.98-65.003-11.972-5.46-1.011-11.895-1.659-17.491-3.582.385 1.035.77 2.116 1.155 3.172.295.747-.928 1.105-1.269.385-.657-1.441-1.268-2.884-1.925-4.353-2.288-.96-4.396-2.163-6.163-3.797-4.781-4.375-6.593-12.189-.431-16.179-.996-5.483-1.087-11.012.59-16.54 2.379-7.909 7.635-14.738 13.775-20.532 12.824-12.094 28.843-21.64 45.473-28.491 17.106-7.069 35.685-11.299 54.377-12.214 17.74-.866 36.704 1.733 50.615 12.839 12.394 9.906 18.829 24.572 22.612 39.045 2.062 7.837 3.557 15.819 4.645 23.801 1.11 8.1.771 16.35-3.92 23.487z" fill="#aa80f9" fill-rule="nonzero"/><path d="M440.856 205.828c-1.518 5.939-8.564 7.949-13.707 10.189-3.648 1.711-7.794 2.683-11.442 3.723a223.275 223.275 0 0 0-20.21 6.725c-6.888 2.657-13.617 5.637-20.346 8.664a592.362 592.362 0 0 0-10.309 4.715c-1.631.786-3.353 1.663-5.075 2.449-3.082 2.426-6.458 4.321-10.151 5.546-1.586 2.61-4.622 2.404-5.279.669l-.883.392c-.567.256-1.314-.275-1.337-.898 0-.394.091-.741.249-1.064-2.084-1.086-3.806-2.819-5.438-4.645-3.33-3.675-6.978-5.952-11.328-8.411-18.012-10.22-25.738-10.329-18.103-21.537 3.965-5.778 8.836-10.907 14.183-15.437 9.902-8.435 21.728-14.86 33.986-19.111 13.3-4.599 28.004-7.649 42.097-6.724 13.435.901 26.304 6.538 34.71 17.237 3.489 4.439 9.969 11.462 8.383 17.518z" fill="#202b59" fill-rule="nonzero"/><path d="M387.59 231.943a422.89 422.89 0 0 0-9.675 4.09 353.345 353.345 0 0 0-28.525 14.142c-2.425 1.342-5.755 4.298-8.678 3.075-2.424-1.018-4.758-3.261-6.843-4.831a175.753 175.753 0 0 1-11.532-9.568c-4.894-4.391-9.448-9.081-13.821-13.957 7.84.578 15.702 1.204 23.496 1.804 18.579 1.409 37.112 3.095 55.578 5.245z" fill="#ffc5c5" fill-rule="nonzero"/><path d="M288.646 170.248c-.362-.134-.725-.27-1.088-.406-.248 1.539.091 1.709.431 1.876.317.161.657.064.906-.204.182-.845-.022-1.178-.249-1.266zm103.203-33.789c-2.356-6.727-7.839-11.808-12.914-16.523-5.574-5.155-11.578-9.661-19.282-10.701-9.379-1.269-19.462-.299-28.774 1.04-4.463.65-8.837 1.572-13.232 2.612-5.075 1.203-11.464 2.495-15.157-2.311-.408-.53-1.36-.598-1.632.116-1.019 2.519-1.382 5.016-1.11 7.649-3.466-1.224-6.978-2.357-10.513-3.326-.476-.139-.929.231-.997.668-.816 3.813-.453 7.533.997 11.115-1.857.256-3.444.972-4.939 2.264-.34.326-.476.856-.068 1.203 3.942 3.351 4.033 8.712 4.554 13.472.045.344.113.682.159 1.022a36.982 36.982 0 0 0-.635 4.178c-.543 5.8-.136 12.339 1.45 17.978.114.372.635.208.635-.138.022-.578 0-1.178 0-1.781 4.961 3.888 11.034 4.994 16.992 4.155 7.84 2.52 15.883 4.627 23.972 5.968 14.727 2.427 30.678 1.409 43.909-6.054 11.034-6.262 21.252-19.297 16.585-32.606z" fill="#202b59" fill-rule="nonzero"/><path d="M380.973 237.304c.069.831-.158 1.502-.589 2.105-1.291 1.409-2.56 2.055-3.624 2.632a167.69 167.69 0 0 1-39.356 15.853c-.815.207-1.541-.163-1.88-.949-3.286-8.249-6.435-16.521-9.244-24.934 2.764-1.64 5.528-3.303 8.269-5.059 10.944-7.142 21.117-16.338 25.263-29.119.249-.737-.68-1.5-1.382-1.224a156.902 156.902 0 0 1-18.352 6.609 89.313 89.313 0 0 0 6.525-4.368 35.03 35.03 0 0 1 3.444-2.678c.362-.301.748-.58 1.11-.881 3.988-2.402 7.681-4.18 11.192-5.823.68-.324 1.586.231 1.79.902a501.675 501.675 0 0 1 5.438 18.048c.317.485.589 1.085.907 1.756a192.668 192.668 0 0 1 3.828 9.521c1.609 4.298 3.037 8.666 4.35 13.057 1.088 1.457 2.176 3.004 2.311 4.552z" fill="#ffc5c5" fill-rule="nonzero"/><path d="M359.812 197.833c-4.146 12.781-14.319 21.977-25.263 29.119-2.741 1.756-5.505 3.419-8.269 5.059-1.858-5.522-3.58-11.093-5.098-16.707-.385-.877-.703-1.387-.771-1.987.363-1.201.521-1.756.771-2.241-.589-1.548 1.065-2.449 1.586-1.364 1.087-.254 2.107-.209 2.583.462 1.178-.278 2.288-.671 3.353-1.108 2.583-1.11 5.121-2.313 7.59-3.675a77.185 77.185 0 0 0 3.784-2.173 156.902 156.902 0 0 0 18.352-6.609c.702-.276 1.631.487 1.382 1.224z" fill="#202b59" fill-rule="nonzero"/><path d="M370.461 153.853c-.952-4.171-2.357-8.184-3.988-12.178-1.971-4.821-3.738-9.722-7.839-13.193-3.784-3.206-8.814-5.257-13.436-6.974-4.486-1.668-8.927-2.594-13.73-2.467-4.486.117-8.972 1.108-13.209 2.782-13.028 3.598-23.767 14.625-27.8 27.698a42.626 42.626 0 0 0-1.904 13.501c.068 2.527.589 5.085.136 7.6-.453 2.664-1.88 5.07-3.715 7.019-2.017 2.125-6.911 4.139-4.577 7.726 1.201 1.817 3.036 3.392 4.713 4.713 2.469 1.941 3.285 4.361 4.327 7.229.952 2.613 1.904 5.286 3.127 7.806.294.68.589 1.359.906 2.028 7.409 14.738 19.508 15.905 34.688 12.962 14.999-2.909 33.034-10.903 42.867-23.734a37.48 37.48 0 0 0 3.92-6.237c5.551-11.222 1.518-25.303-4.486-36.281z" fill="#ffc5c5" fill-rule="nonzero"/><path d="M315.087 179.07c-1.269.649-2.538 1.319-3.829 1.94-1.088.557-2.289.763-3.308-.068-.793-.648-1.11-1.711-1.314-2.658-.159-.693-.272-1.364-.408-2.057.408-2.472.907-2.633 1.382-2.61.952.023 1.745.51 2.538.972a87.428 87.428 0 0 1 5.007 3.233c.385.256.34 1.017-.068 1.248z" fill="#fff" fill-rule="nonzero"/><path d="M156.85 220.846c-7.069-3.127-15.475 1.194-21.66 4.461-7.681 4.055-14.637 9.33-20.731 15.49-6.117-6.656-2.13-17.328-1.405-25.276.702-7.558-1.45-14.546-7.477-19.381-14.614-11.79-33.102-4.225-46.832 4.924-3.512 2.361-8.292 5.102-12.008 8.521-6.321 1.817-11.419 10.871-13.73 15.898-4.781 10.434-5.347 21.973-5.778 33.266a988.385 988.385 0 0 0-.295 8.102c-1.676 14.034-2.288 35.932-1.948 46.272 0 .302.023.623.023.925.022.392.022.809.045 1.2 3.648 2.427 7.567 4.414 11.736 5.871 8.836 3.118 18.33 4.253 27.642 3.534 18.783-1.454 36.025-10.789 49.483-23.617-.204-.737-.43-1.478-.634-2.216-1.722-5.975-3.467-11.938-5.189-17.899a103.112 103.112 0 0 0 3.784-3.63c10.784-10.844 19.915-23.665 32.581-32.508 3.149-2.187 6.479-4.085 9.991-5.583 2.878-1.228 6.05-2.374 7.749-5.172 2.945-4.885-.589-11.089-5.347-13.182z" fill="#ffc5c5" fill-rule="nonzero"/><path d="M160.43 361.449c-.68-3.376-1.654-6.659-3.24-9.734-3.059-6.034-8.474-10.669-14.931-12.715-3.104-.983-6.503-1.203-9.471-2.565-3.784-1.726-4.418-5.263-5.551-8.881-1.813-5.835-6.57-10.679-12.71-11.737-.771-.131-1.224 1.02-.453 1.326 3.058 1.212 5.936 2.977 7.794 5.752 1.903 2.828 2.333 5.88 3.24 9.072 1.699 6.065 6.547 8.005 12.234 9.258 6.775 1.493 12.552 4.642 16.2 10.764 1.836 3.093 2.9 6.598 3.625 10.103.657 3.324.634 7.015 1.926 10.173.408 1.035 2.016 1.054 2.243-.147.612-3.458-.227-7.273-.906-10.669z" fill="#fff" fill-rule="nonzero"/><path d="M118.627 318.416c-1.359 2.68-4.077 4.806-6.252 6.747-17.47 15.597-41.531 22.854-64.551 17.516-6.389-1.479-12.574-3.79-18.714-6.101-4.509-1.686-7.727-3.535-8.248-8.642-.725-6.978-1.178-13.981-1.79-20.982-.385-3.977-.838-9.222 3.558-11.116.657-.276 1.586.209 1.767.877.249.992.657 1.874 1.11 2.728 2.402 1.964 5.528 2.796 8.565 3.559 4.078 1.038 8.133 2.055 12.302 2.658 8.225 1.178 16.472 1.48 24.787.992 7.817-.462 16.313-.901 23.609-3.951 3.625-1.502 6.82-3.904 9.493-6.747 2.537-2.658 5.324-5.592 7.432-8.596.453-.648 1.744-.44 1.903.369 1.563 7.835 3.466 15.577 5.188 23.364.544 2.447 1.02 4.989-.159 7.325zm-40.193-66.553c0 1.917-.272 3.788-.77 5.544a11.37 11.37 0 0 1-.295.925c-.317.994-.43 1.273-.589 1.549a12.597 12.597 0 0 1-.929 1.94c-.34.603-.68 1.203-1.065 1.758a19.779 19.779 0 0 1-3.398 3.766c-3.603 3.19-8.361 5.107-13.549 5.107a20.34 20.34 0 0 1-8.225-1.734 9.532 9.532 0 0 1-1.382-.67c-1.201-1.178-.974-1.478-.725-1.779a35.356 35.356 0 0 1 3.036-3.351c1.541-1.527 3.172-2.936 4.826-4.318 1.496-1.251 3.014-2.499 4.463-3.816.544-.485 1.201-1.017 1.836-1.618 1.019-.879 1.994-1.894 2.379-3.027.612-1.826-.499-3.996-.884-5.754a46.914 46.914 0 0 1-1.11-9.566c-.023-1.525.181-3.328.159-5.062 1.88.462 3.194.925 4.418 1.502.77.37 1.518.787 2.243 1.247.883.557 1.722 1.18 2.515 1.896a20.39 20.39 0 0 1 7.046 15.461zm50.389 122.684c0 3.165-.702 6.144-1.971 8.827-1.223-.07-1.949-.623-2.673-1.666a308.194 308.194 0 0 0-2.402-3.464c-1.472-2.127-2.923-4.275-4.418-6.403a92.181 92.181 0 0 0-1.178-1.71c-1.269-1.824-2.493-4.484-4.781-5.221-2.492-.833-5.845-.256-8.383-.07-1.178.091-2.402.184-3.648.322-3.444.349-7.001.902-10.309 1.942.113-.277.204-.553.34-.809 3.172-7.255 10.4-12.339 18.851-12.339 2.877 0 5.596.6 8.089 1.663.362.14.679.301.996.462.476.231.906.462 1.359.716 6.254 3.881 10.128 10.377 10.128 17.75zm98.604-9.453c-.272.068-.567.116-.838.161a22.405 22.405 0 0 1-3.308.256 20.516 20.516 0 0 1-12.009-3.859 20.836 20.836 0 0 1-5.302-5.571c-.18-.301-.385-.623-.589-.947a20.353 20.353 0 0 1-2.537-7.601 20.037 20.037 0 0 1-.159-2.613c0-5.848 2.447-11.115 6.39-14.858.022 0 1.291-.37 1.291-.37a39.433 39.433 0 0 0 0 8.343c.317 3.28 1.02 6.539 2.266 9.518-.295.188-.476.51-.295.881 1.745 3.904 4.373 7.185 7.477 10.119 2.696 2.544 5.098 4.67 7.613 6.541zm-29.046-175.25c1.722 4.065 2.152 7.903 1.563 11.532-1.042 6.838-5.483 12.987-12.325 15.878a20.37 20.37 0 0 1-13.708.807c-1.563-.494-2.357-.804-3.15-1.176-4.395-2.082-8.065-5.743-10.127-10.574-2.198-5.213-2.062-10.787-.136-15.645.181-.453.385-.917.611-1.339.159-.394.363-.752.589-1.121 2.131-3.84 5.529-7.01 9.902-8.857a20.281 20.281 0 0 1 8.7-1.599c3.648.115 7.182 1.2 10.241 3.115a20.173 20.173 0 0 1 7.84 8.979z" fill="#202b59" fill-rule="nonzero"/><path d="M179.711 215.05 78.638 257.802l-1.269.53a4477.974 4477.974 0 0 0-12.189 5.154l-1.654-3.951-1.337-3.188-.521-1.181c1.019-.879 1.994-1.894 2.379-3.027.612-1.826-.499-3.996-.884-5.754a46.914 46.914 0 0 1-1.11-9.566c-.023-1.525.181-3.328.159-5.062-.317-.07-.658-.113-.975-.183l.952-.417 105.491-44.601 12.031 28.494z" fill="#202b59" fill-rule="nonzero"/><path d="m122.91 369.53-3.897 1.618-1.654.693a92.181 92.181 0 0 0-1.178-1.71c-1.269-1.824-2.493-4.484-4.781-5.221-2.492-.833-5.845-.256-8.383-.07-1.178.091-2.402.184-3.648.322-3.444.349-7.001.902-10.309 1.942-.113.278-.204.555-.294.833-.544-1.273-40.013-96.593-40.013-96.593l-.521-1.296c-.317-.784-.725-1.779-.725-1.779a35.356 35.356 0 0 1 3.036-3.351c.159-.068 4.917-2.032 4.917-2.032l3.24-1.339 4.826-2.012 4.531-1.872a283.54 283.54 0 0 0 1.495-.623c.499-.21 3.761-1.55 3.761-1.55l2.017-.831.861 2.103c.022 0 .748 1.755.748 1.755.204.533.702 1.734.702 1.734l1.79 4.253 1.156 2.841c.294.718 36.183 87.327 36.183 87.327l.566 1.409.431.995.589 1.477 4.554 10.977z" fill="#202b59" fill-rule="nonzero"/><path d="M64.047 252.139c-.385 1.133-1.36 2.148-2.379 3.027-.635.601-1.292 1.133-1.836 1.618-1.449 1.317-2.967 2.565-4.463 3.816-1.654 1.382-3.285 2.791-4.803 4.295a35.572 35.572 0 0 0-3.059 3.374c-.249.301-.476.601-.702.925-5.8-3.766-9.539-10.121-9.539-17.331 0-11.347 9.222-20.568 20.573-20.568.951 0 1.903.07 2.809.209.906.14 1.247.183 1.564.253.022 1.734-.182 3.537-.159 5.062a46.914 46.914 0 0 0 1.11 9.566c.385 1.758 1.496 3.928.884 5.754z" fill="#fff" fill-rule="nonzero"/><path d="M228.061 365.511c-.453.553-69.534 87.973-69.534 87.973l-24.266-19.18 50.91-64.379.521-.694c.023-.025 1.541-1.919 1.541-1.919l15.611-19.779 6.865-8.665.657-.833c.317 3.28 1.02 6.539 2.266 9.518-.295.188-.476.51-.295.881 1.745 3.904 4.373 7.185 7.477 10.119 2.696 2.544 5.098 4.67 7.613 6.541.204.138.43.279.634.417z" fill="#202b59" fill-rule="nonzero"/><path d="M126.898 430.188h102.047c13.073 0 23.654 10.585 23.654 23.642v6.442c0 13.059-10.581 23.645-23.654 23.645H126.898c-13.051 0-23.654-10.586-23.654-23.645v-6.442c0-13.057 10.603-23.642 23.654-23.642z" fill="#202b59" fill-rule="nonzero"/><path d="M146.315 410.569h63.213c13.05 0 23.631 10.585 23.631 23.645v4.212c0 13.057-10.581 23.643-23.631 23.643h-63.213c-13.051 0-23.632-10.586-23.632-23.643v-4.212c0-13.06 10.581-23.645 23.632-23.645zm73.952-51.574-.906.274-8.089 2.383-25.557 7.554c-.181.07-3.715 1.11-3.715 1.11l-53.403 15.806a10.415 10.415 0 0 0-1.926-1.962c-1.042-.856-1.768-1.409-2.492-2.452a308.194 308.194 0 0 0-2.402-3.464c-1.472-2.127-2.923-4.275-4.418-6.403a92.181 92.181 0 0 0-1.178-1.71c-1.269-1.824-2.493-4.484-4.781-5.221-2.492-.833-5.845-.256-8.383-.07-1.178.091-2.402.184-3.648.322-.204-.668-.725-2.424-.725-2.424l16.789-4.969 2.334-.693.928-.279c.658-.184 90.38-26.735 90.38-26.735.022 0 1.291-.37 1.291-.37a39.433 39.433 0 0 0 0 8.343c.317 3.28 1.02 6.539 2.266 9.518-.295.188-.476.51-.295.881 1.745 3.904 4.373 7.185 7.477 10.119.159.14.294.301.453.442z" fill="#202b59" fill-rule="nonzero"/><path d="M89.06 367.104c-.113.278-.204.555-.294.833-.091-.715.113-.786.294-.833z" fill="#ff88c4" fill-rule="nonzero"/><path d="M148.512 178.366c-7.363-.508-14.908.036-22.294 1.264-.272-.244-.499-.491-.748-.711-6.072-5.137-13.775-8.116-21.728-8.175-9.085-.068-18.284 3.673-24.538 10.266-11.419.009-19.87 9.679-23.654 19.961-.657.174-1.178.743-1.223 1.355-4.169.716-8.157 2.243-11.759 4.864-11.057 8.053-13.798 24.771-11.895 37.541.136.849 1.405 1.012 1.563.084 1.383-7.817 1.156-16.035 3.852-23.462 1.223 4.72 4.282 9.022 9.358 10.024 2.877.566 5.822-.084 8.654-.515 3.83-.596 7.545-.494 11.283.365 7.206 1.602 13.504 5.531 20.528 7.538 5.324 1.516 12.189.931 15.293-4.303 3.059-5.154.544-11.321-3.262-15.3-4.826-5.021-11.601-9.06-17.809-12.153a50.792 50.792 0 0 0-6.616-2.762c5.869-.65 11.125.809 16.449 3.924 5.529 3.249 10.309 7.586 15.747 10.982 4.214 2.649 10.4 6.174 15.158 2.81 3.647-2.583 4.373-7.255 3.376-11.34 1.087.877 2.266 1.636 3.67 2.1 1.042.356 2.175.537 3.285.539.975.098 1.949.03 2.9-.238.34-.093.657-.215.974-.355.273.262.59.475 1.02.605 2.945.91 4.985-2.52 5.778-4.81.725-2.089.883-4.246.566-6.39.748-.104 1.518-.208 2.266-.31 5.981-.798 12.416-1.017 18.239-2.683 3.965-1.112 7.907-4.021 8.179-8.469.567-10.134-15.679-11.773-22.612-12.246z" fill="#ffc5c5" fill-rule="nonzero"/><path d="M308.879 177.059c-.159-.476-.317-.947-.476-1.412-.294-.974-1.2-2.522-2.469-1.647-1.02.723-.341 2.875 0 3.838.362.986 1.88 4.201 3.307 3.489a.96.96 0 0 0 .544-.904c-.113-1.13-.498-2.261-.906-3.364zm10.74-12.367c-.091-1.955-3.014-2.777-4.215-3.296-3.67-1.566-7.748-2.556-11.577-.941-1.609.687-4.736 2.692-2.923 4.713 1.925 2.071 4.894-.093 7.023-.584 2.085-.485 4.147-.2 6.231.174 1.042.19 5.188 1.511 5.461-.066zm-30.678-2.15c0-.709-.114-1.418-.318-2.116-.158-.6-1.042-.492-1.155.077a9.21 9.21 0 0 0 .249 4.767c.204.612 1.224.596 1.292-.086.113-.888.068-1.767-.068-2.642z" fill="#202b59" fill-rule="nonzero"/><path d="M309.219 202.317c-.476 1.157-1.156 1.527-1.609 1.873-1.087.832-2.084 1.802-3.308 2.425-1.132.58-2.333.625-3.557.394-4.327-.832-7.703-4.831-7.817-9.129 1.292-.16 2.424.116 3.557.44 1.541.46 3.059.97 4.577 1.477 1.473.487 2.923.972 4.419 1.434.724.231 1.472.463 2.22.671.476.138.997.347 1.518.415z" fill="#fff" fill-rule="nonzero"/><path d="M190.02 181.545c-1.246 1.579-3.081 5.118-5.347 5.274-3.262.215-4.599-3.505-3.331-5.92-.747 1.042-1.473 2.102-2.243 3.131-.815 1.067-2.356.036-1.744-1.124 3.557-6.776 8.133-13.12 12.62-19.288a339.305 339.305 0 0 1 14.183-18.141c.499-.589 1.314-.911 2.017-.422 1.608 1.118 5.279 2.624 4.893 5.076-.181 1.157-1.065 2.261-1.654 3.237a198.188 198.188 0 0 1-2.469 4.051 237.94 237.94 0 0 1-10.966 16.304 230.942 230.942 0 0 1-5.959 7.822zm39.129-15.228c.453 1.443-.136 2.816-1.02 3.951-2.945 3.779-6.502 7.21-9.697 10.774-7.273 8.02-14.727 15.914-21.796 24.12-.544.63-1.541.75-1.971-.115a235.4 235.4 0 0 1-3.013-6.405c-.499-1.047.543-1.89 1.404-1.722 0-1.203.68-2.37 1.472-3.283.567-.646 1.269-1.192 1.904-1.763.295-.272.634-.591.861-.868a2346.436 2346.436 0 0 0 26.803-29.143c.363-.411 1.178-.329 1.518.086 1.133 1.45 2.991 2.519 3.535 4.368z" fill="#202b59" fill-rule="nonzero"/><path d="M243.853 344.92c0 9.106-5.913 16.848-14.115 19.549-.363.117-.725.231-1.111.324l-.566.718c-3.149-2.288-5.551-4.414-7.794-6.516-3.557-3.376-6.185-6.657-7.93-10.561-.181-.371 0-.693.295-.881-1.246-2.979-1.949-6.238-2.266-9.518a39.433 39.433 0 0 1 0-8.343l-1.269.37c.408-.44.861-.832 1.337-1.179.227-.208.453-.369.68-.555a20.51 20.51 0 0 1 12.167-3.974c11.374 0 20.572 9.22 20.572 20.566z" fill="#fff" fill-rule="nonzero"/><path d="M229.76 364.469c-.385.117-.747.231-1.11.324l-1.019 1.271c-.363-.252-.703-.553-1.042-.807-.363-.301-.726-.603-1.065-.856a112.87 112.87 0 0 1-5.03-4.158 41.94 41.94 0 0 1-1.11-.974c-2.538-2.239-5.189-4.62-7.092-7.37-2.425 1.225-4.056 2.311-5.664 3.396-3.127 2.08-6.276 4.162-9.403 6.24-3.127 2.08-6.276 4.182-9.426 6.217-.656.417-1.313.879-1.97 1.318-.295.206-3.829 1.246-3.829 1.246 1.744-1.178 3.579-2.265 5.233-3.396 3.535-2.451 6.48-4.368 9.358-6.308 3.126-2.104 6.253-4.184 9.379-6.285 1.632-1.064 3.241-2.15 4.849-3.215-.952-3.695-.748-7.671-1.019-11.206-.023-.346-.045-.693-.091-1.04-.227-2.889-.566-5.87-.612-8.804.612-.646 1.314-1.201 2.039-1.734.091.347.136.716.182 1.063.362 2.587.475 5.245.657 7.833.023.441.045.901.091 1.343.317 3.371.044 7.463 1.563 10.629.294.276.521.648.747.969 2.108 3.351 5.008 5.893 7.749 8.275.249.231.499.437.77.668a100.463 100.463 0 0 0 4.486 3.698c.567.439 1.224.856 1.836 1.271.181.138.362.253.543.392zm-101.231 21.676-2.198.648-2.017.602c-3.761 4.713-9.561 7.74-16.063 7.74-11.374 0-20.573-9.221-20.573-20.588 0-2.06.295-4.022.861-5.896.317-.992.408-1.269.521-1.547 3.308-1.04 6.865-1.593 10.309-1.942 1.246-.138 2.47-.231 3.648-.322 2.538-.186 5.891-.763 8.383.07 2.288.737 3.512 3.397 4.781 5.221.407.58.792 1.133 1.178 1.71 1.495 2.128 2.946 4.276 4.418 6.403a308.194 308.194 0 0 1 2.402 3.464c.724 1.043 1.45 1.596 2.311 2.311.929.716 1.563 1.389 2.039 2.126z" fill="#fff" fill-rule="nonzero"/><path d="m128.597 386.122-2.266.671c-.249-.392-.476-.784-.725-1.156-2.855-4.391-5.687-8.779-8.542-13.148-1.042-1.688-1.767-3.142-2.741-4.252-1.11-1.269-2.628-1.269-4.237-1.432a59.027 59.027 0 0 0-9.04-.139c-.408.023-.793.046-1.178.093-3.671.299-7.274 1.038-10.853 1.802-.249-.624-.771-1.895-.771-1.895a6.926 6.926 0 0 1 1.179-.371c2.786-.854 5.709-1.364 8.519-1.686.407-.045.816-.093 1.223-.115 4.532-.463 9.312-.51 13.798.253.748-2.358 1.541-4.69 2.47-6.978.272-.716.589-1.432.929-2.15.113-.302.249-.601.385-.9.023-.047.612 1.362.612 1.362.453.231.883.462 1.336.716.182.764-.068 1.273-.317 1.756-.43.834-.838 1.665-1.314 2.474-.793 1.432-1.608 2.889-2.402 4.346.998.6 1.632 1.525 2.357 2.703.68 1.017 1.337 2.055 1.994 3.072.929 1.434 1.835 2.866 2.764 4.3l4.713 7.348c.362.578 2.107 3.326 2.107 3.326zm25.557 70.93c0 12.632-10.241 22.872-22.861 22.872-12.643 0-22.861-10.24-22.861-22.872 0-12.631 10.218-22.872 22.861-22.872 12.62 0 22.861 10.241 22.861 22.872zm93.347 0c0 12.632-10.241 22.872-22.861 22.872-12.642 0-22.883-10.24-22.883-22.872 0-12.631 10.241-22.872 22.883-22.872 12.62 0 22.861 10.241 22.861 22.872zm-95.069-25.813c-.136-.6-.385-1.167-.612-1.74a.696.696 0 0 0-.793-.46c-.362.07-.566.376-.566.73 0 .614-.046 1.237.045 1.846.091.61.204 1.219.295 1.831.068.469.339.834.838.945 1.178-.433 1.246-.889 1.155-1.337-.113-.605-.249-1.21-.362-1.815zm5.8 1.278c-.09-.292-.181-.587-.226-.886-.136-1.185-.114-1.507-.136-1.819a13.192 13.192 0 0 1-.091-.968c-.023-.582-.906-.775-1.133-.22-.136.34-.272.694-.362 1.049-.091.372-.068.814-.046 1.194.023.744.159 1.484.34 2.2.136.438.68.71 1.111.546a.902.902 0 0 0 .543-1.096zm6.389-.005c-.226-2.1-.271-2.458-.294-2.82-.045-.426-.386-.852-.816-.918-.43-.066-.906.129-1.087.548a7.168 7.168 0 0 0-.431 1.144c-.113.399-.113.818-.113 1.233.023.329.045.657.113.981.204 1.133.363 1.414.635 1.679.317.308.838.381 1.246.247.476-.159.725-.524.861-.974.113-.363-.023-.753-.114-1.12zm5.891-.394-.204-.888-.203-.893c-.091-.358-.295-.682-.477-1.008-1.359.634-1.449 1.006-1.381 1.373.022.304.068.605.113.906l.136.907c1.088 1.626 1.609 1.497 1.835 1.21.227-.284.363-.556.317-.927-.022-.222-.09-.458-.136-.68zm6.095-.559c-.294-1.17-.34-1.512-.453-1.843-.318-1.316-1.337-1.522-1.699-.981a6.127 6.127 0 0 0-.499.814 2.518 2.518 0 0 0-.272.981 5.668 5.668 0 0 0-.045 1.074c.702 1.91 1.246 2.154 1.835 2.109.476-.036.907-.428 1.11-.827.25-.435.136-.883.023-1.327zm6.774-.016c-.317-1.124-.385-1.487-.385-1.836-.022-1.631-.634-1.828-.974-1.611-.34.22-.77.537-.952.914a3.77 3.77 0 0 0-.339 1.214c-.068.512.022 1.02.136 1.513.158.571.43 1.269.997 1.523.339.154.702.152 1.019-.016.317-.152.612-.46.657-.825a1.625 1.625 0 0 0-.159-.876zm6.005.133c-.793-3.226-1.269-3.337-1.496-2.975-.181.286-.34.59-.453.914-.091.299-.113.625-.136.935 2.243 1.629 2.152 1.382 2.085 1.126zm4.259-.247c-2.198-.296-2.152.025-2.061.342.679 1.33 1.223 1.462 1.653 1.244.476-.231.658-.722.522-1.212-.023-.127-.046-.256-.114-.374zm5.574-.231c-.023-.322-.046-.641-.046-.963-.249-1.341-.317-1.647-.407-1.953-1.02.365-1.111.671-1.201.977-.136 1.395-.159 1.708-.182 2.016.182 1.514.589 1.797.975 1.756.43-.045.702-.322.815-.716.114-.365.068-.743.046-1.117zm6.729-.256c-.046-.344-.113-.689-.158-1.031-.069-.333-.114-.664-.182-.994-.476-1.38-.974-1.48-1.133-1.106-.136.319-.272.621-.339.972-.046.335-.114.673-.159 1.008-.068.326-.114.65-.159.974.023 1.786.43 2.212.974 2.246.499.032 1.088-.326 1.133-.866.068-.766.068-.972.023-1.203zm5.392-2.46a8.533 8.533 0 0 0-.34-1.07.49.49 0 0 0-.951.186c0 .308-.046.594-.091.904-.045.34-.136.666-.203 1.006-.046.333-.137.653-.227.979-.25.641-.408.983-.227 1.339 2.153-1.348 2.175-1.758 2.198-2.171.022-.392-.091-.793-.159-1.173zm5.959.659c-.136-1.319-.068-1.878.045-2.429.091-.347-.385-.467-.566-.188a7.252 7.252 0 0 0-.725 1.792 6.245 6.245 0 0 0-.136.913c.204 1.539.612 1.729.952 1.663.317-.065.634-.396.589-.759-.046-.333-.068-.663-.159-.992zm-70.078 4.493c-.023-.442-.068-.882-.068-1.323 0-.442 0-.879.022-1.319-1.064.301-1.132.77-1.178 1.242-.045.494-.09.99-.09 1.484-.023.491-.068 1.033.113 1.497.227.598 1.201.617 1.314-.086.068-.498-.045-.997-.113-1.495zm-5.392-2.816c-1.111 2.823-.703 2.927-.454 2.834.34-.127.499-.381.544-.721.068-.672.091-.971.068-1.268a3.632 3.632 0 0 0-.158-.845zm-5.914 1.64c-.771-3.106-.951-2.848-1.11-2.56-.159.281-.204.65-.25.967-.022.333-.045.675-.045 1.013 0 .356 0 .745.091 1.088.113.33.475.518.793.455a.696.696 0 0 0 .566-.721.87.87 0 0 0-.045-.242z" fill="#fff" fill-rule="nonzero"/><path d="M316.605 178.219c-.43-.229-.634-.95-.906-1.346-.34-.51-.748-.95-1.224-1.337-1.019-.818-2.175-1.507-3.33-2.107-1.156-.605-2.447-1.047-3.762-.789-.566.109-1.132.313-1.608.646-.453.317-1.065.825-.974 1.437.045.335.317.645.68.607.521-.055.77-.462 1.245-.637.409-.158.839-.186 1.269-.14 1.156.129 2.175.655 3.173 1.239a16.154 16.154 0 0 1 2.537 1.819c.816.698 1.382 1.716 2.424 2.035.861.258 1.224-1.042.476-1.427zm75.063-38.318c-3.308-11.116-11.918-18.81-22.861-22.184-13.436-4.184-28.118-1.78-41.689.463-6.82 1.133-13.934 2.564-20.097 5.823-3.444 1.826-10.014 6.262-5.619 10.608 1.292 1.592 4.033 2.632 5.574 3.21 3.103 1.178 6.389 1.758 9.674 2.15 6.888.854 13.844 1.455 20.777 2.08-1.745 6.609 1.473 13.563 6.751 17.702.816 2.264 1.745 4.507 2.833 6.677-.023.508-.068 1.017-.114 1.57a92.633 92.633 0 0 1-.974 7.488c-.883 5.338-2.22 10.586-3.92 15.715-.204.623.363 1.179.929 1.339 3.603 1.086 6.322-1.987 7.432-5.129.884-2.449 1.201-5.383 3.602-6.888 2.175-1.339 5.257-1.015 7.455.093 2.401 1.226 4.146 3.444 5.551 5.732 1.291 2.128 3.398 5.2 3.512 7.742.136 2.957-3.49 4.504-4.011 7.094-2.288 3.58-.589 9.197 3.127 11.392 1.359.023 1.609-.131 1.812-.326.748-1.4.68-2.447.725-3.22.114-1.545.385-3.108.907-4.572.838-1.72 1.427-2.71 1.971-3.668.883-1.64 1.813-3.258 2.719-4.874a122.045 122.045 0 0 0 4.191-5.893c3.512-5.431 6.208-11.279 7.454-17.448 3.807-10.4 5.484-21.884 2.289-32.676z" fill="#202b59" fill-rule="nonzero"/><path d="M426.061 442.3c-3.172 8.202-7.749 16.13-13.889 22.46-2.923 3.007-6.253 5.617-9.81 7.835-2.356 1.479-4.962 2.474-7.477 3.582-4.124-1.987-17.763-11.745-23.541-15.475-18.805-12.105-29.567-16.809-35.685-39.385-.883-1.687-.974-2.959-.951-4.23.453-7.186 4.939-13.055 9.811-17.285 3.353-2.911 7.068-5.36 11.169-7.094 2.039-.854 4.101-1.499 6.276-1.894 1.133-.185 2.901-.625 4.282-.417 15.86 2.289 30.905 6.725 45.949 10.423 2.877.718 5.755 1.434 8.632 2.172 3.467 3.535 6.004 7.717 7.477 12.802 2.47 8.711.952 18.187-2.243 26.506z" fill="#ffc5c5" fill-rule="nonzero"/><path d="M377.734 398.463c-1.405-6.958-2.81-13.911-4.305-20.867-1.473-7.071-3.58-15.692-8.361-21.606-.294-1.203-.679-1.502-1.065-1.64a81.21 81.21 0 0 0-8.541-12.643c-11.125-13.449-26.554-23.268-43.615-27.152-8.179-1.846-17.808-3.19-25.58.832-6.955 3.629-9.607 11.206-4.282 17.631 1.994 2.391 11.85 3.528 20.255 5.123 7.613 1.455 16.54 9.045 21.344 14.637-14.796-.417-29.704 2.61-43.026 9.173-5.053 2.518-12.552 6.401-11.261 13.289 1.291 6.838 9.562 9.264 15.497 9.52 8.429.347 16.517-2.796 24.584-4.807.747-.186 1.472-.322 2.22-.485a9.285 9.285 0 0 0-1.428 2.311c-1.948 4.391-3.942 7.005-3.33 11.79.453 3.234 2.718 8.753 4.961 10.971.114 4.574 1.768 8.596 5.755 11.347.567.382 1.179.695 1.79 1.037 1.043.782 2.153 1.473 3.105 2.11 1.834 1.205 3.693 2.238 5.799 2.873 1.201.36 2.606.609 3.965.568a87.438 87.438 0 0 0 1.745 3.326 34.412 34.412 0 0 0 3.286 4.62c.77 2.438 2.061 4.894 3.647 6.883 1.586 1.994 3.58 3.689 5.937 4.731 2.175.961 5.777 1.919 7.204-.634.205-.363.046-.798-.226-1.067-.748-.755-1.7-1.07-2.742-1.194a10.88 10.88 0 0 1-2.809-.748 12.533 12.533 0 0 1-2.855-1.67c5.347 2.411 11.329 2.209 17.038 1.371 5.166-.761 10.785-1.616 14.32-5.939 3.103-3.811 3.987-8.988 3.965-13.771-.046-6.656-1.677-13.426-2.991-19.92zm-.159-210.738c0 7.498-6.072 13.574-13.572 13.574-7.499 0-13.571-6.076-13.571-13.574 0-7.497 6.072-13.573 13.571-13.573 7.5 0 13.572 6.076 13.572 13.573z" fill="#ffc5c5" fill-rule="nonzero"/><path d="M387.771 119.344c-.159-.457-.612-.729-1.065-.72-2.402.043-4.712.877-6.616 2.295l-.068-4.321c-.023-.895-1.36-.94-1.54-.1-.182.827-.341 1.652-.522 2.479-.181.825-.408 1.609-.34 2.456.091 1.249-.362 1.443-.611 2.033-.249.53-.113 1.225.34 1.604.702.586 1.427.428 2.152.009 1.881-.827 2.696-1.194 3.535-1.618a20.746 20.746 0 0 0 4.327-2.9c.362-.31.566-.736.408-1.217z" fill="#202b59" fill-rule="nonzero"/><path d="M370.257 192.606c-4.056-.311-8.088-.925-12.009-2.019 1.405-1.001 2.425-1.76 3.444-2.515.998-.727 1.972-1.454 2.946-2.18.544-.391 1.019-.829 1.518-1.271.589-.518.906-.962 1.269-1.651.362-.703-.249-1.772-1.111-1.627-.702.12-1.268.254-1.925.623-.521.306-1.065.598-1.564.954-1.042.739-2.061 1.475-3.104 2.211-.996.71-1.994 1.419-2.99 2.126-1.088.774-2.085 1.647-3.104 2.503-1.11.934-.771 2.458.589 2.891 5.143 1.636 10.49 2.508 15.883 2.207 1.245-.068 1.472-2.148.158-2.252z" fill="#ff88c4" fill-rule="nonzero"/><path d="M538.055 510.469c-11.51 4.692-24.334 6.149-36.591 4.114-13.73-2.266-27.166-7.787-40.307-12.248-20.777-7.024-41.485-14.535-61.355-23.824a164.445 164.445 0 0 1-4.917-2.334c2.515-1.108 5.121-2.103 7.477-3.582 3.557-2.218 6.887-4.828 9.81-7.835 6.14-6.33 10.717-14.258 13.889-22.46 3.195-8.319 4.713-17.795 2.243-26.506-1.473-5.085-4.01-9.267-7.477-12.802 1.722.417 3.444.855 5.144 1.294 21.705 5.524 43.365 11.347 65.229 16.105 1.677.371 3.376.718 5.053 1.09 9.402 1.153 18.057 2.979 26.599 5.175 7.658 1.941 14.976 4.089 22.159 6.4 6.57 2.105 12.619 5.107 17.355 9.475 4.26 3.859 7.477 8.782 9.04 15.067 5.937 23.756-12.643 44.415-33.351 52.871zm-83.514-271.07c-3.263 8.993-10.218 15.82-18.307 21.078-1.019 1.425-2.175 2.783-3.149 3.949-2.606 3.141-5.642 6.113-8.927 8.61-6.435 4.951-14.319 8.589-22.068 11.277-16.041 5.594-33.759 7.424-50.729 7.662-6.978.095-13.98-.428-20.799-1.808-.658.548-1.609.761-2.651.213-1.065-.548-2.084-1.092-3.104-1.615-6.412-1.833-12.552-4.498-18.103-8.234-5.687-3.829-10.468-8.514-14.705-13.773-4.463-5.494-8.677-12.085-10.467-18.892-1.586-6.065-.929-12.488 3.285-17.484.43-.476.861-.904 1.292-1.334a26.116 26.116 0 0 1 3.693-4.613c2.492-2.429 4.327-2.769 8.043-3.032 4.192-.283 8.972 1.35 12.144 3.491 4.101 2.762 9.108 4.559 13.073 7.534a314.855 314.855 0 0 1 22.091 18.198c14.659-8.326 31.086-14.059 46.651-20.577 8.224-3.426 16.403-6.922 24.651-10.255 3.942-1.593 7.907-3.092 11.985-4.377 3.807-1.212 7.908-2.569 11.94-2.592 5.959-.048 11.125 3.378 13.776 8.349 3.036 5.662 2.515 12.373.385 18.225z" fill="#aa80f9" fill-rule="nonzero"/><path d="M77.143 259.025c.226-.693 1.495-1.223 1.495-1.223-1.45-.601-1.948-.809-2.425-1.04a80.306 80.306 0 0 1-2.764-1.226 128.936 128.936 0 0 0-4.395-1.962c-1.178-.51-2.356-1.065-3.58-1.502.181-1.111-.158-2.268-.476-3.376-.543-2.196-1.042-4.414-1.381-6.632a66.448 66.448 0 0 1-.862-10.166c-.022-.324-.022-.648-.022-.972-.544.231-1.496.648-1.496.648-.543 3.188-.317 6.147.068 9.058a78.087 78.087 0 0 0 1.043 5.662c.407 1.894 1.858 4.966.453 6.539a18.92 18.92 0 0 1-1.45 1.595c-2.243 2.381-4.758 4.574-7.069 6.863a250.242 250.242 0 0 0-3.58 3.559 88.93 88.93 0 0 0-3.24 3.326c-.317.301-.589.601-.861.902.294.208.566.394.861.555 3.172-2.035 5.596-4.366 7.998-6.747.385-.392.816-.786 1.201-1.178 1.54-1.527 3.103-3.03 4.667-4.554.272-.277.567-.531.861-.807.861-.786 1.79-1.595 2.47-2.497 1.064.691 2.197 1.316 3.33 1.917.68.369 1.359.741 2.062 1.063.725.394 1.495.74 2.265 1.087.952.44 1.949.877 2.946 1.294.521.231.974.439 1.45.645.363.141.657.279.929.395l-.498-1.201v-.025z" fill="#fff" fill-rule="nonzero"/><path d="M101.159 222.416c-2.107-4.038-4.78-7.892-8.519-10.572-3.58-2.585-7.749-4.207-11.827-5.832-9.969-3.954-20.46-7.604-31.244-5.145-1.495.339-.725 2.598.748 2.258 11.578-2.653 23.518 2.309 33.985 6.818 5.393 2.327 9.72 5.313 12.96 10.318 2.9 4.511 6.684 11.698 1.813 16.245-4.192 3.915-10.355 2.751-15.203.875-4.894-1.901-9.539-4.321-14.569-5.941-8.247-2.66-19.961-4.004-26.848 2.637-.317.324.113.984.543.78 4.532-2.157 8.61-3.612 13.731-3.628 5.483-.018 10.852 1.573 15.905 3.585 7.454 2.959 15.905 8.766 24.198 5.616 8.066-3.054 7.771-11.435 4.327-18.014z" fill="#fff" fill-rule="nonzero"/><path d="M126.444 214.173c-.022.53-.068 1.063-.136 1.593-.589 4.16-3.239 7.95-7.408 9.06-5.098 1.339-10.083-1.479-13.799-4.669-4.577-3.929-8.632-7.948-14.07-10.746-5.551-2.864-11.419-4.113-17.514-5.175-.475-.071-.407-.762.068-.809 9.788-.716 20.075 3.605 27.551 9.704 3.897 3.19 7.386 7.49 12.462 8.736 5.506 1.362 9.765-2.333 9.878-7.832 0-.533-.022-1.065-.09-1.572a12.975 12.975 0 0 0-.703-2.796c-1.155-3.166-3.467-5.939-5.732-8.343-3.331-3.534-6.956-6.817-10.898-9.636-8.542-6.124-19.19-9.915-29.726-7.927-9.154 1.733-17.219 8.435-19.44 17.631-.317 1.434-2.492 1.018-2.22-.414 2.107-11.347 12.167-19.044 23.246-20.521.634-.068 1.223-.138 1.858-.186a31.586 31.586 0 0 1 2.107-.093c10.241-.09 20.074 4.462 28.072 10.676 5.778 4.484 13.64 11.048 15.883 18.742.43 1.48.657 3.005.611 4.577z" fill="#fff" fill-rule="nonzero"/><path d="M140.651 212.093c-4.011 3.766-9.517 4.112-14.207 2.08a14.258 14.258 0 0 1-3.058-1.71 12.975 12.975 0 0 0-.703-2.796c.612-.809 1.79-1.249 2.741-.392 3.58 2.979 8.384 4.481 12.145 2.17 4.056-2.497 4.984-7.071 3.172-11.299-1.722-3.999-4.713-7.395-7.522-10.608-2.787-3.213-5.619-6.4-8.882-9.128-6.706-5.637-15.52-8.574-24.288-7.788a32.846 32.846 0 0 0-11.079 3.027c-2.629 1.251-4.827 2.891-7.092 4.529-.838.603-1.677 1.179-2.515 1.756-.363.209-.634-.206-.453-.485.294-.414.566-.806.861-1.178 4.667-5.845 13.571-8.988 20.641-9.633 17.105-1.598 30.02 10.281 39.377 23.291 3.988 5.524 6.639 12.779.862 18.164z" fill="#fff" fill-rule="nonzero"/><path d="M170.965 184.474c-4.667-5.802-13.685-5.814-20.459-6.237a146.41 146.41 0 0 0-12.869-.247c-4.237.104-8.655.149-12.756 1.38-.34.104-.34.697.045.731 6.639.594 13.436-.333 20.12-.07 3.851.154 7.703.467 11.532.904 3.286.379 6.797.773 9.743 2.452 2.945 1.681 5.165 4.789 4.327 8.299-.793 3.288-3.784 5.621-6.819 6.716-3.105 1.121-6.276 1.2-9.539 1.23-3.489.036-6.956.251-10.445.442-2.062.111-1.858 3.328.204 3.19 4.282-.295 8.564-.558 12.801-1.133 3.331-.446 6.775-.909 9.788-2.499 5.551-2.932 8.632-9.824 4.327-15.158zm184.973 172.031c-9.29-4.398-19.553-5.615-29.749-5.798-10.218-.186-20.596 1.255-30.474 3.813-8.202 2.123-19.122 4.855-24.084 12.427-4.328 6.609-2.356 15.174 5.438 17.795 5.075 1.706 10.399.431 15.474-.634 6.548-1.373 13.073-2.762 19.621-4.146 1.473-.311.703-2.511-.748-2.21-4.531.948-9.085 1.892-13.639 2.839-4.6.957-9.289 2.325-14.002 2.568-4.531.233-10.037-1.133-11.668-5.921-1.405-4.123.679-8.664 3.67-11.496 3.014-2.848 7.001-4.47 10.83-5.864a107.915 107.915 0 0 1 12.892-3.783c8.655-1.976 17.491-2.635 26.35-2.463 10.06.197 19.938 2.177 29.862 3.537.385.052.589-.488.227-.664z" fill="#fff" fill-rule="nonzero"/><path d="M357.433 371.927c-3.014-1.375-6.276-1.488-9.538-1.64a72.198 72.198 0 0 0-11.284.392c-7.024.782-14.387 2.245-20.867 5.145-5.483 2.447-9.674 6.995-10.581 13.074-.861 5.809 1.609 11.546 6.117 15.22 1.156.943 2.674-.815 1.519-1.769-4.668-3.806-6.729-10.042-4.622-15.792 2.197-5.932 7.612-8.512 13.276-10.273a82.134 82.134 0 0 1 17.65-3.407c2.969-.24 5.959-.361 8.927-.352 3.127.012 6.209.422 9.312-.083.25-.041.363-.392.091-.515z" fill="#fff" fill-rule="nonzero"/><path d="M356.776 384.296c-7.975.625-15.701 3.083-23.201 5.798a135.811 135.811 0 0 0-11.374 4.694c-3.172 1.475-6.389 3.018-8.858 5.547-2.108 2.166-3.49 5.163-3.331 8.229.181 3.358 2.401 5.535 4.826 7.57 5.437 4.536 11.917 9.108 19.349 6.801 1.518-.476.725-2.836-.793-2.361-6.82 2.117-12.937-2.895-17.74-7.073-2.742-2.377-3.943-5.204-2.357-8.691 1.314-2.844 4.01-4.666 6.684-6.095 11.691-6.251 24.56-9.337 36.931-13.733.385-.133.272-.718-.136-.686z" fill="#fff" fill-rule="nonzero"/><path d="M403.676 480.822c-1.654 0-3.353-.023-5.007 0-4.849-3.095-9.493-6.564-14.184-9.704-8.722-5.848-17.423-11.696-26.146-17.541-7.023-4.738-14.659-9.335-19.553-16.454-2.379-3.442-3.806-7.348-4.622-11.415-.453-2.356-.68-4.715-.77-7.096-.068-1.801-.431-3.672.363-5.313 1.495 1.5 1.359 3.396 1.585 5.177.295 2.264.612 4.552 1.088 6.793.929 4.391 2.696 8.435 5.505 11.947 5.302 6.609 13.051 11.045 19.984 15.69 8.066 5.408 16.154 10.839 24.243 16.27 5.755 3.836 11.442 8.157 17.514 11.646zM325.69 350.806c-1.585-2.58-4.984-4.547-7.476-6.192-2.719-1.799-5.551-3.387-8.542-4.724-5.778-2.605-11.736-3.792-17.899-5.064-5.823-1.2-12.325-4.282-10.559-11.439 1.836-7.35 9.856-9.115 16.291-10.198-5.075-1.312-10.785-.22-14.681 3.337-3.354 3.052-5.189 8.17-3.649 12.566 1.609 4.604 6.209 6.697 10.627 7.789 5.686 1.407 11.328 2.151 16.789 4.394a58.607 58.607 0 0 1 9.516 4.946c1.472.954 2.9 1.984 4.282 3.072 1.291 1.024 2.469 2.313 3.965 3.054.952.485 1.858-.675 1.336-1.541z" fill="#fff" fill-rule="nonzero"/><path d="M378.662 391.625c-4.032-16.186-9.764-32.32-19.462-46.05-10.263-14.55-24.99-24.297-41.712-30.082-10.241-3.548-20.119-4.108-30.632-1.18-.453.127-.294.811.159.79 4.826-.222 9.652-1.008 14.478-.894 4.735.113 9.312 1.257 13.775 2.755 8.519 2.85 16.88 6.672 24.175 11.922 13.051 9.353 22.227 23.142 28.435 37.746 3.557 8.336 6.23 17.007 8.429 25.784.385 1.559 2.741.752 2.355-.791z" fill="#fff" fill-rule="nonzero"/><path d="M423.184 402.247c-1.36-1.194-3.263-1.606-4.962-2.146a78.201 78.201 0 0 0-5.483-1.511c-3.988-.945-8.044-1.59-12.076-2.216-4.056-.627-8.112-1.216-12.145-2.012-3.987-.788-7.907-1.905-11.872-2.789-.612-.138-.883.737-.339 1.018 6.978 3.688 15.451 4.536 23.11 5.813 4.055.673 8.088 1.364 12.075 2.296 1.836.43 3.694.91 5.507 1.475 1.857.582 3.67 1.586 5.641 1.69.838.045 1.088-1.133.544-1.618z" fill="#fff" fill-rule="nonzero"/><path d="M513.268 404.354c-1.246-3.346-6.661-4.898-9.878-5.669-4.282-1.026-8.633-.779-12.869.331-9.403 2.47-18.194 8.356-27.778 2.964-3.806-2.144-7.159-5.039-11.102-6.958-3.353-1.629-7.024-2.395-10.762-2.314-6.978.15-15.022 3.336-18.443 9.761-.249.471.385 1.097.816.718 5.89-5.127 12.552-8.886 20.663-7.846 8.179 1.051 13.526 7.579 20.844 10.615 7.636 3.163 14.909.073 22.204-2.51 4.215-1.498 8.542-2.685 13.051-2.171 2.356.27 4.667.902 6.797 1.892 1.767.818 3.308 2.365 5.256 2.56.748.073 1.496-.571 1.201-1.373z" fill="#fff" fill-rule="nonzero"/><path d="M441.241 448.053c-1.291 10.214-5.46 19.967-11.804 28.054-3.149 3.976-6.82 7.581-10.943 10.56-3.784 2.776-7.432 3.258-10.921-.183-2.175-2.15-3.92-3.813-6.933-4.738-2.379-.716-4.803-1.271-7.046-2.334-2.583-1.18-4.962-2.773-7.251-4.436-1.88-1.341-3.693-2.497-4.667-4.669-.249-.553.045-1.41.589-1.711 7.273-4.158 14.274-9.056 19.689-15.318 5.302-8.574 8.61-17.634 9.765-27.13.589-4.738.635-9.543.114-14.306-.544-5.036-2.13-9.797-2.969-14.765-.136-.834.748-1.41 1.473-1.319 3.557.51 7.115.995 10.672 1.502 2.877.394 6.163.44 8.768 1.804 2.22 1.155 3.58 3.351 4.803 5.431 1.518 2.657 3.013 5.335 4.192 8.156 2.333 5.639 2.786 11.53 2.945 17.587.159 5.938.25 11.901-.476 17.815z" fill="#202b59" fill-rule="nonzero"/><path d="M457.306 398.137c-2.833-4.602-3.83-10.048-5.461-15.128-1.699-5.241-3.874-10.304-6.117-15.33-4.509-10.123-9.584-20.242-15.86-29.395-.227-.315-.794-.068-.635.31 4.464 10.647 9.584 21.022 14.229 31.582 2.288 5.166 4.441 10.377 6.072 15.785 1.427 4.794 2.764 9.432 5.936 13.418.884 1.108 2.583-.009 1.836-1.242z" fill="#fff" fill-rule="nonzero"/><path d="M438.908 204.199c-.929 5.531-5.891 8.275-10.717 10.053-4.69 1.729-9.448 3.258-14.138 4.96a609.555 609.555 0 0 0-28.525 11.174 607.283 607.283 0 0 0-34.077 15.623c-.974.484-1.948.976-2.922 1.465-.634.315-1.881 1.208-2.606 1.274-1.087.095-1.971-.791-2.696-1.389-3.58-2.937-6.661-6.46-10.354-9.33-4.011-3.129-8.247-5.973-12.575-8.676-4.169-2.617-8.564-5.75-13.277-7.286-.544-.177-.816.612-.453.942 3.58 3.254 8.315 5.434 12.393 7.987 4.441 2.782 8.791 5.721 12.915 8.963a100.616 100.616 0 0 1 5.687 4.828c1.858 1.711 3.512 3.961 5.483 5.495 1.087.842 2.288.954 3.557.509 2.673-.919 5.234-2.589 7.771-3.826a600.599 600.599 0 0 1 61.424-25.999c5.573-2.005 11.554-3.519 16.879-6.154 4.192-2.08 7.658-5.415 8.451-10.175.25-1.446-1.993-1.885-2.22-.438z" fill="#202b59" fill-rule="nonzero"/><path d="M297.415 262.1c-6.956-5.06-11.601-12.342-15.77-19.735-2.265-4.021-4.554-8.066-6.095-12.409-.77-2.127-1.382-4.577-1.427-6.978.566 0 1.178.02 1.745.045.113.739.271 1.479.475 2.241a42.21 42.21 0 0 0 2.017 5.755c1.722 3.858 3.897 7.556 5.981 11.208 3.92 6.747 8.315 13.309 14.75 17.908 1.359.97-.34 2.934-1.676 1.965zm174.572-13.495c-8.202 1.199-16.245 3.21-24.039 6.077-10.15 3.743-19.032 9.382-28.48 14.489-.317.161-.793-.231-.476-.533 7.727-7.139 18.126-11.899 27.914-15.551a117.751 117.751 0 0 1 22.068-5.891c1.019.437 2.039.899 3.013 1.409z" fill="#fff" fill-rule="nonzero"/></svg>