<?xml version="1.0" encoding="UTF-8" standalone="no"?><!DOCTYPE svg PUBLIC "-//W3C//DTD SVG 1.1//EN" "http://www.w3.org/Graphics/SVG/1.1/DTD/svg11.dtd"><svg width="100%" height="100%" viewBox="0 0 144 144" version="1.1" xmlns="http://www.w3.org/2000/svg" xmlns:xlink="http://www.w3.org/1999/xlink" xml:space="preserve" xmlns:serif="http://www.serif.com/" style="fill-rule:evenodd;clip-rule:evenodd;stroke-linejoin:round;stroke-miterlimit:2;"><rect id="SML-ICONS" serif:id="SML ICONS" x="-241.168" y="-548" width="646.075" height="896.487" style="fill:none;"/><clipPath id="_clip1"><rect id="rocket.svg" x="10.469" y="9.671" width="124.132" height="124.132"/></clipPath><g clip-path="url(#_clip1)"><path d="M132.056,9.687c-24.231,-0.434 -51.866,12.232 -69.358,31.881c-16.717,0.316 -32.993,7.169 -44.977,19.153c-0.698,0.687 -0.947,1.717 -0.641,2.648c0.31,0.936 1.117,1.613 2.089,1.753l19.934,2.855l-2.462,2.757c-0.916,1.024 -0.869,2.581 0.103,3.553l33.241,33.242c0.502,0.501 1.164,0.755 1.831,0.755c0.616,-0 1.231,-0.218 1.723,-0.657l2.756,-2.462l2.855,19.933c0.14,0.973 0.906,1.686 1.831,1.997c0.238,0.077 0.487,0.114 0.74,0.114c0.734,-0 1.484,-0.321 2.002,-0.833c11.818,-11.818 18.671,-28.095 18.987,-44.812c19.669,-17.528 32.439,-45.153 31.876,-69.353c-0.037,-1.376 -1.149,-2.488 -2.53,-2.524Zm-23.833,44.646c-2.519,2.519 -5.829,3.781 -9.144,3.781c-3.316,-0 -6.626,-1.262 -9.145,-3.781c-5.037,-5.043 -5.037,-13.246 0,-18.289c5.043,-5.043 13.246,-5.043 18.289,0c5.043,5.043 5.043,13.251 0,18.289Z" style="fill-rule:nonzero;"/><path d="M24.558,97.107c-5.534,5.534 -13.132,30.536 -13.98,33.365c-0.274,0.911 -0.021,1.898 0.647,2.571c0.496,0.496 1.153,0.76 1.831,0.76c0.248,0 0.496,-0.036 0.744,-0.109c2.83,-0.848 27.832,-8.446 33.366,-13.98c6.232,-6.232 6.232,-16.375 -0,-22.607c-6.238,-6.233 -16.375,-6.228 -22.608,-0Z" style="fill-rule:nonzero;"/></g></svg>