<?xml version="1.0" encoding="UTF-8" standalone="no"?><!DOCTYPE svg PUBLIC "-//W3C//DTD SVG 1.1//EN" "http://www.w3.org/Graphics/SVG/1.1/DTD/svg11.dtd"><svg width="100%" height="100%" viewBox="0 0 590 590" version="1.1" xmlns="http://www.w3.org/2000/svg" xmlns:xlink="http://www.w3.org/1999/xlink" xml:space="preserve" xmlns:serif="http://www.serif.com/" style="fill-rule:evenodd;clip-rule:evenodd;stroke-linejoin:round;stroke-miterlimit:2;"><rect id="Artboard4" x="-1110" y="-38" width="4285.86" height="2543.15" style="fill:none;"/><path d="M93.798,319.287c-8.112,-1.919 -15.521,-5.388 -21.955,-10.73c-10.875,-9.04 -18.194,-21.592 -24.968,-33.886c30.995,2.676 54.875,25.328 71.505,50.849c-7.862,-3.269 -16.335,-4.282 -24.582,-6.233Zm38.403,25.911c-4.554,-9.262 -9.335,-18.769 -15.202,-27.273c-11.035,-15.995 -25.263,-30.084 -42.845,-38.741c-9.516,-4.699 -19.871,-7.563 -30.474,-8.236c-1.472,-0.092 -1.881,1.722 -1.337,2.742c7.228,13.596 15.067,27.669 27.166,37.608c5.891,4.853 12.552,8.173 19.984,9.956c9.561,2.295 19.53,2.458 28.819,5.965c0.409,0.157 0.771,-0.024 0.975,-0.305c3.647,5.718 6.955,11.566 9.901,17.35c5.234,10.318 9.267,21.318 14.999,31.36c0.317,0.553 1.133,0.09 0.974,-0.483c-3.194,-10.322 -8.179,-20.26 -12.96,-29.943Z" style="fill:#202b59;fill-rule:nonzero;"/><path d="M89.855,271.782c-11.056,-17.375 -9.062,-38.995 -7.205,-58.67c6.14,7.214 12.008,14.679 18.012,22.011c6.141,7.529 12.507,14.999 17.333,23.482c8.519,15.01 11.465,32.238 13.142,49.247c-0.816,-0.666 -1.609,-1.325 -2.425,-1.973c-13.776,-10.835 -29.386,-19.241 -38.857,-34.097Zm31.154,-12.62c-4.736,-8.904 -11.238,-16.671 -17.559,-24.451c-6.933,-8.501 -14.071,-16.871 -20.732,-25.58c-0.657,-0.866 -2.22,-0.714 -2.402,0.487c-3.239,20.715 -5.528,43.705 5.529,62.628c9.471,16.234 27.03,26.092 42.255,36.528c1.247,1.797 2.515,3.589 3.761,5.386c0.68,0.961 2.266,0.453 2.176,-0.746c-1.156,-18.624 -4.192,-37.585 -13.028,-54.252Z" style="fill:#202b59;fill-rule:nonzero;"/><path d="M148.945,353.914c-0.816,-3.347 -1.564,-6.713 -2.085,-10.119c-0.996,-6.455 -1.654,-13.22 -0.996,-19.738c-2.493,6.529 -2.764,13.088 -1.722,19.91c0.521,3.272 1.201,6.514 1.971,9.732c0.77,3.192 1.291,6.888 3.058,9.688c0.522,0.809 1.609,0.274 1.632,-0.555c0.09,-3.016 -1.133,-6.018 -1.858,-8.918Z" style="fill:#202b59;fill-rule:nonzero;"/><path d="M146.77,358.797c-1.813,-5.563 -3.58,-11.143 -5.212,-16.755c-3.398,-11.583 -6.344,-23.264 -10.082,-34.743c0.952,12.013 3.806,23.582 7.137,35.119c1.654,5.807 3.421,11.591 5.325,17.328c1.812,5.51 3.307,11.704 6.162,16.777c0.567,1.011 2.425,0.426 2.198,-0.754c-1.088,-5.748 -3.738,-11.401 -5.528,-16.972Z" style="fill:#202b59;fill-rule:nonzero;"/><path d="M492.018,464.435c-8.157,5.424 -17.808,8.206 -27.347,9.924c-12.869,2.318 -26.101,3.027 -39.174,3.108c-27.234,0.164 -54.49,-3.108 -81.384,-7.309c-10.536,4.72 -27.8,0.406 -39.31,0.052c-12.892,-0.383 -24.561,1.178 -37.339,-0.512c-25.716,-3.382 -46.492,-4.037 -71.846,-9.518c-21.751,-4.69 -44.045,-12.778 -63.371,-24.513c-22.884,-13.907 -21.479,-50.976 -17.718,-61.364c6.57,-18.051 18.42,-31.516 35.481,-40.95c21.048,-11.642 50.706,-4.815 73.295,-0.481c20.528,3.929 40.987,8.945 61.242,14.426c16.948,-10.497 36.886,-15.515 56.62,-17.589c13.549,-1.418 27.211,-1.579 40.851,-1.606c13.934,-0.054 27.891,-0.301 41.825,-0.193c13.413,0.109 26.894,0.71 40.171,2.674c3.489,0.517 9.335,1.391 13.821,3.489c-3.557,-6.353 26.916,45.727 30.836,68.03c3.783,21.649 3.602,48.808 -16.653,62.332Z" style="fill:#202b59;fill-rule:nonzero;"/><path d="M382.244,76.811l0,159.162c0,9.556 -7.748,17.305 -17.309,17.305l-257.158,0c-9.539,0 -17.288,-7.749 -17.288,-17.305l0,-159.162c0,-9.57 7.749,-17.328 17.333,-17.328l257.09,0c9.561,0 17.332,7.758 17.332,17.328Z" style="fill:#202b59;fill-rule:nonzero;"/><rect x="211.886" y="98.478" width="38.698" height="10.982" style="fill:#aa80f9;fill-rule:nonzero;"/><rect x="256.249" y="98.478" width="48.124" height="10.982" style="fill:#aa80f9;fill-rule:nonzero;"/><rect x="194.893" y="130.669" width="66.136" height="10.982" style="fill:#36d7be;fill-rule:nonzero;"/><rect x="154.836" y="154.761" width="66.136" height="10.978" style="fill:#202b59;fill-rule:nonzero;"/><rect x="231.19" y="154.761" width="73.182" height="10.978" style="fill:#202b59;fill-rule:nonzero;"/><rect x="135.464" y="182.543" width="39.333" height="10.979" style="fill:#aa80f9;fill-rule:nonzero;"/><rect x="136.665" y="154.761" width="25.467" height="10.978" style="fill:#36bfe3;fill-rule:nonzero;"/><rect x="212.339" y="229.595" width="66.136" height="10.982" style="fill:#36d7be;fill-rule:nonzero;"/><rect x="135.985" y="229.595" width="66.136" height="10.982" style="fill:#36bfe3;fill-rule:nonzero;"/><path d="M247.798,193.663l-39.673,-0c-18.398,-0 -33.328,-14.922 -33.328,-33.331l-0,-8.669c-0,-18.408 14.93,-33.33 33.328,-33.33l39.673,-0c18.397,-0 33.328,14.922 33.328,33.33l0,8.669c0,18.409 -14.931,33.331 -33.328,33.331Z" style="fill:#36bfe3;fill-rule:nonzero;"/><rect x="135.532" y="98.478" width="66.136" height="10.982" style="fill:#36bfe3;fill-rule:nonzero;"/><rect x="136.438" y="130.669" width="70.056" height="10.982" style="fill:#aa80f9;fill-rule:nonzero;"/><path d="M382.244,81.712c0,0.689 -291.755,0.689 -291.755,0.689c0,-12.962 3.49,-22.918 22.204,-22.918l247.325,0c12.257,0 22.226,9.956 22.226,22.229Z" style="fill:#fff;fill-rule:nonzero;"/><path d="M146.045,65.832c3.24,-0 5.868,2.635 5.868,5.888c-0,3.252 -2.628,5.889 -5.868,5.889c-3.263,-0 -5.891,-2.637 -5.891,-5.889c0,-3.253 2.628,-5.888 5.891,-5.888Z" style="fill:#ff88c4;fill-rule:nonzero;"/><path d="M126.356,65.832c3.262,-0 5.891,2.635 5.891,5.888c-0,3.252 -2.629,5.889 -5.891,5.889c-3.24,-0 -5.869,-2.637 -5.869,-5.889c0,-3.253 2.629,-5.888 5.869,-5.888Z" style="fill:#36bfe3;fill-rule:nonzero;"/><path d="M107.279,65.832c3.239,-0 5.89,2.635 5.89,5.888c0,3.252 -2.651,5.889 -5.89,5.889c-3.263,-0 -5.891,-2.637 -5.891,-5.889c-0,-3.253 2.628,-5.888 5.891,-5.888Z" style="fill:#aa80f9;fill-rule:nonzero;"/><path d="M107.822,60.573c-8.972,0 -16.245,7.282 -16.245,16.238l0,159.162c0,8.94 7.273,16.213 16.2,16.213l257.158,-0c8.926,-0 16.199,-7.273 16.199,-16.213l0,-159.162c0,-8.956 -7.273,-16.238 -16.222,-16.238l-257.09,0Zm257.113,193.793l-257.158,-0c-10.128,-0 -18.375,-8.25 -18.375,-18.393l-0,-159.162c-0,-10.157 8.247,-18.42 18.42,-18.42l257.09,0c10.15,0 18.42,8.263 18.42,18.42l-0,159.162c-0,10.143 -8.247,18.393 -18.397,18.393Z" style="fill:#202b59;fill-rule:nonzero;"/><path d="M441.651,183.177c-23.178,-0.149 -44.929,9.487 -67.948,10.719c-5.279,0.27 -10.536,0.098 -15.792,-0.197c-4.713,-0.297 -9.584,-0.444 -14.093,-1.874c-8.202,-2.562 -16.019,-9.364 -21.524,-15.846c-6.457,-7.638 -7.771,-18.431 -9.697,-27.92c-2.13,-10.4 -4.962,-20.775 -6.208,-31.321c-2.13,-17.893 0.385,-37.711 11.487,-52.257c15.905,-20.855 51.114,-17.362 54.014,-17.115c6.752,0.519 14.41,1.924 20.188,5.669c5.845,3.845 8.179,10.916 10.875,17.052c3.24,7.32 6.39,14.713 8.859,22.328c5.052,15.477 5.846,31.913 10.49,47.462c4.464,14.859 11.261,28.931 20.165,41.649c0.43,0.616 -0,1.674 -0.816,1.651Z" style="fill:#202b59;fill-rule:nonzero;"/><path d="M343.274,306.472c-8.315,-0.052 -16.585,-0.149 -24.9,-0.324c-0.68,0 -1.314,-0.589 -1.155,-1.305c0.951,-4.683 2.129,-9.264 3.648,-13.75c0.724,-2.193 1.608,-4.337 2.492,-6.455c0.906,-2.146 1.744,-4.586 3.149,-6.408c0.453,-0.593 1.382,-0.122 1.291,0.542c3.309,1.232 6.276,2.39 9.29,3.573c1.201,0.492 2.764,0.838 3.874,1.602c0.839,0.591 0.907,1.552 1.02,2.515c0.725,6.38 1.359,12.765 2.085,19.145c0.022,0.394 -0.363,0.865 -0.794,0.865Zm177.972,15.131c-1.111,-10.302 -3.082,-20.577 -5.008,-30.782c-3.693,-19.714 -7.839,-39.525 -13.662,-58.725c-4.803,-15.769 -11.487,-31.715 -23.473,-43.445c-9.243,-9.069 -20.368,-14.416 -32.218,-18.432c-0.725,-0.221 -1.45,-0.468 -2.175,-0.69c-3.874,2.537 -8.021,4.706 -12.122,6.704c-9.674,4.656 -19.869,8.179 -30.156,11.188c-10.536,3.104 -21.479,5.444 -32.513,4.681c-9.448,-0.642 -18.692,-3.279 -27.098,-7.565c-5.732,-2.935 -10.898,-6.555 -15.633,-10.819c-0.499,0.197 -0.997,0.344 -1.518,0.541c-5.392,2.021 -10.762,4.142 -15.86,6.827c-15.022,7.837 -24.47,24.053 -31.29,39.011c-4.214,9.239 -14.432,39.058 -19.348,46.895c-56.258,89.75 18.374,83.614 25.375,80.313c8.904,-4.264 22.703,-0 32.49,-1.777c19.44,-3.498 24.198,5.25 43.48,8.751c20.504,3.745 40.692,9.264 61.354,12.296c19.622,2.909 40.081,-0.664 59.657,-4.117c13.39,-2.316 28.548,-3.376 35.843,-15.697c4.464,-7.59 4.758,-16.585 3.875,-25.158Z" style="fill:#aa80f9;fill-rule:nonzero;"/><path d="M285.25,335.032c-5.415,6.504 -13.708,10.227 -22.136,9.98c-8.18,-0.222 -16.246,-3.673 -22.612,-8.872c-3.942,-2.216 -7.454,-5.125 -10.015,-8.921c-5.437,-8.059 -6.344,-19.172 -8.02,-28.461c-0.249,-1.358 -0.453,-2.737 -0.702,-4.117c-0.114,-0.517 -0.182,-1.036 -0.272,-1.577c1.405,0.911 2.832,1.726 4.101,2.44c3.942,2.218 8.179,3.942 12.552,5.125c8.7,2.365 18.012,2.637 26.803,0.691c8.451,-1.874 16.268,-5.891 22.793,-11.41c0.317,0.813 0.634,1.649 0.906,2.463c1.881,5.324 3.376,10.794 3.875,16.438c0.838,9.316 -1.224,18.925 -7.273,26.221Z" style="fill:#36bfe3;fill-rule:nonzero;"/><path d="M247.798,193.663l-39.673,-0c-18.398,-0 -33.328,-14.922 -33.328,-33.331l-0,-8.669c-0,-18.408 14.93,-33.33 33.328,-33.33l39.673,-0c18.397,-0 33.328,14.922 33.328,33.33l0,8.669c0,18.409 -14.931,33.331 -33.328,33.331Z" style="fill:#36bfe3;fill-rule:nonzero;"/><path d="M214.65,168.681c-7.295,-4.379 -13.866,-9.833 -19.711,-16.03c2.945,-2.336 5.868,-4.667 8.791,-7.017c3.443,-2.777 7.431,-5.655 10.059,-9.239c0.725,-0.995 -0.136,-2.819 -1.495,-2.218c-4.055,1.792 -7.658,4.914 -11.125,7.676c-3.602,2.889 -7.204,5.805 -10.807,8.709c-1.246,0.999 -1.246,2.432 -0.204,3.578c6.571,7.248 14.251,13.365 22.702,18.286c2.311,1.353 4.079,-2.381 1.79,-3.745Z" style="fill:#fff;fill-rule:nonzero;"/><path d="M232.232,131.154c-2.152,3.354 -3.081,7.432 -4.237,11.225c-1.11,3.681 -2.265,7.347 -3.398,11.024c-1.11,3.676 -2.266,7.342 -3.444,11.001c-1.224,3.829 -3.104,7.857 -3.693,11.827c-0.363,2.542 2.99,3.656 4.237,1.402c1.88,-3.421 2.787,-7.733 3.987,-11.451c1.224,-3.797 2.424,-7.601 3.603,-11.415c1.178,-3.81 2.265,-7.648 3.331,-11.484c1.087,-3.791 2.333,-7.654 2.197,-11.628c-0.045,-1.495 -1.903,-1.543 -2.583,-0.501Z" style="fill:#fff;fill-rule:nonzero;"/><path d="M264.632,149.01c-5.801,-5.335 -11.668,-11.308 -18.76,-14.835c-0.997,-0.492 -1.881,0.679 -1.359,1.558c3.602,5.955 9.04,10.808 14.25,15.514c-4.803,4.773 -9.515,9.631 -13.956,14.74c-2.289,2.647 1.722,6.072 4.124,3.537c5.278,-5.58 10.535,-11.165 15.995,-16.56c1.111,-1.092 0.748,-2.998 -0.294,-3.954Z" style="fill:#fff;fill-rule:nonzero;"/><path d="M280.424,268.524c-3.535,-12.706 -6.299,-26.121 -13.119,-37.588c-2.514,-4.217 -6.026,-8.315 -10.082,-11.095c-1.858,-1.271 -3.784,-2.61 -5.8,-3.782c-1.111,-4.193 -1.926,-8.161 -2.334,-12.252c-0.317,-3.179 -0.476,-6.408 -0.499,-9.662c0,-3.45 0.544,-7.046 0.227,-10.497c-0.408,-4.461 -3.398,-9.241 -8.202,-8.131c-4.848,1.083 -8.02,6.899 -9.357,11.557c-1.654,5.519 -1.541,11.483 -1.133,17.249c-0.725,-2.44 -1.472,-4.853 -2.107,-7.318c-1.676,-6.729 -1.133,-13.284 -1.699,-20.158c-0.386,-4.561 -1.45,-11.929 -6.752,-12.543c-3.671,-0.419 -7.024,2.046 -9.221,5.175c-0.385,-2.366 -1.111,-4.634 -2.357,-6.532c-3.172,-4.706 -8.927,-5.223 -12.96,-1.108c-4.576,4.633 -5.528,15.651 -6.026,21.787c-0.612,7.345 -0.657,11.967 0.113,19.263c0.431,3.892 1.359,5.548 2.379,9.271c-2.787,-2.664 -4.758,-4.164 -6.322,-8.281c-2.084,-5.347 -3.556,-10.916 -4.554,-16.633c-0.86,-4.88 -0.702,-10.499 -2.855,-14.96c-1.472,-3.054 -4.44,-5.592 -7.884,-5.223c-3.421,0.347 -5.551,3.524 -6.502,6.777c-1.496,4.905 -1.474,10.597 -0.862,15.575c0.159,1.182 0.34,2.415 0.544,3.695c0.521,5.988 1.903,13.73 3.874,18.882c3.195,8.282 8.134,13.017 14.841,18.094c3.942,2.955 8.405,5.78 12.847,7.704c4.599,2.021 9.946,4.411 14.455,6.654c1.2,0.592 2.401,0.134 3.738,0.7c0.884,0.519 1.405,-0.061 2.221,0.605c0.611,6.727 1.586,12.765 2.446,18.656c1.405,9.611 3.15,18.896 4.804,28.48c1.404,0.913 2.039,1.905 3.308,2.619c3.942,2.218 8.179,3.942 12.552,5.125c8.7,2.365 18.012,2.637 26.803,0.691c8.451,-1.874 22.793,-11.41 22.793,-11.41c-0,-0 -6.911,-19.925 -7.318,-21.386Z" style="fill:#ffc5c5;fill-rule:nonzero;"/><path d="M225.843,300.67c-0.612,-2.934 -1.088,-5.9 -1.609,-8.852c-0.929,-5.245 -1.925,-10.475 -2.923,-15.711c-0.951,-5.089 -1.948,-10.173 -2.832,-15.27c-0.838,-4.756 -1.065,-9.811 -2.22,-14.501c0.158,-0.53 -0.046,-1.212 -0.725,-1.421c-12.915,-3.962 -26.328,-9.958 -36.818,-18.635c-5.097,-4.207 -8.768,-9.752 -11.215,-15.851c-2.017,-5.016 -3.036,-10.515 -4.033,-15.876c-0.997,-5.412 -2.017,-11.453 -0.884,-16.918c0.748,-3.523 2.538,-7.59 6.027,-9.189c4.735,-2.169 7.59,2.093 8.791,6.035c3.92,12.863 3.059,27.699 13.073,37.951c0.499,0.519 0.884,0.494 1.156,0.295c-0.159,-0.64 -0.272,-1.281 -0.385,-1.897c-0.635,-0.666 -1.224,-1.355 -1.768,-2.071c-4.508,-5.988 -6.253,-13.576 -7.613,-20.896c-0.747,-4.165 -1.427,-8.354 -2.514,-12.421c-0.816,-3.079 -1.926,-6.455 -4.804,-8.229c-6.208,-3.77 -11.645,3.401 -13.141,8.673c-1.155,4.051 -1.133,8.351 -0.566,12.498c1.042,7.418 1.79,15.028 4.531,22.054c2.493,6.455 6.344,12.541 11.646,17.061c10.626,9.06 24.424,15.189 37.679,19.308c-0.567,4.638 0.385,9.67 1.087,14.204c0.839,5.521 1.949,10.995 2.991,16.481c1.042,5.347 2.039,10.696 3.126,16.032c0.544,2.639 1.043,5.288 1.655,7.909c0.521,2.135 0.86,4.484 2.129,6.297c0.499,0.684 1.473,0.281 1.496,-0.503c0.022,-2.187 -0.884,-4.416 -1.337,-6.557Z" style="fill:#fff;fill-rule:nonzero;"/><path d="M291.276,298.259c-6.57,-16.211 -11.872,-32.798 -16.132,-49.757c-3.171,-12.627 -9.855,-26.606 -22.135,-32.798c-2.266,-7.973 -2.244,-16.091 -2.244,-24.13c0,-5.746 0.386,-14.322 -6.366,-16.698c-6.344,-2.241 -10.989,4.017 -13.005,9.13c-2.538,6.469 -3.965,14.283 -2.266,21.133c0.816,-6.521 1.246,-12.731 3.512,-18.928c1.042,-2.868 2.356,-5.991 4.803,-7.948c2.719,-2.175 6.412,-2.325 8.769,0.458c2.084,2.49 2.31,5.865 2.333,8.979c0.045,3.197 -0.045,6.396 0,9.595c0.068,6.382 0.566,12.772 2.379,18.918c0.204,0.673 0.816,0.839 1.314,0.671c5.098,4.02 9.856,7.842 13.572,13.368c4.463,6.636 6.389,14.013 8.292,21.676c3.943,15.996 9.018,31.713 15.203,46.995c0.499,1.235 2.47,0.578 1.971,-0.664Z" style="fill:#fff;fill-rule:nonzero;"/><path d="M465.419,312.837c-3.694,-11.678 -7.137,-23.421 -10.355,-35.234c-3.195,-11.775 -5.618,-23.863 -9.357,-35.474c-0.181,-0.54 -1.088,-0.39 -0.997,0.195c1.654,11.912 5.166,23.674 8.292,35.265c3.263,12.031 6.775,23.987 10.536,35.875c0.385,1.219 2.266,0.587 1.881,-0.627Z" style="fill:#fff;fill-rule:nonzero;"/><path d="M349.301,305.559c-0.385,-1.065 -0.77,-2.12 -1.155,-3.185c-0.771,-2.128 -1.496,-4.264 -2.176,-6.41c-1.245,-3.786 -2.311,-7.615 -3.579,-11.388c0.544,-0.484 0.453,-1.561 -0.453,-1.846c-8.316,-2.59 -15.77,-5.975 -22.023,-12.217c-6.095,-6.104 -10.105,-14.117 -10.808,-22.761c-0.679,-8.403 1.677,-17.208 7.183,-23.69c1.722,-2.032 4.327,-3.507 3.262,-6.444c-0.702,-1.93 -1.948,-3.817 -2.877,-5.641c-1.042,-1.994 -1.835,-4.613 -3.738,-5.864c-0.521,2.347 0.838,4.139 1.79,6.12c0.951,1.984 3.647,5.474 2.605,7.68c-0.793,1.706 -3.285,3.413 -4.441,5.051c-0.974,1.388 -1.858,2.859 -2.606,4.386c-3.488,7.137 -4.372,15.447 -2.809,23.21c3.15,15.681 17.537,28.865 33.125,32.035c0.77,4.021 1.925,7.945 3.126,11.861c0.68,2.159 1.36,4.307 2.085,6.446c0.362,1.069 0.725,2.138 1.11,3.201c0.363,1.04 0.657,2.282 1.382,3.133c0.635,0.764 1.881,0.438 1.881,-0.636c-0.023,-1.047 -0.544,-2.06 -0.884,-3.041Z" style="fill:#fff;fill-rule:nonzero;"/><path d="M495.303,367.1c0.159,0.474 -8.972,5.88 -9.425,5.907c-27.642,1.937 -68.628,3.106 -96.293,4.633c-26.757,1.498 -53.81,-0.027 -79.933,6.954c-1.473,0.408 -3.014,-0.766 -2.697,-2.375c3.852,-19.575 10.468,-28.735 17.786,-47.364c7.545,-19.241 15.203,-32.03 15.203,-32.03c-0,-0 84.148,1.162 118.768,-5.572c0.544,-0.109 2.583,5.316 7.228,17.362c7.816,20.24 22.453,31.657 29.363,52.485Z" style="fill:#202b59;fill-rule:nonzero;"/><path d="M410.86,99.097c0,27.814 -22.566,50.362 -50.366,50.362c-27.823,-0 -50.367,-22.548 -50.367,-50.362c0,-27.814 22.544,-50.362 50.367,-50.362c27.8,-0 50.366,22.548 50.366,50.362Z" style="fill:#202b59;fill-rule:nonzero;"/><path d="M444.71,169.519c-3.874,2.538 -8.021,4.72 -12.144,6.709c-9.652,4.663 -19.847,8.18 -30.134,11.179c-10.536,3.109 -21.479,5.454 -32.513,4.69c-9.448,-0.627 -18.692,-3.271 -27.075,-7.551c-5.755,-2.946 -10.944,-6.573 -15.656,-10.826c3.195,-1.171 6.344,-2.288 9.516,-3.464c10.06,-3.734 20.119,-7.278 30.338,-10.552c0.952,0.218 1.382,0.112 1.79,-0.052c2.311,-0.929 4.463,-2.238 6.344,-3.899c0.86,-0.763 1.608,-1.856 2.65,-2.402c0.408,-0.217 0.839,-0.299 1.337,-0.299c0.68,0.028 1.088,0.299 1.359,-0.491c0.295,-0.954 0.431,-1.772 1.179,-2.536c0.498,-0.573 1.132,-0.926 1.835,-1.144c-0.771,-0.575 -1.631,-1.117 -2.425,-1.72c-0.589,-0.462 0.182,-1.309 0.771,-0.872c18.352,13.143 41.553,16.306 62.828,23.23Z" style="fill:#ffc5c5;fill-rule:nonzero;"/><path d="M387.637,99.652c-1.314,1.935 -2.629,3.872 -3.965,5.807c-0.318,-1.47 -0.589,-2.97 -0.884,-4.443c-0.113,-0.598 5.143,-1.826 4.849,-1.364Z" style="fill:#ffc5c5;fill-rule:nonzero;"/><path d="M401.866,168.282c-15.317,1.636 -23.088,3.519 -38.042,7.362c-0.589,0.136 -1.178,-0.299 -1.337,-0.9c-0.951,-3.19 -1.925,-6.38 -2.99,-9.543c-1.564,-4.636 -3.218,-9.271 -5.03,-13.823c-1.518,-3.954 -3.127,-7.853 -4.849,-11.725c-1.767,0.163 -2.152,-1.473 -1.087,-1.609c-0.136,-1.173 -0.635,-2.345 -1.178,-3.489c-0.25,-0.546 0.589,-0.983 0.883,-0.437c0.657,1.28 1.246,2.564 1.881,3.845c2.696,-0.084 5.166,0.573 7.545,1.962c9.131,-11.125 17.831,-22.603 26.01,-34.466c4.282,20.942 9.539,40.656 18.307,60.286c0.272,0.602 0.657,2.456 -0.113,2.537Z" style="fill:#ffc5c5;fill-rule:nonzero;"/><path d="M385.824,140.716c-4.599,8.235 -9.402,16.795 -16.676,22.632c-3.149,2.453 -6.298,3.434 -9.651,1.853c-1.564,-4.636 -3.218,-9.271 -5.03,-13.823c1.155,-0.546 2.333,-1.063 3.466,-1.611c3.558,-1.606 7.092,-3.242 10.604,-4.853c3.67,-1.663 7.318,-3.297 10.966,-4.962c1.767,-0.791 4.849,-2.671 6.276,-0.272c0.181,0.299 0.249,0.737 0.045,1.036Z" style="fill:#202b59;fill-rule:nonzero;"/><path d="M397.153,117.055c-0.725,3.43 -5.823,1.203 -7.16,4.454c-1.11,2.73 -0.906,15.779 -2.401,18.303c-3.037,5.15 -3.784,4.601 -8.338,8.215c-11.669,9.253 -28.73,11.691 -41.191,2.841c-10.558,-7.517 -14.614,-21.732 -17.355,-34.019c-1.314,-5.857 -3.285,-12.496 -2.764,-18.441c0.77,-8.528 5.483,-15.529 9.606,-22.68c4.033,-5.934 9.675,-9.658 15.611,-13.265c5.347,-3.231 11.306,-4.31 17.446,-3.693c12.529,1.264 24.719,9.38 31.176,20.495c4.418,7.647 6.299,16.714 6.072,25.578c-0.068,3.668 -0.543,7.345 -1.314,10.966c0.408,0.154 0.725,0.627 0.612,1.246Z" style="fill:#ffc5c5;fill-rule:nonzero;"/><path d="M376.761,363.412l-26.554,-70.344c-1.405,-3.74 -6.434,-6.772 -11.237,-6.772l-122.915,0c-4.781,0 -13.028,5.336 -10.943,11.202c0.272,0.904 26.826,71.247 26.826,71.247c1.427,3.741 6.457,6.773 11.238,6.773l108.821,-0l13.209,0.675c9.902,-0.675 12.983,-9.043 11.555,-12.781Z" style="fill:#fff;fill-rule:nonzero;"/><path d="M374.314,368.34l-26.576,-70.344c-1.405,-3.74 -6.435,-6.77 -11.238,-6.77l-122.892,0c-4.803,0 -13.05,5.334 -10.966,11.2c0.272,0.904 26.849,71.25 26.849,71.25c1.405,3.74 6.434,6.769 11.237,6.769l108.8,0l13.232,0.678c9.878,-0.678 12.959,-9.042 11.554,-12.783Z" style="fill:#202b59;fill-rule:nonzero;"/><path d="M407.394,390.7l-161.341,-0c-3.829,-0 -6.933,-3.106 -6.933,-6.94l-0,-3.473c-0,-3.836 3.104,-6.942 6.933,-6.942l161.341,-0c3.829,-0 6.933,3.106 6.933,6.942l0,3.473c0,3.834 -3.104,6.94 -6.933,6.94Z" style="fill:#202b59;fill-rule:nonzero;"/><path d="M293.882,347.171c1.971,5.427 -0.838,9.826 -6.254,9.826c-5.437,0 -11.418,-4.399 -13.412,-9.826c-1.971,-5.424 0.838,-9.824 6.253,-9.824c5.437,0 11.419,4.4 13.413,9.824Z" style="fill:#fff;fill-rule:nonzero;"/><path d="M339.083,128.556c-0.227,-0.465 -0.657,-0.46 -0.997,-0.825c-0.34,-0.395 -0.408,-1.006 -0.317,-1.507c0.159,-1.266 0.815,-2.406 0.951,-3.695c0.272,-2.474 -0.476,-5.123 -1.291,-7.436c-0.77,-2.139 -1.835,-4.273 -3.58,-5.791c-1.518,-1.342 -3.761,-2.373 -5.777,-1.827c2.288,0.961 4.191,1.935 5.732,3.818c1.495,1.804 2.288,4.083 2.855,6.319c0.294,1.185 0.566,2.393 0.611,3.619c0.046,1.345 -0.34,2.474 -0.747,3.729c-0.522,1.636 -0.385,3.994 1.608,4.536c1.02,-0.476 1.065,-0.712 0.952,-0.94Z" style="fill:#ff88c4;fill-rule:nonzero;"/><path d="M365.433,114.635c-0.453,0.145 -0.883,0.383 -1.314,0.61c-0.317,0.172 -0.906,0.663 -1.246,0.423c-0.249,-0.181 -0.454,-0.664 -0.657,-0.936c-0.25,-0.358 -0.521,-0.713 -0.771,-1.058c-1.019,-1.286 -2.22,-2.481 -3.647,-2.925c-1.496,-0.453 -3.014,0.007 -4.328,0.877c-1.246,0.818 -2.492,2.012 -2.878,3.729c-0.113,0.494 0.454,0.68 0.612,0.234c0.612,-1.674 2.334,-2.603 3.739,-2.948c1.45,-0.355 2.877,0.009 4.078,1.076c1.087,0.984 1.79,2.409 2.787,3.503c0.499,0.535 1.088,0.698 1.722,0.492c0.793,-0.263 1.722,-0.764 2.424,-1.294c0.725,-0.539 0.385,-2.078 -0.521,-1.783Z" style="fill:#202b59;fill-rule:nonzero;"/><path d="M366.815,108.244c-0.045,0.351 -0.34,0.731 -0.748,0.661c-3.828,-0.48 -7.748,-0.362 -11.555,0.424c-1.54,0.297 -3.036,0.845 -4.577,1.087c-1.11,0.206 -2.492,0.329 -3.466,-0.437c-0.906,-0.702 -0.929,-1.969 -0.295,-2.884c0.726,-1.076 2.175,-1.462 3.354,-1.799c5.573,-1.636 11.419,-0.988 16.449,1.812c0.295,-0.188 0.77,-0.106 0.838,0.315c0.046,0.331 0.046,0.472 0,0.821Z" style="fill:#202b59;fill-rule:nonzero;"/><path d="M332.852,109.771c-0.747,1.017 -2.537,0.462 -3.534,0.242c-3.036,-0.664 -6.005,-1.815 -8.95,-2.769c-0.748,-0.249 -1.541,-0.473 -2.288,-0.75c-0.498,-0.163 -0.907,-0.455 -1.02,-1.015c-0.09,-0.586 0.181,-1.13 0.634,-1.466c0.341,-0.235 0.658,-0.283 1.02,-0.247c0.634,-0.364 1.428,-0.528 2.198,-0.58c1.405,-0.117 2.832,-0.015 4.214,0.275c2.47,0.545 4.758,1.731 6.594,3.443c0.724,0.655 1.902,1.829 1.132,2.867Z" style="fill:#202b59;fill-rule:nonzero;"/><path d="M351.861,131.215c-0.475,0.188 -0.906,0.565 -1.337,0.857c-0.453,0.303 -0.906,0.598 -1.359,0.886c-0.929,0.589 -1.88,1.137 -2.9,1.595c-0.951,0.433 -1.881,0.845 -2.923,1.101c-0.498,0.125 -0.996,0.222 -1.518,0.274c-0.974,1.056 -0.634,1.199 -0.09,1.19c0.566,-0.005 1.133,-0.055 1.699,-0.145c1.133,-0.175 2.243,-0.49 3.285,-0.945c1.042,-0.458 2.017,-1.049 2.968,-1.665c0.499,-0.329 0.997,-0.673 1.496,-1.022c0.475,-0.336 1.042,-0.648 1.427,-1.092c0.476,-0.56 -0.045,-1.299 -0.748,-1.034Z" style="fill:#ff88c4;fill-rule:nonzero;"/><path d="M335.276,117.288c-0.951,-2.56 -2.945,-4.919 -5.415,-5.825c-1.064,-0.392 -2.379,-0.412 -3.217,0.512c-0.997,1.069 -0.838,2.44 -0.77,3.786c-1.156,-0.306 -2.152,-0.906 -3.285,-1.339c0.679,1.479 2.265,2.178 3.647,2.576c0.34,0.098 0.635,-0.149 0.68,-0.514c0.136,-1.045 -0.136,-2.769 0.68,-3.562c0.68,-0.673 1.835,-0.226 2.537,0.154c1.858,1.008 3.286,2.746 4.078,4.815c0.295,0.757 1.337,0.147 1.065,-0.603Z" style="fill:#202b59;fill-rule:nonzero;"/><path d="M410.838,114.334c0.045,0.442 -0.068,0.924 -0.499,1.124c-16.585,7.279 -34.28,0.256 -48.463,-9.129c-7.228,-4.79 -11.487,-10.588 -19.145,-18.74c-4.691,-4.991 -11.918,-20.291 -11.918,-20.375c-0,-0.107 8.36,-12.355 16.245,-14.53c8.202,-2.25 17.809,-2.289 26.237,-1.659c8.36,0.646 16.721,3.159 22.453,9.58c5.461,6.085 7.93,14.179 9.833,21.93c2.515,10.456 4.26,21.098 5.257,31.799Z" style="fill:#202b59;fill-rule:nonzero;"/><path d="M399.169,119.851c-0.702,6.217 -6.298,10.698 -12.506,10.012c-6.208,-0.684 -10.695,-6.278 -10.015,-12.493c0.68,-6.215 6.276,-10.699 12.507,-10.013c6.208,0.685 10.694,6.279 10.014,12.494Z" style="fill:#ffc5c5;fill-rule:nonzero;"/><path d="M357.798,117.769c-0.091,-0.802 -0.34,-1.623 -0.657,-2.395c-0.884,-2.067 -5.121,-2.162 -4.351,0.666c0.68,2.571 2.493,5.802 4.509,3.992c0.566,-0.499 0.589,-1.509 0.499,-2.263Z" style="fill:#202b59;fill-rule:nonzero;"/><path d="M333.645,119.613c0.408,-0.999 -0.317,-2.427 -0.793,-3.22c-0.611,-1.074 -2.13,-3.91 -3.534,-2.141c-0.93,1.199 0.43,3.92 1.155,4.901c0.589,0.798 1.88,1.774 2.787,1.008c0.181,-0.158 0.317,-0.344 0.385,-0.548Z" style="fill:#202b59;fill-rule:nonzero;"/><path d="M389.993,113.96c-0.249,-0.485 -0.974,-0.777 -1.473,-0.458c-1.54,0.999 -3.013,2.116 -4.372,3.36c-0.657,0.589 -1.269,1.206 -1.858,1.849c-0.317,0.335 -0.612,0.682 -0.929,1.033c-0.181,0.231 -0.385,0.44 -0.476,0.736c-0.045,1.149 0.317,1.328 0.657,1.283c1.518,-0.945 1.812,-1.264 2.13,-1.582c0.589,-0.611 1.201,-1.2 1.835,-1.764c1.291,-1.142 2.583,-2.098 4.033,-2.991c0.499,-0.308 0.748,-0.92 0.453,-1.466Z" style="fill:#ff88c4;fill-rule:nonzero;"/><path d="M444.733,308.235c-2.583,3.972 -7.228,4.84 -10.717,7.341c-2.13,1.513 -3.988,3.405 -5.551,5.607c-1.518,2.06 -2.741,4.432 -4.486,6.259c-2.583,2.743 -6.435,4.463 -9.652,2.22c-3.625,-2.563 -2.629,-8.451 -1.405,-12.41c1.269,-4.064 3.308,-7.639 5.574,-11.092c-3.58,1.556 -6.072,5.102 -8.904,8.226c-2.833,3.089 -6.707,5.744 -10.695,5.25c-3.874,-0.487 -6.276,-4.226 -6.412,-8.533c-0.022,-0.541 0,-1.08 0.046,-1.62c-2.81,2.006 -7.001,5.135 -9.788,2.81c-4.396,-3.625 -2.333,-12.677 -0.77,-17.732c1.676,-5.512 4.418,-10.558 7.884,-14.831c2.175,-2.628 4.645,-4.948 7.296,-6.928c-1.971,-1.149 -4.01,-1.94 -6.344,-1.922c-3.602,-0.034 -6.865,1.437 -10.083,3.054c-1.993,1.015 -4.327,3.524 -6.524,3.662c-3.853,0.274 -8.316,-1.115 -8.52,-5.424c-0.204,-4.851 4.69,-12.133 8.089,-14.786c8.451,-6.63 21.184,-6.469 30.428,-2.903c6.48,2.472 13.3,6.609 18.443,11.875c3.535,1.004 5.574,3.401 7.93,6.994c1.019,1.589 1.949,3.243 2.787,4.924c5.709,2.995 10.468,11.376 12.325,16.92c1.405,4.176 1.496,9.237 -0.951,13.039Z" style="fill:#ffc5c5;fill-rule:nonzero;"/><path d="M515.785,351.875c-5.211,7.159 -15.497,10.51 -25.376,10.583c-9.833,0.075 -21.954,-2.954 -40.012,-22.646c7.092,-1.799 13.956,-7.418 18.216,-13.306c7.976,-11.041 9.245,-21.613 6.231,-32.579c-0.159,-0.566 -0.318,-1.135 -0.498,-1.702c8.496,2.91 37.406,18.681 42.096,23.684c9.629,10.275 7.16,25.197 -0.657,35.966Z" style="fill:#aa80f9;fill-rule:nonzero;"/><path d="M468.613,326.506c-4.26,5.888 -11.124,11.507 -18.216,13.306c-0.476,-0.394 -0.951,-0.763 -1.427,-1.133c-7.274,-5.544 -13.141,-12.79 -19.123,-19.691c-3.059,-3.498 -5.37,-6.874 -5.596,-11.655c-0.181,-4.042 0.43,-8.648 1.88,-12.42c1.133,-2.907 -4.893,-29.794 -2.288,-27.898c9.47,7.001 33.034,18.606 51.001,26.912c3.014,10.966 1.745,21.538 -6.231,32.579Z" style="fill:#ffc5c5;fill-rule:nonzero;"/><path d="M464.15,321.845c-2.266,5.438 -7.545,7.563 -12.53,7.239c-5.845,-0.36 -11.328,-3.457 -16.449,-6.446c-5.482,-3.206 -10.852,-5.546 -16.721,-7.492c2.062,-1.009 4.079,-0.9 6.095,-0.431c-2.651,-3.421 -4.531,-8.141 -6.389,-11.562c-3.671,-6.804 -8.111,-13.793 -9.176,-21.896c-0.408,-3.024 -0.521,-6.949 0.884,-9.686c1.087,-2.234 3.376,-2.737 5.437,-2.99c6.095,-0.863 12.099,1.91 17.129,5.655c10.694,7.993 19.983,19.376 27.369,31.187c3.059,4.826 6.888,10.264 4.351,16.422Z" style="fill:#ffc5c5;fill-rule:nonzero;"/><path d="M340.805,70.592c0.997,4.647 -1.564,5.965 -4.962,8.539c-4.169,3.154 -7.93,6.886 -10.898,11.189c-2.9,4.234 -4.985,8.956 -5.982,13.954c-0.589,2.993 -0.634,6.054 -0.43,9.09c0.159,2.515 1.359,6.258 0.725,8.614c-0.272,-0.471 -1.133,-4.882 -1.337,-4.923c-4.916,-1.28 -6.48,-7.828 -7.522,-11.92c-1.359,-5.39 -1.677,-11.109 -0.725,-16.596c1.495,-8.685 5.936,-18.416 13.458,-23.478c6.389,-4.286 15.906,-2.809 17.673,5.531Z" style="fill:#202b59;fill-rule:nonzero;"/><path d="M388.498,440.77c-6.412,-4.024 -12.983,-7.459 -18.375,-10.432c-9.04,-4.934 -19.077,-8.07 -28.933,-11.423c-1.269,-0.435 -2.538,-0.873 -3.784,-1.31c-7.069,10.309 -12.733,21.758 -17.74,32.749c-2.311,4.989 -4.464,10.035 -6.548,15.132c1.065,0.438 2.13,0.9 3.149,1.389c6.888,3.193 13.345,7.391 19.123,13.116c1.631,1.609 3.262,3.191 4.961,4.772c7.16,6.756 14.886,13.159 23.292,18.087c9.493,5.56 20.255,8.594 30.338,2.705c8.972,-5.249 16.064,-15.205 18.782,-25.142c4.827,-17.5 -9.221,-30.195 -24.265,-39.643Z" style="fill:#202b59;fill-rule:nonzero;"/><path d="M337.406,417.605c-7.069,10.309 -12.733,21.758 -17.74,32.749c-2.311,4.989 -4.464,10.035 -6.548,15.132c-13.934,-5.807 -29.432,-8.045 -44.499,-11.208c-10.943,-2.289 -22.317,-4.006 -32.943,-7.416c-1.178,-0.38 -0.838,-1.28 -0.249,-1.253c0.679,-9.817 6.14,-17.942 11.329,-26.012c5.958,-9.353 10.603,-19.25 14.613,-29.529c-0.204,-0.603 0.068,-0.546 0.408,-0.546c0.295,-0.191 0.725,-0.138 1.019,0.109c2.017,0.355 4.011,1.228 5.959,1.937c2.946,1.062 5.914,2.125 8.837,3.188c5.913,2.127 11.736,4.445 17.559,6.736c12.597,4.934 25.217,9.79 37.86,14.505c1.45,0.546 2.922,1.064 4.395,1.608Z" style="fill:#ffc5c5;fill-rule:nonzero;"/><path d="M254.64,398.995c-2.606,3.244 -7.182,1.964 -10.581,1.117c-7.182,-1.772 -14.274,-4.634 -19.848,-9.541c-2.582,-2.264 -4.871,-4.989 -6.525,-7.989c-1.382,-2.538 -3.375,-6.382 -2.718,-9.355c0.838,-3.788 5.143,-2.234 7.68,-1.364c3.626,1.255 6.933,3.192 10.15,5.263c3.512,2.266 7.002,4.665 10.468,7.037c2.334,1.634 4.849,3.188 7.16,4.935c1.065,-0.628 2.379,0.462 1.994,1.607c0.43,0.355 0.906,0.736 1.291,1.119c0.34,0.356 0.408,0.763 0.295,1.119c0.589,0.489 1.087,1.035 1.381,1.745c0.612,1.445 0.205,3.108 -0.747,4.307Z" style="fill:#fff;fill-rule:nonzero;"/><path d="M265.946,396.949c-11.85,-8.766 -24.017,-17.043 -36.523,-24.794c-6.299,-3.89 -12.643,-7.705 -19.123,-11.303c-3.127,-1.747 -6.299,-3.454 -9.47,-5.137c-1.677,-0.89 -3.354,-1.771 -5.053,-2.649c-0.181,-0.088 -3.127,-1.556 -4.758,-2.129c-0.317,-1.631 -1.019,-1.867 -1.858,-1.579c-0.544,0.19 -0.77,0.661 -0.793,1.201c-0.113,2.315 2.878,3.19 4.532,4.089c3.353,1.81 6.683,3.652 10.014,5.526c6.979,3.956 13.934,7.996 20.799,12.176c13.798,8.392 27.279,17.34 40.398,26.733c1.449,1.04 3.285,-1.049 1.835,-2.134Z" style="fill:#fff;fill-rule:nonzero;"/><path d="M272.222,437.414c-1.79,7.414 -3.58,14.832 -5.347,22.249c-1.156,4.715 -1.201,10.935 -6.933,11.941c-6.276,1.119 -14.07,0.6 -20.233,-0.789c-5.37,-1.255 -4.894,-5.999 -5.075,-10.662c-0.68,-17.804 3.965,-38.474 6.933,-47.199c3.489,-10.275 5.437,-14.614 6.978,-19.413c1.065,-3.272 2.561,-6.38 5.823,-7.959c3.693,-1.831 23.201,7.119 28.367,8.709c5.37,1.645 -6.548,26.545 -10.513,43.123Z" style="fill:#aa80f9;fill-rule:nonzero;"/><path d="M500.854,456.718c-9.244,12.432 -24.832,17.804 -39.604,19.714c-18.556,2.427 -37.792,1.962 -56.461,1.579c-14.071,-0.297 -28.096,-1.253 -42.12,-2.315c0.929,-3.872 0.408,-7.799 0.159,-11.098c-0.635,-8.725 -2.652,-17.317 -5.823,-25.466c-1.904,-11.508 -4.441,-22.907 -7.659,-34.111c-0.453,-1.638 -0.724,-4.499 -1.812,-6.3c4.577,-0.925 9.176,-1.827 13.798,-2.726c20.867,-4.062 41.87,-8.152 63.009,-10.907c17.832,-2.318 36.342,-3.215 53.924,1.282c6.502,1.636 12.937,4.119 18.239,8.288c5.959,4.638 9.199,11.07 10.672,18.38c2.968,14.559 2.877,31.3 -6.322,43.68Z" style="fill:#202b59;fill-rule:nonzero;"/><path d="M430.799,383.78c-6.118,9.324 -17.9,13.361 -28.367,15.215c-5.914,1.062 -12.235,1.663 -18.262,1.198c-3.648,-0.269 -8.088,-2.207 -8.315,-6.298c-0.453,0.382 -0.929,0.763 -1.337,1.2c-0.43,0.41 -1.2,-0.027 -0.906,-0.6c1.813,-3.571 5.936,-5.209 9.448,-6.598c4.532,-1.774 9.448,-2.809 14.229,-3.489c10.671,-1.473 21.433,-2.263 32.15,-3.326c1.541,-0.165 2.062,1.606 1.36,2.698Z" style="fill:#fff;fill-rule:nonzero;"/><path d="M449.626,382.342c-3.942,-5.554 -13.707,-3.949 -19.416,-3.424c-9.086,0.832 -18.126,2.076 -27.121,3.718c-17.831,3.265 -35.436,8.096 -52.27,14.825c-1.042,0.41 -0.521,2 0.544,1.638c16.019,-5.501 32.286,-10.132 48.939,-13.35c8.27,-1.602 16.63,-2.859 25.013,-3.772c3.965,-0.433 7.998,-0.915 12.009,-1.01c4.35,-0.105 7.205,1.046 11.011,2.87c0.906,0.428 1.903,-0.657 1.291,-1.495Z" style="fill:#fff;fill-rule:nonzero;"/><path d="M332.444,470.734c-0.544,0.081 -1.065,0.161 -1.608,0.217c-4.282,0.544 -8.565,1.036 -12.801,1.609c-3.422,-8.345 -5.71,-17.124 -6.594,-26.121c-0.77,-7.937 -0.476,-17.644 6.367,-22.986c0.317,-0.245 0.453,-0.628 0.43,-0.983c2.357,-0.245 4.713,-0.49 7.092,-0.71c0.045,0.984 0.113,1.965 0.159,2.919c0.453,7.88 1.268,15.708 2.401,23.504c1.133,7.47 2.651,14.888 4.486,22.222c0.023,0.109 0.045,0.218 0.068,0.329Z" style="fill:#ffc5c5;fill-rule:nonzero;"/><path d="M307.499,424.586c-13.209,2.426 -22.816,13.798 -25.467,26.558c-0.951,4.471 -1.223,9.326 1.768,13.087c2.537,3.163 6.412,5.399 9.765,7.552c2.129,1.364 4.282,2.646 6.457,3.901c-5.188,1.172 -10.309,2.672 -15.339,4.715c-14.523,5.864 -27.822,14.48 -42.459,19.904c-17.99,6.655 -49.936,14.752 -63.009,-4.606c-6.254,-9.244 -8.86,-20.994 -6.684,-31.985c5.301,-26.857 27.732,-33.673 50.82,-35.417c2.991,-0.655 6.14,-0.983 8.926,-1.391c8.678,-1.228 17.333,-2.753 25.897,-4.609c4.26,-0.954 8.474,-1.989 12.711,-3.052c3.104,-0.763 6.48,-1.991 9.72,-1.828c3.217,0.136 4.962,1.855 7.364,3.709c3.512,2.753 7.93,3.546 12.302,3.027c3.059,-0.19 6.004,-0.492 8.904,-0.793c0.386,0.929 -0.747,1.991 -1.676,1.228Z" style="fill:#202b59;fill-rule:nonzero;"/><path d="M275.19,467.94c-1.223,3 -4.939,4.636 -7.726,5.889c-7.409,3.38 -15.566,4.472 -23.337,6.681c-6.117,1.745 -11.714,4.962 -17.74,6.897c-0.25,-2.125 -0.567,-4.28 -0.884,-6.407c-0.951,-6.079 -2.175,-12.106 -3.874,-17.997c2.764,-1.253 5.619,-2.288 8.428,-3.435c7.59,-3.133 15.18,-6.108 22.907,-8.861c3.738,-1.337 7.408,-2.671 11.169,-3.87c3.422,-1.119 6.843,-2.456 10.445,-2.51c0.363,-0.027 0.499,0.464 0.272,0.655c-1.54,1.171 -3.24,2.127 -5.075,3.024c2.877,2.484 4.916,7.473 5.528,10.035c0.703,3.027 1.088,6.927 -0.113,9.899Z" style="fill:#aa80f9;fill-rule:nonzero;"/><path d="M301.042,460.28c-2.289,1.201 -4.917,1.695 -7.454,2.037c-3.014,0.407 -6.05,0.573 -9.086,0.562c-1.677,-0.005 -3.33,-0.066 -4.984,-0.2c-0.839,-0.068 -1.881,-0.059 -2.81,-0.226c0.023,-1.034 0.045,-1.806 0.068,-2.579l0.136,-4.398c0.068,-2.662 -0.023,-5.394 0.408,-8.031c0.34,-2.142 1.087,-4.065 3.036,-5.225c0.906,-0.542 1.903,-0.786 2.9,-1.124c1.246,-0.417 1.744,-1.165 2.447,-1.98c0.997,-0.474 1.993,-0.936 3.013,-1.339c2.244,-0.888 4.577,-1.607 6.956,-2.121c1.019,-0.222 2.741,-0.822 3.784,-0.627c1.087,0.197 1.472,2.621 1.767,3.518c1.676,5.148 3.013,10.642 3.308,16.066c0.136,2.764 -1.11,4.409 -3.489,5.667Zm6.23,-6.87c-0.521,-4.844 -1.541,-9.665 -2.99,-14.315c-0.567,-1.848 -1.065,-4.828 -2.651,-6.126c-1.473,-1.214 -3.739,-0.485 -5.415,-0.159c-3.807,0.744 -7.545,1.976 -11.057,3.644c-0.566,-0.336 -1.133,-0.725 -1.767,-0.85c-1.11,-0.215 -2.515,0.317 -3.557,0.673c-2.062,0.693 -4.079,1.831 -5.483,3.519c-2.923,3.505 -2.968,8.272 -3.059,12.59l-0.158,7.846c-0.023,1.101 -0.227,2.4 0.135,3.469c0.408,1.214 1.541,1.74 2.629,2.141c2.129,0.775 4.644,0.657 6.887,0.68c2.515,0.025 5.053,-0.084 7.568,-0.333c4.463,-0.44 9.335,-1.002 13.39,-3c1.812,-0.893 3.67,-2.134 4.713,-3.924c1.019,-1.781 1.019,-3.866 0.815,-5.855Z" style="fill:#202b59;fill-rule:nonzero;"/><path d="M311.441,446.427c0.884,8.997 3.172,17.777 6.571,26.119c-0.521,0.084 -1.02,0.139 -1.541,0.22c-3.421,0.464 -6.797,0.981 -10.173,1.636c-2.107,0.353 -4.191,0.791 -6.276,1.282c-2.175,-1.255 -4.328,-2.537 -6.457,-3.901c-3.353,-2.153 -7.228,-4.389 -9.765,-7.552c-2.991,-3.761 -2.719,-8.616 -1.768,-13.087c2.243,-10.689 9.358,-20.395 19.236,-24.759c1.473,-0.68 3.036,-1.199 4.622,-1.609c1.496,-0.763 2.379,-1.144 3.331,-1.307c3.149,-0.438 6.095,-0.709 9.017,-1.008c0.023,0.353 -0.113,0.734 -0.43,0.981c-6.843,5.342 -7.16,15.048 -6.367,22.985Z" style="fill:#fff;fill-rule:nonzero;"/><path d="M239.482,480.028c0.159,2.424 0.272,4.796 -0.702,7.06c-0.974,2.292 -3.308,3.518 -5.709,3.108c-1.088,-0.163 -1.836,-1.144 -1.949,-2.18c-0.544,-4.909 -1.11,-9.817 -1.654,-14.727c-0.43,-3.786 -0.974,-7.66 -0.748,-11.505c-0.113,-0.571 -0.226,-1.171 -0.294,-1.772c-0.182,-2.043 0.476,-4.388 2.696,-5.018c1.994,-0.571 4.078,0.546 5.098,2.238c1.155,1.99 1.269,4.552 1.563,6.761c0.725,5.318 1.314,10.69 1.699,16.035Z" style="fill:#fff;fill-rule:nonzero;"/><path d="M255.728,467.467c0.475,2.888 0.906,5.807 0.657,8.752c-0.182,2.152 -0.703,5.179 -2.946,6.163c-2.039,0.924 -3.874,-0.274 -4.305,-2.348c-0.656,-3.024 -0.883,-6.214 -1.268,-9.271c-0.657,-5.123 -1.405,-10.25 -1.926,-15.404c-1.36,-1.99 -1.405,-4.962 0.748,-6.489c1.88,-1.308 4.281,-0.299 5.482,1.445c1.427,2.101 1.541,5.152 1.949,7.581c0.544,3.188 1.088,6.378 1.609,9.571Z" style="fill:#fff;fill-rule:nonzero;"/><path d="M301.404,437.711c-1.337,-0.279 -2.877,-0.136 -4.169,0.168c-4.441,1.042 -8.859,2.164 -13.277,3.301c-4.418,1.139 -8.814,2.336 -13.209,3.586c-1.224,0.347 -2.537,0.578 -2.764,1.967c-1.337,0.489 -2.56,1.16 -3.263,2.535c-1.132,2.135 -0.974,5.139 -1.019,7.464c-0.045,2.571 0.181,5.059 0.612,7.597c0.385,2.315 0.611,5.464 2.809,6.835c2.039,1.276 5.075,0.709 7.364,0.639c2.741,-0.077 5.483,-0.154 8.247,-0.26c5.234,-0.182 10.468,-0.386 15.701,-0.596c2.628,-0.118 5.052,-0.585 6.706,-2.828c1.405,-1.912 1.904,-4.52 2.357,-6.829c1.337,-6.645 4.305,-23.316 -6.095,-23.579Z" style="fill:#aa80f9;fill-rule:nonzero;"/><path d="M271.021,468.976c-0.385,3.6 -3.013,7.472 -7.024,6.926c-0.748,-0.082 -1.404,-0.873 -1.427,-1.609c-0.113,-4.964 -0.249,-9.899 -0.408,-14.861c-0.09,-2.426 -0.181,-4.85 -0.204,-7.277c-0.022,-2.327 0.023,-11.861 4.962,-8.619c1.586,1.008 1.677,3.22 1.971,4.881c0.408,2.372 0.725,4.771 1.065,7.173c0.317,2.372 0.589,4.769 0.816,7.171c0.181,2.043 0.453,4.144 0.249,6.215Z" style="fill:#fff;fill-rule:nonzero;"/><path d="M365.75,475.696c-0.815,2.234 -2.764,2.727 -4.962,2.671c-0.453,-0.027 -0.929,-0.054 -1.404,-0.082c-1.088,0.299 -2.266,0.435 -3.331,0.601c-7.409,1.117 -15.067,0.027 -21.932,-2.864c-0.385,-0.163 -0.499,-0.573 -0.476,-0.927c-0.725,-2.073 -0.951,-3.299 -1.201,-4.361c-1.903,-7.663 -3.421,-15.081 -4.554,-22.551c-1.133,-7.796 -1.948,-15.624 -2.401,-23.504c-0.046,-0.954 -0.114,-1.935 -0.159,-2.919c-0.295,-5.396 -0.521,-11.095 0.045,-16.494c-0.362,-0.655 -0.475,-1.255 -0.362,-1.799c0.543,-3.299 8.927,-4.309 11.011,-4.69c2.084,-0.383 4.169,-0.736 6.231,-1.119c0.906,-0.163 2.016,-0.571 3.013,-0.517c1.473,-0.437 2.945,-0.901 4.373,-1.336c0.566,-0.164 1.133,0.108 1.292,0.627c3.058,8.916 4.712,18.35 6.706,27.538c1.903,8.725 3.92,17.423 5.596,26.205c0.906,4.715 1.632,9.432 2.13,14.203c0.34,3.247 1.518,8.182 0.385,11.318Z" style="fill:#aa80f9;fill-rule:nonzero;"/><path d="M438.185,314.849c-4.169,0.077 -7.975,1.941 -10.649,5.125c-2.538,3.04 -4.894,8.356 -9.516,8.442c-4.373,0.083 -4.577,-5.538 -4.078,-8.633c0.679,-4.382 2.492,-8.587 5.188,-12.114c3.218,-4.212 7.183,-7.253 12.575,-7.654c-4.192,-2.644 -9.448,0.718 -12.439,3.732c-3.534,3.579 -6.072,8.138 -7.386,12.984c-1.065,3.889 -1.699,9.043 1.337,12.258c3.376,3.582 8.609,1.57 11.464,-1.597c1.971,-2.162 3.218,-4.856 5.257,-6.954c2.197,-2.281 5.233,-3.475 8.383,-3.548c1.314,-0.029 1.178,-2.066 -0.136,-2.041Z" style="fill:#fff;fill-rule:nonzero;"/><path d="M431.75,282.918c-14.228,-4.971 -27.007,6.675 -34.891,17.233c-3.309,4.402 -8.112,11.943 -4.555,17.482c3.467,5.406 10.785,3.442 14.75,-0.104c3.013,-2.683 5.03,-6.228 7.885,-9.054c1.404,-1.4 3.013,-2.612 4.735,-3.616c1.79,-1.047 3.897,-1.527 5.573,-2.728c0.771,-0.553 0.318,-1.599 -0.543,-1.636c-2.47,-0.108 -5.166,1.55 -7.205,2.844c-2.447,1.565 -4.554,3.555 -6.412,5.793c-3.331,4.056 -7.862,11.338 -14.184,9.095c-7.068,-2.513 -1.313,-12.258 1.405,-15.976c3.58,-4.889 7.681,-9.577 12.666,-13.077c5.936,-4.165 13.367,-6.535 20.64,-5.835c0.227,0.021 0.408,-0.333 0.136,-0.421Z" style="fill:#fff;fill-rule:nonzero;"/><path d="M427.015,272.26c-6.661,-2.807 -13.64,-3.761 -20.641,-1.663c-2.674,0.791 -5.188,1.964 -7.477,3.464c-0.43,0.245 -0.838,0.517 -1.223,0.816c-2.878,1.992 -5.392,4.445 -7.59,7.146c-4.531,5.562 -8.474,12.731 -9.131,19.986c-0.317,3.679 0.521,8.616 4.781,9.652c3.784,0.954 5.755,-3.082 7.024,-5.891c0.611,-1.28 2.537,-0.326 1.97,0.954c-1.201,2.646 -2.764,5.7 -5.664,6.817c-2.764,1.065 -5.845,-0.027 -7.771,-2.154c-4.463,-4.878 -2.402,-12.924 -0.227,-18.321c2.538,-6.301 6.458,-12.162 11.51,-16.714c0.974,-0.902 2.04,-1.747 3.195,-2.538c0.634,-0.462 1.291,-0.899 1.971,-1.28c8.949,-5.481 21.048,-7.581 29.545,-0.682c0.249,0.164 -0.023,0.517 -0.272,0.408Z" style="fill:#fff;fill-rule:nonzero;"/><path d="M428.533,270.898c-14.704,-10.716 -35.3,-24.213 -53.562,-12.708c-3.828,2.427 -7.272,6.244 -7.952,10.907c-1.042,7.226 5.483,8.315 10.671,5.726c3.376,-1.691 6.435,-3.925 10.264,-4.389c3.444,-0.437 6.842,0.381 9.788,2.1c1.133,0.68 1.246,1.145 1.155,1.527c-0.43,0.245 -0.838,0.517 -1.223,0.816c-0.748,-0.462 -1.314,-0.791 -1.903,-1.063c-5.211,-2.535 -10.151,-1.035 -15.316,1.829c-3.354,1.881 -7.296,3.679 -11.193,2.182c-9.063,-3.437 -2.605,-15.679 2.288,-19.687c8.044,-6.573 19.576,-7.255 29.274,-4.828c10.829,2.726 20.368,9.244 28.344,16.879c0.43,0.408 -0.137,1.063 -0.635,0.709Z" style="fill:#fff;fill-rule:nonzero;"/><path d="M512.296,312.558c-2.356,-2.696 -6.14,-4.357 -9.221,-6.124c-3.807,-2.178 -7.681,-4.221 -11.578,-6.177c-7.862,-3.924 -15.905,-7.483 -23.903,-11.077c-7.998,-3.593 -15.996,-7.214 -23.79,-11.26c-7.907,-4.112 -15.339,-8.882 -22.929,-13.533c12.348,11.94 29.522,18.864 44.906,25.815c7.998,3.616 16.019,7.178 23.881,11.089c3.738,1.86 7.454,3.797 11.079,5.85c3.534,1.996 7.114,5.048 10.966,6.303c0.453,0.149 0.906,-0.524 0.589,-0.886Z" style="fill:#fff;fill-rule:nonzero;"/><path d="M418.609,74.824c-3.602,3.993 -8.881,5.447 -14.002,6.136c-5.483,0.741 -11.306,0.322 -16.472,-1.724c-5.234,-2.044 -9.402,-5.964 -12.053,-10.844c-1.632,-2.982 -2.855,-6.161 -4.146,-9.289c-1.36,-3.302 -3.036,-6.53 -2.697,-10.178c0.046,-0.396 0.204,-0.716 0.431,-0.986c0,-0.518 0.045,-1.06 0.181,-1.576c1.36,-5.62 7.93,-8.01 12.779,-9.686c11.056,-3.818 24.696,-3.993 32.173,6.482c3.149,4.337 4.622,9.609 5.528,14.811c0.997,5.544 2.447,12.221 -1.722,16.854Z" style="fill:#202b59;fill-rule:nonzero;"/><path d="M388.407,122.338c-0.861,-0.315 -1.721,-0.65 -2.583,-1.001c-1.744,-0.73 -3.466,-1.541 -5.166,-2.422c-0.928,-0.487 -1.585,0.947 -0.702,1.457c1.699,0.951 3.421,1.833 5.188,2.63c0.862,0.395 1.722,0.766 2.606,1.12c0.838,0.326 2.039,1.064 2.855,0.414c0,-1.72 -1.382,-1.901 -2.198,-2.198Z" style="fill:#ff88c4;fill-rule:nonzero;"/><path d="M236.583,216.333c-5.869,-7.705 -6.707,-16.734 -7.636,-26.067c-0.499,-4.816 -0.974,-9.631 -1.45,-14.446c-0.317,-2.984 -0.68,-6.149 -2.221,-8.786c-3.353,-5.753 -10.762,-4.885 -14.659,-0.174c-2.356,2.832 -3.466,6.477 -4.373,9.978c-1.042,4.012 -1.653,8.111 -1.903,12.246c-0.544,8.897 0.113,19.784 4.531,27.748c0.409,0.494 1.451,0.31 1.315,-0.446c-0.906,-4.856 -2.447,-9.523 -3.059,-14.46c-0.566,-4.817 -0.634,-9.704 -0.136,-14.53c0.499,-4.656 1.359,-9.428 2.946,-13.846c1.45,-4.035 5.075,-9.532 10.196,-7.717c4.1,1.457 4.395,7.013 4.78,10.651c0.498,4.983 0.974,9.965 1.473,14.947c0.951,9.561 1.54,18.751 7.522,26.71c1.246,1.659 3.942,-0.151 2.674,-1.808Z" style="fill:#fff;fill-rule:nonzero;"/><path d="M211.727,169.331c0.159,1.256 -1.812,1.38 -1.948,0.123c-0.317,-3.079 -1.45,-6.235 -3.988,-8.182c-2.583,-1.996 -6.434,-2.143 -8.858,0.15c-4.192,4.04 -5.484,11.063 -6.412,16.585c-1.858,10.963 -1.292,21.932 0.725,32.823c0.113,0.616 0.226,1.257 0.385,1.897c0.09,0.493 0.181,0.987 0.294,1.479c0.113,0.517 -0.657,0.813 -0.815,0.272c-0.227,-0.666 -0.453,-1.357 -0.635,-2.046c-0.362,-1.208 -0.68,-2.415 -0.997,-3.673c-3.036,-12.837 -2.786,-27.254 1.224,-39.625c1.699,-5.274 4.78,-11.877 11.351,-11.287c5.936,0.566 9.108,6.038 9.674,11.484Z" style="fill:#fff;fill-rule:nonzero;"/><path d="M164.306,289.751c-1.835,5.685 -3.262,11.696 -6.706,16.651c-4.033,5.755 -10.74,10.975 -13.232,17.802c-0.068,-0.415 -0.113,-0.839 -0.136,-1.274c-2.787,-10.401 -5.551,-21.487 1.813,-30.02c3.398,-3.947 8.043,-6.838 12.212,-9.91c3.579,-2.642 7.159,-5.288 10.739,-7.93c-1.563,4.891 -3.127,9.787 -4.69,14.681Zm6.299,-18.887c-5.121,3.87 -10.218,7.747 -15.339,11.621c-4.35,3.295 -9.199,6.474 -12.257,11.111c-5.846,8.923 -3.58,20.451 -0.34,30.001c-0.136,1.864 0.136,3.505 0.816,5.344c0.453,1.238 2.038,0.995 2.401,-0.158c2.787,-9.287 10.558,-14.809 15.317,-22.915c2.696,-4.602 3.942,-10.026 5.505,-15.079c1.948,-6.224 3.852,-12.455 5.778,-18.685c0.294,-1.006 -1.088,-1.847 -1.881,-1.24Z" style="fill:#202b59;fill-rule:nonzero;"/><path d="M65.793,254.445c-3.171,-0.838 -5.437,-2.912 -7.204,-5.592c-2.493,-3.738 -4.101,-8.122 -6.707,-11.759c4.191,1.595 8.338,3.46 11.895,6.176c2.469,1.897 4.577,4.206 6.095,6.947c0.883,1.575 1.518,3.247 2.107,4.937c-1.813,0.055 -4.169,-0.172 -6.186,-0.709Zm9.992,3.87c-0.317,-0.419 -0.702,-0.764 -1.088,-1.076c-0.068,-0.948 -0.43,-1.935 -0.679,-2.767c-0.521,-1.749 -1.246,-3.46 -2.062,-5.089c-1.54,-2.979 -3.715,-5.564 -6.299,-7.68c-5.188,-4.226 -11.532,-6.544 -17.762,-8.71c-1.247,-0.428 -2.629,1.156 -1.383,2.089c5.143,3.847 6.775,10.484 10.287,15.563c1.699,2.422 3.874,4.548 6.661,5.617c1.767,0.677 3.648,0.963 5.482,1.341c1.972,0.404 3.58,1.015 5.234,2.157c0.93,0.646 2.448,-0.392 1.609,-1.445Z" style="fill:#202b59;fill-rule:nonzero;"/><path d="M125.132,103.97c0,3.093 -2.515,5.603 -5.619,5.603c-3.081,0 -5.596,-2.51 -5.596,-5.603c-0,-3.095 2.515,-5.605 5.596,-5.605c3.104,-0 5.619,2.51 5.619,5.605Z" style="fill:#aa80f9;fill-rule:nonzero;"/><path d="M125.132,136.273c0,3.094 -2.515,5.605 -5.619,5.605c-3.081,-0 -5.596,-2.511 -5.596,-5.605c-0,-3.093 2.515,-5.604 5.596,-5.604c3.104,0 5.619,2.511 5.619,5.604Z" style="fill:#aa80f9;fill-rule:nonzero;"/><path d="M125.132,160.248c0,3.097 -2.515,5.603 -5.619,5.603c-3.081,0 -5.596,-2.506 -5.596,-5.603c-0,-3.095 2.515,-5.601 5.596,-5.601c3.104,0 5.619,2.506 5.619,5.601Z" style="fill:#aa80f9;fill-rule:nonzero;"/><path d="M125.132,188.033c0,3.094 -2.515,5.603 -5.619,5.603c-3.081,-0 -5.596,-2.509 -5.596,-5.603c-0,-3.095 2.515,-5.604 5.596,-5.604c3.104,0 5.619,2.509 5.619,5.604Z" style="fill:#aa80f9;fill-rule:nonzero;"/><path d="M125.132,235.087c0,3.093 -2.515,5.603 -5.619,5.603c-3.081,-0 -5.596,-2.51 -5.596,-5.603c-0,-3.095 2.515,-5.603 5.596,-5.603c3.104,-0 5.619,2.508 5.619,5.603Z" style="fill:#aa80f9;fill-rule:nonzero;"/><path d="M119.536,236.675l-14.455,0l-0,-133.794l14.455,-0l-0,2.179l-12.28,0l-0,129.435l12.28,0l-0,2.18Z" style="fill:#aa80f9;fill-rule:nonzero;"/><rect x="105.851" y="135.183" width="13.685" height="2.182" style="fill:#aa80f9;fill-rule:nonzero;"/><rect x="106.327" y="159.158" width="13.685" height="2.18" style="fill:#aa80f9;fill-rule:nonzero;"/><rect x="105.851" y="186.943" width="13.685" height="2.179" style="fill:#aa80f9;fill-rule:nonzero;"/></svg>