<?xml version="1.0" encoding="UTF-8" standalone="no"?><!DOCTYPE svg PUBLIC "-//W3C//DTD SVG 1.1//EN" "http://www.w3.org/Graphics/SVG/1.1/DTD/svg11.dtd"><svg width="100%" height="100%" viewBox="0 0 590 590" version="1.1" xmlns="http://www.w3.org/2000/svg" xmlns:xlink="http://www.w3.org/1999/xlink" xml:space="preserve" xmlns:serif="http://www.serif.com/" style="fill-rule:evenodd;clip-rule:evenodd;stroke-linejoin:round;stroke-miterlimit:2;"><rect id="Artboard4" x="-327" y="-1272" width="4285.86" height="2543.15" style="fill:none;"/><path d="M308.604,88.437l0,153.022c0,9.185 -6.797,16.634 -15.203,16.634l-225.846,0c-8.405,0 -15.202,-7.449 -15.202,-16.634l-0,-153.022c-0,-9.201 6.819,-16.659 15.225,-16.659l225.801,-0c8.405,-0 15.225,7.458 15.225,16.659Z" style="fill:#202b59;fill-rule:nonzero;"/><path d="M75.757,122.699c0,0 -1.019,-2.68 -2.741,-4.583c-1.745,-1.901 -4.282,-3.106 -4.282,-3.106c-0,-0 1.994,-0.098 3.897,-2.191c1.676,-1.82 2.13,-4.396 2.13,-4.396c-0,0 0.634,2.782 2.401,4.724c1.767,1.94 4.622,2.966 4.622,2.966c0,0 -2.22,0.111 -3.965,2.01c-1.745,1.901 -2.062,4.576 -2.062,4.576Z" style="fill:#fff;fill-rule:nonzero;"/><path d="M204.45,154.363c-0,-0 -0.998,-3.091 -2.901,-5.18c-1.903,-2.089 -4.826,-3.271 -4.826,-3.271c0,-0 2.357,-0.313 4.826,-3c2.13,-2.334 2.901,-5.452 2.901,-5.452c-0,0 0.521,3.252 2.469,5.386c1.926,2.132 5.234,3.066 5.234,3.066c-0,-0 -2.651,0.36 -4.871,2.795c-2.243,2.438 -2.832,5.656 -2.832,5.656Z" style="fill:#fff;fill-rule:nonzero;"/><path d="M214.6,166.785c-0.136,-0.444 -0.363,-0.817 -0.703,-1.126c-0.861,-0.552 -1.246,-0.636 -1.653,-0.607c-0.318,0.009 -0.612,0.1 -0.884,0.277c-0.295,0.126 -0.544,0.328 -0.748,0.607c-0.204,0.249 -0.34,0.539 -0.408,0.863c-0.135,0.304 -0.181,0.625 -0.135,0.961c0.248,1.092 0.475,1.466 0.792,1.774c0.884,0.553 1.269,0.636 1.677,0.611c0.317,-0.009 0.612,-0.104 0.884,-0.28c0.294,-0.125 0.544,-0.329 0.724,-0.605c0.227,-0.252 0.363,-0.54 0.431,-0.864c0.136,-0.305 0.158,-0.625 0.136,-0.96l-0.113,-0.651Z" style="fill:#fff;fill-rule:nonzero;"/><path d="M308.604,93.148c0,0.664 -256.251,0.664 -256.251,0.664c-0,-12.462 3.058,-22.034 19.508,-22.034l217.212,-0c10.785,-0 19.531,9.572 19.531,21.37Z" style="fill:#fff;fill-rule:nonzero;"/><path d="M67.578,72.765c-7.862,0 -14.251,7.031 -14.251,15.672l-0,153.022c-0,8.627 6.389,15.646 14.228,15.646l225.846,0c7.84,0 14.228,-7.019 14.228,-15.646l0,-153.019c0,-8.644 -6.388,-15.675 -14.25,-15.675l-225.801,0Zm225.823,186.316l-225.846,0c-8.926,0 -16.199,-7.907 -16.199,-17.622l-0,-153.022c-0,-9.731 7.273,-17.647 16.222,-17.647l225.801,-0c8.949,-0 16.222,7.916 16.222,17.65l-0,153.019c-0,9.715 -7.273,17.622 -16.2,17.622Z" style="fill:#202b59;fill-rule:nonzero;"/><path d="M182.54,119.321c-0.045,-0.24 -0.136,-1.074 -0.317,-1.862c4.237,4.039 9.017,7.336 14.161,9.785c-3.58,2.93 -7.273,5.696 -11.057,8.311c-0.567,-3.469 -1.156,-6.935 -1.722,-10.402c-0.34,-1.951 -0.657,-3.895 -1.065,-5.832Zm16.698,6.496c-6.14,-2.585 -11.758,-6.364 -16.63,-11.206c-0.929,-0.927 -2.152,0.374 -1.745,1.429c-0.453,0.343 -0.453,0.968 -0.407,1.528c0.068,1.003 0.226,2.009 0.339,3.011c0.227,1.869 0.521,3.722 0.816,5.582c0.567,3.863 1.156,7.726 1.722,11.587c0.159,0.972 1.02,1.505 1.835,0.979c4.94,-3.224 9.652,-6.815 14.206,-10.683c0.634,-0.548 0.748,-1.851 -0.136,-2.227Z" style="fill:#36bfe3;fill-rule:nonzero;"/><path d="M515.78,242.999c-1.042,0.295 -2.175,0.782 -3.262,0.737c-1.088,-0.048 -1.519,-0.945 -1.745,-1.987c-0.227,-1.147 -0.34,-2.341 -0.521,-3.503c-0.318,-2.261 -0.657,-4.522 -0.975,-6.784c1.133,-0.099 1.655,-0.278 2.176,-0.417c1.065,-0.281 2.107,-0.562 3.172,-0.842l3.171,-0.846c0.884,-0.237 2.108,-0.783 3.014,-0.403c0.77,0.317 1.065,1.328 1.291,2.098c0.34,1.097 0.68,2.198 0.997,3.299c0.612,2.026 1.224,4.053 1.836,6.079c-1.949,0.53 -3.897,1.081 -5.823,1.629c-1.111,0.315 -2.221,0.628 -3.331,0.94Zm11.079,-2.209c-0.77,-2.583 -1.54,-5.166 -2.311,-7.751c-0.589,-1.928 -0.997,-4.765 -2.832,-5.757c-0.906,-0.471 -1.903,-0.387 -2.832,-0.181c-1.178,0.258 -2.333,0.602 -3.489,0.906c-1.224,0.324 -2.447,0.648 -3.671,0.97c-0.611,0.163 -1.223,0.317 -1.835,0.485c-0.634,0.174 -1.042,0.453 -1.541,0.847c-0.385,0.276 -0.385,0.705 -0.158,0.92c0.34,2.798 0.657,5.592 0.997,8.39c0.249,1.957 0.294,4.624 2.311,5.44c0.906,0.371 1.88,0.197 2.81,-0.018c1.313,-0.311 2.628,-0.664 3.965,-1c2.673,-0.675 5.369,-1.336 8.042,-2.05c0.454,-0.122 0.68,-0.745 0.544,-1.201Z" style="fill:#ffce76;fill-rule:nonzero;"/><path d="M225.498,115.234c-1.949,-2.325 -4.962,-2.961 -7.545,-1.573c-2.968,1.598 -4.939,5.32 -4.101,8.925c0.182,0.872 1.382,0.417 1.201,-0.442c-0.566,-2.657 0.883,-5.365 2.946,-6.733c1.948,-1.308 4.327,-1.115 6.003,0.607c1.451,1.486 2.221,3.87 1.858,6.02c-0.362,2.225 -2.039,3.772 -4.01,4.207c-1.269,0.277 -2.606,0.077 -3.761,-0.501c0.974,0.007 1.042,-0.77 0.611,-1.039c-1.019,-0.655 -2.197,-0.972 -3.33,-1.285c-0.725,-0.206 -1.224,0.777 -0.861,1.416c2.991,5.154 11.147,4.398 12.847,-1.591c0.77,-2.773 -0.114,-5.913 -1.858,-8.011Z" style="fill:#ff88c4;fill-rule:nonzero;"/><path d="M113.776,75.851c3.806,0 6.888,3.381 6.888,7.552c-0,4.169 -3.082,7.552 -6.888,7.552c-3.807,-0 -6.888,-3.383 -6.888,-7.552c0,-4.171 3.081,-7.552 6.888,-7.552Z" style="fill:#ff88c4;fill-rule:nonzero;"/><path d="M90.733,75.851c3.807,0 6.888,3.381 6.888,7.552c0,4.169 -3.081,7.552 -6.888,7.552c-3.806,-0 -6.909,-3.383 -6.909,-7.552c-0,-4.171 3.103,-7.552 6.909,-7.552Z" style="fill:#36bfe3;fill-rule:nonzero;"/><path d="M68.349,75.851c3.828,0 6.91,3.381 6.91,7.552c0,4.169 -3.082,7.552 -6.91,7.552c-3.807,-0 -6.888,-3.383 -6.888,-7.552c-0,-4.171 3.081,-7.552 6.888,-7.552Z" style="fill:#aa80f9;fill-rule:nonzero;"/><path d="M498.425,475.912l-2.153,-0c-32.241,0.027 -64.504,0.027 -96.768,0.027c-1.948,-0 -3.874,-0.027 -5.823,-0.027l-31.131,-0c-31.47,-0.055 -62.941,-0.08 -94.412,-0.134c-10.716,-0 -21.41,0.054 -32.15,0.079l-3.353,0c-0.068,-0.698 -0.159,-1.423 -0.227,-2.148c-1.495,-16.263 -3.217,-32.526 -5.143,-48.762c-1.654,-14.165 -3.331,-28.331 -5.211,-42.469c-1.903,-14.061 -4.305,-28.117 -5.574,-42.255c-3.262,8.143 -6.276,16.395 -9.289,24.649c-0.702,1.934 -3.353,0.512 -2.629,-1.401c1.632,-4.567 3.309,-9.137 5.008,-13.68c6.842,-18.25 14.387,-36.34 24.787,-52.548c9.584,-14.945 21.75,-27.662 35.481,-38.01c13.594,-10.295 28.548,-18.361 43.932,-24.945c15.86,-6.8 32.444,-12.659 49.211,-16.182c17.128,-3.573 35.549,-3.949 51.567,4.624c14.07,7.527 24.719,20.886 32.944,35.184c9.198,16.076 16.313,33.764 22.408,51.502c4.893,14.247 8.994,28.818 12.416,43.574c0.316,1.262 0.611,2.526 0.883,3.816c0.793,3.523 1.564,7.098 2.266,10.646c7.114,34.89 10.989,70.532 12.847,106.203c0.022,0.752 0.09,1.504 0.113,2.257Z" style="fill:#aa80f9;fill-rule:nonzero;"/><path d="M305.228,261.17c-0.272,1.181 -0.566,2.363 -0.906,3.546c-3.399,11.693 -11.125,21.934 -17.628,31.745c-7.046,10.619 -14.341,21.046 -21.614,31.45c-4.849,6.881 -9.697,13.789 -14.456,20.752c-11.056,24.809 -23.064,49.082 -36.251,72.575c-8.949,15.941 -18.239,31.905 -29.159,46.34c-9.902,13.092 -21.797,26.398 -37.249,30.914c-8.133,2.365 -16.562,2.311 -24.855,1.425c-8.156,-0.861 -16.766,-1.99 -24.673,-4.437c-38.857,-12.015 -14.659,-70.962 -5.302,-97.627c13.935,-39.702 34.077,-76.555 57.481,-110.396c23.7,-34.217 39.537,-56.554 78.96,-60.132c4.01,-0.376 9.403,-0.834 15.498,-1.074c0.906,-0.025 1.812,-0.079 2.764,-0.079c26.803,-0.807 64.323,2.984 57.39,34.998Z" style="fill:#aa80f9;fill-rule:nonzero;"/><path d="M465.028,251.385c-0.362,0.94 -0.77,1.826 -1.246,2.714c-0.136,0.376 -0.34,0.725 -0.521,1.074c-1.337,2.34 -2.606,4.167 -4.01,5.859c-4.237,5.082 -9.561,9.088 -15.09,12.393c-25.829,15.539 -58.591,19.678 -89.042,20.913c-7.296,0.297 -14.433,0.403 -21.343,0.485c-31.924,0.376 -78.393,-20.591 -85.848,-58.707c-3.036,-15.563 1.518,-31.96 9.312,-45.4c25.308,-43.706 73.364,-74.889 121.51,-65.749c27.37,5.189 50.933,24.221 66.612,48.84c11.623,18.173 28.752,54.191 19.666,77.578Z" style="fill:#aa80f9;fill-rule:nonzero;"/><path d="M419.08,194.373c-0.771,2.123 -2.764,2.848 -4.532,3.573c-22.453,9.516 -43.705,23.95 -62.601,40.187c-9.675,8.306 -18.715,17.364 -27.302,26.986c-1.654,1.829 -3.693,4.597 -5.981,5.486c-1.994,0.779 -3.535,-0.728 -5.098,-1.883c-5.121,-3.791 -10.264,-7.606 -15.384,-11.397c-0.906,-0.673 -1.315,-0.969 -1.722,-1.264c-0.453,-0.349 -0.453,-0.834 -0.227,-1.21c-6.955,-10.214 -13.707,-22.177 -11.985,-35.347c1.699,-13.03 10.444,-26.683 17.627,-36.897c11.962,-17.056 27.71,-33.301 47.987,-35.826c17.65,-2.197 35.889,4.455 49.801,16.277c5.687,4.824 10.716,10.59 14.681,17.163c2.107,3.505 6.322,9.693 4.736,14.152Z" style="fill:#202b59;fill-rule:nonzero;"/><path d="M349.115,255.173c-4.056,4.142 -7.84,8.576 -11.329,13.279c-1.813,2.42 -3.535,4.919 -5.211,7.445c-0.952,1.507 -1.971,3.872 -3.761,4.437c-3.784,1.157 -6.752,-5.807 -8.36,-8.413c-2.062,-3.281 -4.079,-6.559 -6.05,-9.892c6.48,-9.974 12.575,-20.267 18.194,-30.886c0.476,-0.886 -0.59,-1.638 -1.269,-1.21c-4.985,3.172 -9.969,6.292 -14.976,9.409c-2.493,1.505 -4.894,3.091 -7.341,4.677c-0.906,0.591 -1.858,1.155 -2.787,1.747c-0.25,-0.673 -1.088,-1.049 -1.586,-0.322c-3.195,-4.382 -6.344,-8.845 -9.765,-13.064c-0.34,-0.161 -0.589,-0.485 -0.703,-0.859c-0.77,-0.94 -1.495,-1.937 -2.311,-2.823c-0.634,-0.727 0.227,-1.883 0.929,-1.21c0.793,0.725 1.518,1.477 2.266,2.202c10.604,-11.663 19.44,-24.646 25.353,-39.887c0.34,-0.888 1.495,-0.913 1.949,-0.161c8.156,12.874 16.268,25.777 24.288,38.732c1.858,2.984 3.693,5.941 5.506,8.898c1.359,2.15 3.285,4.463 3.988,6.989c1.291,4.837 -4.373,8.173 -7.024,10.912Z" style="fill:#ffc5c5;fill-rule:nonzero;"/><path d="M332.598,231.143c-5.619,10.619 -11.714,20.912 -18.194,30.886c-0.952,-1.586 -1.88,-3.199 -2.854,-4.783c-2.311,-3.926 -4.668,-7.796 -7.115,-11.587c0.702,-0.942 1.54,-0.566 1.79,0.107c0.929,-0.592 1.881,-1.156 2.787,-1.747c2.447,-1.586 4.848,-3.172 7.341,-4.677c5.007,-3.117 9.991,-6.237 14.976,-9.409c0.679,-0.428 1.745,0.324 1.269,1.21Z" style="fill:#202b59;fill-rule:nonzero;"/><path d="M264.626,223.052c-0.068,5.941 -4.939,5.216 -8.745,2.984c-5.302,-3.145 -9.222,-9.355 -12.393,-14.809c-7.455,-12.796 -11.442,-28.684 -7.002,-43.519c0.884,-1.292 1.36,-2.529 1.859,-3.709c0.203,-0.406 0.43,-0.753 0.611,-1.156c1.179,-3.657 2.81,-7.098 4.939,-10.189c2.946,-4.273 7.704,-5.913 11.533,-1.774c4.146,4.516 4.871,13.037 5.754,19.032c1.315,8.628 1.745,17.389 2.221,26.099c0.476,8.952 1.337,18.062 1.223,27.041Z" style="fill:#202b59;fill-rule:nonzero;"/><path d="M346.169,197.248c-0.997,10.941 -4.962,16.478 -10.807,25.591c-8.7,13.519 -22.34,25.668 -36.886,27.791c-13.095,1.883 -28.344,-0.507 -37.588,-11.772c-1.949,-2.393 -3.466,-5.107 -4.781,-7.93c-0.589,-2.633 -0.974,-5.323 -1.744,-7.928c-1.632,-5.456 -4.962,-10.214 -7.25,-15.375c-2.47,-5.565 -4.555,-11.426 -6.095,-17.394c-0.385,-1.505 -0.725,-3.009 -1.02,-4.54c0.249,-5.755 1.088,-11.506 2.017,-17.095c0.974,-5.998 2.741,-12.018 6.683,-16.209c3.626,-8.927 10.491,-15.862 18.171,-21.049c9.788,-6.638 22.34,-11.799 33.986,-11.235c6.276,0.322 12.167,2.578 17.877,5.349c5.234,2.554 10.399,5.374 15.157,8.977c9.154,6.99 14.614,17.203 15.905,29.325c1.224,11.371 -0.838,22.607 -3.625,33.494Z" style="fill:#ffc5c5;fill-rule:nonzero;"/><path d="M262.293,211.137c-1.269,1.346 -3.286,1.393 -5.007,1.413c-0.816,0.025 -1.926,0.211 -2.47,-0.602c-0.475,-0.741 -0.77,-1.713 -0.793,-2.619c-0.068,-1.58 0.771,-3.41 2.356,-3.945c0.522,-0.186 1.133,-0.186 1.722,-0.045c1.609,0.025 2.448,0.462 3.059,1.09c1.155,1.207 2.606,3.178 1.133,4.708Z" style="fill:#fff;fill-rule:nonzero;"/><path d="M297.57,199.774c0.045,1.262 -0.952,2.286 -1.722,3.011c-1.767,1.668 -4.191,2.635 -6.525,2.071c-2.062,-0.485 -4.033,-2.286 -4.056,-4.76c0,-1.128 0.476,-2.205 1.382,-2.742c0.272,-0.161 0.589,-0.24 0.884,-0.267c0.793,-0.297 1.608,-0.403 2.447,-0.297c0.634,0.082 1.336,0.297 1.903,0.7c1.065,-0.027 2.085,-0.027 3.127,0.24c0.997,0.243 2.469,0.728 2.56,2.044Z" style="fill:#fff;fill-rule:nonzero;"/><path d="M588.554,456.988c0.023,2.096 -0.113,4.249 -0.407,6.505c-2.969,23.387 -26.35,53.87 -48.532,53.734c-34.031,-0.243 -58.999,-42.471 -78.257,-67.817c-20.052,-26.425 -40.126,-52.848 -60.155,-79.243c-17.899,-23.548 -35.662,-47.041 -46.084,-75.829c-0.136,-0.349 -0.272,-0.725 -0.385,-1.076c-5.03,-14.247 -10.876,-33.868 -1.971,-47.818c1.563,-2.474 3.692,-4.622 6.094,-6.344c3.422,-2.447 7.432,-3.979 11.351,-4.006c1.79,-0.188 3.059,-0.054 4.35,0.079c7.273,0.755 14.569,1.507 21.865,2.259c21.048,2.18 42.912,3.952 62.307,13.953c1.767,0.913 3.444,1.801 5.052,2.714c0.793,0.458 1.563,0.886 2.311,1.316c21.003,12.337 33.125,26.829 46.22,49.594c15.543,27.014 32.491,53.546 46.81,81.341c11.034,21.396 29.273,44.859 29.431,70.638Z" style="fill:#aa80f9;fill-rule:nonzero;"/><path d="M426.987,251.142c-9.221,15.672 -23.11,27.175 -38.245,35.293c-18.171,9.731 -37.905,15.081 -57.028,22.07c-9.72,3.573 -19.485,8.064 -29.862,8.386c-9.606,0.297 -19.055,-3.091 -27.506,-7.876c-7.884,-4.463 -15.066,-10.456 -21.138,-17.552c-5.891,-6.908 -11.556,-15.162 -13.799,-24.436c-1.473,-6.129 -1.087,-12.713 2.13,-17.765c1.677,-4.33 4.214,-8.281 7.386,-11.533c-0.407,-1.049 -0.838,-2.068 -1.223,-3.145c-0.204,-0.618 0.702,-1.128 0.996,-0.536c0.409,0.885 0.907,1.744 1.337,2.605c0.929,-0.861 1.904,-1.665 2.901,-2.393c0.294,-0.24 0.838,-0.188 1.042,0.216c6.751,13.415 19.349,20.939 30.791,28.817c6.276,4.355 12.71,8.519 19.145,12.604c1.926,1.237 3.851,2.395 5.8,3.603c0.544,0.054 1.088,0.079 1.631,0.079c3.082,-0.052 5.166,-2.417 7.296,-4.568c2.062,-2.123 4.124,-4.245 6.185,-6.371c1.405,-1.45 2.832,-2.902 4.237,-4.354c6.73,-6.881 13.459,-13.762 20.165,-20.643l18.805,-16.689c8.27,-6.587 16.721,-12.734 25.739,-18.031c4.531,-2.633 9.244,-5.619 13.934,-7.905c4.418,-2.15 11.306,-4.067 12.597,-9.926c0.884,0.297 0,-0 0.861,0.376c5.347,2.177 10.06,5.78 12.325,11.372c6.39,15.83 1.677,34.379 -6.502,48.302Z" style="fill:#aa80f9;fill-rule:nonzero;"/><path d="M284.542,288.452c-7.93,-0.377 -15.248,-4.838 -21.705,-9.571c-6.73,-4.919 -13.527,-11.288 -17.831,-18.923c-4.668,-8.224 -4.35,-17.849 -1.994,-26.878c0.589,-2.311 1.291,-4.572 2.062,-6.829c0.906,-0.025 1.812,-0.079 2.764,-0.079c-0.657,2.096 -1.201,4.219 -1.7,6.342c-2.061,8.924 -2.718,18.413 2.221,26.37c4.192,6.693 10.173,12.339 16.29,16.852c6.344,4.65 13.504,7.339 20.12,11.399c0.521,0.295 0.453,1.344 -0.227,1.317Z" style="fill:#fff;fill-rule:nonzero;"/><path d="M206.783,337.842l-38.539,-23.346c-5.733,-3.473 -5.733,-12.493 -0,-15.964l38.539,-23.348c6.797,-4.119 15.044,-4.119 21.864,-0l38.54,23.348c5.71,3.471 5.71,12.491 -0,15.964l-38.54,23.346c-6.82,4.119 -15.067,4.119 -21.864,-0Z" style="fill:#ff88c4;fill-rule:nonzero;"/><path d="M207.848,294.107c-0.634,0.707 -1.065,1.735 -1.496,2.605c-0.407,0.784 -0.792,1.58 -1.178,2.382c-0.815,1.771 -1.586,3.582 -2.265,5.424c-0.838,2.184 -1.518,4.422 -2.153,6.684c-0.589,-1.414 -1.178,-2.835 -1.744,-4.271c-0.567,-1.421 -1.111,-2.853 -1.609,-4.292c-0.272,-0.749 -0.544,-1.502 -0.793,-2.258c-0.113,-0.315 -0.226,-0.633 -0.317,-0.945c-0.091,-0.22 -0.227,-1.249 -0.43,-0.753c0.724,-1.814 -1.79,-3.158 -2.538,-1.339c-0.635,1.53 0.317,3.34 0.793,4.797c0.544,1.645 1.11,3.281 1.699,4.905c1.224,3.383 2.537,6.736 4.033,9.992c0.657,1.414 2.583,0.684 2.855,-0.632c0.725,-3.695 1.722,-7.321 2.99,-10.837c0.635,-1.731 1.315,-3.439 2.085,-5.109c0.747,-1.679 1.903,-3.344 2.379,-5.132c0.431,-1.516 -1.45,-2.132 -2.311,-1.221Z" style="fill:#fff;fill-rule:nonzero;"/><path d="M219.471,309.103c-0.657,0.073 -1.314,0.13 -1.971,0.229c-1.314,0.197 -2.606,0.381 -3.875,0.719c0.318,-0.925 0.635,-1.852 0.952,-2.778c1.02,-2.93 2.017,-5.866 2.991,-8.8c0.861,2.392 1.654,4.846 2.311,7.277c0.295,1.067 0.521,2.15 0.77,3.231c-0.385,0.014 -0.793,0.082 -1.178,0.122Zm2.832,-4.035c-0.498,-1.649 -1.042,-3.281 -1.631,-4.889c-0.635,-1.754 -1.45,-3.385 -2.175,-5.089c-0.34,-0.75 -1.541,-1.137 -1.858,-0.127c-1.269,3.875 -2.537,7.753 -3.761,11.639c-0.612,1.876 -1.201,3.752 -1.813,5.63c-0.294,0.938 -0.589,1.876 -0.884,2.814c-0.317,0.959 -0.407,1.233 0.023,2.11c0.997,-0.245 1.156,-0.478 1.428,-1.335c0.339,-0.929 0.657,-1.855 0.974,-2.782c0.091,-0.297 0.204,-0.594 0.295,-0.888c1.313,0.394 2.039,0.433 2.786,0.396c0.658,-0.029 1.337,-0.063 1.994,-0.095c0.657,-0.032 1.314,-0.109 1.994,-0.168c0.499,-0.045 1.088,-0.054 1.631,-0.215c0.182,1.353 0.363,2.783 0.929,3.924c0.498,1.045 2.107,0.614 2.243,-0.502c0.25,-1.72 -0.453,-3.764 -0.838,-5.427c-0.408,-1.681 -0.838,-3.346 -1.337,-4.996Z" style="fill:#fff;fill-rule:nonzero;"/><path d="M229.463,303.494c-0.113,-1.068 -0.227,-2.135 -0.363,-3.193c-0.227,-1.511 -0.339,-3.185 -0.793,-4.665c0.884,-0.682 1.971,-1.124 3.036,-1.169c0.589,-0.027 1.247,0.075 1.768,0.304c0.272,0.122 0.589,0.301 0.77,0.435c0.249,0.197 0.612,0.55 0.747,0.722c0.114,0.152 0.363,0.567 0.522,0.843c0.543,2.112 0.566,2.463 0.566,2.826c-3.67,3.928 -4.055,3.949 -4.441,3.944c-1.246,-0.258 -1.54,-0.186 -1.812,-0.047Zm10.581,10.762l-3.694,-4.572c-0.883,-1.108 -1.834,-2.169 -2.764,-3.238c0.567,-0.188 1.156,-0.433 1.7,-0.782c1.676,-1.074 2.922,-2.993 3.172,-5.111c0.249,-2.107 -0.295,-4.217 -1.564,-5.828c-1.291,-1.613 -3.126,-2.481 -5.098,-2.354c-1.019,0.068 -2.016,0.397 -2.9,0.936c-0.498,0.304 -0.906,0.709 -1.268,1.167c-0.408,-0.193 -0.93,-0.048 -1.042,0.562c-0.318,1.747 -0,3.659 0.09,5.435c0.113,1.731 0.317,3.464 0.476,5.191c0.158,1.729 0.317,3.457 0.498,5.188c0.091,0.929 0.159,1.865 0.249,2.794c0.114,0.949 0.521,1.507 0.997,2.288c0.25,0.413 0.929,0.417 1.11,-0.086c0.295,-0.852 0.589,-1.459 0.545,-2.388c-0.068,-0.929 -0.204,-1.865 -0.318,-2.789c-0.136,-1.414 -0.294,-2.828 -0.453,-4.244c0.498,0.166 0.997,0.265 1.495,0.299c1.042,1.503 2.062,3.027 3.15,4.487l3.489,4.631c0.408,0.571 1.178,0.867 1.79,0.383c0.498,-0.408 0.838,-1.373 0.34,-1.969Z" style="fill:#fff;fill-rule:nonzero;"/><path d="M172.458,306.765c-0,5.146 -3.807,9.317 -8.519,9.317c-4.691,-0 -8.497,-4.171 -8.497,-9.317c0,-5.145 3.806,-9.319 8.497,-9.319c4.712,0 8.519,4.174 8.519,9.319Z" style="fill:#202b59;fill-rule:nonzero;"/><path d="M279.988,306.514c-0,5.145 -3.806,9.316 -8.519,9.316c-4.69,0 -8.497,-4.171 -8.497,-9.316c0,-5.146 3.807,-9.319 8.497,-9.319c4.713,-0 8.519,4.173 8.519,9.319Z" style="fill:#202b59;fill-rule:nonzero;"/><path d="M172.526,224.559c-0.929,-2.769 -2.425,-4.786 -4.282,-6.156c-4.94,-3.657 -12.371,-3.066 -18.171,-1.532c-4.94,0.215 -9.902,0.807 -14.66,0.913c-3.511,0.055 -7.001,-0.027 -10.513,-0.24c-1.087,-0.405 -2.175,-0.809 -3.239,-1.212c-0.816,-10.026 -2.357,-20.079 -2.652,-29.379c-0.09,-1.829 -0.09,-3.682 -0.022,-5.538c0.022,-1.155 -0.068,-2.313 -0.136,-3.439c-0.113,-2.098 -0.295,-4.223 0.046,-6.317c-0,-0.512 -0.091,-1.425 -0.114,-1.937c-0.295,-6.396 -2.334,-13.545 -4.735,-19.703c0.045,0 1.178,-0.861 1.246,-0.913c3.512,-2.15 5.823,-1.237 7.907,1.908c0.068,-0.834 1.178,0.915 1.133,0.079c0.521,0.539 1.02,1.104 1.495,1.722c5.279,7.015 6.276,16.343 9.992,24.273c0.317,0.7 0.657,1.398 1.042,2.068c3.49,6.346 10.604,11.827 17.673,9.704c5.211,-1.559 7.567,-6.45 8.451,-11.772c0.385,-2.42 0.499,-4.946 0.385,-7.257c-0.748,-18.359 -10.785,-35.751 -25.761,-44.136c-8.496,-4.761 -18.556,-6.775 -28.049,-5.377c-6.503,0.94 -12.484,3.494 -18.058,7.015c-1.156,0.7 -2.13,1.343 -3.082,2.014c-1.631,0.163 -2.718,0.029 -3.829,-0.025c-1.88,-0.134 -3.851,-0.027 -5.89,0.378c-5.936,1.154 -11.737,5.132 -14.954,10.776c-1.337,0.807 -2.266,0.888 -3.172,1.049c-6.23,1.158 -11.261,4.785 -14.749,9.677c-2.357,-8.494 -4.623,-17.013 -5.823,-25.725c-1.428,-10.132 -0.703,-21.853 -6.14,-30.748c-3.943,-6.398 -12.122,-11.453 -19.101,-8.202c-8.451,3.927 -9.651,15.86 -9.153,24.543c0.725,12.017 2.492,24.141 4.849,35.911c2.764,13.898 7.884,27.741 11.419,41.8c0.113,5.698 0.204,11.369 0.068,17.097c-0.113,7.069 -0.295,14.111 -0.589,21.18c-0.227,5.589 -0.612,11.235 -0.43,16.882c0.453,0.24 0.86,0.697 0.928,1.316c0.272,2.123 0.838,4.112 1.609,5.968c3.081,7.363 9.674,12.846 15.724,17.228c8.882,6.453 18.556,10.726 29.341,10.429c6.004,-0.188 11.918,-1.45 17.695,-3.224c5.982,-0.591 12.031,-2.689 17.536,-4.785c6.095,-2.338 11.646,-5.832 16.449,-10.456c0.998,-0.7 1.881,-1.532 2.72,-2.447c1.427,-0.941 2.741,-2.014 4.123,-3.063c8.927,-6.748 19.983,-12.392 30.927,-13.522c4.463,-0.483 9.017,-1.344 12.144,-5.134c2.628,-3.17 3.761,-7.633 2.402,-11.691Z" style="fill:#ffc5c5;fill-rule:nonzero;"/><path d="M178.417,439.463c-2.9,18.599 -1.745,41.207 -16.812,52.388c-17.854,13.27 -46.832,12.472 -66.612,6.076c-22.838,-7.393 -44.861,-24.671 -53.266,-49.397c-5.687,-16.743 -7.545,-34.733 -11.986,-51.923c-2.764,-10.726 -6.548,-21.125 -8.972,-31.964c-2.583,-11.542 -1.79,-20.87 -0.363,-32.429c1.428,-11.544 1.088,-23.582 1.586,-35.216c0.249,-5.429 0.702,-10.83 0.861,-16.261c-0.408,-2.259 -0.838,-4.543 -1.246,-6.802c-1.745,-9.407 -3.376,-18.787 -2.81,-28.464c0.114,-1.749 1.269,-1.989 2.131,-1.531c0.453,0.24 0.86,0.697 0.928,1.316c0.272,2.123 0.838,4.112 1.609,5.968c3.081,7.363 9.674,12.846 15.724,17.228c8.882,6.453 18.556,10.726 29.341,10.429c4.191,-0.134 8.315,-0.777 12.393,-1.747c8.338,-0.376 16.517,-3.305 24.334,-6.049c6.48,-2.282 13.005,-5.105 18.216,-9.89c-0.068,1.183 -0.34,2.42 -0.589,3.575c0.385,0.082 0.657,0.349 0.544,0.671c0.249,0.888 0.544,1.774 0.679,2.717c0.227,1.316 0.477,2.632 0.68,3.951c0.453,2.633 0.748,5.241 1.042,7.903c0.182,1.531 0.363,3.063 0.521,4.597c1.587,3.303 3.241,6.611 5.257,9.675c2.334,3.602 5.052,6.747 8.225,9.434c3.035,2.61 6.253,4.894 8.858,8.039c4.215,5.107 6.798,11.611 7.772,18.384c0.136,0.969 0.226,2.07 0.34,3.201c2.311,4.3 3.715,9.083 3.489,14.247c-0.295,5.993 -3.036,11.233 -4.713,16.825c-0.997,3.226 -1.631,6.668 -0.612,9.971c1.043,3.308 3.354,6.129 5.121,9.006c3.603,5.805 6.91,11.827 9.923,18.038c2.855,5.886 5.846,12.015 7.682,18.386c1.902,6.502 1.744,13.007 0.725,19.648Z" style="fill:#aa80f9;fill-rule:nonzero;"/><path d="M107.885,304.633c-2.47,-1.144 -5.03,-1.346 -7.68,-1.531c-2.425,-0.17 -5.212,-0.83 -7.138,1.228c-1.54,1.638 -1.586,4.051 -1.654,6.244c-0.09,3.84 -0.158,7.681 -0.226,11.521c-0.317,14.958 -0.566,29.916 -0.929,44.875c-0.068,2.678 3.739,2.39 3.806,-0.266c0.272,-12.336 0.634,-24.671 0.975,-37.005c0.158,-6.068 0.317,-12.133 0.498,-18.201c0.023,-1.348 -0.295,-3.258 1.042,-4.055c0.816,-0.494 2.923,-0.152 3.874,-0.2c2.538,-0.117 4.985,-0.292 7.364,-1.33c0.476,-0.208 0.612,-1.033 0.068,-1.28Z" style="fill:#fff;fill-rule:nonzero;"/><path d="M113.708,300.066c-0.249,-0.256 -0.521,-0.44 -0.816,-0.637c-0.271,-0.195 -0.521,-0.39 -0.815,-0.523c-0.431,-0.191 -0.884,-0.358 -1.337,-0.467c-1.314,-0.179 -1.904,-0.168 -2.651,-0.003c-0.793,0.166 -1.337,0.399 -2.062,0.859c-0.702,0.619 -1.088,0.945 -1.382,1.357c-0.589,0.886 -0.952,1.686 -1.178,2.762c-0.113,0.487 -0.113,1.015 -0.136,1.511c-0.023,0.388 0.045,0.728 0.113,1.113c0.159,0.877 0.453,1.74 0.952,2.451c0.295,0.392 0.612,0.823 0.974,1.136c0.34,0.294 0.725,0.584 1.133,0.793c0.929,0.618 1.382,0.768 1.812,0.881c0.454,0.122 0.952,0.136 1.405,0.125c1.609,-0.037 3.104,-0.977 4.169,-2.232c0.612,-0.888 0.884,-1.312 1.065,-1.772c0.408,-0.986 0.544,-1.817 0.567,-2.873c0.067,-1.724 -0.748,-3.301 -1.813,-4.481Z" style="fill:#fff;fill-rule:nonzero;"/><path d="M178.87,379.959c-1.224,-5.583 -3.762,-10.869 -7.568,-14.84c-4.169,-4.326 -10.649,-6.795 -12.801,-13.033c-2.152,-6.255 -0.317,-13.467 -0.272,-19.945c0.023,-5.338 -1.11,-10.338 -3.557,-14.951c-4.781,-8.945 -12.915,-14.904 -19.1,-22.515c-4.056,-4.968 -6.616,-10.277 -7.522,-16.902c-0.159,-1.214 -0.295,-2.428 -0.453,-3.641c-0.159,-3.793 -0.499,-7.574 -0.997,-11.33c-0.227,-1.675 -0.453,-3.345 -0.748,-5.005c-0.747,-1.335 -2.152,-1.92 -3.172,-0.877c-14.319,14.28 -32.717,19.251 -51.16,18.513c-10.082,-0.399 -21.116,-1.933 -30.02,-7.348c-8.746,-5.308 -14.161,-14.367 -18.896,-23.672c-0.589,-1.169 -2.017,-0.149 -1.79,0.967c1.722,8.409 6.39,16.085 12.28,21.704c6.774,6.441 15.18,9.602 23.903,11.247c15.385,2.907 32.037,2.612 46.81,-3.462c7.046,-2.898 13.662,-7.081 19.055,-12.802c0.045,0.465 0.09,0.927 0.135,1.392c0.34,4.86 0.091,9.785 0.567,14.627c0.521,5.322 2.084,10.302 4.78,14.777c5.098,8.49 12.983,14.238 18.897,21.939c2.967,3.867 5.414,8.297 6.049,13.379c0.793,6.276 -0.657,12.59 -0.318,18.884c0.295,5.787 2.334,10.835 6.48,14.528c4.509,4.015 9.562,6.31 12.666,12.011c7.953,14.613 -3.308,53.98 -0.227,39.189c0.793,-3.767 1.654,2.966 2.153,2.074c6.457,-11.27 7.681,-21.751 4.826,-34.908Z" style="fill:#fff;fill-rule:nonzero;"/><path d="M207.689,341.034c-0.226,-0.258 -0.498,-0.442 -0.793,-0.639c-0.271,-0.195 -0.521,-0.392 -0.815,-0.523c-0.431,-0.191 -0.884,-0.36 -1.337,-0.467c-1.314,-0.179 -1.903,-0.165 -2.651,-0.005c-0.793,0.17 -1.337,0.402 -2.062,0.859c-0.702,0.621 -1.11,0.947 -1.382,1.36c-0.589,0.888 -0.951,1.685 -1.178,2.759c-0.113,0.49 -0.113,1.018 -0.136,1.516c-0.023,0.385 0.045,0.723 0.113,1.11c0.159,0.879 0.453,1.738 0.952,2.454c0.295,0.39 0.612,0.822 0.974,1.133c0.34,0.294 0.725,0.584 1.133,0.791c0.929,0.62 1.382,0.77 1.812,0.885c0.454,0.118 0.952,0.134 1.405,0.123c1.609,-0.036 3.104,-0.979 4.17,-2.232c0.611,-0.888 0.883,-1.312 1.064,-1.772c0.408,-0.983 0.544,-1.815 0.567,-2.87c0.068,-1.727 -0.748,-3.304 -1.836,-4.482Z" style="fill:#fff;fill-rule:nonzero;"/><path d="M205.424,360.381c-0.136,-2.071 -0.227,-4.151 -0.295,-6.233c-0.045,-2.028 -0.068,-4.001 -0.226,-6.011c-0.114,-1.325 -0.159,-4.57 -1.473,-4.105c-1.111,0.396 -1.201,3.389 -1.382,4.855c-0.25,1.953 -0.204,4.049 -0.182,6.038c0,1.94 0.046,3.884 0.114,5.821c0.068,2.005 0.045,4.4 0.566,6.249c0.317,1.107 0.884,1.923 1.654,1.842c0.703,-0.073 1.405,-1.004 1.518,-2.185c0.181,-2.073 -0.135,-4.214 -0.294,-6.271Z" style="fill:#fff;fill-rule:nonzero;"/><path d="M236.94,417.325l-65.003,-0c-5.348,-0 -9.698,-4.35 -9.698,-9.715l0,-26.253c0,-5.365 4.35,-9.716 9.698,-9.716l65.003,0c5.37,0 9.697,4.351 9.697,9.716l-0,26.253c-0,5.365 -4.327,9.715 -9.697,9.715Z" style="fill:#202b59;fill-rule:nonzero;"/><path d="M388.901,366.106c-0.25,-4.164 -1.088,-7.094 -4.962,-8.519c-4.781,-1.776 -9.97,-2.608 -14.886,-3.845c-2.152,-0.537 -4.282,-1.076 -6.435,-1.613c-8.474,-6.047 -17.899,-10.778 -27.075,-15.4c-9.222,-4.676 -18.647,-8.818 -28.231,-12.581c-18.737,-7.339 -38.154,-12.768 -57.752,-16.504c-6.254,-1.182 -15.453,-2.419 -18.715,5.295c-3.648,8.628 2.56,13.486 9.063,16.361c8.881,3.926 16.313,5.136 25.602,7.663c8.179,2.231 19.666,8.124 27.189,12.155c-6.163,1.452 -12.575,0.7 -18.738,-0.804c-7.522,-1.883 -14.976,-4.276 -22.362,-6.666c-3.852,-1.266 -7.636,-2.635 -11.329,-4.221c-3.715,-1.613 -7.182,-3.763 -10.852,-5.322c-5.211,-2.205 -11.057,-1.559 -13.096,4.944c-1.994,6.346 0.883,13.172 5.075,17.609c1.518,1.59 3.24,2.923 5.053,4.105c-0.952,2.42 -1.586,5.098 -1.224,7.692c0.43,3.152 2.13,5.977 3.965,8.399c3.376,4.459 7.953,7.248 12.688,9.623c-2.968,6.74 1.971,14.657 5.732,19.827c5.234,7.178 11.849,10.617 19.757,13.17c18.805,6.023 37.565,11.991 56.71,16.533c9.562,2.257 19.191,4.167 28.866,5.511c4.667,0.643 9.335,1.18 13.979,1.558c3.354,0.268 8.044,1.48 10.672,-1.504c2.401,-2.717 3.262,-7.556 4.304,-11.05c1.519,-5.08 2.81,-10.241 3.875,-15.457c1.971,-9.756 3.081,-19.7 3.376,-29.701c0.181,-5.752 0.113,-11.53 -0.249,-17.258Z" style="fill:#ffc5c5;fill-rule:nonzero;"/><path d="M349.047,438.879c-1.224,-1.829 -2.945,-1.967 -4.894,-2.583c-2.674,-0.852 -5.347,-1.754 -8.044,-2.533c-5.369,-1.55 -10.762,-3.05 -16.176,-4.518c-11.012,-2.995 -22.046,-5.862 -33.08,-8.75c-10.06,-2.635 -21.094,-4.335 -30.451,-9.362c-4.418,-2.366 -7.998,-5.603 -10.626,-10.173c-2.764,-4.844 -2.855,-9.373 -2.356,-14.866c0.068,-0.663 -0.771,-1.327 -1.201,-0.639c-4.871,7.724 0.43,18.878 6.072,24.162c8.02,7.511 19.258,9.491 29.205,12.106c12.008,3.16 24.016,6.287 36.024,9.516c6.163,1.663 12.348,3.355 18.488,5.111c3.082,0.881 6.164,1.776 9.245,2.581c2.379,0.614 5.075,2.191 7.431,1.135c0.408,-0.186 0.657,-0.752 0.363,-1.187Z" style="fill:#fff;fill-rule:nonzero;"/><path d="M291.203,201.528c-0.566,-1.283 -1.699,-2.814 -2.99,-3.222c-1.405,-0.444 -3.241,0.17 -3.558,1.917c-0.543,3.14 3.988,7.259 6.322,4.388c0.702,-0.863 0.68,-2.095 0.226,-3.083Z" style="fill:#202b59;fill-rule:nonzero;"/><path d="M260.458,211.742c-0.159,-2.318 -2.674,-4.344 -5.007,-4.135c-0.34,0.031 -0.657,0.097 -0.907,0.351c-0.203,0.238 -0.34,0.519 -0.362,0.85c-0.068,1.998 1.019,4.153 2.719,5.306c0.521,0.349 1.155,0.548 1.744,0.394c1.065,-0.276 1.904,-1.72 1.813,-2.766Z" style="fill:#202b59;fill-rule:nonzero;"/><path d="M297.411,198.469c-0.385,-1.094 -1.382,-1.396 -2.243,-1.751c-0.838,-0.34 -1.677,-0.63 -2.537,-0.841c-1.541,-0.378 -3.24,-0.627 -4.804,-0.394c-1.518,0.222 -2.945,0.938 -3.579,2.676c-0.453,1.246 -0.295,2.816 0.657,3.677c-0.091,-1.192 0.362,-2.32 1.087,-2.93c0.884,-0.763 2.039,-0.899 3.104,-0.852c1.246,0.057 2.493,0.336 3.693,0.728c0.59,0.188 1.156,0.419 1.722,0.684c0.725,0.349 1.405,0.895 2.221,0.6c0.521,-0.192 0.883,-0.974 0.679,-1.597Z" style="fill:#202b59;fill-rule:nonzero;"/><path d="M262.927,207.369c-0.249,-0.573 -0.929,-0.984 -1.404,-1.28c-0.521,-0.306 -1.065,-0.542 -1.632,-0.703c-1.11,-0.319 -2.922,-0.494 -4.033,-0.147c-3.172,0.992 -4.531,4.105 -2.786,7.581c0.18,0.358 1.019,0.553 1.313,0.34c0.703,-0.526 -0.181,-2.125 -0.203,-2.843c-0.068,-1.945 1.133,-2.762 2.673,-3.145c0.839,-0.206 1.745,-0.123 2.561,0.131c0.407,0.127 0.792,0.317 1.177,0.551c0.386,0.256 0.726,0.711 1.156,0.89c0.861,0.351 1.564,-0.473 1.178,-1.375Z" style="fill:#202b59;fill-rule:nonzero;"/><path d="M296.754,184.698c-4.985,1.559 -10.014,2.875 -15.044,4.271c-2.13,0.621 -4.237,1.291 -6.367,1.828c-1.291,0.297 -2.855,0.376 -3.874,-0.643c-2.764,-2.905 2.424,-6.21 4.305,-7.259c3.081,-1.709 6.548,-2.62 9.992,-2.617c2.492,-0 4.961,0.435 7.34,1.182c1.111,0.352 2.584,0.694 3.558,1.405c0.589,0.435 1.11,1.509 0.09,1.833Z" style="fill:#202b59;fill-rule:nonzero;"/><path d="M250.693,198.802c-6.526,0 -11.85,5.855 -11.85,13.053c-0,7.198 5.324,13.053 11.85,13.053c6.524,-0 11.849,-5.855 11.849,-13.053c0,-7.198 -5.325,-13.053 -11.849,-13.053Zm-0,28.081c-7.614,0 -13.822,-6.742 -13.822,-15.028c0,-8.286 6.208,-15.029 13.822,-15.029c7.613,0 13.821,6.743 13.821,15.029c-0,8.286 -6.208,15.028 -13.821,15.028Z" style="fill:#fff;fill-rule:nonzero;"/><path d="M265.691,226.562c-1.676,-1.24 0.046,-4.308 0.499,-5.812c1.2,-3.929 0.589,-8.005 -0.521,-11.863c-1.541,-5.381 -3.852,-14.107 -9.811,-15.212c-0.611,-0.116 -1.178,0.861 -0.566,1.316c5.098,3.872 7.137,10.839 8.292,17.251c0.386,2.085 0.612,4.273 0.227,6.374c-0.363,1.848 -1.292,3.509 -1.54,5.388c-0.341,2.714 1.517,6.597 4.486,5.575c0.43,-0.149 0.792,-0.584 0.86,-1.073c0.272,-1.6 -1.11,-1.344 -1.926,-1.944Z" style="fill:#ff88c4;fill-rule:nonzero;"/><path d="M259.325,200.044c-2.356,2.123 -5.914,0.485 -8.542,-0.027c-3.172,-0.644 -6.389,-1.022 -9.606,-1.102c-0.159,-1.049 -0.272,-2.098 -0.363,-3.12c2.764,-2.175 6.072,-3.142 9.289,-3.357c2.674,-0.163 5.733,0.133 8.18,1.45c2.288,1.237 3.217,4.194 1.042,6.156Z" style="fill:#202b59;fill-rule:nonzero;"/><path d="M288.802,228.814c-1.428,3.681 -3.241,7.846 -6.843,9.432c-4.44,1.964 -8.926,-1.292 -12.325,-4.112c-0.793,-0.644 0.136,-1.881 0.951,-1.398c5.733,-2.205 11.578,-3.843 17.605,-4.944c0.521,-0.084 0.793,0.564 0.612,1.022Z" style="fill:#fff;fill-rule:nonzero;"/><path d="M355.323,174.559c-0.906,9.115 -3.716,18.119 -6.004,26.91c-1.178,4.515 -2.198,9.11 -3.535,13.601c-1.155,3.978 -2.379,7.957 0,11.745c0.408,0.646 0.272,1.668 -0.362,2.069c-4.668,2.932 -9.29,-5.053 -11.737,-8.41c-2.583,-3.524 -4.916,-7.287 -6.797,-11.318c-0.43,-3.332 -0.815,-6.155 -1.133,-8.979c-0.158,-1.289 -0.294,-2.58 -0.385,-3.845c-2.243,-0.16 -4.463,-0.213 -6.616,-0.752c-0.816,-0.133 -1.631,-0.321 -2.424,-0.616c-2.515,-0.997 -4.282,-3.065 -5.506,-5.592c-1.337,-2.741 -2.492,-5.592 -3.443,-8.521c-0.454,-1.45 -0.929,-2.93 -1.315,-4.409c-0.181,-0.698 -0.385,-1.529 -0.453,-2.336c-0.883,-0.782 -1.563,-1.615 -2.129,-2.526c-1.043,-1.561 -1.722,-3.417 -1.972,-5.54c-0.068,-0.643 -0.068,-1.289 -0.023,-1.962c-2.718,-2.177 -4.712,-5.619 -5.211,-9.813c-5.369,-0.51 -10.082,2.017 -14.772,4.788c-3.897,2.311 -7.817,4.513 -11.963,6.235c-1.586,0.643 -3.172,1.237 -4.803,1.774c-1.11,2.15 -2.492,4.164 -4.282,5.698c-2.878,2.472 -7.16,3.575 -10.423,1.425c-0.838,-0.537 -1.517,-1.291 -2.084,-2.15c-2.696,5.537 -5.505,10.832 -9.833,14.648c-0.476,0.405 -1.224,0.081 -1.382,-0.483c-0.612,-2.15 -1.156,-4.3 -1.609,-6.505c-0.884,-1.397 -1.541,-2.983 -1.88,-4.434c-4.056,0.08 -7.772,-3.362 -8.248,-7.85c-0.498,-4.464 2.04,-8.306 5.438,-10.375c-4.01,-2.635 -5.891,-9.006 -2.968,-13.44c1.994,-3.036 5.506,-4.033 8.564,-5.055c4.623,-1.504 8.656,-4.003 12.575,-7.014c7.477,-5.726 14.682,-11.587 23.11,-15.564c13.073,-6.155 28.593,-7.42 41.032,0.322c-1.541,-2.286 -2.152,-4.839 -1.88,-7.848c0.045,-0.537 0.815,-0.861 1.155,-0.431c2.243,2.715 3.512,5.78 3.875,9.247c1.835,-2.311 4.123,-3.922 6.978,-4.758c0.702,-0.213 1.473,0.564 1.11,1.37c-1.223,2.529 -2.787,4.652 -4.69,6.48c6.254,1.72 12.416,5.859 17.491,9.999c5.438,4.461 10.037,10.132 12.643,17.095c0.317,0.861 0.589,1.694 0.793,2.555c4.486,6.827 5.891,16.798 5.098,24.565Z" style="fill:#202b59;fill-rule:nonzero;"/><path d="M344.946,192.601c0,8.56 -6.344,15.502 -14.161,15.502c-7.817,-0 -14.16,-6.942 -14.16,-15.502c-0,-8.562 6.343,-15.502 14.16,-15.502c7.817,-0 14.161,6.94 14.161,15.502Z" style="fill:#ffc5c5;fill-rule:nonzero;"/><path d="M337.56,198.018c-0.793,-1.201 -2.561,-1.586 -3.807,-2.019c-1.087,-0.38 -2.198,-0.704 -3.33,-0.962c-0.703,-0.17 -1.45,-0.247 -2.198,-0.354c0.816,-0.691 1.608,-1.384 2.379,-2.125c1.042,-1.004 2.062,-2.035 3.036,-3.113c0.453,-0.506 0.974,-1.006 1.359,-1.566c0.453,-0.623 1.042,-1.531 0.907,-2.352c-0.091,-0.519 -0.386,-1.128 -0.952,-1.185c-1.473,-0.142 -2.583,1.475 -3.535,2.506c-0.883,0.952 -1.812,1.87 -2.764,2.746c-2.016,1.847 -4.168,3.528 -6.411,5.039c-0.657,0.447 -0.93,1.441 -0.68,2.225c0.271,0.859 0.997,1.303 1.79,1.319c2.152,0.041 4.259,0.349 6.366,0.802c1.065,0.222 2.085,0.501 3.104,0.827c0.499,0.156 0.974,0.324 1.45,0.51c0.657,0.256 1.314,0.661 2.017,0.523c1.155,-0.229 2.062,-1.604 1.269,-2.821Z" style="fill:#ff88c4;fill-rule:nonzero;"/><path d="M325.37,197.008c-2.832,-0.222 -5.664,-0.222 -8.338,-1.328c-1.223,-0.528 -2.333,-1.244 -3.285,-2.184c-0.158,-0.582 -0.272,-1.192 -0.431,-1.772c-0.974,-4.425 -1.54,-9.844 1.587,-13.44c1.2,-1.382 2.787,-2.211 4.509,-2.268c1.178,-0.054 2.106,0.276 2.9,0.94c0.135,-1.409 0.453,-2.791 1.133,-3.842c1.653,2.406 1.177,5.918 1.2,8.571c-0,3.043 0.091,6.085 0.249,9.126c0.114,2.073 0.272,4.121 0.476,6.197Z" style="fill:#202b59;fill-rule:nonzero;"/><path d="M421.164,191.468c0,3.684 -3.308,6.235 -6.094,7.876c-4.781,2.743 -9.879,4.866 -14.659,7.635c-9.902,5.723 -19.463,12.203 -28.594,19.272c-15.021,11.612 -29.024,24.676 -42.754,38.035c-3.421,3.332 -6.819,6.665 -10.218,10c-0.498,0.51 -1.292,0.913 -1.994,0.456c-4.35,-2.851 -8.519,-6.075 -12.371,-9.702c-3.512,-3.335 -7.409,-6.963 -9.335,-11.693c-0.181,-0.485 0.431,-1.101 0.839,-0.807c3.783,2.608 6.706,6.451 10.105,9.568c3.535,3.279 7.341,6.156 11.306,8.737c15.724,-15.482 31.516,-30.966 48.599,-44.619c0.363,-0.269 0.68,-0.539 1.02,-0.809c8.27,-6.586 16.857,-12.848 25.897,-18.143c4.531,-2.635 9.108,-5.08 13.798,-7.364c4.441,-2.152 10.536,-3.578 11.827,-9.437c0.34,-1.613 2.379,-1.397 2.583,0.188c0.022,0.272 0.045,0.54 0.045,0.807Z" style="fill:#202b59;fill-rule:nonzero;"/><path d="M284.61,191.298c-6.525,0 -11.827,5.855 -11.827,13.051c0,7.198 5.302,13.055 11.827,13.055c6.548,-0 11.85,-5.857 11.85,-13.055c-0,-7.196 -5.302,-13.051 -11.85,-13.051Zm0,28.081c-7.612,0 -13.798,-6.742 -13.798,-15.03c-0,-8.286 6.186,-15.027 13.798,-15.027c7.636,0 13.821,6.741 13.821,15.027c0,8.288 -6.185,15.03 -13.821,15.03Z" style="fill:#fff;fill-rule:nonzero;"/><path d="M273.395,207.858c-2.425,-1.962 -3.15,-2.236 -3.874,-2.404c-1.473,-0.331 -2.946,-0.297 -4.396,0.077c-1.427,0.365 -2.742,1.228 -3.444,2.862c-0.589,1.405 -0.362,3.532 0.974,4.157c0.295,0.136 0.748,-0.006 0.77,-0.469c0.046,-0.566 0.137,-0.738 0.318,-1.092c4.441,-2.052 6.185,-0.6 8.247,-0.432c1.269,0.099 2.742,-1.271 1.405,-2.699Z" style="fill:#fff;fill-rule:nonzero;"/><path d="M290.274,347.396c-4.01,3.684 -8.7,1.434 -13.254,0.213c-4.282,-1.151 -8.587,-2.331 -12.869,-3.607c-8.61,-2.571 -17.084,-5.562 -25.285,-9.412c-6.458,-3.033 -15.679,-7.25 -21.389,-0.315c-2.469,3.003 -3.104,7.208 -2.424,11.091c1.427,8.361 8.859,13.438 15.407,16.669c17.174,8.483 36.047,13.753 54.626,16.841c1.88,0.313 2.47,-2.887 0.566,-3.217c-15.316,-2.649 -30.405,-6.841 -44.951,-12.709c-6.503,-2.619 -14.501,-5.023 -19.508,-10.499c-3.194,-3.492 -4.848,-9.702 -2.515,-14.48c4.055,-8.304 15.565,-2.427 22.249,0.582c3.489,1.566 7.024,2.977 10.581,4.275c7.296,2.665 14.75,4.851 22.204,6.897c5.506,1.512 13.776,5.631 18.239,-0.276c0.861,-1.151 -0.544,-3.095 -1.677,-2.053Z" style="fill:#fff;fill-rule:nonzero;"/><path d="M286.491,391.532c-12.416,-0.695 -25.309,-3.185 -37.316,-6.713c-5.733,-1.684 -11.85,-3.8 -16.744,-7.613c-4.871,-3.806 -8.497,-10.64 -4.758,-16.868c0.34,-0.578 -0.249,-1.591 -0.838,-1.029c-4.011,3.807 -3.965,10.099 -1.518,14.961c3.149,6.228 10.173,9.624 15.973,12.003c6.955,2.862 14.296,4.419 21.614,5.846c7.863,1.543 15.77,3.172 23.79,3.188c2.266,0.004 1.949,-3.653 -0.203,-3.775Z" style="fill:#fff;fill-rule:nonzero;"/><path d="M371.296,356.765c-7.59,-6.677 -16.222,-11.619 -25.104,-15.914c-9.584,-4.636 -19.327,-9.002 -29.069,-13.171c-19.599,-8.365 -39.922,-15.026 -60.63,-19.068c-3.489,-0.68 -6.956,-1.498 -10.468,-1.84c-3.942,-0.383 -9.652,-0.768 -12.801,2.205c-2.629,2.49 -3.965,6.591 -3.648,10.347c0.566,7.321 6.661,10.837 12.484,12.516c8.769,2.524 17.537,4.572 26.124,7.742c4.35,1.608 8.655,3.373 12.914,5.288c2.04,0.918 4.056,1.871 6.073,2.859c1.812,0.9 3.035,1.903 5.007,1.394c0.453,-0.116 0.815,-0.843 0.611,-1.314c-1.314,-2.932 -5.12,-3.82 -7.703,-5.058c-3.535,-1.683 -7.114,-3.264 -10.74,-4.726c-6.865,-2.766 -13.843,-5.157 -20.935,-7.11c-5.755,-1.586 -13.956,-1.971 -18.374,-6.853c-3.467,-3.85 -2.447,-9.19 0.226,-13.033c3.852,-3.992 10.377,-1.203 14.886,-0.251c6.117,1.294 12.234,2.596 18.307,4.117c12.03,3.013 23.903,6.742 35.549,11.208c11.6,4.452 22.951,9.677 34.279,14.913c10.831,5.014 21.638,10.356 30.882,18.474c1.632,1.442 3.784,-1.273 2.13,-2.725Z" style="fill:#fff;fill-rule:nonzero;"/><path d="M582.437,481.825c-4.033,9.085 -10.671,16.882 -17.582,23.414c-14.931,14.083 -33.668,19.111 -53.085,16.718c-21.162,-2.58 -40.375,-13.118 -59.747,-22.095c-10.467,-4.866 -20.867,-9.783 -31.335,-14.623c-9.969,-4.624 -20.119,-8.951 -29.861,-14.113c-8.587,-4.57 -16.223,-10.456 -23.858,-16.691c-7.727,-6.29 -15.634,-12.634 -24.9,-15.806c-0.952,-0.321 -0.114,-1.903 0.521,-3.031c14.183,-24.406 15.792,-56.704 20.867,-81.398c-0.907,-0.294 -1.383,-1.828 -0.453,-2.714c2.945,-2.85 6.683,-2.447 10.241,-1.346c3.919,1.237 7.521,3.065 11.691,2.796c3.828,-0.27 7.522,-1.749 11.033,-3.308c6.685,-2.955 13.368,-7.121 20.709,-7.47c3.58,-0.188 7.114,0.67 10.173,2.608c3.92,2.444 6.865,6.287 10.649,8.922c7.748,5.431 17.355,5.728 26.214,4.572c9.652,-1.291 19.327,-5.594 29.137,-4.597c7.772,0.752 13.934,5.698 18.964,11.934c5.189,6.45 9.244,14.004 14.931,19.945c6.933,7.229 16.223,11.396 23.654,18.01c7.318,6.505 13.866,14.111 19.78,22.122c6.004,8.17 11.51,17.417 14.138,27.633c2.469,9.543 2.061,19.514 -1.881,28.518Z" style="fill:#aa80f9;fill-rule:nonzero;"/><path d="M466.093,255.415c-0.952,-0.081 -1.903,-0.161 -2.832,-0.242c-0.997,-0.079 -1.949,-0.134 -2.877,-0.159c-5.506,-0.163 -11.035,-0.163 -16.563,0.052c-10.853,0.404 -21.751,1.559 -32.399,4.033c-9.199,2.151 -18.24,5.162 -26.826,9.326c-9.063,4.382 -16.744,10.59 -25.104,16.236c-0.68,0.458 -1.473,-0.485 -0.929,-1.155c6.163,-7.849 15.203,-13.173 23.654,-17.553c8.972,-4.622 18.465,-8.009 28.162,-10.268c10.921,-2.529 22.068,-3.791 33.261,-4.194c5.007,-0.188 10.06,-0.215 15.09,-0.106c0.498,-0 0.974,0.025 1.45,0.025c1.495,0.054 3.149,-0 4.848,-0.025c-0.362,0.94 -0.77,1.826 -1.246,2.714c0.793,0.458 1.563,0.886 2.311,1.316Z" style="fill:#fff;fill-rule:nonzero;"/><path d="M538.165,388.283c-5.936,0.027 -11.532,-4.57 -15.905,-8.573c-5.053,-4.573 -9.516,-9.892 -14.75,-14.247c-5.506,-4.597 -11.94,-7.527 -18.828,-8.44c-1.858,-0.269 -3.67,-0.324 -5.483,-0.217c-5.596,0.269 -11.011,1.937 -16.562,3.441c-6.14,1.695 -12.575,2.93 -18.737,0.594c-5.529,-2.071 -9.698,-6.668 -14.138,-10.62c-5.755,-5.106 -12.507,-8.09 -20.007,-6.343c-6.208,1.452 -10.921,6.289 -16.267,9.676c-4.939,3.145 -10.083,4.437 -15.724,3.012c-5.552,-1.398 -10.762,-4.301 -16.382,-5.271c-0.407,0.458 -0.838,0.997 -1.155,1.589c0.09,0.858 -0.09,1.719 -0.272,2.927c-0.317,2.205 -0.612,4.409 -0.929,6.614c-0.657,4.651 -1.405,9.246 -2.153,13.87c-1.449,9.004 -2.922,18.01 -4.395,27.014c-2.152,13.198 -4.848,29.031 -16.358,36.154c12.122,1.853 22.952,8.87 33.011,16.209c5.665,4.112 11.193,8.44 16.766,12.661c3.263,2.472 6.503,4.944 9.607,7.606c-1.948,-0 -3.874,-0.027 -5.823,-0.027c-6.865,-5.617 -14.206,-10.67 -21.207,-15.833c-10.649,-7.903 -21.864,-14.702 -34.28,-18.735c-0.77,-0.243 -0.929,-1.047 -0.657,-1.611c-0.045,-0.349 0.023,-0.755 0.294,-0.995c11.556,-9.813 13.346,-26.128 15.747,-40.83c1.428,-8.549 2.855,-17.124 4.237,-25.673c0.703,-4.167 1.427,-8.331 2.22,-12.5c0.363,-2.014 0.408,-4.837 1.292,-6.879c-0.498,-1.209 -0.408,-2.58 0.362,-3.468c0.205,-0.295 0.703,-0.27 0.884,0.081c7.228,-1.262 13.685,2.93 20.709,4.058c7.93,1.317 13.435,-3.627 19.711,-8.088c5.166,-3.739 10.762,-6.05 17.084,-5.592c6.094,0.455 11.192,3.466 15.882,7.579c5.007,4.409 9.743,9.624 16.381,10.617c7.318,1.076 14.591,-2.178 21.615,-3.87c2.81,-0.7 5.596,-1.074 8.361,-1.183c9.991,-0.43 19.666,2.848 27.868,9.811c4.735,4.005 8.836,8.791 13.367,13.064c2.266,2.177 4.668,4.248 7.296,5.913c2.492,1.559 5.211,2.474 7.794,3.816c1.133,0.593 0.861,2.689 -0.476,2.689Z" style="fill:#fff;fill-rule:nonzero;"/><path d="M99.57,180.851c-0.204,5.592 -0.589,11.478 -3.92,16.021c-0.181,0.242 -0.362,0.482 -0.566,0.725c-0.793,0.994 -1.677,2.043 -2.674,3.038c-5.981,6.074 -15.225,11.424 -20.935,3.09c-2.945,-4.327 -3.602,-10.481 -3.784,-15.696c-0.204,-6.451 0.794,-12.797 2.765,-18.871c0.611,-1.827 3.058,-0.483 2.492,1.316c-1.926,6.158 -2.719,12.663 -2.198,19.139c0.363,4.599 1.133,11.856 5.392,14.301c4.691,2.689 9.72,-1.668 13.119,-4.865c0.498,-0.485 0.951,-0.942 1.404,-1.398c0.635,-0.673 1.224,-1.343 1.745,-2.043c2.085,-2.633 3.376,-5.538 3.83,-9.571c0.634,-5.644 0.589,-11.448 0.112,-17.122c-0.43,-5.186 -1.223,-10.481 -3.829,-14.969c-4.939,-8.47 -14.319,-13.28 -23.359,-13.334c-4.214,-0.052 -8.383,1.02 -12.212,2.957c-2.198,1.101 -4.282,2.474 -6.208,4.085c-1.382,1.183 -2.424,2.207 -4.192,2.581c0.295,-5.751 7.93,-9.408 12.077,-10.994c1.835,-0.7 3.715,-1.21 5.641,-1.534c0.929,-0.161 1.858,-0.267 2.787,-0.321c2.923,-0.216 5.868,0.027 8.746,0.727c10.331,2.499 19.598,10.536 22.249,22.014c1.518,6.692 1.812,13.87 1.518,20.724Z" style="fill:#fff;fill-rule:nonzero;"/><path d="M69.708,169.115c-1.178,-0.184 -2.402,-0.238 -3.58,-0.143c-1.155,0.093 -2.334,0.288 -3.421,0.743c-0.566,0.236 -1.133,0.489 -1.654,0.82c-0.498,0.311 -0.929,0.841 -1.337,1.28c-0.317,0.376 0,1.11 0.476,1.038c0.476,-0.068 0.974,-0.07 1.427,-0.14c0.431,-0.062 0.861,-0.225 1.292,-0.309c0.929,-0.181 1.88,-0.342 2.81,-0.421c0.906,-0.075 1.812,-0.075 2.696,0.045c0.453,0.059 0.883,0.129 1.313,0.243c1.315,1.271 2.788,0.299 2.72,-0.866c-0.136,-1.604 -1.473,-2.098 -2.742,-2.29Z" style="fill:#fff;fill-rule:nonzero;"/><path d="M48.274,149.861c-3.625,-9 -3.602,-18.273 -5.166,-27.778c-1.313,-8.168 -3.081,-16.854 -6.208,-24.456c-2.446,-5.952 -6.411,-10.916 -12.461,-12.321c-5.279,-1.235 -11.147,0.351 -15.18,4.355c-4.894,4.873 -5.891,12.42 -5.619,19.304c0.34,9.024 1.722,18.291 3.127,27.181c1.382,8.596 3.149,17.161 5.211,25.587c1.065,4.332 2.288,8.621 3.693,12.833c1.382,4.128 3.33,8.109 4.418,12.348c1.428,5.61 0.476,11.963 0.136,17.688c-0.249,3.925 -0.43,7.833 -0.476,11.762c-0.34,3.928 -0.611,7.862 -0.657,11.813c-0.045,4.547 0.182,9.11 0.906,13.594c0.657,3.899 1.473,9.303 3.897,12.366c0.657,0.825 1.722,0.238 1.541,-0.829c-0.385,-2.161 -1.473,-4.225 -2.085,-6.35c-0.339,-1.172 -0.611,-2.355 -0.86,-3.549c-0.725,-5.793 -1.224,-11.546 -1.247,-17.461c0.114,-4.509 0.408,-9.009 0.612,-13.509c0.363,-4.588 0.793,-9.173 1.065,-13.748c0.204,-3.426 0.498,-6.908 -0.068,-10.311c-0.702,-4.332 -2.628,-8.302 -4.056,-12.38c-2.673,-7.626 -4.667,-15.518 -6.23,-23.493c-1.632,-8.243 -2.402,-16.784 -3.467,-25.136c-0.997,-7.69 -2.651,-15.842 -2.039,-23.638c0.567,-7.384 4.327,-13.671 11.306,-14.994c6.48,-1.228 11.85,2.456 14.818,8.643c1.903,3.979 2.991,8.465 4.078,12.768c1.246,4.839 2.357,9.738 3.036,14.711c1.246,8.99 1.405,17.695 5.008,26.08c0.838,1.949 3.76,0.941 2.967,-1.08Z" style="fill:#fff;fill-rule:nonzero;"/><path d="M203.43,197.73c-0,5.726 -2.107,10.887 -5.529,14.623c-3.421,3.739 -8.133,6.05 -13.322,6.05l-60.29,-0c-9.357,-0 -17.129,-7.448 -18.624,-17.229c-0.091,-0.663 -0.476,-1.556 -0.295,-2.231c0.295,-1.122 2.243,-1.777 3.036,-2.418c1.269,-1.008 2.402,-2.218 3.308,-3.614c1.654,-2.546 3.761,-5.329 4.69,-8.274c0.453,-1.45 0.793,-3.276 1.11,-4.774c0.34,-1.663 -0.045,-1.382 1.337,-1.887c2.221,-0.673 3.784,-0.888 5.438,-0.888l11.532,-0c0.317,0.7 0.657,1.398 1.042,2.068c3.49,6.346 10.604,11.827 17.673,9.704c5.211,-1.559 7.567,-6.45 8.451,-11.772l21.592,-0c10.4,-0 18.851,9.246 18.851,20.642Z" style="fill:#36bfe3;fill-rule:nonzero;"/><path d="M119.825,171.58c0.046,2.068 -0.045,4.164 -0.272,6.208c-0.135,1.235 -0.339,2.444 -0.566,3.627c-1.223,5.941 -3.693,11.505 -7.862,15.724c-1.563,1.561 -3.421,2.984 -5.46,4.035c-4.35,2.282 -9.38,2.9 -13.255,-0.539c-0.453,-0.376 -0.861,-0.806 -1.246,-1.291c-0.431,-0.51 -0.566,-1.129 -0.499,-1.693c0.635,-0.673 1.224,-1.343 1.745,-2.043c0.386,-0 0.816,0.163 1.201,0.618c0.453,0.539 0.952,0.995 1.473,1.371c3.058,2.232 7.001,1.425 10.331,-0.243c4.736,-2.39 7.885,-6.881 9.788,-11.772c0.861,-2.178 1.451,-4.489 1.836,-6.881c1.404,-8.898 -0.295,-18.708 -3.286,-26.747c-3.738,-10.078 -11.057,-18.896 -20.912,-21.798c-1.45,-0.431 -2.923,-0.7 -4.419,-0.809c-1.268,-0.134 -2.56,-0.134 -3.829,-0.025c-6.434,0.43 -12.891,3.308 -17.536,8.064c-0.906,0.942 -1.767,1.962 -2.515,3.038c-0.226,0.297 -0.566,0.27 -0.793,0.052c-0.068,-1.371 0.159,-2.096 0.521,-2.769c1.768,-3.627 5.891,-5.938 9.086,-7.551c4.735,-2.393 9.991,-3.682 15.225,-3.254c0.974,0.08 1.949,0.216 2.9,0.404c1.02,0.215 2.039,0.457 2.991,0.781c9.176,2.955 15.974,10.778 20.233,20.213c0.362,0.833 0.725,1.665 1.065,2.526c2.401,6.156 3.738,12.821 4.033,19.22c0.022,0.51 0.022,1.022 0.022,1.534Z" style="fill:#fff;fill-rule:nonzero;"/><path d="M161.854,182.194c-2.129,4.543 -5.936,8.361 -10.648,9.113c-4.917,0.807 -9.63,-2.016 -12.825,-5.94c-4.35,-5.377 -6.366,-12.661 -8.768,-19.191c-1.064,-2.905 -2.718,-8.739 -5.324,-12.581c-2.085,-3.145 -4.826,-4.999 -8.338,-2.849c-1.563,0.673 -2.809,-1.506 -1.45,-2.34c11.6,-6.799 16.676,14.408 19.508,22.043c2.265,6.154 4.69,13.171 10.331,16.558c5.8,3.466 11.895,0.349 14.908,-5.646c3.195,-6.317 2.085,-14.059 0.612,-20.75c-1.495,-6.695 -3.376,-13.44 -6.842,-19.274c-5.959,-9.944 -15.86,-16.746 -26.486,-18.948c-11.238,-2.34 -21.955,0.671 -32.06,5.698c-0.77,0.401 -1.518,0.777 -2.288,1.181c-0.997,0.537 -1.654,-1.181 -0.861,-1.826c11.351,-8.631 26.826,-11.048 39.808,-6.856c10.581,3.387 20.165,11.074 25.535,21.746c3.24,6.423 5.143,13.737 6.435,20.887c1.132,6.263 1.472,13.144 -1.247,18.975Z" style="fill:#fff;fill-rule:nonzero;"/><path d="M123.247,417.325l-64.981,-0c-5.37,-0 -9.72,-4.35 -9.72,-9.715l0,-26.253c0,-5.365 4.35,-9.716 9.72,-9.716l64.981,0c5.369,0 9.72,4.351 9.72,9.716l-0,26.253c-0,5.365 -4.351,9.715 -9.72,9.715Z" style="fill:#ff88c4;fill-rule:nonzero;"/><path d="M96.103,412.526c-0.249,-0.254 -0.521,-0.437 -0.793,-0.636c-0.271,-0.195 -0.544,-0.39 -0.838,-0.524c-0.43,-0.188 -0.861,-0.358 -1.314,-0.464c-1.337,-0.179 -1.926,-0.166 -2.673,-0.005c-0.771,0.168 -1.337,0.401 -2.04,0.859c-0.725,0.621 -1.11,0.945 -1.382,1.357c-0.589,0.89 -0.974,1.688 -1.201,2.762c-0.113,0.487 -0.113,1.017 -0.136,1.513c0,0.39 0.046,0.728 0.114,1.113c0.159,0.877 0.453,1.74 0.974,2.451c0.272,0.39 0.589,0.823 0.952,1.135c0.339,0.295 0.724,0.583 1.133,0.793c0.928,0.619 1.404,0.769 1.834,0.882c0.431,0.12 0.93,0.136 1.383,0.124c1.608,-0.036 3.104,-0.978 4.192,-2.231c0.588,-0.891 0.86,-1.312 1.064,-1.774c0.385,-0.984 0.521,-1.813 0.544,-2.871c0.068,-1.727 -0.725,-3.301 -1.813,-4.484Z" style="fill:#fff;fill-rule:nonzero;"/><path d="M208.074,412.526c-0.226,-0.254 -0.521,-0.437 -0.792,-0.636c-0.272,-0.195 -0.521,-0.39 -0.839,-0.524c-0.43,-0.188 -0.86,-0.358 -1.314,-0.464c-1.314,-0.179 -1.903,-0.166 -2.673,-0.005c-0.771,0.168 -1.315,0.401 -2.039,0.859c-0.726,0.621 -1.111,0.945 -1.383,1.357c-0.589,0.89 -0.951,1.688 -1.201,2.762c-0.09,0.487 -0.113,1.017 -0.113,1.513c-0.022,0.39 0.045,0.728 0.113,1.113c0.159,0.877 0.431,1.74 0.952,2.451c0.272,0.39 0.589,0.823 0.952,1.135c0.362,0.295 0.748,0.583 1.155,0.793c0.906,0.619 1.382,0.769 1.813,0.882c0.453,0.12 0.929,0.136 1.404,0.124c1.609,-0.036 3.082,-0.978 4.17,-2.231c0.589,-0.891 0.883,-1.312 1.064,-1.774c0.385,-0.984 0.521,-1.813 0.567,-2.871c0.045,-1.727 -0.748,-3.301 -1.836,-4.484Z" style="fill:#fff;fill-rule:nonzero;"/><path d="M188.25,483.968l-67.745,0c-8.383,0 -15.18,-6.799 -15.18,-15.189l0,-10.977c0,-8.39 6.797,-15.192 15.18,-15.192l67.745,0c8.383,0 15.18,6.802 15.18,15.192l-0,10.977c-0,8.39 -6.797,15.189 -15.18,15.189Z" style="fill:#36bfe3;fill-rule:nonzero;"/><path d="M219.154,247.531c-0.181,-3.354 -0.385,-6.689 -4.124,-6.906c-4.758,-0.279 -9.901,0.893 -14.659,1.262c-9.72,0.75 -19.485,1.282 -29.228,1.556c-2.446,0.068 -4.871,0.12 -7.318,0.152c-1.133,0.018 -2.56,0.304 -3.647,0.041c-1.564,-0.372 -1.428,-0.99 -1.564,-2.662c-0.385,-5.153 -0.498,-10.613 -1.88,-15.584c-0.431,-1.568 -2.742,-1.459 -2.968,0.211c-0.635,5.143 0.045,10.538 0.385,15.685c0.226,3.311 0.566,6.501 4.078,7.185c4.373,0.85 9.38,0.104 13.821,0.016c4.871,-0.098 9.743,-0.261 14.636,-0.496c4.871,-0.234 9.743,-0.589 14.591,-0.993c2.447,-0.204 4.872,-0.423 7.296,-0.659c1.223,-0.12 2.424,-0.238 3.648,-0.369c-0.045,0.002 2.334,-0.186 2.537,-0.526c0.499,0.961 0.386,6.74 0.408,7.533c0.113,2.574 0.204,5.148 0.227,7.726c0.045,2.79 0.022,5.583 -0.046,8.372c-0.068,2.298 -0.498,3.718 1.133,5.297c0.363,0.347 0.975,0.397 1.36,0.087c1.382,-1.093 1.45,-1.91 1.518,-3.737c0.113,-2.573 0.181,-5.154 0.204,-7.732c0.045,-5.157 -0.114,-10.312 -0.408,-15.459Z" style="fill:#fff;fill-rule:nonzero;"/><path d="M162.896,218.466c0,5.146 -3.828,9.319 -8.519,9.319c-4.713,0 -8.519,-4.173 -8.519,-9.319c0,-5.145 3.806,-9.316 8.519,-9.316c4.691,-0 8.519,4.171 8.519,9.316Z" style="fill:#36bfe3;fill-rule:nonzero;"/><path d="M226.223,272.093c-0,5.146 -3.806,9.319 -8.519,9.319c-4.69,0 -8.497,-4.173 -8.497,-9.319c0,-5.145 3.807,-9.316 8.497,-9.316c4.713,-0 8.519,4.171 8.519,9.316Z" style="fill:#ff88c4;fill-rule:nonzero;"/><path d="M100.34,371.558c0,5.147 -3.806,9.316 -8.519,9.316c-4.69,0 -8.496,-4.169 -8.496,-9.316c-0,-5.146 3.806,-9.317 8.496,-9.317c4.713,0 8.519,4.171 8.519,9.317Z" style="fill:#ff88c4;fill-rule:nonzero;"/><path d="M212.946,371.558c0,5.147 -3.807,9.316 -8.496,9.316c-4.713,0 -8.519,-4.169 -8.519,-9.316c-0,-5.146 3.806,-9.317 8.519,-9.317c4.689,0 8.496,4.171 8.496,9.317Z" style="fill:#202b59;fill-rule:nonzero;"/><path d="M156.416,426.338c0,-0.764 -0.702,-1.344 -1.359,-1.31c-10.853,0.574 -21.705,1.061 -32.558,1.351c-5.234,0.14 -10.468,0.242 -15.701,0.306c-2.81,0.034 -5.619,0.058 -8.452,0.068c-1.903,0.009 -3.648,0.475 -4.758,-2.2c-0.521,-1.281 -0.339,-3.759 -0.475,-5.182c-0.091,-0.875 -2.765,0.403 -2.923,1.307c-0.453,2.381 -0.974,5.698 -0.158,8.041c0.679,1.987 2.265,2.121 3.965,2.162c6.638,0.158 13.276,-0.053 19.915,-0.17c12.824,-0.227 25.648,-0.68 38.472,-1.416c-0,1.112 -0.023,4.388 -0,5.501c0.022,1.79 4.01,1.815 3.987,0.036c-0.022,-1.568 0.045,-6.926 0.045,-8.494Z" style="fill:#fff;fill-rule:nonzero;"/><path d="M162.896,442.61c0,5.148 -3.828,9.319 -8.519,9.319c-4.713,0 -8.519,-4.171 -8.519,-9.319c0,-5.145 3.806,-9.316 8.519,-9.316c4.691,-0 8.519,4.171 8.519,9.316Z" style="fill:#36bfe3;fill-rule:nonzero;"/><path d="M128.888,195.682c-0.589,0.025 -1.178,0.234 -1.767,0.347c-0.906,-0.659 -0.567,-1.731 -0.226,-2.284c0.249,-0.419 0.543,-0.702 0.996,-1.004c0.295,-0.199 0.77,-0.333 1.224,-0.337c0.498,-0.003 0.997,0.267 1.518,0.24c0.249,-0.014 0.838,-0.07 0.929,-0.39c0.294,-1.162 -0.748,-1.93 -1.632,-2.216c-0.951,-0.315 -2.084,-0.271 -3.013,0.132c-2.085,0.892 -3.331,3.469 -3.127,5.863c0.114,1.457 0.952,2.563 2.289,2.814c1.11,0.211 2.129,-0.416 3.24,-0.373c1.631,0.063 2.741,1.878 1.495,3.149c-0.612,0.643 -1.699,0.838 -2.696,0.689c-0.544,-0.084 -1.179,-0.216 -1.654,-0.438c-1.541,-1.309 -2.175,-1.176 -2.538,-0.521c-0.747,1.351 0.658,2.583 1.7,3.011c1.178,0.492 2.537,0.791 3.806,0.664c2.266,-0.231 4.486,-2.059 4.463,-4.726c-0.022,-2.875 -2.56,-4.733 -5.007,-4.62Z" style="fill:#fff;fill-rule:nonzero;"/><path d="M141.372,203.381c-0.045,-1.028 -0.295,-1.942 -0.385,-2.816c-0.113,-0.954 -0.204,-1.915 -0.249,-2.875c-0.068,-0.963 -0.114,-1.926 -0.204,-2.887c-0.091,-0.979 -0.068,-1.948 -0.408,-2.87c-0.226,-0.614 -1.201,-0.859 -1.427,-0.1c-0.182,0.544 -0.272,0.985 -0.295,1.554c0,0.521 -0.023,1.042 -0.045,1.566c-0,0.972 0.022,1.928 0.068,2.898c0.068,0.96 0.136,1.919 0.249,2.875c0.136,1.006 0.181,2.22 0.544,3.156c0.249,0.673 0.906,1.035 1.54,0.695c0.385,-0.204 0.635,-0.693 0.612,-1.164c0.023,-0.007 0,-0.018 0,-0.032Z" style="fill:#fff;fill-rule:nonzero;"/><path d="M145.133,190.603c-0.135,-0.698 -0.883,-1.115 -1.495,-1.09c-1.382,0.052 -2.81,0.181 -4.147,0.041c-0.769,-0.078 -1.517,-0.152 -2.288,-0.114c-0.362,0.016 -0.77,0.03 -1.11,0.154c-0.362,0.129 -0.725,0.417 -1.02,0.646c-0.566,0.415 -0.362,1.31 0.273,1.477c0.317,0.086 0.656,0.254 0.974,0.304c0.317,0.052 0.634,0.063 0.974,0.127c0.702,0.133 1.382,0.315 2.084,0.403c1.473,0.181 2.968,0.213 4.464,0.161c0.589,-0.021 1.268,-0.609 1.336,-1.294c0.023,-0.319 0,-0.5 -0.045,-0.815Z" style="fill:#fff;fill-rule:nonzero;"/><path d="M157.073,203.628c-0.543,-2.227 -1.359,-4.409 -2.039,-6.593c-0.702,-2.193 -1.382,-4.389 -2.084,-6.584c-0.249,-0.85 -1.45,-1.004 -1.812,-0.125c-0.93,2.411 -1.79,4.853 -2.606,7.323c-0.793,2.445 -1.632,4.916 -2.062,7.474c-0.159,0.857 1.02,1.339 1.36,0.492c0.906,-2.363 1.563,-4.828 2.401,-7.227c0.521,-1.555 1.133,-3.075 1.722,-4.604c0.431,1.305 0.861,2.61 1.269,3.913c0.702,2.177 1.314,4.436 2.152,6.559c0.453,1.167 2.017,0.607 1.699,-0.628Z" style="fill:#fff;fill-rule:nonzero;"/><path d="M154.808,199.772c-0.408,-0.444 -1.179,-0.451 -1.745,-0.519c-0.566,-0.07 -1.133,-0.113 -1.699,-0.134c-1.042,-0.038 -2.062,0.161 -3.081,0.408c-0.431,0.102 -0.363,0.857 0.045,0.913c0.974,0.127 1.948,0.358 2.923,0.551c0.476,0.097 0.974,0.215 1.45,0.351c1.11,0.353 1.382,0.428 1.767,0.313c0.793,-0.231 0.861,-1.339 0.34,-1.883Z" style="fill:#fff;fill-rule:nonzero;"/><path d="M162.239,196.725c-0.09,-1.04 -0.113,-2.103 -0.271,-3.132c-0.091,-0.496 -0.159,-0.997 -0.25,-1.495c-0.317,-2.005 -0.929,-2.232 -1.178,-1.865c-0.589,0.868 -0.453,1.969 -0.43,2.986c-0,1.093 0.113,2.175 0.181,3.263c0.181,2.254 0.362,4.509 0.521,6.765c0.113,1.376 2.062,1.24 1.948,-0.136c-0.158,-2.127 -0.339,-4.257 -0.521,-6.386Z" style="fill:#fff;fill-rule:nonzero;"/><path d="M164.709,189.248c-0.702,-0.136 -1.45,-0.172 -2.152,-0.08c-0.363,0.046 -0.725,0.093 -1.066,0.22c-0.362,0.134 -0.702,0.399 -1.019,0.632c-0.544,0.41 -0.272,1.532 0.43,1.414c0.318,-0.052 0.635,-0.045 0.93,-0.084c0.317,-0.038 0.634,-0.115 0.951,-0.133c0.612,-0.037 1.178,0.04 1.79,0.215c0.453,0.136 1.11,0.469 1.473,0.734c0.249,0.186 0.498,0.405 0.725,0.65c-0.136,2.2 -0.476,2.438 -1.02,2.633c-0.634,0.226 -1.291,0.337 -1.949,0.435c-0.385,0.054 -0.747,0.104 -1.11,0.158c-0.43,0.059 -0.838,0.073 -1.201,0.329c-0.453,0.324 -0.362,1.045 0.091,1.31c0.34,0.19 0.703,0.163 1.065,0.174c0.385,0.016 0.748,0.027 1.133,0.039c0.725,0.022 1.427,0.031 2.13,-0.145c1.268,-0.313 2.515,-1.17 3.058,-2.515c1.269,-3.102 -1.812,-5.504 -4.259,-5.986Z" style="fill:#fff;fill-rule:nonzero;"/><path d="M170.962,202.695c-0.136,-0.313 -0.43,-0.578 -0.634,-0.848c-0.227,-0.283 -0.43,-0.535 -0.657,-0.829c-0.453,-0.573 -0.884,-1.16 -1.314,-1.756c-0.408,-0.58 -0.793,-1.169 -1.179,-1.769c-0.203,-0.32 -0.385,-0.667 -0.656,-0.941c-0.25,-0.258 -0.499,-0.48 -0.793,-0.679c-0.25,-0.184 -0.59,0.122 -0.567,0.426c0.023,0.36 0.091,0.695 0.182,1.042c0.112,0.394 0.339,0.75 0.543,1.096c0.363,0.644 0.748,1.276 1.133,1.897c0.362,0.602 0.77,1.196 1.156,1.781c0.226,0.305 0.43,0.614 0.656,0.908c0.25,0.313 0.499,0.732 0.816,0.959c0.839,0.62 1.767,-0.281 1.314,-1.287Z" style="fill:#fff;fill-rule:nonzero;"/><path d="M182.585,189.465c-0.747,-0.349 -1.744,-0.099 -2.56,-0.081c-0.838,0.02 -1.676,0.02 -2.515,-0.005c-0.838,-0.027 -1.676,-0.072 -2.515,-0.145c-0.408,-0.036 -0.793,-0.1 -1.178,-0.113c-0.453,-0.012 -0.906,0.056 -1.337,0.081c-0.521,0.032 -0.77,0.97 -0.204,1.174c0.408,0.152 0.816,0.331 1.246,0.444c0.431,0.118 0.907,0.141 1.36,0.188c0.838,0.091 1.677,0.157 2.537,0.206c0.839,0.048 1.677,0.071 2.538,0.073c0.861,0.002 1.948,0.165 2.719,-0.297c0.544,-0.319 0.43,-1.28 -0.091,-1.525Z" style="fill:#fff;fill-rule:nonzero;"/><path d="M179.073,199.622c-0.022,-1.008 -0.045,-2.016 -0.067,-3.024c-0.023,-1 -0.114,-2.005 -0.204,-3c-0.091,-1.024 -0.136,-2.157 -0.521,-3.102c-0.318,-0.818 -1.654,-0.976 -1.768,0.129c-0.09,1.04 0.046,2.082 0.068,3.129c0.023,1.002 -0.022,2.01 0.023,3.011c0.045,1.009 0.113,2.012 0.158,3.018c0.046,1.081 0.068,2.103 0.386,3.141c0.294,0.983 1.54,0.813 1.767,-0.127c0.249,-1.056 0.181,-2.094 0.158,-3.175Z" style="fill:#fff;fill-rule:nonzero;"/><path d="M311.277,113.548c-14.342,-8.863 -32.127,-3.809 -45.495,4.769c-7.046,4.512 -13.3,10.391 -20.595,14.424c-3.829,2.116 -7.749,3.138 -11.895,4.214c-3.082,0.798 -6.253,2.098 -8.066,5.114c-2.809,4.71 -1.699,11.292 2.175,14.759c-3.716,2.768 -6.457,7.907 -5.121,12.885c0.839,3.133 3.082,3.212 5.438,4.289c3.24,1.472 4.962,5.247 5.823,8.748c0.975,4.071 0.861,8.356 1.563,12.481c0.567,3.329 1.745,6.301 3.421,9.124c3.694,6.174 10.853,13.975 6.367,21.83c-0.612,1.061 0.974,1.865 1.586,0.839c3.104,-5.184 1.314,-11.54 -1.518,-16.372c-1.79,-3.084 -4.033,-5.846 -5.687,-9.025c-1.971,-3.713 -2.47,-7.73 -2.855,-11.933c-0.498,-5.705 -1.223,-12.212 -5.573,-16.111c-0.861,-0.789 -1.858,-1.389 -2.923,-1.804c-0.521,-0.197 -1.065,-0.29 -1.563,-0.492c-1.586,-0.62 -2.22,-1.83 -2.357,-3.62c-0.294,-4.047 2.334,-8.012 5.529,-9.718c0.793,-0.414 0.952,-1.534 0.113,-2.03c-3.149,-1.912 -4.554,-6.163 -3.761,-9.955c1.065,-5.085 5.619,-6.358 9.697,-7.332c8.474,-2.021 15.407,-6.822 22.453,-12.165c7.636,-5.784 15.498,-11.108 24.583,-13.701c9.358,-2.675 19.032,-1.767 27.778,2.814c1.2,0.633 2.039,-1.32 0.883,-2.032Z" style="fill:#fff;fill-rule:nonzero;"/><path d="M155.51,112.171c-1.563,-0 -1.405,2.628 0.136,2.628c1.563,-0 1.405,-2.628 -0.136,-2.628Z" style="fill:#fff;fill-rule:nonzero;"/><path d="M159.679,127.056c-2.424,0 -2.175,4.128 0.249,4.128c2.447,0 2.175,-4.128 -0.249,-4.128Z" style="fill:#fff;fill-rule:nonzero;"/><path d="M215.756,202.778c-2.584,0 -2.312,4.396 0.271,4.396c2.583,-0 2.311,-4.396 -0.271,-4.396Z" style="fill:#fff;fill-rule:nonzero;"/><path d="M101.518,109.667c-1.767,0 -1.586,3.004 0.182,3.004c1.767,0 1.586,-3.004 -0.182,-3.004Z" style="fill:#fff;fill-rule:nonzero;"/><path d="M258.101,108.634c-2.311,-0 -2.061,3.913 0.227,3.913c2.311,-0 2.062,-3.913 -0.227,-3.913Z" style="fill:#fff;fill-rule:nonzero;"/></svg>