<?xml version="1.0" encoding="UTF-8" standalone="no"?><!DOCTYPE svg PUBLIC "-//W3C//DTD SVG 1.1//EN" "http://www.w3.org/Graphics/SVG/1.1/DTD/svg11.dtd"><svg width="100%" height="100%" viewBox="0 0 590 590" version="1.1" xmlns="http://www.w3.org/2000/svg" xmlns:xlink="http://www.w3.org/1999/xlink" xml:space="preserve" xmlns:serif="http://www.serif.com/" style="fill-rule:evenodd;clip-rule:evenodd;stroke-linejoin:round;stroke-miterlimit:2;"><rect id="Artboard4" x="-1831" y="-33" width="4285.86" height="2543.15" style="fill:none;"/><path d="M516.911,237.866c-9.063,39.471 -22.249,77.807 -37.679,115.553c-4.826,11.796 -10.376,22.062 -21.048,29.672c-19.621,13.984 -45.813,4.892 -65.003,-5.215c-15.611,-8.216 -30.157,-20.238 -47.15,-25.449c-16.584,-5.082 -34.71,-3.969 -51.25,0.662c-21.048,5.888 -40.125,17.131 -58.84,28.423c-23.971,14.469 -49.687,29.792 -76.49,37.946c-10.536,3.208 -21.661,5.313 -32.582,3.763c-16.086,-2.283 -26.531,-13.868 -36.522,-25.595c-9.834,-11.508 -19.327,-22.064 -25.988,-36.116c-4.622,-9.697 -8.089,-19.89 -10.309,-30.324c-2.379,-11.192 -2.968,-22.337 -2.855,-33.725c0.068,-6.709 0.023,-13.526 -1.676,-20.108c-1.518,-5.886 -4.079,-11.514 -6.979,-16.925c-14.772,-27.392 -32.49,-56.012 -11.509,-85.836c12.733,-18.067 32.444,-26.599 53.288,-31.709c18.036,-4.422 37.045,-7.712 52.157,-18.501c13.255,-9.476 18.987,-22.836 29.704,-34.729c10.83,-12.031 24.016,-21.905 38.381,-29.35c25.263,-13.098 55.441,-19.168 83.717,-20.768c29.704,-1.681 59.906,5.169 85.758,19.959c23.382,13.375 41.779,32.194 67.427,41.417c21.003,7.55 43.026,14.333 60.925,28.156c20.912,16.141 26.667,37.346 23.042,63.107c-2.175,15.416 -5.052,30.637 -8.519,45.692Z" style="fill:#202b59;fill-rule:nonzero;"/><path d="M393.181,167.94c-0,0 -1.065,-3.038 -3.127,-5.093c-2.039,-2.051 -5.188,-3.213 -5.188,-3.213c-0,-0 2.56,-0.308 5.188,-2.948c2.311,-2.295 3.127,-5.356 3.127,-5.356c-0,-0 0.543,3.195 2.65,5.288c2.085,2.098 5.642,3.016 5.642,3.016c0,-0 -2.854,0.351 -5.256,2.746c-2.379,2.395 -3.036,5.56 -3.036,5.56Z" style="fill:#fff;fill-rule:nonzero;"/><path d="M195.113,120.256c-0,-0 -0.612,-1.788 -1.836,-2.998c-1.2,-1.207 -3.036,-1.892 -3.036,-1.892c0,0 1.496,-0.181 3.036,-1.735c1.36,-1.35 1.836,-3.152 1.836,-3.152c-0,0 0.339,1.881 1.563,3.113c1.246,1.235 3.331,1.774 3.331,1.774c-0,0 -1.677,0.209 -3.104,1.618c-1.405,1.409 -1.79,3.272 -1.79,3.272Z" style="fill:#fff;fill-rule:nonzero;"/><path d="M65.537,255.983c0,0 -0.634,-1.788 -1.835,-2.998c-1.201,-1.207 -3.059,-1.889 -3.059,-1.889c-0,-0 1.496,-0.184 3.059,-1.738c1.359,-1.35 1.835,-3.152 1.835,-3.152c0,0 0.317,1.881 1.563,3.114c1.224,1.232 3.331,1.776 3.331,1.776c-0,-0 -1.699,0.206 -3.104,1.615c-1.405,1.41 -1.79,3.272 -1.79,3.272Z" style="fill:#fff;fill-rule:nonzero;"/><path d="M57.131,209.128c0,0 -0.951,-2.746 -2.809,-4.604c-1.858,-1.855 -4.69,-2.904 -4.69,-2.904c-0,-0 2.311,-0.279 4.69,-2.667c2.084,-2.075 2.809,-4.84 2.809,-4.84c0,0 0.522,2.887 2.402,4.783c1.903,1.892 5.12,2.724 5.12,2.724c0,-0 -2.582,0.317 -4.757,2.483c-2.176,2.166 -2.765,5.025 -2.765,5.025Z" style="fill:#fff;fill-rule:nonzero;"/><path d="M435.21,165.398c-0,-0 -0.068,-10.404 -3.082,-14.857c-2.447,-3.595 -7.205,-4.744 -7.205,-4.744c0,0 4.418,0.351 6.979,-3.031c3.376,-4.475 4.055,-17.294 4.055,-17.294c0,-0 0.861,11.634 3.354,16.249c2.22,4.076 6.162,4.076 6.162,4.076c0,0 -3.987,0.945 -6.615,4.744c-2.063,2.955 -3.648,14.857 -3.648,14.857Z" style="fill:#fff;fill-rule:nonzero;"/><path d="M254.973,151.126c-0,0 -0.838,-2.429 -2.492,-4.074c-1.632,-1.64 -4.147,-2.569 -4.147,-2.569c0,0 2.039,-0.249 4.147,-2.361c1.834,-1.835 2.492,-4.284 2.492,-4.284c-0,-0 0.453,2.555 2.129,4.232c1.677,1.677 4.509,2.413 4.509,2.413c-0,0 -2.288,0.279 -4.191,2.196c-1.926,1.914 -2.447,4.447 -2.447,4.447Z" style="fill:#fff;fill-rule:nonzero;"/><rect x="219.288" y="166.236" width="46.221" height="13.114" style="fill:#fff;fill-rule:nonzero;"/><rect x="279.918" y="166.236" width="57.481" height="13.114" style="fill:#36bfe3;fill-rule:nonzero;"/><rect x="180.295" y="266.638" width="59.747" height="13.116" style="fill:#36bfe3;fill-rule:nonzero;"/><rect x="150.932" y="233.453" width="30.383" height="13.116" style="fill:#aa80f9;fill-rule:nonzero;"/><rect x="251.257" y="266.638" width="66.249" height="13.116" style="fill:#36bfe3;fill-rule:nonzero;"/><rect x="227.24" y="204.817" width="58.478" height="13.116" style="fill:#36bfe3;fill-rule:nonzero;"/><rect x="200.007" y="233.453" width="58.478" height="13.116" style="fill:#36bfe3;fill-rule:nonzero;"/><rect x="128.637" y="322.839" width="78.983" height="13.116" style="fill:#aa80f9;fill-rule:nonzero;"/><rect x="128.093" y="166.236" width="78.983" height="13.114" style="fill:#aa80f9;fill-rule:nonzero;"/><rect x="129.158" y="204.683" width="83.673" height="13.116" style="fill:#36bfe3;fill-rule:nonzero;"/><path d="M115.654,172.793c0,3.693 -2.991,6.691 -6.683,6.691c-3.716,-0 -6.707,-2.998 -6.707,-6.691c0,-3.695 2.991,-6.693 6.707,-6.693c3.692,0 6.683,2.998 6.683,6.693Z" style="fill:#36bfe3;fill-rule:nonzero;"/><path d="M115.654,211.376c0,3.695 -2.991,6.69 -6.683,6.69c-3.716,0 -6.707,-2.995 -6.707,-6.69c0,-3.698 2.991,-6.693 6.707,-6.693c3.692,-0 6.683,2.995 6.683,6.693Z" style="fill:#36bfe3;fill-rule:nonzero;"/><path d="M115.654,240.012c0,3.695 -2.991,6.691 -6.683,6.691c-3.716,-0 -6.707,-2.996 -6.707,-6.691c0,-3.698 2.991,-6.693 6.707,-6.693c3.692,0 6.683,2.995 6.683,6.693Z" style="fill:#36bfe3;fill-rule:nonzero;"/><path d="M115.654,273.195c0,3.696 -2.991,6.693 -6.683,6.693c-3.716,0 -6.707,-2.997 -6.707,-6.693c0,-3.693 2.991,-6.692 6.707,-6.692c3.692,-0 6.683,2.999 6.683,6.692Z" style="fill:#36bfe3;fill-rule:nonzero;"/><path d="M115.654,329.396c0,3.698 -2.991,6.693 -6.683,6.693c-3.716,0 -6.707,-2.995 -6.707,-6.693c0,-3.697 2.991,-6.692 6.707,-6.692c3.692,-0 6.683,2.995 6.683,6.692Z" style="fill:#36bfe3;fill-rule:nonzero;"/><path d="M108.971,330.98l-16.948,0l0,-159.175l16.948,0l-0,1.976l-14.977,0l0,155.223l14.977,0l-0,1.976Z" style="fill:#36bfe3;fill-rule:nonzero;"/><rect x="92.612" y="210.386" width="16.358" height="1.976" style="fill:#36d7be;fill-rule:nonzero;"/><rect x="93.201" y="239.024" width="16.336" height="1.976" style="fill:#36d7be;fill-rule:nonzero;"/><rect x="92.612" y="272.208" width="16.358" height="1.978" style="fill:#36d7be;fill-rule:nonzero;"/><path d="M210.27,362.405c-6.23,3.528 -13.254,5.98 -20.029,8.551c4.487,10.153 8.996,20.326 13.346,30.521c1.336,3.154 3.081,5.438 -0.567,7.244c-3.036,1.495 -6.095,2.948 -9.176,4.382c-0.589,0.269 -1.156,0.539 -1.745,0.809c-10.444,4.814 -21.048,9.402 -31.402,14.489c-2.13,1.04 -4.237,2.118 -6.367,3.219c-3.739,-7.535 -7.341,-15.134 -10.853,-22.795c-2.855,-6.187 -5.619,-12.375 -8.337,-18.604c2.492,-1.015 5.007,-2.032 7.521,-3.029c6.276,-2.51 12.552,-4.982 18.806,-7.495c8.089,-3.217 16.155,-6.477 24.265,-9.654c0.68,-0.27 1.36,-0.539 2.04,-0.831c-0.045,-0.642 0.861,-0.952 1.359,-0.537c6.707,-2.762 13.527,-5.814 20.505,-7.495c0.725,-0.188 1.359,0.809 0.634,1.225Z" style="fill:#ffc5c5;fill-rule:nonzero;"/><path d="M407.092,350.674c-0.385,2.034 -1.314,3.819 -2.538,5.46c0.544,5.689 -0.543,11.376 -2.854,16.546c-2.13,4.838 -5.28,9.24 -9.063,12.79c-9.108,8.594 -21.479,12.91 -33.555,12.478c-6.186,-0.209 -12.28,-1.641 -17.967,-4.256c-2.198,-1.019 -4.305,-2.161 -6.435,-3.366c-2.016,-1.142 -3.988,-2.325 -6.004,-3.444c-2.062,-1.185 -4.192,-2.304 -6.367,-3.281c-6.888,-3.072 -14.341,-4.901 -21.615,-6.605c-1.744,-0.414 -3.511,-0.765 -5.278,-0.994c-1.722,-0.229 -3.444,-0.354 -5.212,-0.31c-0.317,-0 -0.657,-0 -0.996,0.02c-3.671,0.186 -7.296,0.913 -10.921,1.64c-1.495,0.311 -2.991,0.623 -4.486,0.934c-0.974,0.208 -1.926,0.414 -2.855,0.623c-1.473,0.31 -2.946,0.623 -4.395,0.956c-1.564,0.331 -3.422,0.478 -4.872,1.203c-1.586,0.809 -2.084,2.554 -2.764,4.173c-2.062,4.899 -4.826,10.067 -9.267,12.892c-4.984,3.156 -10.694,0.748 -15.792,2.887c-0.385,0.143 -0.747,0.331 -1.11,0.539c-1.11,0.664 -1.677,1.079 -2.243,1.557c-3.92,3.113 -6.684,7.848 -9.652,11.917c-3.353,4.588 -7.658,9.342 -13.163,10.712c-2.787,0.685 -5.461,0.27 -8.112,-0.79c-2.945,-1.14 -5.687,-2.946 -8.904,-2.989c-7.228,-0.124 -12.733,6.041 -17.604,10.921c-1.7,1.702 -3.988,4.878 -6.617,4.568c-2.56,-0.313 -3.443,-3.78 -4.35,-5.896c-0.453,-1.06 -0.906,-2.098 -1.404,-3.158c-0.771,-1.826 -1.564,-3.652 -2.379,-5.481c-5.416,-12.33 -10.559,-24.019 -15.657,-35.728c-0.475,-1.121 0.136,-1.889 0.748,-2.222c18.035,-9.446 36.093,-18.933 53.879,-28.94c8.995,-5.064 17.921,-10.275 26.69,-15.715c6.57,-4.049 13.05,-8.223 19.462,-12.541c7.137,-4.794 14.161,-9.756 21.525,-14.138c3.579,-2.136 7.204,-4.13 10.943,-5.893c3.421,-1.6 7.069,-3.469 10.875,-3.324c3.897,0.125 7.703,2.243 11.283,3.759c4.35,1.847 8.701,3.716 13.051,5.519c8.451,3.51 16.925,7.019 25.33,10.631c6.322,2.742 12.688,5.587 18.715,9.095c1.292,0.747 2.561,1.536 3.829,2.347c1.971,1.264 4.01,3.154 6.186,4.565c1.042,-0.455 2.061,-0.913 3.058,-1.411c4.622,-2.409 8.406,-4.568 12.099,-6.956c3.58,-2.284 7.069,-4.733 10.536,-7.203c1.382,-0.997 2.945,-2.139 4.758,-1.681c1.767,0.455 2.628,2.076 3.466,3.548c2.198,3.779 4.192,7.744 5.823,11.773c1.586,3.883 3.036,8.075 2.175,12.269Z" style="fill:#202b59;fill-rule:nonzero;"/><path d="M245.661,370.252c-0.023,-0.485 -0.635,-0.957 -1.11,-0.58c-13.074,10.379 -24.538,23.169 -34.915,36.208c-2.425,3.07 -4.849,6.745 -8.565,8.449c-4.463,2.075 -7.182,-2.148 -9.946,-5.073c-4.282,-4.486 -10.785,-5.474 -16.63,-3.689c-7.613,2.345 -13.096,8.234 -17.401,14.587c0.114,0.229 0.771,1.98 0.861,2.186c5.188,-5.211 10.128,-11.897 17.695,-14.077c3.671,-1.035 7.839,-1.058 11.261,0.811c3.036,1.681 4.644,4.919 7.477,6.87c5.46,3.782 11.011,-0.954 14.478,-5.145c5.369,-6.521 10.649,-13.083 16.449,-19.268c6.547,-7.037 13.616,-13.556 20.527,-20.242c0.34,-0.324 0.158,-0.806 -0.181,-1.037Z" style="fill:#fff;fill-rule:nonzero;"/><path d="M283.09,448.416c-0.929,-0.147 -1.858,-0.292 -2.81,-0.415c-14.5,-2.077 -29.091,-3.55 -43.727,-4.422c-0.272,-2.658 -0.567,-5.295 -0.839,-7.951c-0.521,-4.839 -0.997,-9.676 -1.472,-14.493c-0.476,-4.629 -0.952,-9.258 -1.428,-13.907c-0.498,0.061 -0.635,-0.521 -0.272,-0.603c0.046,-1.62 -0.113,-3.199 -0.272,-4.774c-0.521,-5.338 -1.019,-10.694 -1.427,-16.03c-0.091,-0.933 -0.159,-1.846 -0.204,-2.782c-0.317,-3.944 -0.567,-7.869 -0.748,-11.811c0.816,3.591 1.292,7.203 1.745,10.816c0.136,0.871 0.249,1.743 0.34,2.638c0.657,5.437 1.291,10.877 1.88,16.338c0.181,1.785 0.386,3.571 0.566,5.356c15,-0.354 28.232,-0.832 41.44,-0.498c0.862,0.188 1.156,0.561 1.247,1.098c0.679,4.07 1.405,8.118 2.129,12.167c0.839,4.817 1.654,9.611 2.266,14.471c0.227,1.516 0.408,3.03 0.566,4.545c0.409,3.406 0.726,6.831 1.02,10.257Z" style="fill:#ffc5c5;fill-rule:nonzero;"/><path d="M284.472,487.28c-4.214,4.11 -8.451,8.222 -12.71,12.332c-1.836,1.765 -3.648,3.591 -6.322,3.84c-2.424,0.229 -5.029,-0.269 -7.477,-0.539c-4.735,-0.541 -9.493,-1.205 -14.228,-2.014c-9.788,-1.661 -19.463,-3.881 -28.979,-6.664c-1.925,-0.561 -5.437,-0.978 -6.683,-2.741c-1.247,-1.765 -0.227,-4.756 -0.091,-6.747c0.227,-3.551 -0.114,-7.142 -0.997,-10.588c-1.133,-4.359 -3.059,-8.428 -5.664,-12.001c3.919,0.022 7.794,0.5 11.668,1.373c0.34,0.081 0.702,0.165 1.042,0.226c1.088,0.252 2.176,0.499 3.24,0.705c1.971,0.374 3.897,0.646 5.8,0.666c1.066,0.023 2.108,-0.061 3.127,-0.249c2.153,-0.354 4.215,-1.163 6.208,-2.678c0.816,-0.621 1.246,-1.018 1.654,-1.412c1.518,-1.475 2.764,-3.197 3.784,-5.066c-0.046,-0.498 -0.09,-0.995 -0.158,-1.493c3.171,0.394 6.366,0.809 9.538,1.348c8.224,1.391 16.404,3.113 24.583,4.733c4.055,0.809 8.156,1.62 12.235,2.347c0.407,8.2 0.543,16.422 0.43,24.622Z" style="fill:#202b59;fill-rule:nonzero;"/><path d="M436.297,378.161c-0.68,2.307 -1.427,4.59 -2.243,6.831c-1.835,5.191 -3.92,10.296 -6.321,15.26c-0.136,0.269 -0.272,0.559 -0.408,0.829c-1.292,2.658 -2.696,5.252 -4.169,7.805c-3.738,6.582 -8.044,12.872 -12.801,18.769c-12.371,15.423 -32.038,30.914 -52.723,22.068c-9.902,-4.214 -17.764,-12.456 -24.561,-20.531c-7.839,-9.24 -14.341,-19.474 -21.161,-29.459c-5.438,-7.953 -10.966,-15.842 -16.494,-23.731c-1.994,-2.866 -4.011,-5.75 -6.027,-8.637c-3.354,-4.796 -6.684,-9.611 -9.992,-14.448c1.563,7.225 6.684,13.202 9.697,19.949c0.408,0.916 0.793,1.849 1.11,2.826c0.952,2.553 1.564,5.272 1.541,7.991c-0,3.781 -1.336,6.727 -3.353,9.842c-1.473,2.261 -2.334,4.277 -0.612,6.663c1.201,1.681 2.629,3.095 3.693,4.878c1.677,2.866 2.81,6.043 3.331,9.344c0.589,3.675 0.385,7.536 -0.657,11.127c-1.247,4.216 -4.804,8.512 -3.512,13.057c0.272,0.997 -0.657,1.684 -1.541,1.371c-2.311,-0.786 -4.645,-1.371 -7.024,-1.806c-0.747,-0.142 -1.495,-0.269 -2.243,-0.374c-0.883,-0.122 -1.79,-0.247 -2.673,-0.33c-4.418,-0.479 -8.881,-0.644 -13.277,-0.873c-8.814,-0.478 -17.446,-0.602 -26.237,-0.165c-0.68,0.02 -1.45,-0.272 -1.926,-0.789c-0.249,-0.231 -0.408,-0.521 -0.498,-0.851c-1.564,-6.313 -2.198,-12.872 -3.082,-19.329c-0.566,-4.11 -1.11,-8.22 -1.631,-12.332c-0.294,-2.139 -0.567,-4.278 -0.838,-6.437c-0.34,-2.844 -0.703,-5.71 -1.042,-8.574c-0.114,-0.913 -0.227,-1.805 -0.318,-2.698c-1.767,-14.99 -3.194,-30.041 -4.327,-45.092c-0.318,-4.133 -0.589,-8.263 -0.861,-12.394c-0.385,-5.773 -0.612,-11.544 -0.748,-17.316c-0.543,-21.3 12.122,-47.023 34.779,-51.672c15.067,-3.095 29.137,5.501 40.986,13.785c12.507,8.738 23.677,19.12 33.465,30.768c8.201,9.715 15.498,20.137 23.563,29.937c1.314,1.638 2.697,3.237 4.078,4.837c2.425,2.802 4.985,5.501 7.613,8.095c1.45,1.414 2.945,2.783 4.441,4.112c1.11,0.954 2.9,3.113 4.282,2.905c1.541,-0.227 3.331,-1.742 4.781,-2.864c0.362,-0.292 0.68,-0.539 0.997,-0.748l5.098,-3.486c3.104,-2.098 6.185,-4.197 9.266,-6.313c2.175,-2.284 5.755,-2.698 8.814,-1.661c4.124,1.58 6.367,5.026 8.36,8.388c0.408,0.707 0.816,1.412 1.224,2.076c0.793,1.33 1.654,2.614 2.583,3.84c0.951,1.246 1.948,2.431 3.036,3.55c2.107,2.18 4.44,4.092 7.046,5.71c3.67,2.261 10.037,3.426 10.853,8.428c0.43,2.658 -0.589,5.379 -1.337,7.869Z" style="fill:#202b59;fill-rule:nonzero;"/><path d="M279.669,432.95c0.045,1.577 0.226,3.215 0.158,4.835c-0.883,-0.124 -1.79,-0.247 -2.673,-0.33c-0.25,-2.284 -0.091,-4.733 -0.159,-6.913c-0.091,-3.26 -0.226,-6.518 -0.317,-9.779c-0.204,-6.518 -0.022,-13.225 -0.951,-19.682c-1.224,-8.678 -7.976,-19.018 -3.127,-27.61c1.087,-1.91 3.648,-3.738 3.897,-5.981c0.204,-1.763 -1.269,-3.073 -2.492,-4.11c-2.561,-2.244 -5.755,-4.38 -6.163,-8.078c-0.476,-4.669 3.036,-8.365 6.095,-11.373c1.722,-1.704 3.602,-3.469 4.486,-5.776c0.951,-2.51 0.294,-5.043 -0.771,-7.388c-1.54,-3.365 -5.346,-7.62 -5.007,-11.544c0.091,-1.226 0.703,-2.284 2.039,-2.284c0.952,0.021 1.609,0.521 1.677,1.455c-1.609,-1.122 -1.11,2.098 -0.884,2.739c0.227,0.625 0.544,1.246 0.861,1.849c0.566,1.058 1.178,2.096 1.767,3.154c1.111,1.889 2.221,3.842 2.878,5.938c1.223,3.924 0.227,7.599 -2.311,10.753c-2.742,3.408 -7.635,6.333 -8.066,11.088c-0.385,4.049 4.078,6.061 6.457,8.574c1.904,1.973 2.855,4.547 1.609,7.182c-0.838,1.808 -2.447,3.115 -3.49,4.797c-1.223,1.973 -1.631,4.234 -1.517,6.539c0.226,4.671 2.062,9.135 3.33,13.578c1.292,4.527 1.745,9.052 1.904,13.744c0.181,5.46 0.339,10.92 0.521,16.381c0.068,2.762 0.158,5.501 0.249,8.242Z" style="fill:#fff;fill-rule:nonzero;"/><path d="M419.304,375.012c-6.547,11.84 -14.545,22.818 -23.88,32.617c-4.6,4.819 -9.471,9.919 -15.044,13.619c-6.231,4.133 -12.553,3.158 -18.262,-1.321c-5.121,-4.026 -9.335,-9.271 -13.685,-14.086c-4.962,-5.469 -9.833,-10.995 -14.659,-16.576c-9.357,-10.825 -18.488,-21.852 -27.37,-33.065c-10.105,-12.752 -19.598,-25.981 -29.658,-38.753c-0.68,-0.854 -2.017,0.02 -1.405,0.952c8.474,13.036 18.239,25.4 27.869,37.599c9.493,11.99 19.235,23.767 29.25,35.313c4.985,5.73 10.014,11.404 15.112,17.02c4.486,4.944 8.836,10.447 14.342,14.31c4.735,3.315 10.332,4.897 15.86,2.608c5.913,-2.442 10.784,-7.61 15.248,-12.022c11.125,-10.993 20.55,-23.633 28.027,-37.368c0.612,-1.103 -1.133,-1.942 -1.745,-0.847Z" style="fill:#fff;fill-rule:nonzero;"/><path d="M380.425,183.954c-2.04,-2.139 -4.781,-3.383 -7.409,-4.629c-1.292,-0.623 -2.583,-1.201 -3.897,-1.794c0.747,-2.601 0.997,-5.273 0.158,-7.989c-1.245,-3.995 -4.01,-6.77 -6.842,-9.704c-4.146,-4.321 -9.674,-11.363 -16.313,-11.476c-2.968,-0.623 -6.117,-0.222 -8.972,0.881c-3.24,1.264 -5.936,3.455 -7.771,6.428c-0.862,1.405 -1.428,2.819 -1.722,4.271c-0.567,-1.332 -0.997,-2.712 -1.247,-4.14c-0.77,-4.524 -0.702,-9.364 -0.249,-13.87c0.34,-3.487 0.975,-6.376 -0.725,-9.57c-3.829,-7.33 -10.536,-1.12 -13.322,3.283c-3.716,5.895 -4.033,13.311 -2.787,20.121c0.77,4.192 1.608,8.155 3.671,11.87c1.268,2.243 2.718,4.756 4.508,6.831c3.263,5.669 7.953,9.759 13.028,13.953c3.285,2.7 7.703,7.012 11.465,9.765c0.86,0.625 0.747,-0.798 1.744,-0.299c-0.408,1.472 -0.884,2.907 -1.405,4.359c-1.223,3.342 -1.926,7.744 1.541,10.028c1.631,1.078 3.761,1.246 5.619,1.597c2.628,0.501 5.234,0.997 7.862,1.496c2.515,0.478 4.985,0.956 7.477,1.411c2.243,0.415 4.622,1.081 6.933,0.997c4.645,-0.188 5.551,-4.817 6.547,-8.512c1.088,-3.945 1.904,-7.994 2.425,-12.063c2.198,-4.316 3.353,-9.403 -0.317,-13.245Z" style="fill:#ffc5c5;fill-rule:nonzero;"/><path d="M379.813,182.314c-2.492,-2.753 -5.664,-4.199 -9.153,-5.227c-1.858,-0.542 -3.739,-0.973 -5.551,-1.652c-1.7,-0.644 -3.059,-1.665 -4.554,-2.628c-0.499,-0.313 -0.907,0.371 -0.68,0.781c1.45,2.604 5.03,3.75 7.726,4.548c3.625,1.071 7.205,1.935 10.037,4.604c1.495,1.397 2.719,3.16 3.399,5.095c0.724,2.053 0.521,4.087 0.135,6.186c-0.656,3.679 -2.039,7.236 -1.404,11.024c0.091,0.515 0.906,0.485 0.838,-0.052c-0.499,-4.404 2.107,-8.152 2.674,-12.393c0.498,-3.85 -0.907,-7.432 -3.467,-10.286Z" style="fill:#fff;fill-rule:nonzero;"/><path d="M370.433,167.464c-1.133,-3.598 -3.693,-6.308 -6.548,-8.662c-1.586,-1.719 -2.719,-2.735 -3.942,-3.6c-2.22,-2.431 -4.237,-4.264 -6.526,-5.771c-3.829,-2.522 -8.541,-4.117 -13.14,-3.129c-4.26,0.913 -7.613,3.913 -10.196,7.271c-0.816,1.04 -1.677,2.202 -2.515,3.435c-1.881,-3.977 -1.314,-8.481 -0.725,-12.774c0.498,-3.725 1.359,-8.216 -0.295,-11.786c-1.246,-2.697 -4.033,-4.004 -6.933,-3.732c-3.285,0.308 -5.845,2.544 -7.567,5.252c-9.289,14.566 -1.7,33.784 8.36,45.636c6.661,7.839 14.818,13.886 23.111,19.884c-11.51,-9.874 -24.493,-20.084 -30.542,-34.455c-3.014,-7.191 -4.237,-15.359 -2.379,-23.013c0.928,-3.765 2.582,-8.118 5.913,-10.397c1.541,-1.056 3.557,-1.491 5.393,-1.022c2.605,0.666 3.512,3.138 3.715,5.556c0.703,7.655 -3.262,15.42 0.861,22.559c-1.337,2.239 -2.356,4.643 -2.379,7.001c0,0.379 0.612,0.512 0.748,0.145c1.382,-3.92 4.214,-7.701 6.775,-10.964c2.424,-3.09 5.505,-5.931 9.515,-6.6c4.781,-0.799 9.448,1.371 13.142,4.244c-2.855,-0.648 -6.005,-0.612 -9.018,0.41c-3.24,1.097 -6.072,3.183 -8.089,5.934c-1.064,1.459 -1.926,3.038 -2.809,4.606c-0.793,1.392 -2.538,3.462 -2.402,5.107c1.201,-0.426 1.836,-1.892 2.47,-2.886c0.951,-1.464 1.881,-2.939 2.855,-4.387c1.881,-2.8 4.191,-5.098 7.363,-6.382c4.464,-1.813 9.38,-1.242 13.322,1.185c-1.291,0.161 -2.582,0.639 -3.67,1.13c-3.217,1.457 -5.936,3.875 -7.93,6.772c-1.269,1.827 -2.333,3.821 -3.059,5.921c-0.702,1.98 -1.427,4.08 -1.404,6.19c-0,0.58 0.815,0.684 1.065,0.208c0.951,-1.901 1.427,-4.019 2.265,-5.977c0.816,-1.892 1.7,-3.738 2.901,-5.415c2.288,-3.151 5.505,-5.753 9.334,-6.668c1.269,-0.303 2.198,-0.226 3.24,0.544c0.816,0.603 1.609,1.273 2.379,1.931c1.564,1.332 3.036,2.766 4.146,4.522c2.175,3.509 2.448,7.998 0.861,11.788c-0.521,1.208 1.337,2.105 1.835,0.888c1.383,-3.335 1.609,-7.044 0.499,-10.499Z" style="fill:#fff;fill-rule:nonzero;"/><path d="M468.946,286.173c-2.062,0.664 -4.101,1.287 -6.14,1.908c-0.476,0.852 -0.952,1.704 -1.473,2.533c-1.087,1.641 -3.783,0.415 -2.968,-1.244c-14.297,4.088 -28.774,7.328 -43.411,10.191c-8.202,1.621 -16.449,3.302 -24.719,4.65c-7.363,1.185 -14.84,1.744 -22.249,0.625c-13.594,-2.078 -26.464,-9.26 -34.394,-20.636c-3.692,-5.293 -6.253,-11.358 -7.453,-17.69c-1.451,-7.534 -0.477,-14.945 1.563,-22.275c3.897,-14.138 8.496,-28.215 13.843,-41.854c-0.385,-3.716 0.045,-8.202 4.826,-7.91c2.221,0.125 4.396,0.997 6.571,1.455c0.634,-0.023 1.269,-0.043 1.88,-0.063c3.399,-0.041 6.775,0.457 10.151,0.829c1.812,0.21 3.602,0.457 5.414,0.686c1.36,-0.023 2.697,0.021 3.988,0.435c1.133,0.209 2.017,0.313 2.923,0.437c1.178,0.168 1.903,1.432 1.699,2.534c-0.136,0.747 -0.317,1.472 -0.521,2.199c0.204,1.722 0.136,2.762 0.114,3.673c-0,2.014 -0.046,4.008 -0.091,6.002c-0.045,4.339 -0,8.678 -0,13.017c-0,1.95 -0.453,4.547 0.272,6.393c0.702,1.806 2.696,2.223 4.055,3.51c4.305,4.194 0.861,9.176 -1.563,13.639c7.885,-3.115 16.494,-3.735 24.9,-4.567c10.038,-0.977 20.074,-2.096 30.134,-2.948c8.564,-0.727 16.064,0.936 21.977,7.495c8.406,9.342 10.559,23.21 6.299,34.835c1.11,-0.331 2.22,-0.6 3.331,-0.933c1.994,-0.623 3.036,2.429 1.042,3.074Z" style="fill:#aa80f9;fill-rule:nonzero;"/><path d="M506.715,335.686c-1.382,8.822 -3.217,17.605 -5.483,26.259c-3.67,14.036 -7.454,29.606 -21.57,36.499c-3.398,1.66 -6.955,2.907 -10.376,4.506c-3.829,1.786 -7.296,4.171 -10.785,6.539c-3.444,2.345 -7.137,4.692 -11.08,6.228c-3.103,1.226 -6.366,1.931 -9.764,1.743c-6.752,-0.374 -11.193,-3.818 -14.501,-8.574c-4.191,-6.02 -6.57,-14.074 -9.584,-20.634c-0.34,-0.729 -0.657,-1.454 -1.019,-2.14c-0.25,-0.479 -0.499,-0.934 -0.748,-1.369c-2.062,-3.675 -4.849,-6.727 -7.817,-9.718c-0.77,-0.766 -1.54,-1.556 -2.288,-2.345c-2.311,-2.345 -4.577,-4.733 -6.843,-7.1l-14.5,-15.072l-4.531,-4.713c-2.289,-2.365 -4.736,-4.712 -6.843,-7.268c-2.764,-3.342 -4.939,-7.035 -5.37,-11.582c-0.589,-6.727 1.677,-13.64 5.483,-19.123c0.408,-0.557 0.793,-1.078 1.201,-1.595c0.272,-0.356 0.567,-0.689 0.884,-1.019c3.829,-4.36 8.79,-7.371 14.342,-9.26c5.12,-1.745 10.376,-2.823 15.271,-4.899c1.381,-0.602 2.718,-1.266 4.033,-2.075c1.631,-1.02 2.152,-1.373 2.65,-1.765c2.696,-2.075 5.415,-4.797 8.247,-7.515c0.612,-0.583 0.862,-0.832 1.133,-1.102c0.408,-0.394 0.635,-0.602 0.861,-0.808c2.696,-2.534 5.529,-4.985 8.519,-6.832c0.431,-0.269 0.884,-0.539 1.337,-0.768c2.696,-1.472 5.529,-2.428 8.564,-2.512c0.476,-0.021 0.952,-0.021 1.405,-0c2.47,-1.203 4.147,-2.262 5.982,-3.05c1.45,-0.625 2.968,-1.06 4.486,-1.371c0.906,-0.147 1.291,-0.206 1.653,-0.249c0.771,-0.104 1.542,-0.168 2.334,-0.188c3.626,-0.145 7.273,0.394 10.785,1.287c0.816,0.208 1.654,0.437 2.493,0.687c4.893,1.493 9.017,2.968 13.005,4.689c2.877,1.249 5.664,2.617 8.36,4.11c1.609,0.916 3.172,1.913 4.645,2.993c1.586,1.204 2.56,1.992 3.489,2.844c2.016,1.806 3.829,3.82 5.392,6.04c0.295,0.354 0.544,0.727 0.771,1.101c0.385,0.583 0.77,1.183 1.11,1.783c3.715,6.437 5.664,13.744 6.299,21.115c0.09,0.976 0.136,1.744 0.158,2.492c0.431,7.93 -0.521,15.903 -1.79,23.731Z" style="fill:#aa80f9;fill-rule:nonzero;"/><path d="M554.862,263.75c-1.519,4.565 -3.376,9.092 -6.276,13.098c-2.742,3.736 -6.322,6.831 -10.876,8.7c-2.9,1.162 -5.573,1.763 -8.338,2.076c-1.473,0.188 -2.968,0.269 -4.463,0.292c-1.745,0.038 -3.218,-0 -4.645,-0.084c-5.37,-0.31 -10.694,-1.287 -16.041,-1.93c-1.246,-0.168 -2.492,-0.313 -3.738,-0.417c-6.208,-0.499 -12.009,0.249 -17.832,0.5c-1.065,0.039 -2.129,0.082 -3.194,0.082c-1.11,0 -2.243,-0.023 -3.353,-0.082c-2.085,-0.083 -4.124,-0.271 -6.186,-0.562c-0.77,-0.124 -1.473,-0.249 -2.175,-0.373c-2.243,-0.374 -4.441,-0.873 -6.639,-1.473c-3.035,-0.852 -6.344,-1.849 -9.402,-3.179c-0.453,-0.208 -0.884,-0.415 -1.292,-0.621c-2.175,-1.08 -3.738,-2.055 -5.143,-3.219c-1.925,-1.618 -3.353,-3.696 -4.418,-5.916c-0.408,-0.313 -0.816,-0.623 -1.201,-0.936c-1.11,-0.953 -1.631,-1.472 -2.107,-2.034c-0.77,-0.934 -1.45,-1.951 -1.903,-3.032c-0.181,-0.394 -0.34,-0.786 -0.43,-1.203c-0.317,-1.371 -0.408,-2.18 -0.385,-2.988c0.09,-1.308 0.203,-1.933 0.362,-2.554c0.272,-1.164 0.702,-2.306 1.269,-3.426c0.951,-1.91 2.243,-3.718 3.602,-5.358c0.589,-0.664 0.793,-0.911 1.02,-1.142c1.767,-1.991 3.715,-3.881 5.8,-5.644c0.295,-0.228 0.566,-0.478 0.884,-0.707c6.638,-5.48 14.5,-9.819 22.521,-13.453c3.262,-1.473 6.48,-2.844 9.765,-4.153c0.317,-0.145 0.634,-0.268 0.951,-0.374c3.467,-1.389 6.956,-2.676 10.514,-3.861c4.35,-1.43 8.768,-2.678 13.208,-3.652c0.862,-0.186 1.7,-0.354 2.561,-0.519c1.563,-0.293 3.149,-0.542 4.757,-0.748c1.972,-0.249 3.965,-0.435 5.96,-0.521c5.845,-0.288 11.713,0.186 17.241,1.788c0.839,0.206 1.654,0.475 2.47,0.788c0.974,0.311 1.949,0.705 2.878,1.12c2.56,1.141 4.961,2.68 6.525,4.859c1.45,2.055 2.175,4.464 3.013,6.768c2.062,5.773 4.577,11.544 6.027,17.48c1.405,5.709 0.566,11.045 -1.291,16.61Z" style="fill:#aa80f9;fill-rule:nonzero;"/><path d="M532.431,225.851c-0.113,0.064 -0.204,1.72 -0.317,1.786c0.091,-0.315 0.159,-2.23 0.204,-2.54c0.045,-0.32 0.09,-0.639 0.135,-0.956c3.852,-6.394 3.762,-14.949 1.722,-22.08c-2.922,-10.29 -8.949,-21.651 -17.355,-28.389c-8.949,-7.193 -21.547,-10.039 -32.694,-11.02c-11.668,-1.022 -23.631,0.387 -34.439,5.055c-19.19,8.287 -33.804,26.202 -34.461,47.74c-0.317,10.678 2.968,21.445 9.788,29.688c6.548,7.921 16.676,13.143 27.098,14.546c6.615,0.888 15.248,-2.606 21.819,-5.2c6.978,-2.778 12.778,-6.274 19.757,-9.074c7.318,-2.914 14.591,-4.471 21.909,-7.409c6.344,-2.551 12.393,-3.267 16.788,-8.703c0.68,-0.845 0.975,-4.037 0.046,-3.444Z" style="fill:#fff;fill-rule:nonzero;"/><path d="M537.778,204.739c-0.77,-9.522 -4.26,-18.809 -10.445,-25.749c-4.577,-5.146 -10.331,-9.346 -16.472,-12.43c-13.345,-6.688 -29.114,-8.823 -43.818,-6.441c-14.75,2.395 -28.526,9.192 -38.699,20.275c-9.561,10.445 -15.565,24.078 -16.222,38.273c-0.317,7.279 1.065,14.899 4.622,21.313c3.127,5.637 8.904,12.353 15.996,11.693c0.997,-0.095 1.382,-1.298 0.657,-1.966c-4.033,-3.77 -8.338,-6.688 -10.853,-11.804c-2.537,-5.155 -3.738,-10.812 -3.806,-16.538c-0.114,-12.448 4.894,-24.63 12.733,-34.164c17.174,-20.876 47.648,-26.416 72.276,-16.565c6.435,2.572 12.393,6.12 17.469,10.878c6.571,6.194 10.218,14.786 10.943,23.581c0.725,8.675 -0.997,17.761 -4.939,25.532c-1.314,2.638 2.537,4.303 4.033,1.942c5.143,-8.002 7.296,-18.044 6.525,-27.83Z" style="fill:#36bfe3;fill-rule:nonzero;"/><path d="M521.17,234.311c-1.336,1.351 -0.792,1.951 -1.042,3.759c-0.249,1.679 -1.019,3.299 -2.22,4.504c-1.768,1.763 -4.169,2.409 -6.526,2.099c1.292,2.406 -2.061,5.686 -4.009,7.118c-3.399,2.513 -8.429,5.338 -12.734,3.718c-0.453,4.566 -6.412,4.4 -9.743,2.656c-4.712,-2.47 -7.589,-7.348 -9.447,-12.144c-2.697,-6.872 -3.784,-14.222 -6.186,-21.155c-2.243,-6.478 -5.868,-12.396 -7.069,-19.184c0.091,-3.052 0.612,-5.687 2.628,-7.35c1.722,-1.412 4.011,-1.765 6.004,-0.913c0.658,-2.905 2.561,-5.834 5.937,-5.44c0.679,0.063 1.133,0.437 1.744,0.582c0.884,0.188 1.111,-0.165 2.039,-0.663c1.609,-0.83 3.376,-1.224 5.144,-1.412c4.033,-0.437 9.583,-0.519 13.209,1.556c2.265,1.287 3.67,3.694 3.33,6.188c1.79,-0.208 3.444,1.119 4.622,2.594c0.748,0.934 1.314,2.991 2.153,3.571c0.702,0.478 1.857,0.435 2.65,0.956c4.147,2.678 8.474,9.507 5.71,14.304c6.14,1.971 8.723,9.779 3.806,14.656Z" style="fill:#202b59;fill-rule:nonzero;"/><path d="M507.826,224.718c-1.111,6.707 -5.823,12.228 -10.446,16.943c-4.259,4.36 -9.425,8.429 -15.565,9.487c-4.01,0.684 -8.156,0.333 -11.736,-1.389c-1.722,0.082 -3.444,-0.124 -5.144,-0.437c-2.469,-0.458 -4.939,-0.977 -7.318,-1.704c-4.259,-1.287 -8.496,-3.423 -10.785,-7.411c-2.605,-4.545 -1.88,-10.069 -0.181,-14.782c0.997,-2.718 2.266,-5.376 3.557,-7.97c0.975,-1.87 1.813,-3.988 2.991,-5.773c0.363,-2.47 0.182,-5.73 3.014,-6.27c0.521,-0.104 0.974,-0.02 1.45,0.209c1.291,0.582 1.971,1.246 3.511,0.933c2.221,-0.455 3.875,-2.304 5.619,-3.571c5.597,-4.048 12.62,-5.584 19.327,-4.048c3.172,-0.832 7.001,0.935 9.652,2.388c2.855,1.597 5.415,3.738 7.409,6.332c3.783,4.899 5.664,10.921 4.645,17.063Z" style="fill:#ffc5c5;fill-rule:nonzero;"/><path d="M488.25,265.515c-0.046,2.075 -3.036,2.284 -4.487,2.635c-3.058,0.77 -6.094,1.516 -9.153,2.161c-1.541,0.333 -3.081,0.664 -4.599,0.997c-1.043,0.206 -2.288,0.662 -3.376,0.56c-2.153,-0.229 -2.538,-2.823 -2.991,-4.484c-0.816,-2.927 -1.563,-5.877 -2.22,-8.845c-1.201,-5.252 -2.153,-10.567 -2.946,-15.901c-1.064,0.104 -1.178,-1.434 -0.249,-1.747c0.045,-0.705 1.042,-0.809 1.382,-0.227c3.558,-0.498 7.114,-1.101 10.649,-1.826c3.603,-0.727 7.182,-1.973 10.853,-2.512c0.339,-0.064 0.612,0.269 0.657,0.602c0.838,6.954 2.288,13.869 4.168,20.634c0.409,1.434 0.816,2.887 1.269,4.318c0.341,1.104 1.065,2.473 1.043,3.635Z" style="fill:#ffc5c5;fill-rule:nonzero;"/><path d="M462.715,214.962c-1.2,1.704 -2.651,3.24 -4.373,4.402c-0.815,0.581 -1.722,1.059 -2.65,1.433c-0.907,0.351 -2.04,0.725 -3.059,0.643c-1.02,-0.082 -1.541,-1.06 -1.722,-1.994c-0.249,-1.038 -0.091,-2.139 0.453,-3.072c0.181,-0.354 0.589,-0.354 0.838,-0.166c2.107,-1.182 4.328,-1.993 6.684,-2.555c0.635,-0.143 1.246,-0.268 1.903,-0.372c0.453,-0.081 0.952,-0.229 1.428,-0.165c0.408,0.061 0.815,0.29 0.906,0.705c0.113,0.457 -0.159,0.808 -0.408,1.141Z" style="fill:#fff;fill-rule:nonzero;"/><path d="M472.118,204.794c-0.748,0.02 -1.473,0.269 -2.107,0.664c-1.496,1.323 -1.699,1.604 -1.722,1.948c-0.023,0.508 0.385,0.877 0.883,0.859c0.273,-0.011 0.567,-0.093 0.839,-0.181c0.544,-0.172 1.065,-0.451 1.495,-0.807c0.521,-0.43 0.929,-0.947 1.246,-1.554c0.227,-0.451 -0.158,-0.943 -0.634,-0.929Z" style="fill:#202b59;fill-rule:nonzero;"/><path d="M475.788,204.413c-0.612,-0.48 -1.359,-0.763 -2.129,-0.854c-0.771,-0.088 -1.541,-0.02 -2.266,0.227c-0.385,0.129 -0.725,0.292 -1.02,0.564c-0.249,0.238 -0.453,0.51 -0.657,0.802c0.68,-0.179 1.292,-0.349 1.858,-0.508c0.567,-0.149 1.133,-0.176 1.7,-0.086c0.589,0.093 1.11,0.308 1.608,0.621c0.385,0.247 0.929,0.723 0.815,1.248c1.315,-0.645 0.748,-1.509 0.091,-2.014Z" style="fill:#202b59;fill-rule:nonzero;"/><path d="M481.022,205.992c-0.113,0.458 -0.838,0.603 -0.974,0.064c-0.34,-1.214 -1.133,-2.302 -2.152,-3.052c-1.179,-0.881 -2.425,-0.745 -3.671,-1.307c0.227,-1.58 0.839,-2.037 1.609,-2.18c0.951,-0.188 1.88,0.084 2.628,0.664c0.815,0.643 1.427,1.597 1.926,2.513c0.543,0.994 0.974,2.156 0.634,3.298Z" style="fill:#202b59;fill-rule:nonzero;"/><path d="M512.357,225.072c-0.386,3.843 -1.473,7.66 -3.625,10.92c-1.541,2.368 -4.056,5.253 -6.956,5.919c-0.136,0.788 -0.317,1.556 -0.634,2.24c-1.609,3.51 -5.302,5.15 -7.998,7.64c-1.337,1.247 -2.04,3.011 -3.376,4.214c-1.382,1.204 -3.24,0.998 -4.826,0.313c-1.518,-0.666 -2.946,-1.93 -3.354,-3.591c-0.294,-1.142 -0.022,-2.429 0.839,-3.156c-0.748,-1.162 -1.02,-2.533 -0.544,-3.904c0.521,-1.556 1.79,-2.658 3.127,-3.53c0.181,-1.785 0.453,-3.487 0.521,-4.939c0.068,-1.869 0.113,-3.738 0.181,-5.628c-1.835,0.168 -3.489,-0.311 -4.577,-2.304c-1.45,-2.594 -0.566,-5.481 1.02,-7.722c-1.994,-2.243 2.13,-5.274 4.554,-6.582c-3.512,-2.159 -3.376,-7.057 -0.068,-9.237c-4.214,-1.828 -5.007,-7.848 -0.544,-10.422c0.544,-0.313 1.065,0.247 0.907,0.704c1.925,-0.996 4.78,-0.663 6.774,-0.165c4.441,1.122 7.499,4.275 10.717,7.327c2.945,2.783 6.163,5.275 7.114,9.405c0.929,4.008 1.11,8.388 0.748,12.498Z" style="fill:#202b59;fill-rule:nonzero;"/><path d="M497.653,228.6c-0,5.19 -4.215,9.398 -9.403,9.398c-5.189,-0 -9.403,-4.208 -9.403,-9.398c0,-5.189 4.214,-9.398 9.403,-9.398c5.188,-0 9.403,4.209 9.403,9.398Z" style="fill:#ffc5c5;fill-rule:nonzero;"/><path d="M531.661,273.259c-13.821,9.903 -30.927,15.86 -48.034,13.909c-4.576,-0.519 -9.13,-1.454 -13.594,-2.469c-3.217,-0.707 -6.457,-1.6 -9.221,-3.385c-7.114,-4.609 -5.664,-12.852 -9.312,-19.495c-0.181,-0.333 -0.249,-0.686 -0.181,-0.976c0.747,-0.934 1.087,-1.33 1.45,-1.681c3.398,1.869 9.878,-0.56 13.005,-1.682c4.531,-1.619 9.04,-3.321 13.503,-5.147c9.086,-3.698 18.013,-7.765 27.121,-11.378c7.907,-3.136 15.951,-5.959 24.221,-7.91c4.009,-0.933 8.065,-1.681 12.121,-2.159c1.473,-0.168 3.104,-0.562 4.373,0.394c1.042,0.788 1.563,2.472 1.971,3.655c5.234,15.32 -5.574,29.832 -17.423,38.324Z" style="fill:#aa80f9;fill-rule:nonzero;"/><path d="M488.181,226.749c0.794,-0.257 1.587,-0.417 2.289,-0.877c0.385,-0.256 0.295,-1.015 -0.226,-1.056c-0.476,-0.036 -0.839,-0.018 -1.292,0.104c-0.385,0.1 -0.748,0.202 -1.11,0.31c-0.771,0.232 -1.563,0.483 -2.334,0.762c-1.518,0.55 -3.036,1.192 -4.486,1.914c-0.702,0.352 -0.77,1.178 -0.091,1.609c2.289,1.466 4.849,2.501 7.477,3.177c1.065,0.274 1.383,-1.392 0.34,-1.67c-1.971,-0.519 -3.806,-1.292 -5.596,-2.241c0.952,-0.453 1.903,-0.884 2.877,-1.262c0.703,-0.277 1.428,-0.533 2.152,-0.77Z" style="fill:#ff88c4;fill-rule:nonzero;"/><path d="M529.553,305.706c0.046,2.887 -0.135,5.771 -0.566,8.637c-0.09,0.85 -0.226,1.681 -0.385,2.513c-1.405,7.993 -4.169,15.819 -6.979,23.271c-4.259,11.358 -9.47,22.36 -14.953,33.176c-5.121,10.069 -10.015,20.636 -16.585,29.853c-5.778,8.098 -14.161,15.115 -24.402,16.155c-5.415,0.557 -10.671,-0.999 -15.769,-2.701c-0.839,-0.292 -1.677,-0.58 -2.493,-0.893c-4.372,-1.597 -8.609,-3.55 -12.348,-6.332c-3.081,-2.304 -5.664,-5.15 -7.748,-8.304c-3.625,-5.42 -5.868,-11.791 -7.182,-18.144c-0.272,-1.35 -0.522,-2.721 -0.748,-4.089c-0.204,-1.04 -0.362,-2.078 -0.498,-3.116c-0.975,-6.579 -1.519,-13.309 -1.972,-19.972c-0.068,-1.058 -0.158,-2.116 -0.226,-3.156c-0.136,-2.18 -0.272,-4.339 -0.454,-6.478c-0.317,-4.545 -0.702,-9.112 -1.042,-13.68c0.318,0.125 0.657,0.249 0.975,0.353c0.453,0.125 0.906,0.229 1.314,0.311c0.498,0.104 0.974,0.168 1.405,0.251c2.537,0.435 5.143,0.372 7.68,0c5.415,-0.79 10.581,-2.825 15.475,-5.234c6.14,-2.988 12.144,-7.141 15.815,-12.81c1.382,4.962 2.832,9.904 4.395,14.845c0.498,1.579 1.042,3.116 1.54,4.692c0.567,-1.287 0.839,-2.098 1.111,-2.927c0.725,-2.222 1.427,-4.463 2.13,-6.706c2.243,-7.493 4.395,-15.052 7.182,-22.401c2.107,-5.502 4.622,-10.878 7.771,-15.86c0.204,-0.333 0.408,-0.664 0.657,-0.975c0.771,-1.205 1.586,-2.367 2.47,-3.509c0.589,-0.789 1.292,-1.64 2.107,-2.472c0.951,-0.995 2.062,-1.994 3.217,-2.844c0.272,-0.208 0.567,-0.394 0.839,-0.58c2.175,-1.434 4.531,-2.304 6.82,-1.912c5.755,-0.455 12.302,1.516 16.653,3.82c1.359,0.707 2.605,1.516 3.738,2.452c0.68,0.539 1.36,1.121 1.971,1.722c1.541,1.493 2.855,3.176 3.965,4.982c3.398,5.521 5.007,11.854 5.12,18.062Z" style="fill:#aa80f9;fill-rule:nonzero;"/><path d="M457.867,315.32c-3.671,5.666 -9.675,9.821 -15.815,12.81c-4.894,2.408 -10.06,4.441 -15.475,5.231c-2.537,0.374 -5.143,0.435 -7.68,0c-1.088,-0.188 -2.493,-0.414 -3.694,-0.913c-0.022,-0.521 1.337,-0.818 1.292,-1.357c-0.408,-5.213 -2.13,-10.662 -2.379,-15.896c-1.45,-2.368 -2.357,-5.13 -2.447,-8.243c-0.136,-3.632 -0.499,-6.4 -1.02,-10.035c-0.362,-2.263 -0.317,-4.227 -1.382,-5.949c-1.903,-0.707 -4.803,-3.036 -6.797,-3.431c-3.262,-0.623 -6.23,0.295 -8.768,-2.175c-2.175,-2.118 -2.538,-5.254 -0.793,-7.764c1.903,-2.699 5.188,-3.655 8.383,-3.342c3.761,0.374 7.59,1.846 11.079,3.342c2.152,0.913 4.237,1.93 6.185,3.176c0.409,0.123 0.839,0.29 1.247,0.458c-0.748,-0.895 -1.518,-1.745 -2.379,-2.515c-2.923,-2.615 -6.571,-5.012 -9.788,-7.173c-2.764,-1.826 -5.279,-3.308 -5.891,-6.673c-0.566,-2.927 0.408,-6.022 3.082,-7.556c1.132,-0.623 2.311,-0.976 3.511,-1.101c0.499,-2.948 3.399,-4.898 6.435,-5.191c3.829,-0.353 7.431,1.684 10.422,3.696c3.331,2.222 5.755,4.631 8.678,7.288c0.861,0.766 1.722,2.855 2.537,3.687c0.431,-1.772 -0.475,-3.977 -1.2,-5.306c-1.541,-2.805 -3.92,-5.751 -3.376,-9.197c0.453,-3.031 3.217,-3.904 5.936,-3.156c3.308,0.893 6.027,2.968 7.522,6.061c1.79,3.715 3.172,8.013 3.897,12.062c0.793,4.423 0.861,9.011 1.201,13.454c0.136,1.806 0.295,3.652 0.453,5.524c0.657,2.882 1.133,5.791 1.427,8.759c2.198,5.75 3.104,12.248 4.713,18.187c0.113,0.374 0.204,0.725 0.317,1.099c0.182,0.706 0.363,1.434 0.567,2.139Z" style="fill:#ffc5c5;fill-rule:nonzero;"/><path d="M432.377,281.54c-2.356,-4.835 -5.075,-9.527 -8.496,-13.66c-3.014,-3.632 -6.729,-6.976 -11.012,-8.99c-2.401,-1.122 -5.165,-1.743 -7.703,-0.705c-2.56,1.038 -3.965,3.487 -3.24,6.208c1.292,4.858 6.843,6.643 10.627,9.115c2.333,1.534 4.848,3.571 6.57,6.018c0.476,0.686 0.838,1.35 1.178,2.078c0.204,0.498 0.386,1.017 0.544,1.556c-0.567,-0.539 -0.997,-1.099 -1.473,-1.661c-0.884,-1.162 -1.812,-2.243 -2.855,-3.237c-0.702,-0.707 -1.472,-1.371 -2.333,-2.015c-2.56,-1.93 -5.483,-3.217 -8.225,-4.921c-3.67,-2.345 -7.567,-7.057 -4.894,-11.564c2.538,-4.318 8.157,-4.13 12.19,-2.324c9.81,4.381 16.041,14.344 20.527,23.624c0.453,0.872 -0.997,1.33 -1.405,0.478Z" style="fill:#fff;fill-rule:nonzero;"/><path d="M443.026,278.094c-3.217,-8.866 -8.021,-17.455 -15.86,-23.011c-3.466,-2.453 -7.952,-4.905 -12.325,-4.574c-3.444,0.258 -7.092,2.92 -6.435,6.716c0.068,0.462 0.703,0.426 0.725,-0.048c0.046,-2.078 1.427,-3.945 3.308,-4.772c2.175,-0.953 4.69,-0.5 6.843,0.27c3.625,1.307 6.91,3.469 9.742,6.065c5.823,5.363 9.561,12.573 12.235,19.941c0.408,1.121 2.175,0.532 1.767,-0.587Z" style="fill:#fff;fill-rule:nonzero;"/><path d="M457.912,314.334c-2.583,-10.019 -4.486,-20.181 -5.823,-30.438c-1.156,-8.904 -0.883,-18.531 -4.259,-26.977c-2.017,-5.037 -7.998,-13.049 -14.478,-9.831c-2.742,1.357 -2.697,4.699 -1.654,7.162c0.77,1.848 1.971,3.5 2.786,5.338c0.997,2.227 1.768,4.545 2.561,6.849c0.272,-3.281 -0.657,-6.26 -2.13,-9.108c-0.906,-1.77 -2.288,-3.546 -2.492,-5.581c-0.295,-3.312 2.945,-4.2 5.573,-3.466c7.93,2.225 9.969,13.057 10.785,19.963c0.906,7.755 1.382,15.518 2.651,23.237c1.291,7.862 2.991,15.634 5.098,23.316c0.249,0.911 1.608,0.44 1.382,-0.464Z" style="fill:#fff;fill-rule:nonzero;"/><path d="M418.081,332.092c0.181,1.371 -1.949,1.496 -2.153,0.127c-0.543,-3.967 -1.019,-7.973 -1.654,-11.917c-0.589,-3.634 -2.605,-6.645 -3.421,-10.194c-1.427,-6.248 0.114,-12.83 -1.79,-18.934c-0.113,-0.417 -0.271,-0.832 -0.43,-1.226c0.476,0.335 0.929,0.707 1.359,1.124c2.288,6.455 1.178,12.808 2.832,18.744c0.907,3.344 2.832,6.165 3.467,9.636c0.748,4.171 1.178,8.426 1.79,12.64Z" style="fill:#fff;fill-rule:nonzero;"/><path d="M420.301,281.604c-5.279,-2.493 -9.923,-4.235 -14.772,-5.255c-2.402,-0.496 -4.871,-0.87 -7.319,-0.933c-2.423,-0.061 -4.463,0.478 -5.46,2.907c-0.816,1.994 -1.427,4.962 0.317,6.643c1.496,1.414 4.033,1.287 5.959,1.434c3.558,0.27 6.82,1.452 9.607,3.548c0.476,0.335 0.929,0.707 1.359,1.124c-0.408,0.476 -0.679,0.29 -0.929,0.102c-1.858,-1.287 -3.919,-2.243 -6.117,-2.782c-2.22,-0.54 -4.441,-0.395 -6.661,-0.58c-3.557,-0.29 -6.14,-2.534 -5.959,-6.272c0.181,-3.362 1.767,-6.913 5.302,-7.597c1.903,-0.353 3.874,-0.124 5.755,0.102c2.243,0.252 4.463,0.666 6.638,1.226c2.946,0.747 5.778,1.745 8.496,2.991c0.884,0.394 1.745,0.808 2.606,1.264c0.476,0.686 0.838,1.35 1.178,2.078Z" style="fill:#fff;fill-rule:nonzero;"/><path d="M480.071,314.273c-0.93,0.874 -1.564,2.134 -2.266,3.21c-0.771,1.208 -1.473,2.445 -2.175,3.7c-1.382,2.504 -2.651,5.064 -3.83,7.67c-2.311,5.1 -4.304,10.338 -5.528,15.807c-0.113,0.447 0.612,0.707 0.771,0.261c1.857,-5.209 3.738,-10.42 6.072,-15.432c1.133,-2.431 2.356,-4.819 3.67,-7.157c0.702,-1.249 1.428,-2.474 2.153,-3.711c0.702,-1.199 1.631,-2.409 2.107,-3.714c0.227,-0.634 -0.476,-1.096 -0.974,-0.634Z" style="fill:#fff;fill-rule:nonzero;"/><path d="M477.76,352.989c-0.771,-1.595 -1.858,-3.063 -3.286,-4.112c-0.725,-0.517 -1.473,-0.913 -2.311,-1.187c-0.884,-0.293 -2.265,-0.216 -2.854,-1.024c-0.499,-0.666 -0.318,-1.967 -0.409,-2.753c-0.09,-0.757 -0.226,-1.459 -0.543,-2.146c-0.612,-1.223 -1.586,-2.234 -2.628,-3.106c-2.13,-1.817 -5.415,-3.317 -5.936,-6.387c-0.068,-0.349 -0.635,-0.458 -0.68,-0.043c-0.318,2.703 1.586,4.497 3.444,6.169c1.087,0.974 2.311,1.922 3.081,3.17c0.929,1.468 0.725,3.084 0.974,4.722c0.272,1.658 1.201,2.854 2.833,3.351c2.084,0.63 3.67,1.031 5.029,2.884c1.269,1.699 1.79,3.743 1.926,5.825c0.159,2.356 -0.317,4.806 0.159,7.128c0.158,0.695 1.178,0.65 1.449,0.091c1.768,-3.614 1.428,-9 -0.248,-12.582Z" style="fill:#fff;fill-rule:nonzero;"/><path d="M464.8,332.654c-0.544,2.346 -2.538,4.092 -4.237,5.649c-3.92,3.527 -8.383,6.269 -13.096,8.573c-5.121,2.554 -10.49,4.588 -15.883,6.562c-4.757,1.742 -11.011,4.026 -16.041,1.867c-2.696,-1.163 -2.764,-3.736 -2.674,-6.333c0.091,-2.864 -0.022,-5.707 -0.09,-8.573c-0.09,-4.4 -0.748,-9.385 0.385,-13.764c-0.227,-0.726 0.023,-1.577 0.635,-1.972c0.77,-1.683 2.061,-1.04 1.676,-0.147c6.888,1.434 13.775,-2.22 19.893,-5.003c3.422,-1.556 6.843,-3.156 10.173,-4.961c2.379,-1.267 4.758,-2.742 6.389,-4.922c1.156,-1.556 1.383,-4.524 3.467,-5.209c1.473,-0.478 2.719,0.519 3.308,1.806c1.337,2.907 1.79,6.58 2.606,9.675c0.77,3.072 1.563,6.124 2.356,9.196c0.634,2.368 1.677,5.066 1.133,7.556Z" style="fill:#aa80f9;fill-rule:nonzero;"/><path d="M528.987,314.343c-0.09,0.85 -0.226,1.681 -0.385,2.513c-0.612,-0.25 -1.246,-0.501 -1.881,-0.728c-4.803,-1.805 -9.81,-3.009 -14.84,-3.779c-1.133,-0.165 -2.243,-0.31 -3.376,-0.394c-4.123,-0.455 -8.247,-0.499 -12.394,-0.209c-5.052,0.354 -9.946,1.559 -14.93,2.182c-0.34,0.041 -0.521,-0.478 -0.227,-0.623c8.043,-4.005 18.33,-4.443 27.415,-3.611c1.178,0.102 2.357,0.247 3.512,0.394c5.483,0.705 11.51,2.032 17.106,4.255Z" style="fill:#fff;fill-rule:nonzero;"/><path d="M529.372,287.624c-1.473,0.188 -2.968,0.269 -4.463,0.292c-0.929,-0.562 -1.382,-0.811 -1.835,-1.081c-2.855,-1.579 -5.823,-2.927 -8.904,-4.026c-2.833,-1.04 -5.755,-1.851 -8.746,-2.431c-3.535,-0.684 -7.114,-0.997 -10.649,-0.954c-2.538,0.018 -5.052,0.206 -7.545,0.58c-5.596,0.811 -11.079,2.451 -16.222,4.898c-0.363,0.168 -0.748,0.333 -1.088,0.521c-0.77,0.374 -1.427,0.726 -2.107,1.099c-0.362,0.188 -0.725,0.397 -1.065,0.603c-0.929,-0.269 -0.974,-0.684 -0.634,-0.934c0.543,-0.394 1.065,-0.768 1.631,-1.141c0.317,-0.229 0.657,-0.435 0.997,-0.644c0.317,-0.229 0.657,-0.437 1.02,-0.623c6.298,-3.8 13.412,-5.959 20.685,-6.623c0.476,-0.043 0.952,-0.083 1.428,-0.102c4.531,-0.292 9.131,-0.022 13.594,0.789c4.147,0.745 8.179,1.948 12.054,3.548c0.997,0.394 1.971,0.829 2.945,1.267c1.518,0.704 2.991,1.475 4.441,2.283c1.473,0.852 2.99,1.725 4.463,2.679Z" style="fill:#fff;fill-rule:nonzero;"/><path d="M532.748,225.944c-0.295,-0.337 -0.952,-0.077 -0.996,0.345c-0.363,3.262 -2.425,4.755 -5.348,6.02c-3.444,1.506 -7.024,2.8 -10.535,4.198l-20.618,8.206c-6.865,2.735 -13.753,5.406 -20.596,8.243c-3.466,1.436 -6.932,2.871 -10.376,4.323c-1.451,0.602 -2.9,1.228 -4.396,1.624c-2.401,0.63 -4.418,0.424 -6.82,0.186c2.198,2.08 5.483,1.663 8.202,1.024c4.169,-0.983 8.18,-2.802 12.167,-4.327c8.519,-3.245 16.97,-6.677 25.421,-10.049c8.315,-3.31 16.63,-6.615 24.923,-9.926c2.832,-1.126 13.232,-5.088 8.972,-9.867Z" style="fill:#fff;fill-rule:nonzero;"/><path d="M284.042,462.658c-4.079,-0.727 -8.18,-1.538 -12.235,-2.347c-8.179,-1.62 -16.359,-3.342 -24.583,-4.733c-3.172,-0.539 -6.367,-0.954 -9.538,-1.348c-0.295,-2.803 -0.612,-5.628 -0.907,-8.431c-0.091,-0.747 -0.181,-1.475 -0.226,-2.22c14.636,0.872 29.227,2.345 43.727,4.422c0.952,0.123 1.881,0.268 2.81,0.415c0.363,3.861 0.634,7.724 0.838,11.585c0.046,0.892 0.068,1.765 0.114,2.657Z" style="fill:#fff;fill-rule:nonzero;"/><path d="M154.33,431.62c-1.405,0.728 -2.787,1.473 -4.169,2.221c-2.039,1.101 -4.033,2.245 -6.027,3.426c-1.45,-3.571 -2.877,-7.121 -4.327,-10.692c-3.534,-8.698 -7.137,-17.396 -10.672,-26.097c-0.929,-2.22 -1.812,-4.44 -2.719,-6.663c2.901,-1.226 5.801,-2.427 8.724,-3.594c2.718,6.229 5.482,12.417 8.337,18.604c3.512,7.661 7.114,15.26 10.853,22.795Z" style="fill:#fff;fill-rule:nonzero;"/><path d="M144.134,437.267c-5.324,3.115 -10.603,6.416 -16.064,9.26c-6.185,-1.577 -12.484,-2.719 -18.828,-3.345c-1.065,-0.104 -2.197,-0.061 -3.24,-0.29c-1.54,-0.33 -2.175,-1.266 -2.922,-2.655c-1.111,-2.098 -1.949,-4.402 -2.901,-6.562c-1.948,-4.4 -3.874,-8.781 -5.799,-13.161c-1.949,-4.382 -3.875,-8.762 -5.823,-13.143c-0.974,-2.18 -1.926,-4.378 -2.901,-6.56c-0.407,-0.933 -0.838,-1.869 -1.246,-2.823c-0.589,-1.327 -1.133,-1.95 -0.453,-3.197c1.767,-3.26 3.806,-6.228 5.189,-9.695c1.381,-3.428 2.356,-6.976 2.968,-10.61c0.203,-1.203 0.362,-2.429 0.453,-3.632c2.492,2.076 4.871,4.359 7.114,6.768c0.771,0.831 1.496,1.64 2.198,2.429c0.929,1.058 1.835,2.116 2.719,3.197c1.042,1.246 2.039,2.492 3.036,3.759c0.566,0.724 1.11,1.431 1.676,2.136c1.224,1.04 2.017,1.767 2.787,2.533c0.386,0.353 0.725,0.727 1.11,1.121c1.269,0.418 2.334,0.479 3.286,0.665c1.065,0.208 1.789,0.373 2.515,0.541c1.405,0.31 2.832,0.664 4.282,1.119c1.042,-0.435 2.084,-0.872 3.126,-1.307c0.907,2.223 1.79,4.443 2.719,6.663c3.535,8.701 7.138,17.399 10.672,26.097c1.45,3.571 2.877,7.121 4.327,10.692Z" style="fill:#202b59;fill-rule:nonzero;"/><path d="M219.061,476.486c-1.336,-4.402 -3.013,-8.637 -5.03,-12.729c1.088,0.252 2.176,0.499 3.24,0.705c1.926,3.53 3.467,7.248 4.623,11.068c0.543,1.826 -2.266,2.782 -2.833,0.956Z" style="fill:#fff;fill-rule:nonzero;"/><path d="M233.607,478.144c-0.204,0.623 -0.725,0.893 -1.291,1.02c-1.292,0.247 -1.926,-0.977 -2.289,-1.953c-0.362,-0.936 -0.747,-1.849 -1.155,-2.742c-0.838,-1.764 -1.813,-3.464 -2.878,-5.104c-0.929,-1.455 -1.88,-2.887 -2.923,-4.237c1.066,0.023 2.108,-0.061 3.127,-0.249c0.567,0.666 1.133,1.327 1.631,2.014c1.111,1.577 2.13,3.238 3.037,4.941c0.475,0.85 0.906,1.722 1.291,2.617c0.227,0.456 0.431,0.911 0.634,1.369c0.861,1.078 0.975,1.808 0.816,2.324Z" style="fill:#fff;fill-rule:nonzero;"/><path d="M243.621,474.802c-2.311,-3.507 -4.803,-6.831 -7.862,-9.735c-1.064,-0.997 -2.175,-1.974 -3.353,-2.866c0.816,-0.621 1.246,-1.018 1.654,-1.412c1.065,0.832 2.13,1.704 3.127,2.615c3.195,2.95 6.163,6.332 8.338,10.132c0.725,1.246 -1.088,2.513 -1.904,1.266Z" style="fill:#fff;fill-rule:nonzero;"/><path d="M104.598,383.25c-0.181,1.16 -0.431,2.302 -0.771,3.362c-0.634,1.91 -1.427,3.716 -2.537,5.42c-0.544,0.829 -1.111,1.66 -1.744,2.426c-0.635,0.768 -1.383,1.747 -2.289,2.223c-1.767,0.954 -3.353,-0.954 -2.266,-2.574c0.521,-0.748 1.337,-1.371 1.949,-2.075c0.543,-0.644 1.064,-1.307 1.54,-2.035c0.907,-1.393 1.655,-2.95 2.176,-4.527c0.566,-1.701 0.951,-3.426 1.2,-5.211c0.952,0.852 1.858,1.91 2.742,2.991Z" style="fill:#fff;fill-rule:nonzero;"/><path d="M112.097,391.676c-0.023,0.687 -0.09,1.393 -0.181,2.078c-0.227,2.179 -0.589,4.318 -1.201,6.396c-0.272,0.931 -0.543,1.846 -0.884,2.759c-0.43,1.102 -1.2,1.598 -2.039,2.386c-0.226,0.231 -0.702,0.147 -0.725,-0.247c0,-0.956 -0.271,-1.869 0.023,-2.802c0.295,-0.954 0.634,-1.87 0.907,-2.823c0.543,-1.892 0.974,-3.823 1.291,-5.753c0.204,-1.389 0.34,-2.782 0.408,-4.171c0.838,0.684 1.631,1.411 2.401,2.177Z" style="fill:#fff;fill-rule:nonzero;"/><path d="M120.798,413.828c-0.114,1.559 -2.516,1.081 -2.38,-0.476c0.363,-4.235 0.25,-8.51 -0.226,-12.726c-0.272,-2.388 -0.748,-4.734 -1.314,-7.078c0.68,0.122 1.404,0.29 2.13,0.455c1.88,6.394 2.333,13.266 1.79,19.825Z" style="fill:#fff;fill-rule:nonzero;"/><path d="M128.07,446.527c-6.593,3.425 -13.458,6.208 -21.071,7.309c-6.661,0.974 -6.91,-3.073 -10.059,-8.97c-4.713,-8.948 -9.177,-18.022 -13.368,-27.239c-1.087,-2.408 -2.152,-4.837 -3.218,-7.266c-6.797,-15.737 -12.778,-31.846 -17.898,-48.205c-0.227,-0.727 0.272,-1.454 1.019,-1.516c6.163,-0.645 11.737,0.392 16.879,2.574c4.419,1.826 8.452,4.504 12.213,7.64c-0.091,1.203 -0.25,2.429 -0.453,3.632c-0.612,3.634 -1.587,7.182 -2.968,10.61c-1.383,3.467 -3.422,6.435 -5.189,9.695c-0.68,1.247 -0.136,1.87 0.453,3.197c0.408,0.954 0.839,1.89 1.246,2.823c0.975,2.182 1.927,4.38 2.901,6.56c1.948,4.381 3.874,8.761 5.823,13.143c1.925,4.38 3.851,8.761 5.799,13.161c0.952,2.16 1.79,4.464 2.901,6.562c0.747,1.389 1.382,2.325 2.922,2.655c1.043,0.229 2.175,0.186 3.24,0.29c6.344,0.626 12.643,1.768 18.828,3.345Z" style="fill:#fff;fill-rule:nonzero;"/><path d="M284.472,487.28c-0.091,8.492 -0.476,16.981 -1.201,25.473c-0.045,0.748 -0.838,1.038 -1.472,0.997c-16.676,-1.122 -33.419,-2.907 -49.8,-6.188c-13.074,-2.637 -26.079,-6.457 -37.951,-12.642c-7.183,-3.736 -26.531,-13.93 -18.262,-24.581c3.512,-4.547 10.694,-6.29 15.996,-7.307c3.172,-0.603 6.366,-0.895 9.539,-0.874c2.605,3.573 4.531,7.642 5.664,12.001c0.883,3.446 1.224,7.037 0.997,10.588c-0.136,1.991 -1.156,4.982 0.091,6.747c1.246,1.763 4.758,2.18 6.683,2.741c9.516,2.783 19.191,5.003 28.979,6.664c4.735,0.809 9.493,1.473 14.228,2.014c2.448,0.27 5.053,0.768 7.477,0.539c2.674,-0.249 4.486,-2.075 6.322,-3.84c4.259,-4.11 8.496,-8.222 12.71,-12.332Z" style="fill:#fff;fill-rule:nonzero;"/><path d="M382.26,202.983c-0.295,2.783 -0.657,5.586 -0.974,8.368c-0.431,3.632 0.045,10.13 -3.807,10.814c-1.858,0.335 -3.851,-0.476 -5.664,-0.684c-2.243,-0.27 -4.509,-0.351 -6.752,-0.333c-4.508,0.022 -8.994,0.603 -13.48,1.017c-4.26,0.376 -8.95,0.872 -13.164,-0.122c-1.36,-0.311 -2.696,-1.185 -2.991,-2.991c-0.294,-1.933 0.906,-3.985 1.45,-5.689c1.722,-5.377 2.062,-10.962 1.722,-16.692c-0.045,-0.6 0.34,-1.015 0.747,-1.121c0.136,-0.641 0.544,-1.14 1.224,-1.162c10.309,-0.209 20.776,-0.995 31.063,-0.268c2.175,0.163 4.372,0.476 6.503,1.224c1.291,0.435 2.922,0.892 3.76,2.326c0.907,1.557 0.567,3.569 0.363,5.313Z" style="fill:#aa80f9;fill-rule:nonzero;"/><path d="M397.327,219.197c-0.317,-0.104 -0.657,-0.197 -0.997,-0.276l-63.055,-14.467c-5.46,-1.253 -11.578,1.525 -13.662,6.206l-16.449,36.845c-1.744,3.91 -0.091,7.903 3.671,9.846c0.249,3.286 2.764,6.116 6.774,7.033l61.65,13.393c5.483,1.253 11.736,-1.153 13.979,-6.159l15.316,-38.342c2.81,-6.416 -1.767,-12.826 -7.227,-14.079Z" style="fill:#fff;fill-rule:nonzero;"/><path d="M411.306,305.432l-19.893,-27.198c-2.514,-3.455 -8.994,-7.27 -14.455,-8.525l-63.054,-14.467c-5.461,-1.253 -10.196,4.189 -7.681,7.645c0.158,0.31 0.34,0.616 0.589,0.944l19.893,27.196c2.537,3.455 9.018,7.272 14.478,8.526l63.032,14.468c0.702,0.157 1.336,0.267 1.925,0.329c1.292,0.294 2.379,0.14 3.286,-0.302c2.968,-1.477 3.806,-5.988 1.88,-8.616Z" style="fill:#fff;fill-rule:nonzero;"/><path d="M354.89,241.541c-1.45,3.306 -5.188,5.277 -8.338,4.403c-3.149,-0.875 -4.531,-4.262 -3.081,-7.568c1.473,-3.303 5.211,-5.275 8.36,-4.4c3.15,0.875 4.509,4.26 3.059,7.565Z" style="fill:#36bfe3;fill-rule:nonzero;"/><path d="M406.639,227.032c-1.314,-7.674 -9.357,-9.197 -15.747,-10.54c-9.652,-2.021 -19.122,-4.745 -28.615,-7.303c-5.144,-1.382 -10.287,-2.718 -15.475,-3.865c-5.098,-1.121 -10.74,-2.164 -15.974,-1.724c7.794,3.251 16.291,4.429 24.379,6.505c8.451,2.168 16.812,4.644 25.263,6.747c3.988,0.995 8.02,1.856 12.053,2.664c3.331,0.671 7.206,1.419 9.743,3.884c3.58,3.496 2.13,8.8 0.318,12.79c-1.745,3.908 -3.626,7.73 -5.189,11.72c-1.677,4.28 -3.285,8.614 -4.667,13.001c-1.45,4.563 -2.538,9.96 -5.914,13.56c-0.431,0.478 0.249,1.258 0.77,0.866c3.218,-2.361 4.238,-6.141 5.642,-9.695c1.767,-4.491 3.376,-9.04 5.052,-13.561c1.745,-4.642 3.717,-9.158 5.846,-13.635c1.677,-3.55 3.195,-7.413 2.515,-11.414Z" style="fill:#aa80f9;fill-rule:nonzero;"/><path d="M326.252,113.604c-1.36,-0.773 -2.674,-1.589 -3.965,-2.465c-1.269,-0.868 -2.515,-1.783 -3.739,-2.717c-0.657,-0.512 -1.314,-1.035 -1.971,-1.575c-0.158,-0.131 -0.43,-0.331 -0.702,-0.539c0.408,-0.315 0.793,-0.632 1.178,-0.947c0.861,-0.693 1.722,-1.387 2.583,-2.078c1.654,-1.336 3.285,-2.677 4.916,-4.032c1.11,-0.918 8.587,-6.1 6.729,-7.79c-1.223,-1.101 -3.556,0.82 -4.554,1.468c-1.835,1.194 -3.579,2.56 -5.369,3.843c-1.79,1.287 -3.557,2.599 -5.325,3.908l-2.855,2.116c-0.792,0.594 -1.699,1.151 -2.152,2.064c-1.155,2.212 0.657,3.848 2.152,5.227c1.496,1.346 3.014,2.626 4.623,3.809c1.653,1.217 3.375,2.356 5.12,3.435c1.699,1.047 3.671,2.494 5.664,2.88c2.334,0.453 3.694,-2.54 1.972,-4.104c-1.178,-1.085 -2.923,-1.699 -4.305,-2.503Z" style="fill:#fff;fill-rule:nonzero;"/><path d="M351.016,87.26c-1.767,2.398 -2.674,5.658 -3.693,8.431c-1.11,3.075 -2.266,6.145 -3.331,9.233c-1.019,2.884 -1.971,5.791 -2.741,8.75c-0.771,2.925 -1.699,6.256 -1.541,9.301c0.113,1.984 2.923,2.052 3.376,0.215c0.747,-3.004 0.974,-6.131 1.767,-9.151c0.77,-2.875 1.699,-5.698 2.697,-8.504c0.996,-2.766 2.016,-5.523 3.013,-8.283c1.02,-2.775 2.515,-5.936 2.719,-8.895c0.09,-1.142 -1.405,-2.273 -2.266,-1.097Z" style="fill:#fff;fill-rule:nonzero;"/><path d="M379.768,105.332c-3.308,-2.54 -6.48,-5.254 -9.697,-7.921c-3.15,-2.599 -6.163,-5.377 -9.63,-7.538c-0.793,-0.496 -1.54,0.607 -1.11,1.289c2.152,3.534 5.166,6.435 8.157,9.26c2.31,2.195 4.826,4.218 7.341,6.201c-2.379,1.366 -4.713,2.764 -6.979,4.341c-1.428,1.006 -2.855,2.046 -4.237,3.12c-1.495,1.156 -3.285,2.318 -4.486,3.779c-1.563,1.913 0.771,4.371 2.832,3.17c1.473,-0.868 2.764,-2.202 4.124,-3.26c1.472,-1.136 2.945,-2.232 4.463,-3.295c2.923,-2.066 5.914,-4.114 9.04,-5.897c1.133,-0.639 1.201,-2.479 0.182,-3.249Z" style="fill:#fff;fill-rule:nonzero;"/><path d="M144.769,136.229c-1.767,-0 -1.586,2.721 0.158,2.721c1.767,0 1.587,-2.721 -0.158,-2.721Z" style="fill:#fff;fill-rule:nonzero;"/><path d="M77.137,298.975c-0.86,-0 -0.77,1.359 0.091,1.359c0.883,0 0.793,-1.359 -0.091,-1.359Z" style="fill:#fff;fill-rule:nonzero;"/><path d="M73.218,289.012c-0.521,0 -0.476,0.828 0.068,0.828c0.521,-0 0.475,-0.828 -0.068,-0.828Z" style="fill:#fff;fill-rule:nonzero;"/><path d="M295.37,114.415c-0.204,-0.625 -0.566,-1.153 -1.065,-1.588c-0.249,-0.17 -0.521,-0.34 -0.77,-0.51c-0.567,-0.27 -1.178,-0.388 -1.79,-0.351c-0.498,0.013 -0.951,0.145 -1.359,0.396c-0.454,0.177 -0.839,0.462 -1.156,0.854c-0.317,0.354 -0.543,0.759 -0.657,1.219c-0.181,0.429 -0.249,0.879 -0.204,1.355c0.068,0.306 0.113,0.612 0.181,0.916c0.205,0.625 0.567,1.155 1.065,1.588c0.272,0.17 0.521,0.34 0.794,0.51c0.566,0.271 1.155,0.389 1.789,0.351c0.476,-0.014 0.929,-0.143 1.337,-0.395c0.476,-0.178 0.839,-0.462 1.155,-0.854c0.34,-0.353 0.544,-0.761 0.658,-1.219c0.181,-0.43 0.249,-0.881 0.204,-1.357c-0.046,-0.303 -0.114,-0.609 -0.182,-0.915Z" style="fill:#fff;fill-rule:nonzero;"/><path d="M280.892,107.436c-1.359,0 -1.223,2.089 0.114,2.089c1.359,0 1.223,-2.089 -0.114,-2.089Z" style="fill:#fff;fill-rule:nonzero;"/><path d="M403.58,91.466c-0.181,-0.528 -0.634,-0.929 -1.178,-1.036c-0.544,-0.106 -1.11,0.093 -1.473,0.514c-0.362,0.413 -0.476,0.995 -0.294,1.512c3.013,0.104 3.126,-0.476 2.945,-0.99Z" style="fill:#fff;fill-rule:nonzero;"/><path d="M391.844,124.443c-0.725,-0 -0.657,1.117 0.068,1.117c0.725,-0 0.657,-1.117 -0.068,-1.117Z" style="fill:#fff;fill-rule:nonzero;"/><path d="M479.844,137.57c-3.081,0 -2.764,4.758 0.295,4.758c3.081,0 2.764,-4.758 -0.295,-4.758Z" style="fill:#fff;fill-rule:nonzero;"/><path d="M456.326,152.329c-1.292,0 -1.155,1.989 0.136,1.989c1.269,0 1.132,-1.989 -0.136,-1.989Z" style="fill:#fff;fill-rule:nonzero;"/><path d="M450.662,119.291c-4.328,-0 -3.874,6.702 0.43,6.702c4.327,-0 3.874,-6.702 -0.43,-6.702Z" style="fill:#fff;fill-rule:nonzero;"/><path d="M223.502,95.528c-0.476,-0 -0.431,0.729 0.046,0.729c0.475,0 0.407,-0.729 -0.046,-0.729Z" style="fill:#fff;fill-rule:nonzero;"/><path d="M136.567,355.846c-0.476,1.709 0.068,1.536 0.181,0.993c0.136,-0.535 0.023,-0.823 -0.181,-0.993Z" style="fill:#fff;fill-rule:nonzero;"/><path d="M156.618,355.715c-0.77,-0 -0.679,1.167 0.069,1.167c0.747,-0 0.679,-1.167 -0.069,-1.167Z" style="fill:#fff;fill-rule:nonzero;"/><path d="M108.631,362.034c-0.725,-0 -0.657,1.117 0.067,1.117c0.726,-0 0.635,-1.117 -0.067,-1.117Z" style="fill:#fff;fill-rule:nonzero;"/></svg>